<svg xmlns="http://www.w3.org/2000/svg" xmlns:xlink="http://www.w3.org/1999/xlink" width="300" height="133.72" viewBox="0 0 300 133.72"><defs><style>.cls-1{fill:#603813;}.cls-2{fill:url(#linear-gradient);}.cls-3{fill:red;}.cls-4{fill:#c1272d;}.cls-5{opacity:0.25;}</style><linearGradient id="linear-gradient" x1="7.42" y1="62.8" x2="292.58" y2="62.8" gradientUnits="userSpaceOnUse"><stop offset="0.14" stop-color="#a67c52"/><stop offset="1" stop-color="#754c24"/></linearGradient></defs><g id="Layer_1" data-name="Layer 1"><g id="_2_life_bar" data-name="2 life bar"><path class="cls-1" d="M298.83,133.72H0V112.49l11.36-14L0,88.55.78,47.89l7.44-7.23L0,33.62V0L300,2.26l-1.17,15.66L293,25.3l5.88,6.32V76.1L287.08,87.64,298.83,97.9Z"/><path class="cls-2" d="M291.47,125.59H7.42V105.65L18.21,92.5,7.42,83.16Q7.8,64.07,8.16,45l7.08-6.78L7.42,31.57V0L292.58,2.12l-1.11,14.71-5.59,6.93,5.59,5.94V71.47L280.3,82.31l11.17,9.63Z"/><path class="cls-3" d="M58.53,95.38,30.41,67.26C8,44.81,36.08,16.69,58.53,39.14,80.82,16.85,108.94,45,86.65,67.26Z"/><path class="cls-4" d="M58.45,98.35,30.32,70.23C7.88,47.78,36,19.66,58.45,42.11c22.28-22.29,50.41,5.83,28.12,28.12Z"/><path class="cls-3" d="M33.26,69c-.52-.27-7.46-4-8.29-12.12-.78-7.6,4.48-12.52,5-13a23.74,23.74,0,0,0-2.21,11.29A24,24,0,0,0,33.26,69Z"/></g><g class="cls-5"><path d="M243.4,98.32,215.28,70.2C192.83,47.75,221,19.63,243.4,42.08c22.29-22.29,50.41,5.83,28.12,28.12Z"/><path d="M243.32,101.29,215.2,73.17c-22.45-22.45,5.67-50.57,28.12-28.12,22.29-22.29,50.41,5.83,28.12,28.12Z"/><path d="M218.14,71.92c-.52-.27-7.47-4-8.3-12.12a16.1,16.1,0,0,1,5-13,23.69,23.69,0,0,0-2.22,11.29A24,24,0,0,0,218.14,71.92Z"/></g><g class="cls-5"><path d="M150.47,99.59,122.35,71.47C99.9,49,128,20.9,150.47,43.35c22.29-22.29,50.41,5.83,28.12,28.12Z"/><path d="M150.39,102.56,122.26,74.44C99.82,52,127.94,23.87,150.39,46.31,172.67,24,200.8,52.15,178.51,74.44Z"/><path d="M125.21,73.19c-.53-.27-7.47-4-8.3-12.12a16.14,16.14,0,0,1,5-13,23.68,23.68,0,0,0-2.21,11.29A24,24,0,0,0,125.21,73.19Z"/></g></g></svg>