<svg xmlns="http://www.w3.org/2000/svg" xmlns:xlink="http://www.w3.org/1999/xlink" width="300" height="133.72" viewBox="0 0 300 133.72"><defs><style>.cls-1{fill:#603813;}.cls-2{fill:url(#linear-gradient);}.cls-3{fill:red;}.cls-4{fill:#c1272d;}</style><linearGradient id="linear-gradient" x1="7.42" y1="62.8" x2="292.58" y2="62.8" gradientUnits="userSpaceOnUse"><stop offset="0.14" stop-color="#a67c52"/><stop offset="1" stop-color="#754c24"/></linearGradient></defs><g id="Layer_1" data-name="Layer 1"><g id="Full_life_bar" data-name="Full life bar"><path class="cls-1" d="M298.83,133.72H0V112.49l11.36-14L0,88.55.78,47.89l7.44-7.23L0,33.62V0L300,2.26l-1.17,15.66L293,25.3l5.88,6.32V76.1L287.08,87.64,298.83,97.9Z"/><path class="cls-2" d="M291.47,125.59H7.42V105.65L18.21,92.5,7.42,83.16Q7.8,64.07,8.16,45l7.08-6.78L7.42,31.57V0L292.58,2.12l-1.11,14.71-5.59,6.93,5.59,5.94V71.47L280.3,82.31l11.17,9.63Z"/><path class="cls-3" d="M58.53,95.38,30.41,67.26C8,44.81,36.08,16.69,58.53,39.14,80.82,16.85,108.94,45,86.65,67.26Z"/><path class="cls-3" d="M147.35,98.3,119.23,70.17C96.78,47.73,124.9,19.6,147.35,42.05c22.29-22.28,50.41,5.84,28.12,28.12Z"/><path class="cls-3" d="M243.13,99.78,215,71.66c-22.45-22.45,5.67-50.58,28.12-28.13,22.29-22.28,50.41,5.84,28.12,28.13Z"/><path class="cls-4" d="M58.45,98.35,30.32,70.23C7.88,47.78,36,19.66,58.45,42.11c22.28-22.29,50.41,5.83,28.12,28.12Z"/><path class="cls-4" d="M147.27,101.27,119.15,73.14C96.7,50.7,124.82,22.57,147.27,45c22.29-22.29,50.41,5.84,28.12,28.12Z"/><path class="cls-4" d="M243.05,102.75,214.92,74.62c-22.44-22.44,5.68-50.57,28.13-28.12,22.28-22.28,50.41,5.84,28.12,28.12Z"/><path class="cls-3" d="M33.26,69c-.52-.27-7.46-4-8.29-12.12-.78-7.6,4.48-12.52,5-13a23.74,23.74,0,0,0-2.21,11.29A24,24,0,0,0,33.26,69Z"/><path class="cls-3" d="M124.39,73.17c-.53-.27-7.47-4-8.3-12.12a16.12,16.12,0,0,1,5-13,23.6,23.6,0,0,0-2.22,11.29A23.93,23.93,0,0,0,124.39,73.17Z"/><path class="cls-3" d="M219.6,73.37c-.52-.27-7.47-4-8.3-12.12a16.12,16.12,0,0,1,5-13,23.47,23.47,0,0,0,3.26,25.15Z"/></g></g></svg>