<svg xmlns="http://www.w3.org/2000/svg" xmlns:xlink="http://www.w3.org/1999/xlink" width="1920" height="1080" viewBox="0 0 1920 1080"><defs><style>.cls-1{fill:none;}.cls-2{clip-path:url(#clip-path);}.cls-3{fill:url(#linear-gradient);}.cls-4{fill:#6cbe5f;stroke:#077f00;stroke-miterlimit:10;}.cls-30,.cls-5{fill:#fff;}.cls-6{fill:#8cd671;}.cls-10,.cls-7,.cls-8{fill:#009245;}.cls-14,.cls-15,.cls-7{opacity:0.5;}.cls-8{opacity:0.2;}.cls-14,.cls-26,.cls-9{fill:#39b54a;}.cls-11,.cls-15,.cls-16{fill:#006837;}.cls-11{opacity:0.75;}.cls-12{fill:#84be5f;}.cls-13{fill:#92be5f;}.cls-17{fill:#8cc63f;}.cls-18{fill:#8cc63e;}.cls-19{fill:#754c24;}.cls-20{fill:#42210b;}.cls-21{fill:#a67c52;}.cls-22{fill:#8c6239;}.cls-23{opacity:0.28;}.cls-24{fill:#603813;}.cls-25{fill:url(#linear-gradient-2);}.cls-26{opacity:0.38;}.cls-27,.cls-31,.cls-34{fill:#ed1c24;}.cls-28{fill:#c1272d;}.cls-29{fill:#8d272d;}.cls-30{opacity:0.3;}.cls-31{opacity:0.84;}.cls-32{opacity:0.27;}.cls-33{fill:url(#linear-gradient-3);}.cls-34{opacity:0.7;}</style><clipPath id="clip-path"><rect class="cls-1" y="-2" width="1931" height="1084"/></clipPath><linearGradient id="linear-gradient" x1="961" y1="358.2" x2="961" y2="-153.3" gradientUnits="userSpaceOnUse"><stop offset="0" stop-color="#fceeaf"/><stop offset="0.05" stop-color="#f5ecb8"/><stop offset="0.12" stop-color="#e1e6d2"/><stop offset="0.21" stop-color="#c8dff3"/><stop offset="0.25" stop-color="#bedbf1"/><stop offset="0.32" stop-color="#a2d0ed"/><stop offset="0.42" stop-color="#74bee5"/><stop offset="0.53" stop-color="#36a5db"/><stop offset="0.57" stop-color="#1e9cd7"/><stop offset="0.87" stop-color="#0075be"/><stop offset="0.99" stop-color="#005b97"/></linearGradient><linearGradient id="linear-gradient-2" x1="1541.18" y1="477.98" x2="1763.5" y2="477.98" gradientUnits="userSpaceOnUse"><stop offset="0" stop-color="#39b54a"/><stop offset="0.21" stop-color="#32ac48"/><stop offset="0.55" stop-color="#1f9241"/><stop offset="0.98" stop-color="#016937"/><stop offset="0.99" stop-color="#006837"/></linearGradient><linearGradient id="linear-gradient-3" x1="1234.41" y1="324.01" x2="1382" y2="324.01" gradientUnits="userSpaceOnUse"><stop offset="0.49" stop-color="#39b54a"/><stop offset="0.57" stop-color="#30af49"/><stop offset="0.72" stop-color="#16a047"/><stop offset="0.82" stop-color="#009245"/></linearGradient></defs><g id="Layer_4" data-name="Layer 4"><g class="cls-2"><rect class="cls-3" y="-29" width="1922" height="490"/><path class="cls-4" d="M49.7,479.85a115.92,115.92,0,0,1,10.09-10.61,106.51,106.51,0,0,1,21.91-15c103.82-55.14,207.43,109.32,357.67,79.51,53.42-10.6,75-38.26,130.31-29.07,51.52,8.54,62.84,37.47,106.21,55.15,85.57,34.88,152.1-32.64,257.64-52.36,64.23-12,156.81-8.91,279.85,58.84,38.49,19.22,103,45.25,183.16,44.9,180.52-.78,258.89-134.75,404.64-107.24,71.82,13.55,132,61,165.94,109.9,94.29,135.78,50.85,375.59-60.12,502-163,185.73-399.72,44.78-1048.16,70.6C323.58,1207.79,148.56,1317.23,25,1179-162.18,969.55,38.28,493.75,49.7,479.85Z"/><g id="Hillow"><g id="Clouds"><path class="cls-5" d="M1180.74,218.11c-3.4,21.54-45.45,35.44-66.39,39.85a139.66,139.66,0,0,1-49.62,1.43c-28.25,16-61.89,11.46-72.81-3-11.69-15.46.64-45,34.67-57.22,10.62-21.59,34.08-38.4,60.75-43,34.53-6,69.32,9.26,79.88,37.41C1182,205,1181.23,215,1180.74,218.11Z"/><path class="cls-5" d="M255.61,298.79c-6.58,19.7-37.69,22.34-52.68,21.25a74.8,74.8,0,0,1-33.72-11.18c-22.24,8.16-44-4.72-48.47-21.25-4.8-17.71,9.39-42.75,34.77-45.85C167,223.84,186.13,213.72,205,216,229.5,219,249.9,242.4,251.4,272,259.07,286.56,256.57,295.93,255.61,298.79Z"/><path class="cls-5" d="M1748.9,302c-4.87,25-57.76,42.21-84,47.87a188.7,188.7,0,0,1-62,2.95c-35.73,19.3-77.6,14.87-90.8-1.55-14.15-17.58,2.09-52.06,44.93-67.14,13.89-25.27,43.66-45.35,77.1-51.42,43.27-7.86,86.26,8.91,98.63,41.24C1750.82,286.76,1749.6,298.37,1748.9,302Z"/><path class="cls-5" d="M275.71,243.47c-13.08-33.12,8.36-80.13,41.8-85.62,20.7-3.4,39,10.25,45,15.16,16.68-22.22,44.4-33.24,70.6-28.34,18.77,3.51,41,16,46.93,35.69,11.65,38.51-47.28,76.25-55.14,81.28C414.23,268.48,366.9,298.8,319,281,312.27,278.42,285.57,268.46,275.71,243.47Z"/><path class="cls-5" d="M1495.61,306.49c-16.7,19.95-71.93,11.68-97.94,5a183,183,0,0,1-56.21-24.88c-41.13,1.21-75.92-21.26-79.45-41.62-3.78-21.81,27.64-45.06,73-39.39,24.79-16.17,61-20.7,93.58-11.24,42.12,12.25,71.78,46.13,66.69,80.16C1504.87,293.88,1498,303.6,1495.61,306.49Z"/><path class="cls-5" d="M580.16,309c-11,5.9-42.24-16.9-54-46.75a83.81,83.81,0,0,1-4.59-43c-21.83-20.15-17.94-50.91-.34-64.58,18.85-14.64,56.77-12.26,74.16,14,27.84,3.14,50.38,18.88,57.73,40.91.84,2.49,9.55,26.5-1.89,38.44-15,15.68-47.17-7.68-63.05,7.13C572.65,269.57,591.66,302.77,580.16,309Z"/><path class="cls-5" d="M819,141c14.32-3.39,26.59,7.15,37,16.09s22,18.9,20,32.16c-1.5,9.89-10.13,18.28-21.67,23a25.39,25.39,0,0,1-7.84,1.82l-19.24,1.4a27.26,27.26,0,0,0-5.94,1.15c-22.93,7.07-43.39-4.28-46.31-17-1.93-8.38,3.43-18.83,13.58-26.31A24.15,24.15,0,0,0,797,162.56C801.11,151.7,809,143.32,819,141Z"/></g><path class="cls-6" d="M43.5,369c69.66-40,100-13.56,221-43.35,145.45-35.81,178.09-97.43,253-79.89,67.87,15.89,78.51,73.53,130,69.69,58.73-4.37,64.59-80.81,125-88.39,66.56-8.35,99.09,79.46,173,73.95,59-4.41,60.39-62,127-75.65,71.37-14.57,96.06,46.25,215,67.15,113.53,19.94,142.34-26.37,221,5.1,80.57,32.23,79,92.41,148,101.14,58.71,7.43,75.77-34.18,144-29.75,61.75,4,115.9,42.51,142,81.59h0s45.84,65,34,147.76c-18.85,131.72-2027.38,181.31-2055-71C-83.72,479.71-19.82,405.38,43.5,369Z"/><path class="cls-7" d="M1295.5,553.91c-.15-.45,30.68-1.46,47-22.71,8.71-11.33,7-20.27,18-27.43,11.75-7.66,28.94-7.39,31-2.84,1.73,3.83-7.22,10.85-14,16.08C1339.75,546.15,1295.68,554.45,1295.5,553.91Z"/><path class="cls-7" d="M1142.55,444.58C1096,465.45,1049,484.4,1048,483.43c-1.57-1.53,68.34-61.45,189.53-112.83,35.63-15.1,88.38-37.46,153.54-28.5,43,5.91,69.12,36.49,166.55,101.24,78.1,51.9,206.84,150.19,228.38,182.94,1.22,1.86-55.69-8.11-145.45-89-47.84-43.11-88.27-77.33-143-112.58-40.72-26.22-61.7-39.47-92-46.35-54.61-12.4-101.44.89-145,13.24C1204.51,407.5,1167.48,433.4,1142.55,444.58Z"/><path class="cls-8" d="M1948.82,544.79c1.81-3.39-27.5-48.73-69.58-82.93-32.54-26.44-60.69-36.94-71.24-40.47-89.85-30.1-167.32,24.49-166.74,26.83.42,1.69,41.56-24.27,106.92-18.71,47.84,4.07,84.6,23,96.61,29.55C1909.25,494.28,1946.8,548.58,1948.82,544.79Z"/><path class="cls-7" d="M1035.32,668.93c10.79-3,26.83-7.7,46-14.19,39.54-13.38,69.06-23.37,103-43.52,28.11-16.68,48-28.49,66-51.08,8-10.09,13.72-19.86,29-35.95,12-12.6,22.91-21.83,33-30.28,11.59-9.7,20.55-16.37,38-29.32,33.2-24.64,41.57-29.41,41-30.28-1.28-1.94-47.23,16.17-84,49.2-21,18.82-31.43,28.23-36,35-6.53,9.67-12.78,22.22-21,21.76-5.1-.28-5.61-5.27-12-6.62-9.73-2.06-22.6,6.54-27,17-2.66,6.33-.26,8.68-3,14.19-5,10.1-18.57,13.24-22,14.19C1172.5,582.88,1134.35,603.37,1035.32,668.93Z"/><path class="cls-7" d="M-11.5,480.12c-2.14-6.13,5.63-13.75,17-24.94,8.63-8.47,27.49-24,67-32.77,42.67-9.46,43.09,3.71,80-5.68,12.73-3.24,32.49-11.3,72-27.43,23.64-9.65,36.38-15.34,40-11.36,6.58,7.26-24.36,38.4-19,43.52,3.79,3.63,22.85-8.57,33-15.13,24.43-15.8,34.45-26.43,47-35.95,34.33-26.07,75.86-35,78-31.22,1.16,2.06-20.21,16.22-63,44.46-50.42,33.28-75.64,49.92-76,50.14C166.32,494.32-2.8,505-11.5,480.12Z"/><path class="cls-9" d="M17,565.73c-2.67-7.13,133.51-60.59,194.68-66,2.78-.25,18.26-1.54,39.3-4.12,13.56-1.66,30-3.7,50-7.43,0,0,23.68-4.42,46-10.41,58.5-15.69,122.87-61.15,139-72.84,30.18-21.89,54.79-44,100.49-58a125.73,125.73,0,0,1,13.74-3.76c64.59-12.77,124,22.7,136.21,30,39,23.28,43.37,53.29,89.56,76.25,22.08,11,37.61,19.47,52.2,29.9,11,7.87,9.63,8.27,27.8,23.08,19.34,15.76,25.91,19.55,65,49.19,26.38,20,27.33,21.26,27,21.76-2,3-55.92-13.37-99-52-14.48-13-25-26-49.12-39.85-12.25-7-21.77-10-34.68-17.18-26.92-15-42.93-31.46-50.55-38.65-1.88-1.77-3.25-3-3.62-3.38-20.56-19.37-78.92-54.52-111-62.71C570.49,339.2,498.58,445,378,486.27c-62.89,21.52-118.39,28.34-118.39,28.34-7.49.92-12.28,1.63-25,3A689.16,689.16,0,0,0,140,534.51c-35.94,9.06-33.88,13.25-71.25,22.34C51,561.17,18.28,569.14,17,565.73Z"/><path class="cls-10" d="M1140.73,424.78c-29.37,16.08-37,29.79-75.15,50-11.93,6.33-17.9,9.49-18.58,8.63-3-3.88,78.64-82.25,189.72-126.95,0,0,79.14-32,145.38-25.91,4.6.42,8.37.92,11.3,1.33,34.26,4.82,68.57,17.63,172.16,97.88,119.78,92.79,224.37,192.48,220.44,196.5-1.67,1.7-24.46-15.69-54.53-38.62-39.28-30-58.88-47.79-82.47-67.34-60.44-50.08-111.36-81.84-150-106-46.43-29-70-43.55-90.17-48.09-55.6-12.56-114,1.86-148.2,10.33C1203.53,390.76,1164.29,411.89,1140.73,424.78Z"/><path class="cls-11" d="M80.9,356.83c46.23-13.52,85.33-2.19,180.44-25.61,145.45-35.81,178.09-97.43,253-79.89,67.87,15.89,78.51,73.53,130,69.69,58.73-4.37,64.59-80.81,125-88.39,66.57-8.35,99.09,79.46,173,73.95,59-4.41,60.39-62,127-75.65,71.38-14.57,96.06,46.25,215,67.15,113.53,19.94,142.35-26.37,221,5.1,80.57,32.23,79.05,92.41,148,101.14,58.71,7.43,75.77-34.18,144-29.75,61.75,4,115.9,42.51,142,81.6h0c36.73,69.48,44.41,145.39,34,147.75C1959,607.17,1956.1,455.57,1859,412.47c-70.43-31.25-109,30.71-215,11.36-104.9-19.15-106-87-220-107.85-81-14.83-89,17.86-176,0-100.28-20.59-114.52-69.16-178-61.49-74.68,9-87.85,80.22-151,76.63-57.59-3.29-64.85-63.53-122-67.17-66.79-4.26-86.39,76.14-160,77.57-60.65,1.19-69.33-53-141-64.33C431.82,267,416.91,307,298,343.41c-102.76,31.49-118.38,9.85-241,46.36C-30,415.67-75.73,442.56-78,438-79.92,434.17,67.37,360.79,80.9,356.83Z"/><path class="cls-10" d="M1962,555.33c2.08-1.17-15.76-46.9-54-84.93-11.94-11.86-54.77-54.41-117-62.66-81.71-10.83-155.21,43.07-155,43.52.1.23,19.67-10.61,53-18,16.3-3.6,45.89-9.88,83-5.58,51.41,6,86.73,28.77,99.8,37.41,34.2,22.59,59,52.49,72.25,68.45C1955.68,547.65,1960.94,555.92,1962,555.33Z"/><path class="cls-10" d="M-6.69,491.78c-2.14-6.12,5.63-13.75,17-24.93,8.63-8.48,27.5-24,67-32.78,42.67-9.46,43.08,3.72,80-5.68,12.73-3.23,32.49-11.3,72-27.43,23.63-9.65,36.38-15.34,40-11.35,6.58,7.25-24.36,38.39-19,43.52,3.64,3.47,21.38-7.57,33-15.14A679,679,0,0,0,357,362.33c35.25-22.1,44.58-25.33,46-23.65,3.14,3.72-29.64,34.4-57.69,56.6-8.89,7-41.74,29-76,50.14C171.12,506,2,516.7-6.69,491.78Z"/><path class="cls-10" d="M816,422.88c.68.43,1-3.08,2-4.72,1.62-2.63,22.69-71.07,85-103.13,25.41-13.06,48.74-15.63,70-18,13.16-1.45,38.34-4,70,1.89,15.55,2.91,62,12.16,99.8,48.51,21.26,20.46,30.38,40.53,29.2,41.36-2.94,2.09-25.5-24.83-68.1-49.47a305.75,305.75,0,0,0-42.9-20.53,229,229,0,0,0-140.08,3.94h0C850.06,356.27,815.62,422.64,816,422.88Z"/><path class="cls-9" d="M809.87,431.49c-1.16-.76,17.72-39.09,55.13-72.94,16.32-14.76,37.49-33.92,72-44.46,32.27-9.86,61.66-7.73,77-6.63a243.35,243.35,0,0,1,37.1,5.56c44.75,10.36,72.94,30.58,78.45,34.58,21.16,15.32,38.09,34.84,36,37.16s-24.54-17.1-66.33-37.14c-14.5-7-26.91-12.91-42.2-17.45-3.46-1-82.39-23.32-148,14.19-14.64,8.37-28.49,19.65-42.44,31A397.16,397.16,0,0,0,829.68,409C816,423.42,810.44,431.85,809.87,431.49Z"/><path class="cls-10" d="M10.8,571.87c-3.62-6.37,91.28-81.34,190.65-82.16,17.45-.15,59.52-1.12,115.49-11.92a207.13,207.13,0,0,0,39.24-12c25.62-10.42,56.33-31.91,117.75-74.88,72.81-50.95,78.28-59.85,104.58-66.15,63.42-15.2,124.47,14.36,137,20.41,54.42,26.35,56,55.34,142.27,109.06,20,12.43,140.43,121.14,140.24,121.39-.36.48-161.66-120.92-264.64-185-69.89-43.47-80.2-41.51-94.08-42.2C594,346.23,549.69,372.45,463,425c-41.77,25.31-35.74,24.69-55.85,35-65.07,33.5-182,45-182,45C94.51,518.13,14.1,577.69,10.8,571.87Z"/></g><path class="cls-12" d="M1288,787.25c0,20.85-68.12,12.75-150,12.75s-146.5,8.1-146.5-12.75,66.37-37.75,148.25-37.75S1288,766.4,1288,787.25Z"/><path class="cls-12" d="M1610.4,909.85c0,20.85-64.52-21.85-146.4-21.85s-150.1,42.7-150.1,21.85,66.37-37.75,148.25-37.75S1610.4,889,1610.4,909.85Z"/><ellipse class="cls-13" cx="860" cy="775.5" rx="18" ry="10.5"/><path class="cls-12" d="M160.76,796.69c1.62-2.18,5.86-8.44,11-7.6,13.12,2.15,7.35,46.71,31.13,61.95,21.5,13.78,53.77-5,59.34,4.65,2.66,4.61-3.12,11.63-4.15,13-15.13,20.43-49.17,20.88-76,1S145.63,817.13,160.76,796.69Z"/><path class="cls-13" d="M747,840c0,20-64.43,12-98.72,12s-62.09-16.22-62.09-36.22,27.8-36.22,62.09-36.22S747,820,747,840Z"/><path class="cls-12" d="M867.34,866.91c.37-20.84,64.12,23,146,24.47s158.2-38.52,150.47-19.16C1155.66,892.57,1020.12,937.08,976,938,894.14,939.71,867,887.76,867.34,866.91Z"/><path class="cls-10" d="M1087.46,902.83c17.26-23.17,79.72-5.84,139.51,38.69s94.27,99.42,77,122.59c-32.53,43.72-71.16-5.56-107.51-81.66C1160.92,908,1070.21,926,1087.46,902.83Z"/><path class="cls-12" d="M1642.65,862.85C1643,842,1609.14,800.54,1691,802s255.83,46.8,248.1,66.16c-8.13,20.35-143.67,64.86-187.79,65.78C1669.45,935.65,1642.27,883.7,1642.65,862.85Z"/><path class="cls-10" d="M1654.42,991.64c1.37-25.51,35.5-42.65,62.55-42.27,28.37.4,60.8,20.22,61.41,43.92.67,26.05-3.31,6.63-36.38,2.71C1716.4,993,1653.1,1016.07,1654.42,991.64Z"/><path class="cls-10" d="M1826,794.5c0,11.32-60.44,20.5-135,20.5s-135-9.18-135-20.5c0-21.36,60.39-14.91,135,.5C1764,810.08,1826,783.18,1826,794.5Z"/><path class="cls-14" d="M341.18,549.59c63.89-25.38,112-60.16,139-77C555.88,425.4,553,418,580.67,411.29c47.64-11.61,106.45-2.07,150,27.7,40.59,27.77,55,62.44,89.56,80.6,22.09,11.6,37.62,20.58,52.2,31.6,11,8.32,9.63,8.75,27.8,24.4,19.34,16.66,7.2,15-56.12-22.12C792,523,712.32,476.31,623,473c-14.59-.54-26.37.26-37.41,2.45C501.79,492.1,472.08,533.65,372,565c-11.15,3.49-21.43,6-42,11C217.56,603.36,222,597,341.18,549.59Z"/><path class="cls-14" d="M1678.24,487.26c-2-3.42,52.44-33.64,104.16-14.77,17.51,6.39,29.71,16.57,41.66,26.56,23,19.24,37.87,41,34.56,42.76-3.14,1.65-19.54-16.46-57.27-35.89-12.34-6.35-25-12.88-41.31-17.39C1714.51,475.94,1679.78,489.9,1678.24,487.26Z"/><path class="cls-14" d="M1075.38,523.24C1106.86,507,1152.24,481.85,1211,444a478.59,478.59,0,0,1,51-24c14.57-5.84,29.06-11.64,48-16,7.38-1.7,35.63-8.2,61-6,36.63,3.17,61.6,24,99,56,49.67,42.53,63.32,59.85,94,78,0,0,49,51,65.66,68.27,5.55,5.74-53.86-27.16-53.86-27.16C1522.49,520.52,1473.5,488.7,1440,470c-36.64-20.45-65.29-31.07-97-25a105.33,105.33,0,0,0-37,15c-17.76,6.63-44,16.19-76,27-70.88,23.93-172.88,54.87-175,49C1054.28,534,1065.4,528.4,1075.38,523.24Z"/><path class="cls-15" d="M635.39,482.92Q694.73,516.66,757,556.27q36.36,23.25,70.39,46.54c30,35.4,60.8,73.47,57.07,77.07-2,1.93-13.44-6.48-39.55-27.86-27.3-22.36-63.79-53.32-106.33-92.64Z"/><g id="_Bush_" data-name="&lt;Bush&gt;"><path class="cls-16" d="M815.42,1089.44a72.42,72.42,0,0,1-1.49,22.58c-5.2-17.62-17.46-46-49.36-75-36.15-32.81-80.39-50.83-106.45-59.71C748,995.61,810.58,1036.77,815.42,1089.44Z"/><path class="cls-16" d="M-7.62,1143.93a169.06,169.06,0,0,0,5.46,33.48A335,335,0,0,1,35,1053a349.83,349.83,0,0,1,85.76-105.61C39.16,991.25-12.51,1064.3-7.62,1143.93Z"/><path class="cls-16" d="M60.26,1134.12a168.33,168.33,0,0,0,5.46,33.48,335,335,0,0,1,37.12-124.37,350.18,350.18,0,0,1,85.75-105.62C107,981.44,55.37,1054.49,60.26,1134.12Z"/><path class="cls-16" d="M60.26,1134.12a168.33,168.33,0,0,0,5.46,33.48,335,335,0,0,1,37.12-124.37,350.18,350.18,0,0,1,85.75-105.62C107,981.44,55.37,1054.49,60.26,1134.12Z"/><path class="cls-16" d="M60.26,1134.12a168.33,168.33,0,0,0,5.46,33.48,335,335,0,0,1,37.12-124.37,350.18,350.18,0,0,1,85.75-105.62C107,981.44,55.37,1054.49,60.26,1134.12Z"/><path class="cls-16" d="M198.36,1140.2a169.67,169.67,0,0,0,5.46,33.48,335.22,335.22,0,0,1,37.12-124.37A350.11,350.11,0,0,1,326.7,943.7C245.14,987.52,193.48,1060.57,198.36,1140.2Z"/><path class="cls-16" d="M95.48,1168.38a168.93,168.93,0,0,0,5.45,33.48,335,335,0,0,1,37.13-124.36,350,350,0,0,1,85.75-105.62C142.26,1015.7,90.59,1088.75,95.48,1168.38Z"/><path class="cls-16" d="M180.51,1101.91a72.34,72.34,0,0,1-1.49,22.57c-5.2-17.62-17.46-46-49.36-74.94-36.15-32.81-80.39-50.83-106.45-59.71C113.1,1008.08,175.67,1049.24,180.51,1101.91Z"/><path class="cls-16" d="M130.47,1108a72.64,72.64,0,0,1-1.49,22.57c-5.2-17.62-17.46-46-49.36-74.94-36.15-32.81-80.39-50.83-106.45-59.71C63.05,1014.13,125.63,1055.29,130.47,1108Z"/><path class="cls-16" d="M29.1,983.06a79.63,79.63,0,0,1,19.56-12.73c-11.38,14.75-27.34,41.43-31.79,83.34-5.05,47.48,7.07,92,15.65,117.19C-7.28,1091.64-11.48,1019,29.1,983.06Z"/><path class="cls-16" d="M733,1131.93a77.86,77.86,0,0,1-17.3,15.44c8.89-16.24,20.38-44.94,18.05-87-2.64-47.64-21.77-89.86-34.28-113.46C751.51,1019.31,767.31,1090.42,733,1131.93Z"/><path class="cls-10" d="M235.92,1131.62a169.79,169.79,0,0,0,5.46,33.48,335.22,335.22,0,0,1,37.12-124.37,350,350,0,0,1,85.76-105.62C282.7,978.94,231,1052,235.92,1131.62Z"/><path class="cls-10" d="M617.6,968.15a172.22,172.22,0,0,0-14.77-30.77,331.14,331.14,0,0,1-.4,129.27,338.8,338.8,0,0,1-52.54,123.9C616,1127.18,644.94,1043.47,617.6,968.15Z"/><path class="cls-10" d="M45.58,1126.64A168.33,168.33,0,0,0,51,1160.12a335,335,0,0,1,37.12-124.37,350,350,0,0,1,85.75-105.61C92.36,974,40.69,1047,45.58,1126.64Z"/><path class="cls-10" d="M124.05,988.56a172.91,172.91,0,0,0-15.64-30.38,331.35,331.35,0,0,1,3.29,129.23,338,338,0,0,1-49,125.22C126.94,1147.56,153.53,1063.13,124.05,988.56Z"/><path class="cls-10" d="M627.15,1172.5a188.4,188.4,0,0,0,32.09,14.29,349.93,349.93,0,0,1-87.1-98.67,335.1,335.1,0,0,1-43.63-126.86C520.9,1050.41,555.35,1132.08,627.15,1172.5Z"/><path class="cls-10" d="M793.62,967.63a210.71,210.71,0,0,0-10.57-37.81,405.6,405.6,0,0,1-21.77,146.85,388.39,388.39,0,0,1-76.15,130.74C765.62,1148.06,810.16,1058.48,793.62,967.63Z"/><path class="cls-10" d="M269.84,1153.91a169.57,169.57,0,0,0,5.46,33.47A335,335,0,0,1,312.42,1063,350,350,0,0,1,398.18,957.4C316.62,1001.22,265,1074.27,269.84,1153.91Z"/><path class="cls-10" d="M206.45,968.11a173.61,173.61,0,0,0-15.64-30.38A331.55,331.55,0,0,1,194.1,1067a338.19,338.19,0,0,1-49,125.23C209.34,1127.11,235.93,1042.69,206.45,968.11Z"/><path class="cls-10" d="M652.91,981.66a172.58,172.58,0,0,0-15.64-30.38,331.36,331.36,0,0,1,3.29,129.23,338,338,0,0,1-49,125.22C655.8,1140.66,682.39,1056.23,652.91,981.66Z"/><path class="cls-10" d="M298.48,970.17a172.27,172.27,0,0,0-15.65-30.38A331.35,331.35,0,0,1,286.12,1069a338,338,0,0,1-49,125.22C301.37,1129.17,328,1044.74,298.48,970.17Z"/><path class="cls-17" d="M597.05,1001.87a172.91,172.91,0,0,0-15.64-30.38,331.54,331.54,0,0,1,3.29,129.23,338.2,338.2,0,0,1-49,125.22C599.94,1160.87,626.52,1076.44,597.05,1001.87Z"/><path class="cls-17" d="M270.51,1031.77a173.61,173.61,0,0,0-15.64-30.38,331.36,331.36,0,0,1,3.29,129.23,338,338,0,0,1-49,125.23C273.4,1190.77,300,1106.35,270.51,1031.77Z"/><path class="cls-17" d="M341.16,962.27a172,172,0,0,0-15.64-30.39,331.41,331.41,0,0,1,3.29,129.24,337.86,337.86,0,0,1-49,125.22C344.06,1121.27,370.64,1036.84,341.16,962.27Z"/><path class="cls-17" d="M106.92,957.21a173.61,173.61,0,0,0-15.64-30.38,331.59,331.59,0,0,1,3.29,129.24,338.2,338.2,0,0,1-49,125.22C109.81,1116.21,136.39,1031.79,106.92,957.21Z"/><path class="cls-17" d="M272.44,974.72a173.26,173.26,0,0,0-15.64-30.38,331.54,331.54,0,0,1,3.29,129.23,338,338,0,0,1-49,125.22C275.33,1133.72,301.92,1049.29,272.44,974.72Z"/><path class="cls-17" d="M705,1177.21a184.43,184.43,0,0,0,29.68,18.44,343.8,343.8,0,0,1-71.82-109.36,332.54,332.54,0,0,1-24.69-131.48C617.61,1042.09,639.8,1127.59,705,1177.21Z"/><path class="cls-17" d="M261.36,1145.07a178.31,178.31,0,0,0,24,24.88A332.09,332.09,0,0,1,253.9,913.66C211.52,993.45,211,1081.58,261.36,1145.07Z"/><path class="cls-17" d="M215.54,1203.05a179,179,0,0,0,24,24.88,332.09,332.09,0,0,1-31.46-256.29C165.71,1051.43,165.19,1139.56,215.54,1203.05Z"/><path class="cls-17" d="M13.29,1145.74a170.36,170.36,0,0,0,10.32,32.4,332.34,332.34,0,0,1,18.51-128.09A343.77,343.77,0,0,1,111.54,934C37.2,988.32-3.24,1067.57,13.29,1145.74Z"/><path class="cls-16" d="M795.28,973.24a79.68,79.68,0,0,1,19.57-12.73c-11.38,14.75-27.34,41.44-31.79,83.34-5,47.49,7.07,92,15.65,117.19C758.9,1081.82,754.71,1009.22,795.28,973.24Z"/><path class="cls-16" d="M581.83,962.75A79.81,79.81,0,0,1,601.39,950c-11.38,14.75-27.34,41.43-31.79,83.34-5,47.48,7.08,92,15.65,117.19C545.45,1071.33,541.26,998.73,581.83,962.75Z"/><path class="cls-16" d="M689.44,960.47A79.65,79.65,0,0,1,709,947.75c-11.39,14.75-27.35,41.43-31.8,83.34-5,47.48,7.08,92,15.66,117.18C653.06,1069.06,648.87,996.45,689.44,960.47Z"/><path class="cls-10" d="M889.51,989a175.06,175.06,0,0,0-19.38-28.33,331.84,331.84,0,0,1-13.2,257.81C912.48,1146.47,928.2,1059.61,889.51,989Z"/><path class="cls-10" d="M819.41,1156a168.33,168.33,0,0,0,4.66,33.59,335.35,335.35,0,0,1,40.09-123.52,351,351,0,0,1,88.25-103.71C869.83,1004.4,816.43,1076.3,819.41,1156Z"/><path class="cls-10" d="M172.44,939.16a175.09,175.09,0,0,0-19.37-28.34,332.13,332.13,0,0,1,19.61,127.87,334.69,334.69,0,0,1-32.81,130C195.42,1096.62,211.14,1009.75,172.44,939.16Z"/><path class="cls-10" d="M825.73,1005.23a169.1,169.1,0,0,0-9.17-32.72,332.82,332.82,0,0,1-23,127.43,345.5,345.5,0,0,1-73.47,113.77C796.29,1161.79,839.5,1083.89,825.73,1005.23Z"/><path class="cls-10" d="M695.37,983.65A168.52,168.52,0,0,0,689,950.33a334.16,334.16,0,0,1-33.55,125.28,348.81,348.81,0,0,1-82.7,107.82C653,1137.49,702.53,1063.12,695.37,983.65Z"/><path class="cls-16" d="M723.74,1000.65a79.65,79.65,0,0,1,19.57-12.72c-11.39,14.74-27.35,41.43-31.8,83.33-5,47.49,7.08,92,15.65,117.19C687.36,1109.24,683.17,1036.63,723.74,1000.65Z"/><path class="cls-16" d="M937.63,982.13A79.68,79.68,0,0,1,957.2,969.4c-11.39,14.75-27.35,41.43-31.8,83.34-5,47.48,7.08,92,15.65,117.19C901.25,1090.71,897.06,1018.11,937.63,982.13Z"/><path class="cls-16" d="M672.14,953.26a82.54,82.54,0,0,1,23.43-3c-17.07,8.32-43.81,25.36-67.4,61-26.73,40.33-36.74,85.38-40.86,111.58C588.82,1034.85,619.06,968.07,672.14,953.26Z"/><path class="cls-16" d="M864.89,982.69a82.33,82.33,0,0,1,23.24-4.15c-16.6,9.14-42.4,27.47-64,64.18-24.53,41.59-32.12,87.07-34.83,113.43C786.05,1068.25,812.67,1000.08,864.89,982.69Z"/><path class="cls-17" d="M845,972.71a176.7,176.7,0,0,0-21.13-27.16,331.65,331.65,0,0,1,3.18,258.08C878,1128.52,888.16,1040.91,845,972.71Z"/><path class="cls-17" d="M815.26,1179.58a177.76,177.76,0,0,0,24,24.88A332.07,332.07,0,0,1,807.8,948.18C765.42,1028,764.9,1116.09,815.26,1179.58Z"/><path class="cls-17" d="M652.11,975.8a188.19,188.19,0,0,0-32.81-12.7,352,352,0,0,1,92.25,94.27,336.33,336.33,0,0,1,50.35,124.55C764.75,1092.52,726,1012.65,652.11,975.8Z"/><path class="cls-16" d="M925.32,1135.62c-39.8-79.22-44-151.82-3.42-187.8"/><path class="cls-16" d="M858.11,1170.05c-39.8-79.22-44-151.82-3.42-187.8"/><path class="cls-16" d="M751.72,1131.29c-39.81-79.22-44-151.82-3.43-187.8"/></g><path class="cls-16" d="M228,661.73c-15.24,1.26-23.77,9.78-29,5.42-5.56-4.65-1.31-18.94,3.13-30.26-18.86,8.54-30.14,6.91-37.09,3.47-10.07-5-11.58-14.05-22.43-17.76-11.59-4-22.27,2.12-28,4-14.66,4.82-41-3.44-92.33-63.24q6.45-30.81,12.92-61.61c-24.42-32.24-27.49-53.32-21.86-67.57,7.65-19.37,29.48-21.28,30.8-37.76C45.7,377.11,21,371.8,10.41,342.22,1.1,316.15,6.52,279.55,26.26,258.3c18.77-20.2,44-19.53,47.92-38.91,2.56-12.61-6.45-22.9-1.55-26.7,6.23-4.85,30,16.36,40.44,10.68,8.12-4.44-6.72-50.9-10.89-57.41a131.86,131.86,0,0,0-17.11-21.37c21.63-11.36,37.4-12.3,48.22-10.68,6.67,1,13.83,3.33,18.66,0,7.52-5.18.22-17.73,6.22-21.36,8.24-5,27,15.66,40.44,10.68,10.73-4,12.17-21.94,12.45-25.37,1.17-14.72-6.07-21.23-1.56-25.36s12.78,1.23,37.33,2.67c14.39.84,22.53,1.22,31.11-2.67,9.51-4.32,10.36-9.73,17.11-10.68,5.32-.76,13.75,1.33,26.44,16,7.9,2.41,18.29,4.37,24.88,0,10-6.64,2.21-21.83,12.45-28,7.36-4.47,13.27,2.24,31.11-1.33,11.26-2.26,15.37-6.23,20.22-4,7.07,3.24,3.65,14.14,9.33,16,4.61,1.53,10.76-4.36,21.77-13.35,6.82-5.56,15.66-12.44,26.44-20a98.74,98.74,0,0,1,17.11-8c8-2.86,27.63.24,37.33,5.34,12.06,6.34,13.74,3.11,28,9.35,15.2,6.65,17,11.92,26.44,12,8.47.08,15-4.05,17.11-5.35,11.48-7.2,9.25-15.63,17.11-18.69,11.3-4.39,31.8,6.84,31.11,14.69-.57,6.4-16.45,6.55-17.11,13.35s14.14,13.43,21.53,15.86c20.63,6.78,36.39-14.15,45.35-7.85,2.76,1.94,5.47,6.55,4.07,18.84,6.87,2.25,31.37,11.16,39.48,33.23,1,2.7,6.85,17.86,0,24-5.14,4.64-12.42,1.49-18.66,6.68-6.66,5.53-7.86,17-3.11,20,6.86,4.43,19.95-12.69,38.88-10.69,19.55,2.07,33.5,23.25,34.22,22.7.41-.31-6.68-5.11-6.22-10.68.84-10.28,27-19.65,32.66-14.69,1.77,1.57,2,5-1.55,12l42-20c-3.56-10.06-1.83-13.38,0-14.68,8.94-6.35,46.13,17.09,46.66,17.35-1.47.7-19.38,9.38-18.66,21.37.36,6.09,26.55,27.71,37.33,32,9.7,3.89,24.75,23.58,24.88,30.71.09,4.45.2,10.48-3.11,17.35-5.58,11.61-15.46,14.28-14,18.7,1.62,4.85,30.28,19.42,38.89,28,12.79,12.78,26.57,10,29.55,18.69,2.82,8.19-9.25,11.29-9.33,24h0s18.4,35.93,20.38,38.86c7.58,11.15,2.82,27.16-3,46.7-2.11,7.13-23.74,48.17-28.29,66.64-1.77,7.18-2.22,13.24-3.11,25.37-1.3,17.68.07,23.62-1.55,37.38a146.62,146.62,0,0,1-6.23,28c-9-.3-51.2,12.35-59.1,18.69-18.35,14.71-17.92,27-31.11,40.05-6.35,6.28-51.28,19.19-62.21,21.37C799,638.43,790.1,642,775.66,648c-17.39,7.15-83.65,27.19-104.21,21.36-21.33-6-21-17.11-40.44-24-18.67-6.65-27.29,2.75-49.77,0-23.06-2.82-22.1-13.49-48.22-21.36-9.1-2.74-75.89,24.72-94.88,38.72-20.11,14.84-57.31,19.66-76.21,4-9.95-8.23-2.17-18.41-12.44-26.7-11.58-9.34-35.78-9.53-48.22,0-15.39,11.79-5.59,33-17.11,38.72C270.86,685.26,256.33,659.4,228,661.73Z"/><path class="cls-10" d="M286.3,638.89c-.27.46-6,9.94-12.44,9.35-4.83-.44-5.3-6.1-12.45-8-1.85-.5-4.86-.33-10.88,0-10,.55-12.74,1.46-14,0-1.82-2.11,1.06-7.25,1.9-8.77.68-1.21.92-1.32,1.21-1.91,2.78-5.7-8.27-18.54-15.56-17.36-5.58.91-7.25,9.78-9.33,9.35-2.66-.55.55-14.94-3.11-16s-11.28,11.72-14,10.68c-2.12-.82,1.58-9-1.55-10.68-2.32-1.25-5.59,2.59-12.45,4-7.32,1.51-16.93-.13-18.66-4-2.16-4.82,8.68-11.26,6.22-14.69-1.63-2.28-6.9-.14-9.33-2.67-3.13-3.25,0-12.58,6.22-14.69,8-2.7,17.15,7.89,21.78,5.34,1.93-1.06,3.14-4.45,0-14.68,8.48,4.58,18.72,4.47,24.88,0,10-7.25,6.16-23.67-1.55-26.7-4.49-1.77-10.34,1-14,2.67a29.79,29.79,0,0,0-12.45,10.68c-3.45-3.95-8.58-8.58-14-8-7.62.79-10.75,11.3-15.56,10.68-1.86-.25-4.31-2.2-6.22-10.68a76.15,76.15,0,0,1-18.66,2.67c-6.32.11-12.91.22-20.22-2.67a35.32,35.32,0,0,1-15.56-12c-2.49,2.23-5.89,4.51-9.33,4-7-1-7.72-12.63-14-13.36-5.75-.66-8.8,8.63-14,8-3.85-.45-5-5.87-10.88-22.69-5.15-14.64-7.38-19.29-4.67-21.36,2.5-1.92,7.77-.53,12.44,1.33-10.58-13-12.29-27.61-4.66-36.05A20.14,20.14,0,0,1,63.88,444c10.67-1.18,15.72,8.14,29.55,14.68,16.8,8,40.85,9.11,46.66,1.34,4-5.39-.23-15.69-7.77-21.36a28.76,28.76,0,0,0-15.56-5.34q-.78-7.35-1.55-14.69c-11.46,6.33-15.58,6.54-17.11,5.34-2.79-2.2,3.17-9,0-13.35-2.94-4-12.14-3.75-20.22-2.67,4.25-11.35,3.41-15,1.55-16-2.66-1.48-6.8,2.79-10.88,1.33-4.9-1.74-8.12-11.11-3.12-17.35,4-5.06,12.63-7,20.22-4,4.09-2.93,11.22-8.08,20.22-14.69,8.83-6.47,12-8.89,14-8,5.15,2.28-7.24,22.1,1.56,29.38,4.71,3.89,10.41,0,24.88,4,7.31,2,13.08,3.65,17.11,8,8.44,9.11-1,19.11,7.78,29.37a24.67,24.67,0,0,0,14,8c9.05,1.52,13.6-3.7,20.22-2.68,5.35.83,11.78,5.7,17.11,22.7a86.7,86.7,0,0,0,23.33-4c13.55-4.36,17.06-9.45,21.77-8,11.38,3.46,4.24,37.16,12.45,38.71,3.29.63,7.33-4.26,9.33-6.67a20.33,20.33,0,0,0,4.67-14.69c3.56,3,8.2,4,10.88,2.67,3.46-1.72,4.9-8,0-13.35,12.4,8.18,17.05,9.2,18.67,8,3.63-2.65-7.46-16.77-3.11-20,3.18-2.39,10,4.51,18.66,2.67,10.06-2.15,12.46-14,17.11-13.36,2,.27,4.6,2.94,6.22,14.69,14-6.47,19.41-5.76,21.78-4,6.25,4.63-6.62,18.09,0,36,1.9,5.17,3.68,6,7.78,16,4.45,10.92,6.68,16.38,4.66,18.69-5.44,6.23-27.37-9.11-60.66-6.68-8.82.65-25.32,1.85-35.77,12-7.93,7.71-3.41,11.84-12.45,24-10.42,14.07-23.71,18.35-21.77,25.37,1.23,4.45,7.28,5.31,7.78,10.68.41,4.41-3.31,7.86-4.67,9.34-4.69,5.15-7.47,15.79,1.56,40.06,7.34-4.24,11.42-3,12.44-2.67C290.7,616.2,291.62,629.89,286.3,638.89Z"/><path class="cls-17" d="M295.58,647.22c-1.42,1-6.76-1.53-9.34-5.34-3.7-5.46-.32-11.46,0-12a55.35,55.35,0,0,0-14-10.68,93.6,93.6,0,0,0-17.11-6.68c-10.5-3.13-14.58-2.84-15.56-5.34-1.72-4.4,8.78-11,7.78-12-.85-.85-7.15,5.09-14,4-3.14-.49-5.72-3-10.89-8a120.28,120.28,0,0,1-9.33-10.68c-5.88-7.19-6.79-8.81-6.22-9.35,1.28-1.21,8.25,4.65,12.44,2.67,3.91-1.84,2.34-9.06,4.67-9.34,1.76-.22,4.35,3.69,5.14,4.89s.63,1.34,1.08,1.78c1.88,1.89,5.76,1.42,15.55,0-10-9.93-10.73-14.09-9.33-16,1.26-1.73,3.76-1,7.78-4a32.41,32.41,0,0,0,6.13-6.56s0-.12.09-.12c.39,0,1.34,4.93,3.11,14.69,2.16,11.89,2.21,12.58,3.11,14.68,2.09,4.87,3.3,4.56,6.22,10.68,3.29,6.87,1.9,7.53,4.67,12,3.18,5.15,5.74,5.48,9.33,10.68,2.36,3.42,1.67,4,4.67,10.68,2.23,5,2.88,5.41,7.78,14.69C296.42,645.92,296.05,646.89,295.58,647.22Z"/><path class="cls-17" d="M247.36,537.74c-4.8.82-7.81,2.48-9.33,1.34-.73-.54-1.28-1.84,0-5.34-.29-.44-3-4.44-4.67-4-1.27.33-1.43,3.13-1.55,5.34-.18,3.17.46,4.22,0,6.68a12.4,12.4,0,0,1-1.56,4c-4.7,1.36-6.76.78-7.78,0-1.76-1.38-.66-3.64-3.11-6.68a14.07,14.07,0,0,0-3.11-2.67,31.23,31.23,0,0,0-7.78-4,4.52,4.52,0,0,0,0-4,5.77,5.77,0,0,0-3.11-2.67,11.9,11.9,0,0,1-3.11,5.34c-1.46,1.45-2.15,1.39-3.11,2.67-1.6,2.14-.74,3.75-1.55,6.67a13.25,13.25,0,0,1-3.11,5.35,28,28,0,0,1-4.67,2.67c-2.26,1-3.39,1.52-4.67,1.33-2.49-.37-4.41-3-4.66-5.34-.16-1.51.45-2.22,1.55-5.34a48,48,0,0,0,1.56-5.34,5.43,5.43,0,0,0-3.11-2.67c-1.89-.54-3.16.45-4.67,0-1.12-.34-2.46-1.49-3.11-5.34-1.79.72-4.1,2-4.67,4s.85,3.06,0,4c-1.37,1.54-7,.63-7.77-1.34-.38-.95.55-1.72,0-2.67s-1.93-1.21-3.11-1.33a11.61,11.61,0,0,1-4.67-1.34,6.82,6.82,0,0,1-3.11-2.67c-1.08-2.15.79-3.43,0-6.67-.27-1.13-.56-2.3-1.56-2.67-1.43-.54-3.55.88-6.22,2.67s-3.41,2.77-4.66,2.67c-1.45-.12-2.48-1.54-3.11-2.67a70,70,0,0,0,3.11-6.68s.1-.27,1.55-4l-9.33-1.34c.67.14,1.4.24,1.56,0,.56-.84-7-4.52-6.23-6.67.47-1.28,3.39-.83,4.67-2.67.85-1.23.5-2.78,0-4-.35-.64-.88-1.57-1.56-2.67-2.83-4.62-3.91-5.14-4.66-5.34-1.47-.39-1.87.42-3.11,0-2.3-.78-2.77-4.19-3.11-6.68a19.57,19.57,0,0,1,0-5.34,8.28,8.28,0,0,1,1.55-4,10.35,10.35,0,0,1,6.22-4c5.79-1.12,10.39,3.49,10.89,4,.3.31,3.49,3.7,3.11,8-.19,2.23-1.21,3.11-1.55,6.67a16.42,16.42,0,0,0,0,4c.6,4.51,3.73,10.23,7.77,10.68a28.74,28.74,0,0,1,3.11,0c2.52.34,2.92,1.28,4.67,1.34,2.45.08,3-1.71,4.67-1.34,1.92.43,3,3.35,3.11,5.34.1,1.54-.4,1.81,0,2.67.84,1.8,4,2.59,6.22,2.67,2.41.09,2.8-.65,7.78-1.33,3.2-.44,4-.27,4.66,0,2,.81,2.66,2.72,3.11,4,1.38,3.91.36,8,0,8s-.73-2.35,0-2.67c1.09-.47,3.5,4.17,9.34,6.68a19.33,19.33,0,0,0,4.66,1.33,22.5,22.5,0,0,0,3.11-9.34,20.61,20.61,0,0,0,0-4A12,12,0,0,1,210,511a8.54,8.54,0,0,1,4.67,9.35c4.07,3.64,5.65,4.33,6.22,4,1.07-.61-2-4.59,0-8a7.08,7.08,0,0,1,3.11-2.67,14.47,14.47,0,0,1,7.78,1.34A11.25,11.25,0,0,1,238,525.73q1.54-4,3.11-8c-.7-1-4.08-6.23-1.56-10.68.39-.69,1.38-2.44,3.11-2.67,2.11-.29,4.77,1.77,6.23,5.34a37.71,37.71,0,0,1,3.11,2.67c3,2.92,5.44,5.16,6.22,8,.93,3.41-1.32,4.45-1.56,9.34a17.88,17.88,0,0,0,1.56,8A33.4,33.4,0,0,0,247.36,537.74Z"/><path class="cls-17" d="M291.32,509.62c.88,3.86,1.37,9.3-1.86,13.55-4.49,5.93-12.5,4.67-16.67,10.17-2.07,2.72-3.56,7.58,0,16.94,7.58-.28,12.11,1.64,14.82,3.39,7.54,4.87,5.57,11.4,14.82,18.63,2.84,2.23,2.54,1.23,11.12,6.78,7.09,4.6,8.16,5.84,11.11,6.78,3.43,1.09,8.74,1.56,16.68-1.7-2.25-5.1-1.58-10.55,1.85-13.55,5.26-4.6,14.24-1,16.67,0,1.6.64,8.72,3.73,11.12,10.17,1.29,3.46.09,4.88,1.85,6.77,3,3.2,11.05,4.09,14.82,0a8.32,8.32,0,0,0,1.85-6.77,26.55,26.55,0,0,0,9.27-8.48c3.5-5.42,1.87-8,5.55-13.55,3.93-5.87,7.35-5.2,9.27-10.16,1.75-4.53-.92-5.53,0-11.86,1.06-7.32,5-8.41,5.56-15.25.16-1.87.53-6.25-1.86-10.17-4.41-7.23-13-4.29-25.93-11.86-9.23-5.4-10.4-10.17-16.68-10.16-5.88,0-6.71,4.19-13,5.08-10.95,1.56-16.31-10.18-24.08-8.47-10.13,2.22-14,25.05-13,25.41.33.11,1.83-1.69,1.85-3.39,0-3.18-5.12-7.8-29.64-13.55"/><path class="cls-18" d="M468.19,693.41A54.81,54.81,0,0,1,448,682.73c10.44-11.12,8.55-24,1.55-28s-18.15,1.09-18.66,1.34c-15.22,1.38-26.12-6.36-26.44-13.36-.2-4.35,3.64-9.54,9.33-12a20.34,20.34,0,0,1,10.89-1.34c5.92-4.94,6.65-8.42,6.22-10.68-1.08-5.72-10.18-6.86-12.44-13.35-1.54-4.39.86-8.9,3.11-12,.59.44,13,9.39,17.11,6.68,2.6-1.73.9-7.58,0-10.68-1.81-6.19-4.18-6.85-6.23-13.35-1.28-4.1-2.78-8.84,0-12,2.32-2.65,6.3-2.74,6.23-4-.1-1.59-6.35-1-9.34-4-4.76-4.78-.14-17.53,6.22-18.69,4.93-.9,7.48,5.76,14,5.34,7-.46,9.23-8.54,14-8,5.53.61,4.71,11.67,10.89,13.35,8.4,2.28,18.87-15.77,28-13.35,5.12,1.36,5.31,8,9.33,8,4.43.05,5.56-8,12.44-13.35,6.66-5.19,18.63-9.32,24.89-5.34,7.23,4.6-3.44,22.71,0,24,2.81,1.08,8.11-11.26,18.66-12,6.31-.45,13.09,3.34,15.56,8,1.85,3.52.66,6.35,0,10.69-1.79,11.77,1.61,26.55,7.77,28,4.49,1.09,11.72-4.57,14-10.68,2.86-7.67-2.65-14.58,0-16,3.05-1.66,11.36,6.88,14,5.34,1.64-1,.22-5.27-1.56-9.34a13.49,13.49,0,0,1,12.45-8c6.82.16,13.14,6,12.44,13.36l9.33-24c2.23,1.16,9,5,10.89,12,3,11.14-9,20-10.89,21.36a33.75,33.75,0,0,1-12.44,5.34c5.76,3.05,12.16,7.58,12.44,13.35.12,2.49-1,3.77-6.22,12-8.77,13.74-9.48,16-9.33,18.69.32,5.61,4.07,6.47,3.11,10.68-1.45,6.37-10.42,6.19-12.44,12-2.48,7.13,9.26,12.23,7.77,20-1,5.25-7.43,8.72-15.55,12-29.85,12.12-48.94,8.26-76.21,17.36a127.32,127.32,0,0,0-28,13.35,202.2,202.2,0,0,0-28-5.34C478.56,695.11,474.46,695.17,468.19,693.41Z"/><path class="cls-17" d="M746.64,595.15c4.52.56,14.06.57,17.11-4s-2-11,0-12,6.6,5,9.33,4c2-.71,1.93-4.64,1.56-8,2.38,2.8,5.57,6,7.77,5.34,2-.55,1.73-3.71,3.11-8,2.64-8.19,9.5-15.41,12.45-14.69,2.69.66,2,8,3.11,8,.95,0,2.06-5.27,3.11-12l3.11-8a22.59,22.59,0,0,1,6.22,9.34c1.92,5.87,0,9.73,3.11,12,.91.65,1.46.62,9.33,1.33,9.44.86,10.11,1,10.89,1.34,5.82,2.22,5.46,6.25,9.33,6.67,5.16.56,8.28-6.28,12.45-5.34,3.61.82,3.54,6.48,6.22,6.68,3.41.25,5-8.78,9.33-9.35,2.73-.35,6.66,2.6,12.44,13.35,0-4.6,3-8.79,7.78-10.68A15.32,15.32,0,0,1,910,573.79c-1.75-6.62-2.89-14.74,1.55-17.35,4.9-2.89,13.07,3,17.11,0,4.91-3.65-3.34-15.16,1.56-18.7,4.25-3.07,14.06,3.07,17.1,0,2.17-2.17-2.22-5.83,0-9.34,2.72-4.29,11.34-2.13,14-6.68.66-1.12.44-3,0-6.67-.59-5-1.52-6.87-2.2-10.52-1.6-8.5,1.22-10.24-.91-12.18-4.61-4.22-20.3,1.8-29.55,5.34-3.86,1.48-7,2.9-9.33,4-5-6.88-8.49-8.3-10.89-8-2.59.3-3.29,2.5-6.22,2.67-4.39.24-6.34-4.5-9.33-4-3.29.53-2,6.39-6.23,9.35-5.28,3.68-12.73-1.63-21.77,0-4.85.87-11.06,3.9-17.11,13.35-12.64-2.53-21.87-1.46-28,0-7.18,1.71-8.15,3.5-14,4-14,1.22-20.91-8-26.44-5.34-7,3.34,2.26,19-6.22,25.37-4.12,3.11-9.22,1.64-31.11,0-10-.75-18.12-1.13-23.33-1.34-3.5,1.13-12.86,4.54-14,10.69-.89,4.83,3.71,9.2,10.89,16,9,8.49,13.2,8.68,15.56,14.68,1.91,4.87.07,7.18,3.11,10.68C737.89,594.07,744.27,594.86,746.64,595.15Z"/><path class="cls-19" d="M597.32,1054.89a241.68,241.68,0,0,1-12.44-28c-4.86-13.15-7.26-23.24-10.89-38.71-4.1-17.52-6.19-26.42-7.78-38.72-1.77-13.74-1.72-25.37-1.55-48.07.36-48.71,3.89-55.9,7.78-61.41,8.84-12.55,23.59-22.18,26.44-24,14.68-9.58,18.11-7,24.88-13.35,14.63-13.65,1.17-27.93,12.45-53.4,6.46-14.6,11.23-10.68,26.44-34.71,6.13-9.69,10.82-19.81,20.22-40.06C694.69,648.9,693.61,648.51,700,637c8.15-14.74,14.75-26.68,28-38.72,12.48-11.35,18.33-11.41,32.67-22.7a133.73,133.73,0,0,0,31.11-34.71v-20c-14.2,1.22-21.16,5.58-24.89,9.35-3.23,3.25-2.77,4.76-9.33,18.69-7.08,15-9.93,18.17-14,20-5,2.27-10.4,1.92-14,1.33V552.89c-3.38-.63-8.46-1-12.44,1.33-4.72,2.81-5.43,8.07-6.22,12C709,575.53,703.5,584,700,592.94a139,139,0,0,1-17.11,30.71c-4.06,6-9.83,14.26-17.11,24C658,658.1,655.36,661,651.76,661c-8.88.07-15.59-17.42-17.11-21.36-4.13-10.77-3.83-18.24-4.66-30.71a302.73,302.73,0,0,0-4.67-36.05c-.48-5.78-1.38-11.9-3.11-12-.79-.06-2.28,1.1-4.67,9.34-5.77,2.44-8.22,2.2-9.33,1.34-2-1.53.42-4.94-1.56-8-1.69-2.65-5.72-3.63-9.33-4,.21,14.81.12,37-1.55,64.09-1.79,28.89-3,25-3.11,38.72-.33,44.13,12.37,61.55-1.56,84.11-.85,1.38-10.05,16-17.11,14.68-8.06-1.5-9.23-23-10.89-53.4-1-18.53-1.51-27.8,0-40,2.74-22.19,7.56-22.75,10.89-48.07,2.15-16.34.82-21.22,4.67-34.71,4.11-14.41,6.17-21.62,10.89-26.7,2.15-2.33,4.9-4.7,4.66-8-.4-5.65-9.36-12-15.55-10.68s-6,9.89-17.11,30.71c-6.47,12.13-9.38,14.5-12.44,14.69-7.22.44-13.62-11.3-14-12-5.68-10.66-2.38-20.39-6.23-21.36-2.91-.74-5.46,4.72-12.44,5.34a16.49,16.49,0,0,1-7.78-1.33,203.95,203.95,0,0,1,0,104.14c-1.83,6.54-4.7,17.23-7.77,30.7s-3.93,19.19-7.78,20c-4.53,1-7.8-6.14-23.33-20-6.72-6-13.93-12.38-24.89-18.69-7.67-4.42-16.32-8.31-18.66-9.34-11.4-5.06-14.4-5.28-20.22-9.35-3.13-2.19-8.85-6.29-12.44-13.35-3-5.85-3.05-10.88-3.11-16a45.24,45.24,0,0,1,3.11-17.36c1.31-3.22,2.67-5.4,6.22-10.68,3.41-5.08,8.11-11.91,14-20,.69-.43,6.77-4.38,6.22-9.34-.77-6.9-13.84-11.14-20.22-8-2.05,1-3,2.55-4.67,5.34-3.35,5.55-1.83,7.51-4.66,13.35-1.56,3.19-2.13,2.85-6.23,9.34-2.11,3.35-3.67,6.17-4.66,8l-7.78,2.67a51.85,51.85,0,0,1-6.22-14.68c-4.36-17.62,3.11-30-1.56-32-3.21-1.38-10.29,2.94-12.44,8-1.09,2.58-.45,4.27,0,9.34.69,7.69-.45,7.52,0,14.69.56,8.86,2.29,9,3.11,18.69a102.64,102.64,0,0,1,0,13.35c-.43,12-1.6,13.69-3.11,14.69-3.5,2.31-9,.89-12.44,0-1.55-.4-6.73-1.87-14-8-3.6-3-6.22-6-10.89-12-5.62-7.29-9.62-13.17-12.44-17.36-6.93-10.28-11.94-18.12-14-21.36-11.62-18.25-13.05-21.57-14-24-2.82-7.3-4.64-12-4.66-18.69,0-4.31.71-9,0-17.36-.57-6.59-1.42-8.38-3.12-9.34-3.12-1.77-6.27.9-14,0-5.23-.62-6.4-2.14-7.78-1.34-3.29,1.91,3.17,10.67,4.67,25.37.81,8-.86,7.94,0,17.35.7,7.79,2.25,12.35,4.66,21.37,4.73,17.67,3.61,18.2,6.22,26.7,3.82,12.42,6.94,13.67,26.44,46.73,11.14,18.87,10.89,19.76,15.56,25.37,6.22,7.45,16.5,19.5,34.22,26.7,9.78,4,11.52,2.28,20.22,6.67,4.66,2.36,9.05,5.32,23.33,20,19.81,20.42,19,22.62,28,28,7.24,4.35,11.25,5,17.11,10.68a41.42,41.42,0,0,1,10.89,17.36c1.37,4.36,1.45,7.86,1.56,14.68.21,13.07-1.45,17.09-1.56,28-.1,10.15,1.3,9.35,1.56,20,.33,13.79-2,15-3.11,32-.3,4.59-.05,3.33,0,33.38q0,10.68,0,21.36c0,10.68-.4,21.37,0,32a81,81,0,0,1,0,10.68c-.5,6.06-1,12.44-4.67,18.7-4.28,7.31-8,6.15-12.44,13.35-4.18,6.75-1.42,8.59-4.67,17.35-3.34,9-6.83,8.61-15.55,22.7-5.44,8.79-3.91,8.67-9.34,17.36-7.93,12.71-8.16,14.79-12.44,20-6,7.4-10.06,8.81-9.25,10.25,1.78,3.17,19.65-6.55,43.47-4.91,19.69,1.36,22.2,9,37.67,7,14.57-1.94,17-9.37,28.91-8.38,12.83,1.07,14.2,10.13,26,10.43,12.77.32,15.44-10.23,28.34-10,12.51.19,14.73,10.19,26.55,10,12.16-.15,15.37-10.82,27.44-13.31,8.11-1.68,20.54.28,39.38,16.38"/><path class="cls-20" d="M392,1061.57c.65.57,17.38-9.85,31.11-28a104.39,104.39,0,0,0,9.4-14.84,97.86,97.86,0,0,0,10.82-39.9c3.84-2.72,8.74-7.08,10.89-13.35,3.44-10.08-3.05-16.84-6.23-26.7-7.95-24.68,15.76-34.73,14-73.44-.13-3-1-8.76-2.76-20.33-4.42-29.13-7.22-34.66-6.57-49.09.46-10.24,2-10.52,1.91-20.78-.08-9.18-.17-19.23-5-28.62-3.32-6.43-11.38-12.16-27.5-23.61,0,0-16.34-11.6-42.45-26.3l0,0-6.22-3.47c-37.45-20.72-52.89-33.37-52.89-33.37a151.41,151.41,0,0,1-26.44-28c-13.26-26.59-15.07-32.92-14-33.38,2.45-1,15.65,30,51.33,54.74,12.6,8.75,28.4,17,34.22,20,16.59,8.65,21.72,9.88,40.44,20,19.76,10.71,26.74,16.22,31.11,20a126.24,126.24,0,0,1,17.11,18.69c14.37,20.1,9.12,40.33,10.88,73.43,3.11,58.45,23.12,63.92,10.89,89.46-4.75,9.92-14.28,22.7-12.44,41.39,1,9.87,4.54,15.51,6.22,20C484.77,996.44,390.45,1060.18,392,1061.57Z"/><path class="cls-20" d="M486.89,984.13c1.25,11.46,6.56,19.64,4.67,36-.16,1.37-.32,2.37-.45,3.14-3,18.49-12.45,37.56-16.66,36.91-4.73-.72-3.67-26.36-1.56-42.72,4.37-33.86,17.41-60.38,18.67-60.08C492.37,957.62,485.17,968.35,486.89,984.13Z"/><path class="cls-20" d="M488.58,920c-.7,6.4-.23,9.94-2.76,16-1.24,3-4.25,8.12-5.52,8-3.89-.32,8.74-49.5,11.05-49.4,1,0,.09,9.71,0,10.68C490.69,912.11,489.39,912.72,488.58,920Z"/><path class="cls-20" d="M519.48,778.36c1,8.85,3.13,13.43.67,22.52-1.21,4.46-4.91,12.43-7.28,12.75-7.25,1-1.67-69.63,2.6-70.33,1.89-.31,3.65,13,3.83,14.34C520.5,767,518.35,768.23,519.48,778.36Z"/><path class="cls-20" d="M534.9,810c-.72,10.1-.23,15.69-2.79,25.3-1.26,4.72-4.3,12.82-5.59,12.66-3.93-.5,8.84-78.18,11.17-78,1,.07.1,15.33,0,16.87C537,797.45,535.72,798.42,534.9,810Z"/><path class="cls-20" d="M304.91,619.64c6.59,8.66,16.91,20.53,30.78,30,9.44,6.44,20.09,11.47,20.39,10,.34-1.69-12.39-11.59-20.42-17.84C323.2,632.07,312.59,624.73,304.91,619.64Z"/><path class="cls-20" d="M521.11,605c.62,0,1.21,4,2.33,11.56a216.67,216.67,0,0,1,2.33,21.82c.68,15.62,1.68,38.49-10.88,62.75-5.08,9.8-11.31,17.8-12.45,17.36-1.53-.59,7.65-16.09,12.45-40.05,1.45-7.27,2-14.19,3.11-28C520.23,622.39,519.83,605,521.11,605Z"/><path class="cls-20" d="M595,599.61c0-.26,0-.52.07-.79a76.35,76.35,0,0,1,1.85-11.22A113.86,113.86,0,0,1,598.8,601a104.53,104.53,0,0,1,0,18.69c-.62,5.63-1.36,10.18-1.93,13.35A87.57,87.57,0,0,0,595,647.68c0,.68,0,1.68,0,3.69,0,4.2,0,6.5,0,11,0,1.55,0,3.44,0,7.2,0,14.09-.08,12.74,0,14.16s.69,6.77,1.92,17.35c.55,4.66.49,4.14.55,4.71,1.37,12.25,2.05,18.37,1.38,24.67A52.49,52.49,0,0,1,595,745.14L583.4,759.83c-5.5,2.74-7.21,3-7.7,2.67-1.31-.9,6.09-6.31,11.55-14.69A41.45,41.45,0,0,0,593,734.46a106.11,106.11,0,0,0,1.93-16c.23-5.25-.49-12.92-1.93-28-.8-8.45-1.23-16.91-1.92-25.36a57.93,57.93,0,0,1,0-12c.25-2.24.81-5.08,1.92-10.68s1.41-6.64,1.93-9.35a106.62,106.62,0,0,0,1.92-14.68,93.66,93.66,0,0,0,0-10.68"/><path class="cls-20" d="M608.21,595.61c2.14-.43,5.26,5,6.22,6.67C621,613.74,618,625.87,616,631.66a198.32,198.32,0,0,0-7.78,40.05c-1,11.41-.8,20-1.56,20-1,0-3.32-15.12-3.11-32,.21-16.42,2.57-16.73,3.11-34.72C607.18,607.32,605.25,596.2,608.21,595.61Z"/><path class="cls-20" d="M712.42,563.57a77.85,77.85,0,0,0-3.11,8c-.73,2.24-1.11,5-2.62,9.31-.14.4-.29.83-.49,1.37a64,64,0,0,1-4.67,9.34,82.94,82.94,0,0,0-4.66,12c-1.37,3-2.91,6.11-4.67,9.35q-2.31,4.24-4.67,8c-1.08,1.52-2.71,3.83-4.66,6.67-3.22,4.7-4,6-6.22,9.35a138.7,138.7,0,0,1-10.89,14.68c-2.67,3.07-7.3,8.29-7.78,8s5-8.31,7.78-12c1.46-2,2.52-3.28,3.11-4,2.49-3,3.26-3.59,4.67-5.34,1.85-2.3,2.11-3.32,4.66-8,1-1.92,2.61-4.69,4.67-8a71.84,71.84,0,0,0,4.66-8c1.53-3.06,1.55-3.65,3.12-6.67,2.29-4.43,2.93-4.46,4.66-8s1.48-4.37,3.11-8a45.15,45.15,0,0,1,4.67-8"/><path class="cls-21" d="M544.44,926.27s4.49,33.85,9.33,83.08c2.61,26.52,4,41.27,3.11,41.54s-4.48-15-6.22-30.61c-.4-3.62-.61-6.35-1.56-21.87-.65-10.74-1.17-19.72-1.55-26.23A87.67,87.67,0,0,1,546,961.25c-.55-7.12.07-10.57,0-17.49A105,105,0,0,0,544.44,926.27Z"/><path class="cls-21" d="M558.63,970.35c-2,1,2.23,34.64,16.1,66.08a167.22,167.22,0,0,0,16.1,28.74l8,5.74c-4.39-9.86-10.8-24.68-18.12-43.1C564.9,987.87,560.12,969.55,558.63,970.35Z"/><path class="cls-21" d="M479.38,971.44c-1.94,5.23-4.8,12.52-8.73,21.13a324.36,324.36,0,0,1-26.11,46.68c-4,6-9.66,13.85-16.8,22.57,2.92.33,7.45,0,12.45-4,7.81-6.21,12.21-17.71,16.39-28.51C462,1015.47,469.16,997,479.38,971.44Z"/><path class="cls-21" d="M550.56,853.29c.12,0-.08,3.62-.07,10.68,0,2.48,0,4.21.07,6.07.38,22,.23,24.49,0,26.32-.76,6.22-1.28,5-2.68,14.36-1.58,10.59-1,12.48-2.69,19.15-1.07,4.14-2.5,7.55-5.37,14.35-.5,1.19-7.17,17-8.05,16.76-.65-.19,7.46-14.67,10.74-35.9,1.06-6.85.62-8,2.68-23.93,1.4-10.78,1.69-11,2.69-19.15C549.86,865.83,550.35,853.28,550.56,853.29Z"/><path class="cls-21" d="M561.55,858.63c.72,0,1.21,2.38,1.55,4a16.34,16.34,0,0,1,0,6.68A32.37,32.37,0,0,0,560,880a31.59,31.59,0,0,0,0,6.68,48.88,48.88,0,0,1-1.55-13.36C558.59,866.46,560.24,858.6,561.55,858.63Z"/><path class="cls-21" d="M743.53,578.25c.36.47-1.14,2.25-9.33,8a99.79,99.79,0,0,0-9.34,6.68c-4.66,3.77-7.56,6.82-7.77,6.67s1.09-1.8,7.77-9.34a26.76,26.76,0,0,1,6.23-6.68C736.26,579.65,742.91,577.46,743.53,578.25Z"/><path class="cls-21" d="M658,717.11a68.07,68.07,0,0,1-6.22,9.34,50.91,50.91,0,0,1-12.44,10.68c1.45-2.14,3.62-5.37,6.22-9.34,4-6,4.47-7,6.22-9.35,4.33-5.68,10-11.17,10.89-10.68S660.68,712.61,658,717.11Z"/><path class="cls-21" d="M536.66,881.34c2.88,1.22-2.07,30.85-4.66,46.34-4.86,29-7.52,32.81-10.89,56.41-3.68,25.72-3.53,42.32-4.67,42.31-.85,0-2-9.35-3.11-52.38a239.48,239.48,0,0,1,7.78-54.4C526.08,900.92,534.16,880.28,536.66,881.34Z"/><path class="cls-21" d="M602,779.86c.7.52-7.77,8.53-20.22,24-21.16,26.35-29.88,44.56-31.11,44.06s5.31-19.48,20.22-38.72C584.57,791.56,601.07,779.17,602,779.86Z"/><path class="cls-21" d="M485.33,722.45c4.48,7.18,8.73,17.34,9.34,38.71.49,17.48-1.66,34.75-3.11,34.72s.76-17.55-4.67-42.73-15-41.73-12.44-42.72C476.14,709.76,481.81,716.8,485.33,722.45Z"/><path class="cls-21" d="M553.72,823.5c1.69.11,4.28-23.83,5-40.21.42-8.95.34-16.62.12-22.6-.75-20.53-4-46.33-5.85-46.24C549.32,714.65,550.12,823.25,553.72,823.5Z"/><path class="cls-21" d="M631.54,683.73c1.35.19-.27,20.08-6.22,41.39-5.17,18.5-12.76,35-14,34.71-.92-.23,2.49-13.06,9.33-38.72C627.33,696.1,630.66,683.6,631.54,683.73Z"/><path class="cls-22" d="M509.34,905.75c-5.75,31.79-15.06,60.87-16.18,60.47-2-.68,18.49-91.21,20.32-90.73C514.32,875.71,511.27,895.1,509.34,905.75Z"/><path class="cls-22" d="M494.4,832.81c-.48,21.11,6.59,43,10.89,42.72,3.45-.2,6.08-14.69,4.67-26.7-1.71-14.56-9.32-25.19-14-30.71A89.9,89.9,0,0,0,494.4,832.81Z"/><path class="cls-22" d="M561.28,608.51q-5.09,92.28-8.29,92.12-2.79-.15-4.15-70.19Q555.07,619.47,561.28,608.51Z"/><path class="cls-22" d="M397.24,653.79c29.35,18.46,54,39.45,53,40.43-1.75,1.71-83.1-55-81.62-56.65C369.28,636.81,387.42,647.61,397.24,653.79Z"/><path class="cls-22" d="M683,653.69c-17.64,27.31-38.79,50.94-40,50.21-2.19-1.27,53.07-77.7,55.17-76.65C699.08,627.74,688.89,644.54,683,653.69Z"/><path class="cls-10" d="M419.48,439.68c1.17-1.11,4.67-1.28,15.47,3.61,25.07,5.25,33.19,2.6,35.86-.94,5.38-7.13-10.64-19.11-4.67-28,5.24-7.83,24.4-10.08,35.77-4,9.39,5,6.35,11.88,17.11,18.69,10.16,6.43,22.84,6.61,28,6.68,14.63.2,18.86-4.42,24.89-1.34,8.28,4.24,3.81,14.8,10.88,21.37,4.93,4.56,16.2,7.89,45.11,0C620.57,472,610.83,479,603,482.41c-5.89,2.56-7.45,1.63-26.44,5.34-22.74,4.43-24.38,6.52-37.33,8-10.81,1.24-10.7-.09-32.66,0-31.3.12-44.64,2.88-46.66-1.34-2.68-5.58,18.42-15.29,15.55-21.36-2.42-5.12-18.11.44-34.22-6.67S416.17,442.81,419.48,439.68Z"/><path class="cls-10" d="M813,422.33c2.08,10.83,28.9,14.09,28,18.69-.71,3.62-17.09.5-23.33,8-7.48,9,5.43,26.14,1.55,28-1.05.51-3.42-.06-9.33-5.34-15.38.9-25.78,4.68-26.44,9.34-.57,4,6,8.76,12.44,10.68,3.27,1,12.44,3,51.33-14.68,16.64-7.56,20.47-10.43,29.55-10.68,10.74-.3,18.16,3.36,21.78,0,4.5-4.19-4-12.61,0-17.36,6.53-7.72,36.9,5.3,40.44,0,2-3-6-10.2-14-17.36-14.93-13.34-27.81-20.48-26.44-22.69s12.36,4.19,20.22,0c7.34-3.92,9.73-15.83,4.66-20-2.93-2.44-7.72-1.74-17.11,0-30,5.57-34.66,8.42-49.77,10.68-16.4,2.46-21,.61-29.55,5.34C826.07,405.48,811.35,413.78,813,422.33Z"/><path class="cls-10" d="M820.77,235.41c-3.53,6.06,4.07,10.92,1.55,22.7a22.81,22.81,0,0,1-6.22,12c-7,7-17.26,7.85-20.22,8-.06,4.64-1,11-6.22,14.69-8.31,6-22.78,2-23.33,4s12.91,3.25,20.22,12c5.33,6.39,8.17,17.65,1.55,22.7-5.81,4.43-15.83,1.7-17.1,1.33a39.87,39.87,0,0,0-12.45,14.69,33.62,33.62,0,0,0-3.11,18.69c-23.94,2.93-29.46,5.81-29.55,8-.21,5,27.24,13.27,37.33,5.34,4.39-3.45,3.95-8.76,7.78-9.34,5.55-.86,9.55,9.89,15.55,9.34,3.9-.35,6-5.23,9.33-12,3-6.12,7.57-14.83,14-25.37,3.8-.06,9.39-.65,12.44-4,6-6.56-3.15-17.74,1.56-21.36,5.55-4.26,22.3,8.09,28,4,3.59-2.57.94-10.35-1.56-16,17.76-8.78,20.72-14.82,20.22-18.7-.9-7-13.29-8.84-18.66-20a24.79,24.79,0,0,1-1.56-16c4.54-7.41,2.82-15.9-3.11-20C838.76,224.18,824.47,229.05,820.77,235.41Z"/><path class="cls-10" d="M593.68,308.84c7.5-7.59,18.72-8.37,32.66-9.34,9.86-.69,21.08-1.47,23.34,2.67,2.74,5-10.25,12.74-7.78,16s18.86-1.63,26.44-5.34a84.81,84.81,0,0,0,14-9.24l0,0c.71-.61,1.22-1.08,1.56-1.41a47.5,47.5,0,0,1,7.78-24,55,55,0,0,1,12.44-13.35c9.22,15.74,7.91,25,4.67,30.71C699,312.65,665.72,307,632.57,330.2a100.61,100.61,0,0,0-20.22,18.7c-7.76,4.26-17.12,4.88-23.33,1.33-8.94-5.1-11.61-18.93-1.56-29.37A23.08,23.08,0,0,1,593.68,308.84Z"/><path class="cls-10" d="M111.51,351.57c5.32-4.76-3-15.39,3.11-20,3.21-2.44,6.48-.23,10.89-2.67,8-4.4,9-18,4.67-20-3-1.44-6.56,3.88-18.67,6.68a43.47,43.47,0,0,1-12.44,1.33c-12.84-.7-23.79-8.57-23.33-9.34.27-.46,5.26.36,6.22,2.67,1.11,2.65-3.27,7-7.78,9.34-9.24,4.87-19.55,1.84-20.22,4-.52,1.68,5.91,2.63,9.33,8,3.17,5,.25,8.19,3.11,12,2.14,2.86,5.7,3.66,15.56,5.35C100.17,352,109.31,353.53,111.51,351.57Z"/><path class="cls-10" d="M167.5,287.48c.49-1.73,3.67-3.41,14-4-15-15.45-16.87-20.09-15.55-21.36s5.62,1.35,15.55,2.67c8.26,1.1,16.51,2.19,20.22-1.33,4.14-3.93-1.5-9.62,3.11-18.69,1.43-2.81,3.19-6.28,6.23-6.68,7.28-1,11.72,17,21.77,17.36,7.79.24,13.9-10.29,15.56-9.35s-8.21,10.78-4.67,18.69c3.18,7.13,14.25,5.92,17.11,13.35,2.09,5.44-2.92,8.44-1.56,14.69,1.42,6.47,8.42,10.76,14,13.35,3.8.72,8.87,1.08,12.44-1.33,4.2-2.84,3.82-7.82,6.23-8,3-.25,6,7.32,6.22,8,.77,2,4.45,11.68,0,14.68-4.24,2.87-11.09-3.52-18.67-1.33-5.9,1.7-9.07,7.68-10.88,13.35-3.82-5.28-8.13-8.06-12.45-9.35-9.92-2.95-17.81,2.67-24.88-1.33-2.48-1.4-3.16-3-6.23-9.35-11.41-23.56-13.62-25.22-15.55-25.37-5.25-.39-6.1,10.62-15.55,13.36C182.64,302.76,166.2,292.12,167.5,287.48Z"/><path class="cls-10" d="M253.05,231.4c4.08-2.92,9.1-7.52,9.33-13.35.32-7.68-7.77-14.69-7.77-14.68s7.58,13.76,15.55,13.35c3.73-.19,3.82-3.29,9.33-5.34,6.56-2.45,9.73.71,20.22,0,5.68-.39,12.66-.86,17.11-5.34,3.2-3.23,5.5-8.93,3.11-13.35-3-5.6-11.37-5.1-26.44-10.69a111.81,111.81,0,0,1-17.11-8c-2.24-9.79-3.71-12.06-4.66-12-2.17.11-1,12.09-7.78,14.68-3,1.15-4.4-.76-9.33,0s-6.45,3.22-12.45,6.68c-9.28,5.35-11.9,3-15.55,6.68s-1.31,6-3.11,18.69c-1.58,11.06-3.85,13.21-1.56,17.35,3.21,5.8,11,7.67,12.45,8A26.76,26.76,0,0,0,253.05,231.4Z"/><path class="cls-10" d="M343.26,154c.68-4.76,5.65-8.93,9.34-12,5.59-4.69,9.68-5.95,9.33-8-.21-1.25-2.07-2.79-9.33-4L365,124.59c4.11,4.41,9.31,9.1,12.44,8,4-1.38,1.23-11,4.67-12,3.69-1.09,13.79,7.92,12.44,16-1,6-7.74,8.63-6.22,12,.95,2.11,4.14,2.3,9.33,4a56.28,56.28,0,0,1,15.56,8c6.53,3.65,13.51,8.18,12.44,10.68-1.13,2.66-10.28.58-12.44,4-2.85,4.51,10.92,11.32,9.33,20-1.13,6.2-9.77,11.79-15.56,10.68-6.72-1.3-6.28-11-12.44-12-7.94-1.3-16.88,13.53-20.22,12-2.17-1,1.21-7.5-1.55-9.35-3.42-2.29-12.41,8.47-17.11,6.68-6-2.3,5.63-20.5-4.67-36.05C347.33,161.71,342.53,159.13,343.26,154Z"/><path class="cls-10" d="M441.25,190s-.71,1.68-1.39,14.34h0L439.7,206c-.18,2.27,17.94,7,18.66,12,.52,3.6-8,5.55-7.77,9.35.21,3.55,7.9,6.19,15.55,8,2.23-7.84,7-13.49,10.89-13.35,4.37.15,9.55,7.57,9.33,18.69-3.95-8.51-1.83-16.43,3.11-18.69,5.25-2.4,13.15,1.84,17.11,5.34,0,0,3.14,2.78,9.33,17.36h0s3.76-7.58,9.33-10.69c2.47-1.37,6.67-2.64,14-1.33a80.63,80.63,0,0,0-10.88-13.35c-9-9-15.13-10.93-21.78-18.69a46.86,46.86,0,0,1-9.33-17.36,35.76,35.76,0,0,0-7.78,9.35c-3.43,6.06-2.5,9.05-6.22,12a16.46,16.46,0,0,1-14,2.67c-4.67-1.26-8.13-4.56-9.33-8-.49-1.4-.62-2.85,1.55-12,1.82-7.69,2.39-8.67,1.56-9.35C460.14,175.63,445.17,180.76,441.25,190Z"/><path class="cls-10" d="M559.46,192.69c.08,2.68-1.08,6.29-6.22,10.68-14.82,3.71-15.65,5.89-15.55,6.67.24,2,7.73,4.23,14,2.67,4.87-1.21,5.85-3.92,9.33-4,2.57-.06,6.26,1.32,10.89,8a22.53,22.53,0,0,0,9.33-2.67c9.78-5.48,11.5-17.71,9.33-18.69-1.64-.74-7,4.2-6.22,5.34s8.4-1.31,18.66-5.34c13.43-4.1,17-7.78,17.11-10.69.15-4.3-7.34-7.24-6.22-10.68.78-2.38,5.21-3.46,9.33-4-4-12.27-9.42-16.24-14-17.36-4.82-1.17-8.67.83-12.45-1.33-4.35-2.5-4.94-8.42-4.66-13.35-1-3.4-2.86-7.29-6.23-8-4.86-1-7.93,5.6-17.1,9.35-12,4.93-24.32.7-24.89,2.67-.64,2.2,15.76,3.87,18.66,12,0,0,1.45,4.05-12.44,24h0C557.35,187,559.36,189.38,559.46,192.69Z"/><path class="cls-10" d="M388.07,254.78c1.44-3.47,32.76-2.78,37.33,9.29,3.37,8.92-9.13,20.73-12.45,23.87a75.24,75.24,0,0,1-6.22,5.13c-13.08,10.08-18.17,10.19-18.66,13.44-1,6.44,18.66,8.11,24.88,21.22,3.69,7.76,2.2,18.52-4.66,22.55-9.14,5.38-24.57-3.06-31.11-6.63-11.14-6.09-32.23-21.49-28-35.81,2-6.77,9.11-10.7,23.33-18.57,21.08-11.67,33.67-12.63,34.22-18.57C407.45,263,386.84,257.73,388.07,254.78Z"/><path class="cls-10" d="M506.28,13c1.76-.36,6.92,7.69,7.77,15.92a23,23,0,0,1,.11,3.47,26.42,26.42,0,0,1-4.77,13.78C504.38,19.09,504.89,13.3,506.28,13Z"/><path class="cls-23" d="M1852.89,584.88c5.33-2.07,9.73-4.43,12.64-6.93,9.4-8.07-.13-14.65-21.29-15,6.33-9.67-8-17-35.47-17-28.42,0-61,7.83-76.65,18a91.48,91.48,0,0,0-9.69-.49c-22.29,0-48.18,6.71-57.82,15-3.6,3.1-4.42,6-2.87,8.36-12.34,3.62-22.65,8.27-28.56,13.35-13.43,11.54.87,20.88,31.93,20.88a175.29,175.29,0,0,0,17.59-.92,3.11,3.11,0,0,0-.92.44c.86,3.67,1.06,11.87-13.17,22.68-10.65,8.08-24.92,14.24-33.87,17.72h73c2.47-.43,2.79-.69,2.85-.74-2.16-2.58-5.53-8.43,2.09-16.74,10.87-11.88,36.54-20.5,43.92-22.87a114.09,114.09,0,0,0,17.44,1.21c31.06,0,67.13-9.34,80.56-20.88C1862.13,594.5,1860.92,588.71,1852.89,584.88Z"/><path class="cls-24" d="M1686.51,662.22h-73a99.84,99.84,0,0,0,0-100,1.81,1.81,0,0,1,.59-1.3,2.06,2.06,0,0,1,1.4-.53h71a1.92,1.92,0,0,1,2,1.83c-4.51,5.67-20.39,27.1-17.41,56.71,2.07,20.6,12.25,35.06,17.41,41.45C1688.5,660.52,1688.49,661.16,1686.51,662.22Z"/><path class="cls-25" d="M1743.05,473.8a34.51,34.51,0,0,0,4.57-17.15c0-20-17.18-36.26-38.71-37.06-4.93-23.93-27.78-42-55.25-42-28.42,0-51.9,19.38-55.69,44.55a43.82,43.82,0,0,0-10.27-1.22c-22.29,0-40.36,16.61-40.36,37.1a34.84,34.84,0,0,0,6.85,20.69,49,49,0,0,0-13,33.05c0,28.55,25.18,51.69,56.24,51.69a60.44,60.44,0,0,0,19-3c7.06,10.78,19.92,18,34.61,18,14.33,0,26.91-6.87,34.07-17.22a60.18,60.18,0,0,0,22.17,4.18c31.06,0,56.24-23.14,56.24-51.69C1763.5,497.62,1755.54,483.28,1743.05,473.8Z"/><path class="cls-16" d="M2030.27,953.05c-3.53-13.14-12.8-22.75-23.08-25.35a38.63,38.63,0,0,0-.74-8.31,40.92,40.92,0,0,0-13.78-23c8.82-7.05,12.78-21,9-35-4.78-17.78-20.08-29.12-34.17-25.33a21.19,21.19,0,0,0-3.27,1.18c-4.83-17.7-20.08-29-34.13-25.19-6.83,1.84-12.12,6.9-15.22,13.64-7-9.7-17.79-14.82-27.93-12.09A23.16,23.16,0,0,0,1873,824.69c-6.91-11.23-18.58-17.41-29.52-14.47-9.68,2.6-16.27,11.66-17.9,22.84a38.16,38.16,0,0,0-30-4.58c-12.62,3.4-22,13-26.3,25-5.76-3.62-12.33-5-18.66-3.28-14.1,3.79-21.64,21.27-16.86,39.05a39,39,0,0,0,10.74,18.37c0,.43,0,.86-.07,1.29a21.83,21.83,0,0,0-11.12,0c-14.09,3.79-21.64,21.27-16.86,39.05,3,11.33,10.36,20,18.91,23.89-3.7,7.32-4.72,16.83-2.14,26.43,3.65,13.57,13.43,23.38,24.12,25.59a39.31,39.31,0,0,0,.32,19.8c4.78,17.78,20.08,29.12,34.17,25.33a21.63,21.63,0,0,0,9.32-5.27c6.11,5.87,13.88,8.94,21.59,7.7a22.41,22.41,0,0,0,15.12-10.08c10.36,10.52,26.32,16.09,42.73,13.46a48.18,48.18,0,0,0,21.07-8.71c6.84,7,15.89,10.32,24.49,8,7.16-1.93,12.62-7.4,15.65-14.64a51,51,0,0,0,13.32-.37,49,49,0,0,0,14.93-4.89c6.56,5.73,14.74,8.29,22.56,6.18,8.55-2.3,14.68-9.64,17.12-19a20.81,20.81,0,0,0,4.93-.71c14.09-3.79,21.64-21.27,16.85-39a39.78,39.78,0,0,0-8-15.49C2030.74,978.59,2033.73,965.9,2030.27,953.05ZM1904.2,934.28c.59.37,1.17.73,1.76,1.06-.77,0-1.54-.05-2.32-.05C1903.83,935,1904,934.62,1904.2,934.28Z"/><path class="cls-26" d="M2023.38,952.8c-3.38-12.55-12.24-21.75-22.08-24.24a36.47,36.47,0,0,0-.7-7.94,39.11,39.11,0,0,0-13.18-22c8.43-6.74,12.22-20,8.6-33.51-4.57-17-19.2-27.85-32.68-24.23a19.45,19.45,0,0,0-3.13,1.14c-4.61-16.93-19.2-27.71-32.64-24.1-6.53,1.76-11.58,6.6-14.55,13-6.71-9.28-17-14.17-26.71-11.56A22.1,22.1,0,0,0,1873,830.06c-6.61-10.74-17.77-16.65-28.23-13.84-9.25,2.49-15.55,11.15-17.11,21.84a36.51,36.51,0,0,0-28.7-4.38c-12.07,3.25-21.09,12.4-25.16,23.88-5.5-3.46-11.79-4.76-17.85-3.14-13.47,3.63-20.69,20.35-16.12,37.35a37.34,37.34,0,0,0,10.28,17.56c0,.41-.06.83-.07,1.24a20.82,20.82,0,0,0-10.63,0c-13.48,3.62-20.7,20.34-16.13,37.34,2.92,10.84,9.91,19.16,18.09,22.85-3.54,7-4.52,16.09-2,25.28,3.49,13,12.84,22.36,23.06,24.46a37.87,37.87,0,0,0,.31,18.94c4.57,17,19.2,27.85,32.68,24.22a20.75,20.75,0,0,0,8.92-5c5.84,5.62,13.26,8.55,20.64,7.37a21.4,21.4,0,0,0,14.45-9.64c9.91,10.06,25.17,15.38,40.87,12.87a46.07,46.07,0,0,0,20.15-8.33c6.54,6.68,15.19,9.87,23.42,7.66,6.84-1.85,12.07-7.07,15-14a48.75,48.75,0,0,0,12.74-.35,46.92,46.92,0,0,0,14.28-4.68c6.27,5.48,14.1,7.92,21.57,5.91,8.18-2.2,14.05-9.22,16.38-18.21a20.07,20.07,0,0,0,4.71-.68c13.47-3.62,20.69-20.34,16.12-37.34a38.27,38.27,0,0,0-7.66-14.82C2023.83,977.24,2026.68,965.1,2023.38,952.8Zm-120.56-17.94c.56.36,1.12.69,1.68,1-.73,0-1.47,0-2.21,0C1902.47,935.51,1902.65,935.19,1902.82,934.86Z"/><path class="cls-9" d="M1766.24,922.9c-5.83-6.54-4.8-19.66,2.3-29.3s17.56-12.14,23.39-5.59a14.53,14.53,0,0,1,3.11,6c-6-6.5-15.14-5.81-20.59,1.6s-5.13,19,.84,25.67a14,14,0,0,0,5.23,3.77C1775.25,927.54,1769.85,927,1766.24,922.9Z"/><path class="cls-9" d="M1800.3,981.43c3.42-10,13.09-14.73,21-11.18a18.31,18.31,0,0,1,6.82,5.71c-.78-.25-12.14-3.5-19.6,6.1-6.25,8.05-5,18.94-4.76,20.55C1802.32,999.82,1797.49,989.62,1800.3,981.43Z"/><path class="cls-9" d="M1958.06,898.81c.74-7.49-1.71-16.36-7.12-23.6-8.52-11.4-21.15-14.41-28.22-6.71a18.24,18.24,0,0,0-4.33,9.69c-1.94-8.25-.91-16.11,3.38-20.79,7.09-7.71,20.4-3.84,29.73,8.65C1959.49,876.74,1962,890.29,1958.06,898.81Z"/><path class="cls-16" d="M1960.23,895.28c.74-8.39-2.1-18.39-8.23-26.6-9.67-12.94-23.85-16.53-31.68-8a19.89,19.89,0,0,0-4.74,10.81c-2.27-9.3-1.21-18.1,3.55-23.29,7.85-8.54,22.8-4,33.39,10.2C1961.59,870.54,1964.52,885.79,1960.23,895.28Z"/><path class="cls-16" d="M1762.13,918.63c-5.83-6.54-4.8-19.66,2.3-29.3s17.56-12.14,23.39-5.59a14.53,14.53,0,0,1,3.11,6c-6-6.5-15.14-5.81-20.59,1.6s-5.13,19,.84,25.67a14,14,0,0,0,5.23,3.77C1771.14,923.27,1765.74,922.69,1762.13,918.63Z"/><path class="cls-16" d="M1863.88,863.39c6.45-.07,20.9,10.9,22.48,13.22-6.15-3.42-14.39-6.59-23.32-5.41-14,1.86-21.32,13.36-22.17,12.17C1839.85,882,1849,863.53,1863.88,863.39Z"/><path class="cls-9" d="M1872,948.71c-.53-.9,5.81-10.56,16.1-12.63,12.29-2.46,24.2,7.11,24,8.09s-9.81-5.5-22.23-3.6C1878.69,942.28,1872.44,949.56,1872,948.71Z"/><path class="cls-9" d="M1860.74,905.13c-3.55,1.83-7,6.94-5.92,11-2.12-2-8.68-5.61-13.77-2.54-3.46,2.08-6.63,7.49-5.37,11.51a5.16,5.16,0,0,0,.51,1.16c2.76-5.35,5.83-7.47,8.34-8.34,5.11-1.77,9.6-.46,10.71-.64l0,.1.08-.13a.18.18,0,0,0,.14-.16.15.15,0,0,0,0-.06c3-4.85,6-6.69,8.55-7.37,6-1.62,11,.73,11.07-.09C1875.27,908.53,1867.13,901.84,1860.74,905.13Z"/><path class="cls-16" d="M1858.48,902.09c-3.55,1.82-7,6.93-5.92,11-2.12-2-8.68-5.61-13.77-2.54-3.46,2.09-6.63,7.49-5.37,11.51a5.16,5.16,0,0,0,.51,1.16c2.76-5.34,5.83-7.47,8.34-8.34,5.11-1.77,9.6-.45,10.71-.63a.41.41,0,0,1,0,.09l.08-.13a.18.18,0,0,0,.14-.15.13.13,0,0,0,0-.06c3-4.86,6-6.7,8.55-7.38,6-1.62,11,.73,11.07-.08C1873,905.49,1864.87,898.79,1858.48,902.09Z"/><path class="cls-16" d="M1779.82,951.94c-4.37,3.43-5.39,10.44-5.25,15.63-3.78-4.5-13.48-7.08-19.6-2.68-7.74,5.56-7.23,20.44-6.08,21.05s2.84-13.28,11.14-16.4c5.38-2,11.45,1.29,15.76,4.43h0c1.2.46,1.59-13.83,9.42-18,5.28-2.84,11.88,0,16.75,3C1794.78,950,1785.31,947.63,1779.82,951.94Z"/><path class="cls-16" d="M1815.34,1044.08c5.26-1.18,8.29-7,9.65-11.73,2.4,5.67,11.13,12.16,18.39,10.86,9.18-1.64,13-15.19,12-16.23s-6.62,10.67-15.63,9.88c-5.85-.52-10.83-6.09-14.13-10.76h0c-1-.93-5.56,11.7-14.43,12.08-6,.27-11.6-5.15-15.5-9.94C1800.16,1039.35,1808.73,1045.57,1815.34,1044.08Z"/><path class="cls-16" d="M1892.5,930.63c6.44-.07,20.89,10.9,22.48,13.22-6.16-3.42-14.39-6.59-23.32-5.41-14,1.86-21.32,13.36-22.17,12.17C1868.47,949.19,1877.6,930.77,1892.5,930.63Z"/><path class="cls-9" d="M1864.52,865.76c6.45-.06,20.89,10.9,22.48,13.22-6.15-3.42-14.39-6.59-23.32-5.41-14,1.86-21.32,13.36-22.17,12.17C1840.49,884.32,1849.62,865.9,1864.52,865.76Z"/><path class="cls-16" d="M1801.59,986.22c3.42-10,13.09-14.72,21-11.18a18.31,18.31,0,0,1,6.82,5.71c-.78-.24-12.14-3.5-19.6,6.11-6.25,8-5,18.93-4.77,20.54C1803.61,1004.61,1798.78,994.41,1801.59,986.22Z"/><path class="cls-9" d="M1900.77,978.55c-3.93.58-8.41,4.27-8.26,8.4-1.68-2.52-7.44-8-13.17-6.77-3.89.85-8.2,4.89-7.81,9.05a5.6,5.6,0,0,0,.25,1.25c3.9-4.12,7.41-5.13,10.1-5.14,5.47,0,9.66,2.63,10.81,2.82l0,.11s.07-.06.1-.1.16,0,.18-.1V988c4-3.6,7.45-4.33,10.1-4.17,6.3.39,10.76,4.18,11,3.45C1914.51,986.37,1907.84,977.51,1900.77,978.55Z"/><path class="cls-27" d="M420.91,570.81a11.38,11.38,0,0,1,7.47,1.29c3.75,2,5.19,5.32,6.05,7.32a14,14,0,0,1,1.34,8.7c-.24,1.19-1,4.92-4,7.11-1.85,1.34-3,1-6.83,2.83a31.4,31.4,0,0,0-4.06,2.31l-.08,0c-4.51,1.34-9.75-1.58-12.67-4.66a14.56,14.56,0,0,1-4.1-10.06,10.72,10.72,0,0,1,2.17-6.62,15.4,15.4,0,0,1,3.22-2.58,45.58,45.58,0,0,1,7.18-4A18,18,0,0,1,420.91,570.81Z"/><ellipse class="cls-28" cx="416.53" cy="576.48" rx="8.5" ry="3.01" transform="translate(-169.33 173.25) rotate(-19.61)"/><ellipse class="cls-29" cx="416.52" cy="576.6" rx="5.51" ry="1.98" transform="translate(-167.09 169.96) rotate(-19.29)"/><path class="cls-24" d="M416.7,569a11.53,11.53,0,0,0-.15,3.54c.33,2.06,1.52,2.88,1,3.73a1.4,1.4,0,0,1-1.26.6c-.58,0-.85-.81-1.11-1.61a23.09,23.09,0,0,1-1.05-5.71c-.19-2.79-.07-3.3.34-3.62a1.89,1.89,0,0,1,2.35.22C417.25,566.7,416.94,567.31,416.7,569Z"/><ellipse class="cls-21" cx="415.63" cy="566.51" rx="0.76" ry="1.29" transform="translate(-200.83 903.63) rotate(-82.41)"/><path class="cls-30" d="M409.63,595.25a14,14,0,0,1-3.67-5.88c-.5-1.53-1.46-4.46-.15-6.17a2,2,0,0,1,1.08-.83c1.75-.25.74,5.71,3.82,9.46,2.45,3,6.33,3.13,5.93,5.24a1.87,1.87,0,0,1-.46.91C414.86,599.28,411.41,596.92,409.63,595.25Z"/></g><circle class="cls-31" cx="1660.5" cy="447.5" r="5.5"/><circle class="cls-31" cx="1717" cy="512" r="5"/><circle class="cls-31" cx="1586.5" cy="524.5" r="5.5"/><circle class="cls-31" cx="1600" cy="448" r="5"/><circle class="cls-31" cx="1652.5" cy="495.5" r="5.5"/><circle class="cls-31" cx="1722" cy="456" r="7"/><circle class="cls-31" cx="1653" cy="545" r="5"/></g><g id="Layer_1" data-name="Layer 1"><ellipse class="cls-16" cx="175.5" cy="735" rx="32.5" ry="15"/><path class="cls-14" d="M352.09,350.77C384.65,328.38,422.87,305.56,444,302c58.3-9.83,55.2,1.85,95,31s-34-3.2-76-2C428,332,337.3,360.93,352.09,350.77Z"/><path class="cls-14" d="M714,325c-2.08-2.85,31.24-47.63,72-43,13.8,1.57,24.5,8.35,35,15,20.22,12.81,35,30.37,33,33s-17.18-11-48-20c-10.08-2.94-20.43-6-33-6C737.89,303.9,715.61,327.2,714,325Z"/><path class="cls-32" d="M1419.43,393.11a15.75,15.75,0,0,0,5.58-4.68c3.59-5.44-2.9-9.88-14.54-10.09,1.6-6.52-7.67-11.46-22.71-11.46-15.56,0-31.9,5.28-38.5,12.14a42.9,42.9,0,0,0-5.4-.33c-12.21,0-25.09,4.53-28.77,10.11-1.37,2.09-1.27,4,0,5.64-6.06,2.44-10.8,5.58-13.06,9-5.13,7.78,4.51,14.09,21.52,14.09a74.61,74.61,0,0,0,9.45-.62,1,1,0,0,0-.42.29c1.18,2.48,2.87,8-2.83,15.3-4.28,5.45-10.9,9.61-15.13,11.95h40c1.27-.29,1.4-.46,1.42-.5a9.64,9.64,0,0,1-2.09-11.29c3.66-8,16-13.83,19.64-15.42a55.4,55.4,0,0,0,9.79.81c17,0,34.95-6.3,40.08-14.08C1426.35,399.6,1424.56,395.69,1419.43,393.11Zm-84.9,23.59Z"/><path class="cls-24" d="M1330.89,446.33h-48.45a66.32,66.32,0,0,0,0-66.39,1.19,1.19,0,0,1,.39-.86,1.38,1.38,0,0,1,.93-.36h47.13a1.27,1.27,0,0,1,1.32,1.22c-3,3.76-13.53,18-11.55,37.65a52.57,52.57,0,0,0,11.55,27.52C1332.21,445.19,1332.2,445.62,1330.89,446.33Z"/><path class="cls-33" d="M1368.43,321.23a23,23,0,0,0,3-11.38c0-13.27-11.41-24.08-25.7-24.6-3.27-15.89-18.44-27.91-36.68-27.91-18.87,0-34.46,12.87-37,29.57a29.34,29.34,0,0,0-6.82-.8c-14.8,0-26.8,11-26.8,24.63a23.15,23.15,0,0,0,4.55,13.73,32.56,32.56,0,0,0-8.63,21.95c0,18.95,16.71,34.31,37.33,34.31a40.18,40.18,0,0,0,12.61-2,28.08,28.08,0,0,0,45.6.52,40.05,40.05,0,0,0,14.71,2.77c20.62,0,37.34-15.36,37.34-34.31A33.26,33.26,0,0,0,1368.43,321.23Z"/><circle class="cls-34" cx="1308.5" cy="337.5" r="3.5"/><circle class="cls-34" cx="1359.5" cy="332.5" r="3.5"/><circle class="cls-34" cx="1300.5" cy="364.5" r="3.5"/><circle class="cls-34" cx="1286.5" cy="293.5" r="3.5"/><ellipse class="cls-34" cx="1322.78" cy="302.73" rx="2.72" ry="2.88" transform="translate(741.75 1529.02) rotate(-77.54)"/><ellipse class="cls-34" cx="1356.17" cy="364.79" rx="2.72" ry="2.88" transform="translate(707.34 1610.29) rotate(-77.54)"/><circle class="cls-34" cx="1262.5" cy="327.5" r="3.5"/><path class="cls-27" d="M619.84,355.93a13.71,13.71,0,0,1,5.93,7c1.94,4.72.69,8.95-.06,11.47a17,17,0,0,1-5.51,9.1c-1.14.92-4.71,3.8-9.24,3.47-2.75-.19-3.61-1.42-8.52-2.67a41.18,41.18,0,0,0-5.56-1l-.1,0c-5.21-2.25-7.81-9-8.12-14.14-.12-1.9-.18-7.78,4-12.5a12.87,12.87,0,0,1,7.14-4.46,18.91,18.91,0,0,1,5,.1,55,55,0,0,1,9.78,1.83A22.56,22.56,0,0,1,619.84,355.93Z"/><path class="cls-30" d="M590.45,369.86a16.71,16.71,0,0,1,1.15-8.3c.72-1.8,2.1-5.27,4.64-5.84a2.41,2.41,0,0,1,1.64.07c1.82,1.12-3.73,5.86-3.79,11.72,0,4.69,3.45,7.81,1.44,9.46a2.15,2.15,0,0,1-1.13.5C592.17,377.64,590.8,372.78,590.45,369.86Z"/><path class="cls-27" d="M782.65,566.57c3.25-5.05,8.87-6.8,10.24-7.22,6.67-2.07,12.27.15,15.61,1.48,3.09,1.23,8.1,3.19,11.72,8.61,1.11,1.66,4.6,6.87,3.6,13-.6,3.72-2.37,4.74-4.68,11.28a54.35,54.35,0,0,0-2,7.44s0,.08-.07.12c-3.7,6.83-13.22,9.54-20.24,9.35-2.59-.07-10.6-.71-16.52-7-1.32-1.39-4.66-4.92-5.21-10.25-.17-1.67.14-3.38.75-6.79a74.66,74.66,0,0,1,3.68-13.09C781.27,568.57,782.29,567.14,782.65,566.57Z"/><ellipse class="cls-28" cx="784.16" cy="578.3" rx="14.03" ry="4.97" transform="translate(-74.5 1038.78) rotate(-64.61)"/><ellipse class="cls-29" cx="784.29" cy="578.45" rx="9.1" ry="3.28" transform="translate(-77.14 1034.15) rotate(-64.29)"/><path class="cls-24" d="M775.67,569.4a19.18,19.18,0,0,0,3.94,4.31c2.81,2,5.15,1.59,5.53,3.2a2.34,2.34,0,0,1-.77,2.17c-.73.62-1.94,0-3.17-.59a37.9,37.9,0,0,1-7.89-5.45c-3.49-3-3.95-3.76-3.84-4.62a3.15,3.15,0,0,1,3-2.49C773.57,566,773.93,567.12,775.67,569.4Z"/><ellipse class="cls-21" cx="771.47" cy="567.71" rx="2.13" ry="1.26" transform="translate(-186.21 585.39) rotate(-37.41)"/><path class="cls-30" d="M798,608.27a23,23,0,0,1-11.15-2.58c-2.37-1.19-6.91-3.5-7.38-7a3.22,3.22,0,0,1,.3-2.22c1.73-2.34,7.52,5.79,15.49,6.59,6.38.63,11.05-3.74,13-.81a2.92,2.92,0,0,1,.55,1.59C808.84,606.87,802,608.15,798,608.27Z"/><path class="cls-27" d="M241.31,519c5.67,3.64,7.63,9.95,8.11,11.49,2.32,7.49-.18,13.78-1.66,17.53-1.38,3.47-3.59,9.09-9.66,13.15-1.87,1.25-7.72,5.16-14.59,4-4.18-.68-5.32-2.66-12.66-5.25a61.7,61.7,0,0,0-8.36-2.3l-.13-.07c-7.66-4.15-10.71-14.84-10.49-22.72.08-2.91.79-11.9,7.81-18.55,1.56-1.47,5.53-5.23,11.51-5.84,1.87-.19,3.78.15,7.61.84a82.8,82.8,0,0,1,14.7,4.13C239.07,517.4,240.67,518.54,241.31,519Z"/><ellipse class="cls-28" cx="228.15" cy="520.64" rx="5.58" ry="15.75" transform="translate(-340.03 503.53) rotate(-64.61)"/><ellipse class="cls-29" cx="227.98" cy="520.79" rx="3.68" ry="10.21" transform="translate(-340.15 500.26) rotate(-64.29)"/><path class="cls-24" d="M238.14,511.11a21.06,21.06,0,0,0-4.84,4.43c-2.27,3.14-1.78,5.77-3.59,6.2a2.58,2.58,0,0,1-2.43-.86c-.71-.82-.05-2.18.65-3.57a42.38,42.38,0,0,1,6.12-8.85c3.4-3.92,4.23-4.43,5.18-4.3a3.52,3.52,0,0,1,2.8,3.37C241.91,508.76,240.7,509.16,238.14,511.11Z"/><ellipse class="cls-21" cx="240.04" cy="506.4" rx="1.42" ry="2.39" transform="translate(-258.25 249.96) rotate(-37.41)"/><path class="cls-30" d="M194.51,536.21a25.72,25.72,0,0,1,2.89-12.53c1.34-2.65,3.93-7.76,7.89-8.28a3.72,3.72,0,0,1,2.49.33c2.63,1.95-6.5,8.45-7.39,17.4-.71,7.15,4.2,12.4.91,14.64a3.3,3.3,0,0,1-1.79.6C196.08,548.34,194.64,540.72,194.51,536.21Z"/><path class="cls-27" d="M659.23,585.16c4.92-.4,8.87,2.4,9.83,3.08,4.68,3.32,6,8.09,6.83,10.93.74,2.63,2,6.88.23,12-.53,1.55-2.19,6.43-6.69,8.84-2.73,1.46-4.28.81-9.69,2.57a44.09,44.09,0,0,0-5.89,2.38l-.11,0c-6.3,1-12.82-3.87-16.2-8.55-1.25-1.73-4.84-7.27-3.71-14.26a14.47,14.47,0,0,1,4.1-8.52,21,21,0,0,1,4.8-2.89,60.47,60.47,0,0,1,10.38-4.14A24.83,24.83,0,0,1,659.23,585.16Z"/><ellipse class="cls-28" cx="652.33" cy="592" rx="11.53" ry="4.09" transform="translate(-108.97 148.81) rotate(-12.02)"/><ellipse class="cls-29" cx="652.3" cy="592.16" rx="7.48" ry="2.69" transform="matrix(0.98, -0.2, 0.2, 0.98, -106.5, 144.53)"/><path class="cls-24" d="M653.9,582a15.39,15.39,0,0,0-.84,4.72c.08,2.84,1.53,4.15.67,5.21a1.94,1.94,0,0,1-1.8.58c-.78-.17-1-1.25-1.2-2.37a31.36,31.36,0,0,1-.39-7.87c.24-3.79.49-4.46,1.11-4.81a2.58,2.58,0,0,1,3.12.72C655.05,579,654.52,579.74,653.9,582Z"/><ellipse class="cls-21" cx="652.91" cy="578.43" rx="1.04" ry="1.75" transform="translate(-76.36 1057) rotate(-74.81)"/><path class="cls-30" d="M639.69,616a18.84,18.84,0,0,1-3.89-8.56c-.4-2.15-1.17-6.27.9-8.33a2.76,2.76,0,0,1,1.6-.92c2.4,0,0,7.81,3.44,13.4,2.77,4.48,8,5.35,7,8.12a2.43,2.43,0,0,1-.77,1.15C646,622.37,641.77,618.58,639.69,616Z"/><path class="cls-27" d="M228.72,308.85a13.69,13.69,0,0,1,5.93,7c1.95,4.73.69,9-.06,11.48a16.89,16.89,0,0,1-5.51,9.1c-1.14.92-4.71,3.8-9.24,3.47-2.75-.2-3.61-1.42-8.52-2.67a38,38,0,0,0-5.56-1l-.09,0c-5.21-2.25-7.81-9-8.13-14.14-.12-1.9-.18-7.78,4-12.5a12.79,12.79,0,0,1,7.13-4.46,18.48,18.48,0,0,1,5,.1,54.16,54.16,0,0,1,9.79,1.83A21.51,21.51,0,0,1,228.72,308.85Z"/><path class="cls-30" d="M199.33,322.77a16.85,16.85,0,0,1,1.15-8.3c.72-1.8,2.1-5.26,4.65-5.83a2.38,2.38,0,0,1,1.63.07c1.82,1.11-3.73,5.86-3.78,11.72,0,4.69,3.44,7.81,1.43,9.45a2,2,0,0,1-1.12.5C201.06,330.56,199.68,325.69,199.33,322.77Z"/><path class="cls-27" d="M605.72,212.85a13.69,13.69,0,0,1,5.93,7c2,4.73.69,9-.06,11.48a16.89,16.89,0,0,1-5.51,9.1c-1.14.92-4.71,3.8-9.24,3.47-2.75-.2-3.61-1.42-8.52-2.67a38,38,0,0,0-5.56-1l-.09,0c-5.21-2.25-7.81-9-8.13-14.14-.12-1.9-.18-7.78,4-12.5a12.79,12.79,0,0,1,7.13-4.46,18.48,18.48,0,0,1,5,.1,54.16,54.16,0,0,1,9.79,1.83A21.51,21.51,0,0,1,605.72,212.85Z"/><path class="cls-30" d="M576.33,226.77a16.85,16.85,0,0,1,1.15-8.3c.72-1.8,2.1-5.26,4.65-5.83a2.38,2.38,0,0,1,1.63.07c1.82,1.11-3.73,5.86-3.78,11.72-.05,4.69,3.44,7.81,1.43,9.45a2,2,0,0,1-1.12.5C578.06,234.56,576.68,229.69,576.33,226.77Z"/><path class="cls-27" d="M349.72,114.85a13.69,13.69,0,0,1,5.93,7c2,4.73.69,9-.06,11.48a16.89,16.89,0,0,1-5.51,9.1c-1.14.92-4.71,3.8-9.24,3.47-2.75-.2-3.61-1.42-8.52-2.67a38,38,0,0,0-5.56-1l-.09,0c-5.21-2.25-7.81-9-8.13-14.14-.12-1.9-.18-7.78,4-12.5a12.79,12.79,0,0,1,7.13-4.46,18.48,18.48,0,0,1,5,.1,54.16,54.16,0,0,1,9.79,1.83A21.51,21.51,0,0,1,349.72,114.85Z"/><path class="cls-30" d="M320.33,128.77a16.85,16.85,0,0,1,1.15-8.3c.72-1.8,2.1-5.26,4.65-5.83a2.38,2.38,0,0,1,1.63.07c1.82,1.11-3.73,5.86-3.78,11.72-.05,4.69,3.44,7.81,1.43,9.45a2,2,0,0,1-1.12.5C322.06,136.56,320.68,131.69,320.33,128.77Z"/><path class="cls-27" d="M850.72,331.85a13.69,13.69,0,0,1,5.93,7c2,4.73.69,9-.06,11.48a16.89,16.89,0,0,1-5.51,9.1c-1.14.92-4.71,3.8-9.24,3.47-2.75-.2-3.61-1.42-8.52-2.67a38,38,0,0,0-5.56-1l-.09,0c-5.21-2.25-7.81-9-8.13-14.14-.12-1.9-.18-7.78,4-12.5a12.79,12.79,0,0,1,7.13-4.46,18.48,18.48,0,0,1,5,.1,54.16,54.16,0,0,1,9.79,1.83A21.51,21.51,0,0,1,850.72,331.85Z"/><path class="cls-30" d="M821.33,345.77a16.85,16.85,0,0,1,1.15-8.3c.72-1.8,2.1-5.26,4.65-5.83a2.38,2.38,0,0,1,1.63.07c1.82,1.11-3.73,5.86-3.78,11.72-.05,4.69,3.44,7.81,1.43,9.45a2,2,0,0,1-1.12.5C823.06,353.56,821.68,348.69,821.33,345.77Z"/></g></svg>