<svg id="Layer_4" data-name="Layer 4" xmlns="http://www.w3.org/2000/svg" xmlns:xlink="http://www.w3.org/1999/xlink" width="1920" height="1080" viewBox="0 0 1920 1080"><defs><style>.cls-1{fill:none;}.cls-2{clip-path:url(#clip-path);}.cls-3{fill:url(#linear-gradient);}.cls-4{fill:#6cbe5f;stroke:#077f00;stroke-miterlimit:10;}.cls-5{fill:#fff;}.cls-6{fill:#8cd671;}.cls-10,.cls-7,.cls-8{fill:#009245;}.cls-14,.cls-15,.cls-7{opacity:0.5;}.cls-8{opacity:0.2;}.cls-14,.cls-27,.cls-9{fill:#39b54a;}.cls-11,.cls-15,.cls-16{fill:#006837;}.cls-11{opacity:0.75;}.cls-12{fill:#84be5f;}.cls-13{fill:#92be5f;}.cls-17{fill:#8cc63f;}.cls-18{fill:#8cc63e;}.cls-19{fill:#754c24;}.cls-20{fill:#42210b;}.cls-21{fill:#a67c52;}.cls-22{fill:#8c6239;}.cls-23{opacity:0.28;}.cls-24{fill:#603813;}.cls-25{fill:url(#linear-gradient-2);}.cls-26,.cls-30{fill:#ed1c24;}.cls-26{opacity:0.84;}.cls-27{opacity:0.38;}.cls-28{opacity:0.27;}.cls-29{fill:url(#linear-gradient-3);}.cls-30{opacity:0.7;}</style><clipPath id="clip-path"><rect class="cls-1" x="-4.49" y="-5.56" width="1936" height="1086.81"/></clipPath><linearGradient id="linear-gradient" x1="959" y1="355.57" x2="959" y2="-157.25" gradientUnits="userSpaceOnUse"><stop offset="0" stop-color="#fceeaf"/><stop offset="0.05" stop-color="#f5ecb8"/><stop offset="0.12" stop-color="#e1e6d2"/><stop offset="0.21" stop-color="#c8dff3"/><stop offset="0.25" stop-color="#bedbf1"/><stop offset="0.32" stop-color="#a2d0ed"/><stop offset="0.42" stop-color="#74bee5"/><stop offset="0.53" stop-color="#36a5db"/><stop offset="0.57" stop-color="#1e9cd7"/><stop offset="0.87" stop-color="#0075be"/><stop offset="0.99" stop-color="#005b97"/></linearGradient><linearGradient id="linear-gradient-2" x1="1540.69" y1="475.66" x2="1763.58" y2="475.66" gradientUnits="userSpaceOnUse"><stop offset="0" stop-color="#39b54a"/><stop offset="0.21" stop-color="#32ac48"/><stop offset="0.55" stop-color="#1f9241"/><stop offset="0.98" stop-color="#016937"/><stop offset="0.99" stop-color="#006837"/></linearGradient><linearGradient id="linear-gradient-3" x1="1195.49" y1="350.77" x2="1343.08" y2="350.77" gradientUnits="userSpaceOnUse"><stop offset="0.49" stop-color="#39b54a"/><stop offset="0.57" stop-color="#30af49"/><stop offset="0.72" stop-color="#16a047"/><stop offset="0.82" stop-color="#009245"/></linearGradient></defs><g class="cls-2"><rect class="cls-3" x="-4.49" y="-32.63" width="1926.98" height="491.27"/><path class="cls-4" d="M45.35,477.54a113.34,113.34,0,0,1,10.11-10.63,106.24,106.24,0,0,1,22-15.08c104.09-55.28,208,109.6,358.6,79.72,53.56-10.63,75.14-38.36,130.65-29.15,51.66,8.57,63,37.57,106.48,55.29,85.8,35,152.5-32.72,258.31-52.49,64.4-12,157.21-8.94,280.58,59,38.58,19.27,103.31,45.37,183.63,45,181-.79,259.55-135.1,405.68-107.52,72,13.59,132.34,61.19,166.37,110.19,94.54,136.13,51,376.56-60.27,503.33C1744,1301.42,1506.7,1160.1,856.58,1186c-536.65,21.37-712.12,131.09-836-7.54C-167.09,968.5,33.89,491.47,45.35,477.54Z"/><g id="Hillow"><g id="Clouds"><path class="cls-5" d="M1179.31,215.12c-3.41,21.59-45.56,35.53-66.56,39.95a140,140,0,0,1-49.75,1.44c-28.32,16.08-62,11.49-73-3-11.72-15.5.64-45.07,34.76-57.37,10.65-21.64,34.16-38.49,60.91-43.15,34.62-6,69.49,9.28,80.09,37.5C1180.55,202,1179.8,212,1179.31,215.12Z"/><path class="cls-5" d="M251.79,296C245.18,315.76,214,318.4,199,317.32a74.89,74.89,0,0,1-33.8-11.22c-22.3,8.19-44.11-4.73-48.6-21.3-4.81-17.76,9.42-42.86,34.86-46,11.5-18,30.71-28.11,49.66-25.79,24.53,3,45,26.44,46.48,56.06C255.25,283.75,252.75,293.15,251.79,296Z"/><path class="cls-5" d="M1748.94,299.23c-4.89,25.09-57.91,42.32-84.25,48a188.83,188.83,0,0,1-62.14,2.95c-35.83,19.36-77.8,14.92-91-1.54-14.19-17.63,2.1-52.2,45-67.32,13.92-25.34,43.77-45.47,77.29-51.55,43.39-7.88,86.48,8.93,98.88,41.34C1750.87,283.94,1749.65,295.59,1748.94,299.23Z"/><path class="cls-5" d="M271.93,240.55c-13.11-33.21,8.39-80.34,41.92-85.85C334.6,151.29,353,165,359,169.91c16.72-22.28,44.51-33.33,70.78-28.42,18.82,3.52,41.07,16,47.05,35.78,11.68,38.61-47.4,76.45-55.27,81.49-10.72,6.86-58.18,37.25-106.16,19.36C308.59,275.59,281.82,265.6,271.93,240.55Z"/><path class="cls-5" d="M1495,303.73c-16.74,20-72.12,11.71-98.2,5a183.54,183.54,0,0,1-56.36-24.94c-41.23,1.21-76.11-21.32-79.65-41.73-3.79-21.87,27.72-45.18,73.15-39.5,24.85-16.2,61.19-20.75,93.82-11.26,42.23,12.28,72,46.25,66.86,80.37C1504.28,291.09,1497.43,300.83,1495,303.73Z"/><path class="cls-5" d="M577.17,306.2c-11,5.92-42.34-16.94-54.16-46.88a84.11,84.11,0,0,1-4.6-43.13c-21.88-20.21-18-51.05-.34-64.75,18.9-14.68,56.92-12.3,74.35,14.06,27.92,3.15,50.51,18.93,57.89,41,.83,2.49,9.57,26.57-1.9,38.54-15.06,15.72-47.29-7.71-63.21,7.15C569.65,266.72,588.7,300,577.17,306.2Z"/><path class="cls-5" d="M816.63,137.77c14.36-3.39,26.66,7.17,37.1,16.13s22.07,18.95,20,32.25c-1.5,9.91-10.16,18.32-21.73,23.09a25.45,25.45,0,0,1-7.85,1.82l-19.3,1.41a26.21,26.21,0,0,0-5.95,1.15c-23,7.08-43.5-4.29-46.43-17-1.93-8.4,3.43-18.88,13.62-26.37a24.18,24.18,0,0,0,8.43-10.78C798.7,148.54,806.64,140.14,816.63,137.77Z"/></g><path class="cls-6" d="M39.12,366.42C109,326.32,139.4,352.83,260.7,323c145.83-35.9,178.54-97.69,253.65-80.1,68,15.94,78.71,73.72,130.34,69.88,58.88-4.39,64.75-81,125.32-88.63,66.74-8.37,99.35,79.67,173.45,74.14,59.18-4.41,60.54-62.21,127.33-75.84,71.56-14.61,96.31,46.37,215.56,67.32,113.82,20,142.71-26.44,221.57,5.11,80.78,32.32,79.25,92.66,148.38,101.41,58.86,7.45,76-34.27,144.37-29.83,61.91,4,116.2,42.62,142.37,81.81h0s46,65.21,34.09,148.14C1958.23,728.43-55.5,778.15-83.19,525.23-88.43,477.39-24.36,402.87,39.12,366.42Z"/><path class="cls-7" d="M1294.37,551.79c-.15-.45,30.76-1.47,47.12-22.77,8.73-11.36,7-20.32,18-27.5,11.77-7.68,29-7.4,31.08-2.85,1.73,3.84-7.24,10.88-14,16.13C1338.73,544,1294.55,552.33,1294.37,551.79Z"/><path class="cls-7" d="M1141,442.18c-46.67,20.92-93.79,39.92-94.79,38.94-1.58-1.53,68.51-61.6,190-113.11,35.72-15.14,88.61-37.56,153.94-28.58,43.09,5.93,69.3,36.59,167,101.5,78.3,52,207.37,150.59,229,183.42,1.22,1.86-55.84-8.14-145.83-89.22-48-43.23-88.49-77.54-143.37-112.87-40.83-26.29-61.86-39.58-92.24-46.48-54.75-12.43-101.71.89-145.37,13.28C1203.14,405,1166,431,1141,442.18Z"/><path class="cls-8" d="M1949.38,542.65c1.82-3.41-27.57-48.86-69.76-83.15-32.62-26.5-60.85-37-71.43-40.58-90.08-30.17-167.75,24.56-167.17,26.9.43,1.7,41.67-24.33,107.2-18.75,48,4.08,84.81,23,96.86,29.62C1909.7,492,1947.35,546.45,1949.38,542.65Z"/><path class="cls-7" d="M1033.51,667.11c10.82-3,26.9-7.72,46.12-14.23,39.65-13.42,69.24-23.43,103.27-43.63,28.18-16.73,48.12-28.56,66.17-51.22,8.06-10.11,13.76-19.91,29.07-36,12-12.63,23-21.88,33.09-30.35,11.62-9.73,20.6-16.42,38.1-29.4,33.28-24.7,41.68-29.49,41.1-30.36-1.28-1.95-47.35,16.21-84.21,49.33-21,18.87-31.52,28.3-36.1,35.09-6.54,9.7-12.81,22.27-21,21.81-5.11-.28-5.63-5.28-12-6.64-9.75-2.06-22.66,6.56-27.07,17.08-2.66,6.35-.27,8.7-3,14.22-5,10.14-18.62,13.28-22.06,14.23C1171.05,580.83,1132.8,601.37,1033.51,667.11Z"/><path class="cls-7" d="M-16,477.8c-2.14-6.13,5.65-13.78,17.06-25C9.7,444.31,28.61,428.73,68.2,420c42.78-9.49,43.2,3.72,80.21-5.69,12.76-3.25,32.57-11.34,72.18-27.51,23.7-9.67,36.48-15.38,40.11-11.38,6.6,7.27-24.43,38.49-19,43.63,3.8,3.63,22.91-8.6,33.08-15.18,24.5-15.83,34.54-26.49,47.13-36,34.41-26.13,76.05-35.12,78.2-31.3,1.16,2.07-20.27,16.27-63.17,44.58L260.7,431.33C162.26,492.05-7.3,502.79-16,477.8Z"/><path class="cls-9" d="M12.56,563.64c-2.68-7.15,133.85-60.74,195.18-66.19,2.79-.25,18.31-1.54,39.4-4.13,13.6-1.66,30.07-3.71,50.15-7.45,0,0,23.74-4.43,46.12-10.44,58.66-15.73,123.19-61.3,139.36-73,30.26-21.95,54.93-44.15,100.75-58.14a126.33,126.33,0,0,1,13.78-3.76c64.75-12.81,124.35,22.75,136.56,30C773,393.88,777.35,424,823.65,447c22.14,11,37.71,19.52,52.34,30,11,7.88,9.65,8.29,27.87,23.13,19.39,15.81,26,19.61,65.17,49.33,26.44,20,27.39,21.31,27.07,21.81-2,3-56.06-13.4-99.26-52.17-14.51-13-25-26-49.25-39.94-12.28-7.06-21.82-10-34.76-17.24-27-15.07-43.05-31.53-50.69-38.74-1.88-1.78-3.26-3-3.63-3.39-20.61-19.42-79.12-54.66-111.31-62.88C567.48,336.53,495.38,442.6,374.49,484c-63.06,21.58-118.7,28.42-118.7,28.42-7.5.92-12.31,1.64-25.1,3a691.23,691.23,0,0,0-94.82,16.94c-36,9.08-34,13.28-71.42,22.4C46.68,559.07,13.84,567.06,12.56,563.64Z"/><path class="cls-10" d="M1139.19,422.33c-29.44,16.12-37.1,29.87-75.34,50.15-12,6.34-17.94,9.51-18.63,8.64-3-3.88,78.84-82.46,190.21-127.27,0,0,79.35-32,145.76-26,4.62.42,8.4.92,11.33,1.33,34.35,4.84,68.75,17.68,172.61,98.14,120.08,93,224.94,193,221,197-1.67,1.7-24.53-15.73-54.68-38.73-39.37-30-59-47.91-82.68-67.5-60.59-50.21-111.64-82.06-150.39-106.23-46.55-29.05-70.23-43.66-90.4-48.22-55.74-12.59-114.32,1.87-148.58,10.36C1202.16,388.22,1162.81,409.4,1139.19,422.33Z"/><path class="cls-11" d="M76.62,354.2C123,340.64,162.17,352,257.53,328.53c145.83-35.91,178.55-97.69,253.66-80.1,68,15.93,78.71,73.72,130.33,69.87,58.88-4.38,64.76-81,125.33-88.62,66.73-8.38,99.34,79.66,173.44,74.14,59.18-4.42,60.55-62.21,127.33-75.84,71.56-14.61,96.31,46.36,215.56,67.31,113.82,20,142.71-26.43,221.57,5.12,80.78,32.32,79.26,92.65,148.39,101.4,58.86,7.45,76-34.27,144.37-29.82,61.9,4,116.19,42.62,142.37,81.8h0c36.82,69.67,44.52,145.77,34.08,148.14-14.35,3.26-17.28-148.73-114.63-191.94-70.62-31.34-109.29,30.78-215.56,11.38-105.17-19.2-106.29-87.2-220.57-108.13-81.2-14.87-89.25,17.91-176.46,0-100.54-20.64-114.81-69.34-178.46-61.65-74.87,9-88.07,80.44-151.39,76.83-57.74-3.29-65-63.69-122.31-67.34-67-4.27-86.61,76.33-160.42,77.77-60.81,1.19-69.51-53.1-141.36-64.49-64.35-10.21-79.3,29.85-198.52,66.39-103,31.57-118.69,9.87-241.62,46.47-87.2,26-133.07,52.93-135.35,48.38C-84.62,431.74,63.05,358.17,76.62,354.2Z"/><path class="cls-10" d="M1962.59,553.21c2.08-1.17-15.8-47-54.18-85.14-12-11.9-54.91-54.56-117.26-62.82-81.92-10.87-155.61,43.17-155.4,43.63.1.23,19.72-10.65,53.14-18,16.34-3.6,46-9.9,83.16-5.58,51.55,6,87,28.84,100.06,37.5,34.29,22.65,59.16,52.62,72.44,68.62C1956.26,545.51,1961.53,553.81,1962.59,553.21Z"/><path class="cls-10" d="M-11.2,489.5c-2.14-6.14,5.65-13.79,17.06-25C14.52,456,33.43,440.42,73,431.64c42.78-9.48,43.2,3.73,80.21-5.69,12.76-3.25,32.57-11.33,72.18-27.51,23.7-9.67,36.48-15.38,40.11-11.38,6.6,7.27-24.43,38.5-19,43.63,3.65,3.49,21.43-7.58,33.08-15.17a681.68,681.68,0,0,0,73.89-55.8c35.34-22.16,44.69-25.4,46.12-23.71,3.15,3.72-29.72,34.48-57.85,56.74-8.9,7.05-41.85,29.09-76.19,50.27C167.08,503.74-2.48,514.49-11.2,489.5Z"/><path class="cls-10" d="M813.63,420.42c.68.43,1-3.09,2-4.73,1.63-2.64,22.75-71.26,85.25-103.4,25.47-13.09,48.87-15.67,70.18-18,13.19-1.45,38.44-4,70.18,1.9,15.59,2.92,62.22,12.19,100.07,48.63,21.3,20.52,30.45,40.64,29.27,41.48-3,2.08-25.57-24.9-68.27-49.6a308,308,0,0,0-43-20.59,229.72,229.72,0,0,0-140.45,4h0C847.77,353.64,813.25,420.18,813.63,420.42Z"/><path class="cls-9" d="M807.48,429.05c-1.16-.76,17.76-39.19,55.27-73.13,16.36-14.8,37.59-34,72.19-44.57,32.35-9.88,61.82-7.76,77.2-6.64a241.7,241.7,0,0,1,37.19,5.57c44.87,10.38,73.13,30.66,78.66,34.66,21.21,15.36,38.18,34.93,36.07,37.27s-24.6-17.15-66.5-37.25c-14.54-7-27-12.94-42.31-17.49-3.47-1-82.61-23.38-148.38,14.23-14.69,8.39-28.57,19.7-42.55,31.08a400,400,0,0,0-37,33.76C813.63,421,808.05,429.42,807.48,429.05Z"/><path class="cls-10" d="M6.34,569.8c-3.63-6.39,91.52-81.55,191.15-82.38,17.49-.15,59.67-1.12,115.78-11.95a207.24,207.24,0,0,0,39.34-12c25.69-10.44,56.48-32,118.06-75.07,73-51.08,78.49-60,104.85-66.33,63.59-15.23,124.79,14.41,137.33,20.47C767.4,369,769,398.05,855.48,451.91c20,12.45,140.8,121.45,140.61,121.7-.37.48-162.08-121.24-265.33-185.45-70.07-43.58-80.4-41.62-94.32-42.32-45.44-2.26-89.81,24-176.72,76.68-41.87,25.38-35.84,24.76-56,35.14-65.23,33.59-182.42,45.1-182.42,45.1C90.26,515.92,9.65,575.63,6.34,569.8Z"/></g><path class="cls-12" d="M1286.85,785.73c0,20.91-68.3,12.79-150.39,12.79s-146.88,8.12-146.88-12.79,66.55-37.84,148.63-37.84S1286.85,764.83,1286.85,785.73Z"/><path class="cls-12" d="M1610.08,908.66c0,20.9-64.69-21.91-146.78-21.91s-150.49,42.81-150.49,21.91,66.55-37.85,148.64-37.85S1610.08,887.75,1610.08,908.66Z"/><ellipse class="cls-13" cx="857.74" cy="773.95" rx="18.05" ry="10.53"/><path class="cls-12" d="M156.69,795.2c1.62-2.19,5.88-8.46,11-7.62,13.16,2.15,7.38,46.83,31.21,62.11,21.56,13.82,53.91-5,59.51,4.66,2.66,4.62-3.14,11.66-4.17,13-15.16,20.49-49.29,20.94-76.23,1S141.52,815.69,156.69,795.2Z"/><path class="cls-13" d="M744.45,838.62c0,20.06-64.6,12-99,12s-62.25-16.26-62.25-36.31S611.09,778,645.47,778,744.45,818.57,744.45,838.62Z"/><path class="cls-12" d="M865.09,865.6c.38-20.89,64.29,23.07,146.37,24.54s158.61-38.63,150.85-19.22c-8.15,20.41-144,65-188.27,66C892,938.59,864.72,886.5,865.09,865.6Z"/><path class="cls-10" d="M1085.79,901.61c17.3-23.23,79.92-5.86,139.87,38.8s94.51,99.67,77.22,122.91c-32.6,43.83-71.34-5.58-107.78-81.88C1159.44,906.77,1068.49,924.84,1085.79,901.61Z"/><path class="cls-12" d="M1642.41,861.53c.38-20.9-33.59-62.48,48.48-61s256.5,46.92,248.74,66.33c-8.15,20.41-144,65-188.27,65.95C1669.29,934.52,1642,882.43,1642.41,861.53Z"/><path class="cls-10" d="M1654.22,990.66c1.37-25.58,35.58-42.77,62.71-42.39,28.44.4,61,20.28,61.57,44,.67,26.13-3.32,6.65-36.48,2.72C1716.36,992,1652.9,1015.14,1654.22,990.66Z"/><path class="cls-10" d="M1826.24,793c0,11.35-60.6,20.56-135.35,20.56s-135.33-9.21-135.35-20.56c0-21.41,60.55-15,135.35.5C1764.1,808.63,1826.24,781.65,1826.24,793Z"/><path class="cls-14" d="M337.58,547.46c64.05-25.45,112.28-60.32,139.36-77.2,75.89-47.31,73-54.69,100.74-61.46,47.77-11.64,106.74-2.07,150.35,27.77,40.69,27.85,55.13,62.6,89.79,80.81C840,529,855.53,538,870.15,549.07c11,8.34,9.66,8.76,27.87,24.46,19.4,16.7,7.22,15-56.26-22.18C789.55,520.78,709.67,474,620.13,470.67c-14.63-.54-26.44.26-37.51,2.46-84,16.69-113.81,58.35-214.14,89.78-11.18,3.5-21.49,6-42.11,11C213.64,601.37,218,594.94,337.58,547.46Z"/><path class="cls-14" d="M1678.1,485c-2-3.43,52.57-33.73,104.43-14.81,17.56,6.4,29.78,16.61,41.77,26.62,23.09,19.29,38,41.13,34.65,42.87-3.15,1.67-19.6-16.5-57.42-36-12.38-6.38-25.09-12.92-41.42-17.44C1714.47,473.62,1679.64,487.61,1678.1,485Z"/><path class="cls-14" d="M1073.68,521c31.56-16.33,77.06-41.49,136-79.44a478,478,0,0,1,51.13-24.07c14.61-5.85,29.14-11.67,48.12-16,7.4-1.7,35.73-8.21,61.16-6,36.73,3.17,61.76,24,99.26,56.14,49.79,42.64,63.49,60,94.24,78.2,0,0,49.13,51.16,65.83,68.45,5.56,5.76-54-27.23-54-27.23-53.45-52.73-102.56-84.63-136.15-103.38-36.74-20.5-65.45-31.15-97.25-25.06a105.63,105.63,0,0,0-37.1,15c-17.8,6.64-44.09,16.23-76.19,27.07-71.07,24-173.33,55-175.46,49.12C1052.52,531.83,1063.67,526.22,1073.68,521Z"/><path class="cls-15" d="M632.55,480.62q59.49,33.81,121.9,73.54,36.46,23.31,70.57,46.66c30.07,35.49,61,73.66,57.23,77.27-2,1.93-13.49-6.5-39.66-27.93-27.37-22.42-64-53.46-106.61-92.88Z"/><g id="_Bush_" data-name="&lt;Bush&gt;"><path class="cls-16" d="M813,1088.71a72.72,72.72,0,0,1-1.49,22.63c-5.21-17.66-17.5-46.11-49.49-75.14-36.24-32.89-80.59-51-106.72-59.86C745.46,994.63,808.19,1035.9,813,1088.71Z"/><path class="cls-16" d="M-12.13,1143.34a169.76,169.76,0,0,0,5.48,33.56,335.77,335.77,0,0,1,37.22-124.69,351.11,351.11,0,0,1,86-105.89C34.77,990.26-17,1063.5-12.13,1143.34Z"/><path class="cls-16" d="M55.93,1133.5a169.23,169.23,0,0,0,5.47,33.57,336,336,0,0,1,37.22-124.69,351,351,0,0,1,86-105.89C102.83,980.42,51,1053.66,55.93,1133.5Z"/><path class="cls-16" d="M55.93,1133.5a169.23,169.23,0,0,0,5.47,33.57,336,336,0,0,1,37.22-124.69,351,351,0,0,1,86-105.89C102.83,980.42,51,1053.66,55.93,1133.5Z"/><path class="cls-16" d="M55.93,1133.5a169.23,169.23,0,0,0,5.47,33.57,336,336,0,0,1,37.22-124.69,351,351,0,0,1,86-105.89C102.83,980.42,51,1053.66,55.93,1133.5Z"/><path class="cls-16" d="M194.39,1139.6a169,169,0,0,0,5.47,33.56,336,336,0,0,1,37.22-124.68,350.7,350.7,0,0,1,86-105.89C241.29,986.52,189.49,1059.76,194.39,1139.6Z"/><path class="cls-16" d="M91.24,1167.85a169.11,169.11,0,0,0,5.47,33.57,335.77,335.77,0,0,1,37.22-124.69,351,351,0,0,1,86-105.89C138.14,1014.78,86.34,1088,91.24,1167.85Z"/><path class="cls-16" d="M176.49,1101.21a72.74,72.74,0,0,1-1.49,22.63c-5.22-17.66-17.51-46.11-49.49-75.14-36.24-32.89-80.6-51-106.72-59.86C108.9,1007.13,171.64,1048.4,176.49,1101.21Z"/><path class="cls-16" d="M126.32,1107.28a73.11,73.11,0,0,1-1.49,22.64c-5.22-17.67-17.51-46.11-49.5-75.14-36.24-32.9-80.59-51-106.72-59.87C58.73,1013.21,121.46,1054.47,126.32,1107.28Z"/><path class="cls-16" d="M24.68,982.05A79.79,79.79,0,0,1,44.3,969.29c-11.41,14.79-27.41,41.54-31.88,83.55-5,47.61,7.1,92.26,15.7,117.49C-11.79,1090.91-16,1018.12,24.68,982.05Z"/><path class="cls-16" d="M730.39,1131.3a78.5,78.5,0,0,1-17.34,15.49c8.91-16.28,20.43-45.06,18.09-87.22-2.64-47.78-21.82-90.1-34.37-113.76C749,1018.4,764.81,1089.69,730.39,1131.3Z"/><path class="cls-10" d="M232.05,1131a169,169,0,0,0,5.47,33.57,335.77,335.77,0,0,1,37.22-124.69,351,351,0,0,1,86-105.89C279,977.92,227.15,1051.16,232.05,1131Z"/><path class="cls-10" d="M614.71,967.11a172.53,172.53,0,0,0-14.81-30.86,332.23,332.23,0,0,1-.39,129.61,339.74,339.74,0,0,1-52.69,124.22C613.06,1126.54,642.12,1042.62,614.71,967.11Z"/><path class="cls-10" d="M41.21,1126a169.11,169.11,0,0,0,5.47,33.57A336,336,0,0,1,83.9,1034.88a350.83,350.83,0,0,1,86-105.89C88.11,972.93,36.31,1046.16,41.21,1126Z"/><path class="cls-10" d="M119.88,987.56A172.8,172.8,0,0,0,104.2,957.1a332.25,332.25,0,0,1,3.3,129.57,339,339,0,0,1-49.12,125.54C122.78,1147,149.44,1062.33,119.88,987.56Z"/><path class="cls-10" d="M624.28,1172a187.85,187.85,0,0,0,32.18,14.32,350.58,350.58,0,0,1-87.32-98.92,335.93,335.93,0,0,1-43.75-127.19C517.76,1049.57,552.3,1131.45,624.28,1172Z"/><path class="cls-10" d="M791.19,966.58a212.06,212.06,0,0,0-10.6-37.91,407,407,0,0,1-21.82,147.23A389.46,389.46,0,0,1,682.42,1207C763.11,1147.47,807.77,1057.66,791.19,966.58Z"/><path class="cls-10" d="M266.05,1153.34a169.24,169.24,0,0,0,5.48,33.57,335.9,335.9,0,0,1,37.21-124.69,351,351,0,0,1,86-105.89C313,1000.26,261.15,1073.5,266.05,1153.34Z"/><path class="cls-10" d="M202.5,967.07a173.17,173.17,0,0,0-15.69-30.46,332.2,332.2,0,0,1,3.3,129.56A339,339,0,0,1,141,1191.72C205.39,1126.48,232.05,1041.83,202.5,967.07Z"/><path class="cls-10" d="M650.12,980.65a173.17,173.17,0,0,0-15.69-30.46,332.25,332.25,0,0,1,3.3,129.57,339,339,0,0,1-49.12,125.54C653,1140.06,679.67,1055.41,650.12,980.65Z"/><path class="cls-10" d="M294.76,969.13a173.13,173.13,0,0,0-15.68-30.46,332.2,332.2,0,0,1,3.3,129.56,338.82,338.82,0,0,1-49.13,125.55C297.66,1128.54,324.31,1043.89,294.76,969.13Z"/><path class="cls-17" d="M594.11,1000.91a173.17,173.17,0,0,0-15.69-30.46,332.2,332.2,0,0,1,3.3,129.56,339,339,0,0,1-49.12,125.55C597,1160.32,623.66,1075.67,594.11,1000.91Z"/><path class="cls-17" d="M266.72,1030.89A172.8,172.8,0,0,0,251,1000.43a332.25,332.25,0,0,1,3.3,129.57,338.76,338.76,0,0,1-49.13,125.54C269.62,1190.3,296.28,1105.66,266.72,1030.89Z"/><path class="cls-17" d="M337.56,961.2a173.48,173.48,0,0,0-15.68-30.46,332.26,332.26,0,0,1,3.3,129.57,338.76,338.76,0,0,1-49.13,125.54C340.46,1120.61,367.11,1036,337.56,961.2Z"/><path class="cls-17" d="M102.71,956.14A173.17,173.17,0,0,0,87,925.68a332.25,332.25,0,0,1,3.3,129.57A339,339,0,0,1,41.2,1180.79C105.6,1115.55,132.26,1030.9,102.71,956.14Z"/><path class="cls-17" d="M268.66,973.69A173.48,173.48,0,0,0,253,943.23a332.29,332.29,0,0,1,3.29,129.57,338.78,338.78,0,0,1-49.12,125.54C271.56,1133.1,298.21,1048.46,268.66,973.69Z"/><path class="cls-17" d="M702.32,1176.71a184.93,184.93,0,0,0,29.76,18.48,344.58,344.58,0,0,1-72-109.64,333.19,333.19,0,0,1-24.75-131.82C614.72,1041.24,637,1127,702.32,1176.71Z"/><path class="cls-17" d="M257.55,1144.48a178.08,178.08,0,0,0,24.06,24.94,332.89,332.89,0,0,1-31.54-257C207.58,992.46,207.06,1080.82,257.55,1144.48Z"/><path class="cls-17" d="M211.61,1202.61a179.35,179.35,0,0,0,24.07,25,332.92,332.92,0,0,1-31.54-257C161.65,1050.6,161.13,1139,211.61,1202.61Z"/><path class="cls-17" d="M8.84,1145.15a169.89,169.89,0,0,0,10.35,32.49,333.07,333.07,0,0,1,18.55-128.43,344.9,344.9,0,0,1,69.6-116.37C32.81,987.32-7.74,1066.78,8.84,1145.15Z"/><path class="cls-16" d="M792.86,972.21a79.73,79.73,0,0,1,19.61-12.76C801.06,974.23,785.06,1001,780.6,1043c-5.06,47.61,7.09,92.26,15.69,117.49C756.38,1081.07,752.18,1008.28,792.86,972.21Z"/><path class="cls-16" d="M578.85,961.69a79.73,79.73,0,0,1,19.61-12.76c-11.41,14.79-27.41,41.54-31.87,83.55-5.06,47.61,7.09,92.26,15.69,117.49C542.37,1070.55,538.17,997.76,578.85,961.69Z"/><path class="cls-16" d="M686.74,959.41a79.79,79.79,0,0,1,19.62-12.76c-11.42,14.78-27.42,41.54-31.88,83.55-5.06,47.61,7.1,92.26,15.69,117.49C650.27,1068.27,646.06,995.48,686.74,959.41Z"/><path class="cls-10" d="M887.32,988a175.33,175.33,0,0,0-19.42-28.41,332.68,332.68,0,0,1-13.24,258.48C910.36,1145.89,926.12,1058.8,887.32,988Z"/><path class="cls-10" d="M817.05,1155.46a168.49,168.49,0,0,0,4.66,33.68,336.47,336.47,0,0,1,40.2-123.84,351.84,351.84,0,0,1,88.48-104C867.6,1003.45,814.06,1075.53,817.05,1155.46Z"/><path class="cls-10" d="M168.4,938A175.33,175.33,0,0,0,149,909.62a333.27,333.27,0,0,1,19.66,128.2,335.51,335.51,0,0,1-32.9,130.29C191.44,1095.9,207.2,1008.81,168.4,938Z"/><path class="cls-10" d="M823.38,1004.28a170,170,0,0,0-9.19-32.81,333.79,333.79,0,0,1-23.07,127.76,346.26,346.26,0,0,1-73.65,114.07C793.87,1161.25,837.19,1083.14,823.38,1004.28Z"/><path class="cls-10" d="M692.68,982.64a169.56,169.56,0,0,0-6.43-33.41,335.21,335.21,0,0,1-33.64,125.61,349.83,349.83,0,0,1-82.91,108.1C650.18,1136.88,699.87,1062.32,692.68,982.64Z"/><path class="cls-16" d="M721.13,999.69a80,80,0,0,1,19.61-12.76c-11.41,14.79-27.41,41.54-31.87,83.55-5.06,47.61,7.09,92.26,15.69,117.49C684.65,1108.55,680.45,1035.76,721.13,999.69Z"/><path class="cls-16" d="M935.57,981.12a79.6,79.6,0,0,1,19.62-12.76c-11.42,14.78-27.42,41.54-31.88,83.55-5.06,47.61,7.1,92.26,15.69,117.49C899.09,1090,894.89,1017.19,935.57,981.12Z"/><path class="cls-16" d="M669.39,952.18a82.63,82.63,0,0,1,23.5-3c-17.12,8.34-43.93,25.42-67.58,61.11-26.8,40.44-36.84,85.61-41,111.87C585.86,1034,616.18,967,669.39,952.18Z"/><path class="cls-16" d="M862.64,981.68A82.47,82.47,0,0,1,886,977.52c-16.65,9.17-42.52,27.54-64.23,64.34-24.59,41.7-32.2,87.3-34.92,113.73C783.6,1067.46,810.28,999.12,862.64,981.68Z"/><path class="cls-17" d="M842.74,971.67a176.46,176.46,0,0,0-21.19-27.22,332.46,332.46,0,0,1,3.2,258.74C875.76,1127.89,886,1040.05,842.74,971.67Z"/><path class="cls-17" d="M812.88,1179.08a179.28,179.28,0,0,0,24.06,25,336.32,336.32,0,0,1-41.51-123.3,332.63,332.63,0,0,1,10-133.65C762.91,1027.07,762.39,1115.43,812.88,1179.08Z"/><path class="cls-17" d="M649.31,974.77A188.09,188.09,0,0,0,616.41,962a352.88,352.88,0,0,1,92.5,94.51,337.63,337.63,0,0,1,50.48,124.88C762.24,1091.8,723.37,1011.72,649.31,974.77Z"/><path class="cls-16" d="M923.23,1135c-39.9-79.42-44.11-152.22-3.43-188.29"/><path class="cls-16" d="M855.84,1169.52c-39.9-79.42-44.11-152.21-3.43-188.28"/><path class="cls-16" d="M749.18,1130.66c-39.91-79.42-44.11-152.21-3.44-188.28"/></g><path class="cls-16" d="M224.08,659.89c-15.28,1.26-23.83,9.81-29.05,5.44-5.57-4.67-1.31-19,3.15-30.34-18.91,8.56-30.22,6.92-37.19,3.47-10.1-5-11.61-14.08-22.49-17.81-11.62-4-22.32,2.13-28.07,4-14.7,4.83-41.13-3.45-92.57-63.41q6.48-30.87,13-61.76C6.33,467.17,3.25,446,8.89,431.75c7.68-19.42,29.56-21.34,30.89-37.86C41.33,374.53,16.54,369.21,6,339.55c-9.33-26.14-3.9-62.83,15.89-84.13,18.82-20.26,44.11-19.59,48.05-39,2.56-12.64-6.47-23-1.56-26.77,6.24-4.86,30.11,16.4,40.54,10.71,8.15-4.45-6.74-51-10.91-57.56A132.55,132.55,0,0,0,80.8,121.36C102.49,110,118.3,109,129.14,110.65c6.69,1,13.87,3.34,18.72,0,7.54-5.19.22-17.77,6.23-21.41,8.26-5,27,15.69,40.55,10.71,10.76-4,12.2-22,12.47-25.44,1.19-14.76-6.08-21.29-1.55-25.43s12.81,1.24,37.42,2.68c14.43.84,22.59,1.22,31.19-2.68,9.54-4.33,10.39-9.75,17.15-10.71,5.34-.76,13.79,1.34,26.51,16.06,7.93,2.43,18.35,4.39,24.95,0,10-6.65,2.21-21.88,12.48-28.11,7.38-4.48,13.31,2.25,31.19-1.34,11.29-2.26,15.41-6.24,20.27-4,7.1,3.25,3.67,14.18,9.36,16.06,4.62,1.53,10.79-4.37,21.83-13.38,6.83-5.58,15.69-12.48,26.51-20.08a98.1,98.1,0,0,1,17.15-8c8-2.87,27.7.24,37.43,5.35,12.09,6.35,13.77,3.11,28.07,9.37,15.24,6.67,17,12,26.51,12,8.48.08,15.08-4.06,17.15-5.36C602.24,9.73,600,1.28,607.88-1.79c11.33-4.4,31.89,6.86,31.19,14.73-.56,6.41-16.48,6.57-17.15,13.38s14.17,13.46,21.58,15.9C664.19,49,680,28,689,34.35c2.77,1.95,5.48,6.57,4.08,18.89,6.89,2.26,31.45,11.19,39.59,33.32,1,2.7,6.86,17.9,0,24.09-5.15,4.65-12.45,1.5-18.72,6.7-6.67,5.54-7.87,17-3.11,20.08,6.88,4.44,20-12.72,39-10.71,19.6,2.07,33.58,23.3,34.31,22.75.41-.31-6.7-5.12-6.24-10.71.85-10.3,27.12-19.69,32.75-14.72,1.77,1.57,2,5-1.56,12L851.15,116c-3.56-10.09-1.84-13.42,0-14.73,9-6.36,46.25,17.14,46.79,17.41-1.48.69-19.43,9.4-18.72,21.41.37,6.11,26.62,27.79,37.43,32.13,9.72,3.9,24.81,23.64,25,30.79.08,4.46.2,10.5-3.12,17.4-5.6,11.63-15.51,14.32-14,18.74,1.62,4.87,30.35,19.48,39,28.11,12.82,12.81,26.64,10.05,29.63,18.74,2.83,8.2-9.27,11.32-9.36,24.09h0s18.45,36,20.44,39c7.59,11.19,2.83,27.24-3,46.83-2.12,7.14-23.8,48.3-28.36,66.81-1.78,7.2-2.23,13.27-3.12,25.43-1.3,17.73.07,23.69-1.56,37.48a145.72,145.72,0,0,1-6.24,28.11c-9-.3-51.33,12.39-59.26,18.74-18.39,14.76-18,27.11-31.18,40.16-6.38,6.29-51.42,19.23-62.38,21.42-12.5,2.49-21.4,6.1-35.87,12.05-17.43,7.16-83.86,27.25-104.48,21.41-21.38-6-21.05-17.15-40.54-24.09-18.72-6.67-27.37,2.75-49.9,0-23.13-2.83-22.16-13.52-48.35-21.42-9.12-2.75-76.09,24.78-95.12,38.82-20.16,14.88-57.46,19.71-76.41,4-10-8.26-2.17-18.46-12.48-26.77-11.61-9.37-35.87-9.56-48.34,0-15.43,11.81-5.61,33.09-17.15,38.81C267.07,683.48,252.51,657.55,224.08,659.89Z"/><path class="cls-10" d="M282.55,637c-.26.46-6,10-12.47,9.37-4.84-.44-5.31-6.11-12.48-8-1.86-.49-4.88-.33-10.91,0-10.05.56-12.78,1.47-14,0-1.82-2.11,1.07-7.27,1.91-8.79.69-1.22.92-1.33,1.21-1.92,2.79-5.71-8.29-18.58-15.59-17.4-5.6.91-7.27,9.8-9.36,9.37-2.67-.55.55-15-3.12-16.06s-11.31,11.76-14,10.71c-2.13-.82,1.58-9-1.56-10.71-2.33-1.25-5.6,2.6-12.48,4-7.34,1.5-17-.13-18.71-4-2.16-4.83,8.7-11.28,6.24-14.72-1.64-2.29-6.92-.14-9.36-2.68-3.14-3.26,0-12.62,6.24-14.73,8-2.71,17.19,7.91,21.83,5.36,1.94-1.07,3.15-4.47,0-14.73,8.51,4.6,18.77,4.49,24.95,0,10-7.26,6.17-23.72-1.56-26.77-4.49-1.77-10.36,1-14,2.68a29.87,29.87,0,0,0-12.48,10.71c-3.46-4-8.6-8.6-14-8-7.64.79-10.78,11.33-15.6,10.71-1.87-.25-4.32-2.21-6.24-10.71a76,76,0,0,1-18.71,2.67c-6.33.12-12.94.23-20.27-2.67a35.52,35.52,0,0,1-15.6-12c-2.5,2.24-5.9,4.52-9.35,4-7-1-7.74-12.66-14-13.39-5.76-.66-8.82,8.64-14,8-3.86-.45-5-5.89-10.92-22.75-5.16-14.68-7.39-19.34-4.68-21.42,2.52-1.93,7.8-.52,12.48,1.34-10.61-13.07-12.32-27.69-4.68-36.15a20.29,20.29,0,0,1,12.48-6.69c10.7-1.18,15.76,8.17,29.63,14.73,16.83,8,40.95,9.12,46.78,1.33,4-5.39-.23-15.72-7.8-21.41a28.93,28.93,0,0,0-15.59-5.36L111,416.13c-11.49,6.35-15.62,6.56-17.16,5.35-2.79-2.2,3.18-9,0-13.38-2.94-4.05-12.16-3.76-20.27-2.68,4.26-11.37,3.42-15,1.56-16.06-2.67-1.49-6.82,2.8-10.92,1.34-4.9-1.75-8.13-11.15-3.11-17.41,4.05-5.06,12.65-7,20.27-4,4.09-2.94,11.24-8.1,20.27-14.73,8.85-6.49,12-8.91,14-8,5.16,2.28-7.26,22.16,1.56,29.45,4.72,3.91,10.44,0,25,4,7.32,2,13.1,3.66,17.15,8,8.45,9.13-1,19.16,7.8,29.45a24.76,24.76,0,0,0,14,8c9.08,1.52,13.64-3.7,20.27-2.68,5.37.83,11.81,5.71,17.16,22.76a86.89,86.89,0,0,0,23.39-4c13.59-4.36,17.1-9.47,21.83-8,11.41,3.48,4.24,37.26,12.48,38.82,3.3.63,7.35-4.27,9.35-6.69a20.4,20.4,0,0,0,4.68-14.73c3.58,3,8.22,4,10.92,2.68,3.46-1.73,4.9-8,0-13.39,12.42,8.2,17.09,9.22,18.71,8,3.64-2.66-7.48-16.81-3.12-20.07,3.19-2.39,10,4.53,18.71,2.67,10.08-2.15,12.5-14,17.16-13.38,2,.26,4.61,2.94,6.23,14.72,14.05-6.48,19.46-5.78,21.84-4,6.26,4.65-6.64,18.14,0,36.14,1.91,5.18,3.69,6,7.79,16.06,4.47,10.95,6.71,16.42,4.68,18.74-5.45,6.25-27.44-9.13-60.82-6.69-8.84.64-25.38,1.85-35.86,12.05-7.95,7.73-3.42,11.87-12.48,24.09C273.66,542.67,260.34,547,262.28,554c1.23,4.46,7.3,5.33,7.8,10.71.41,4.43-3.32,7.88-4.68,9.37-4.7,5.16-7.49,15.83,1.56,40.16,7.36-4.25,11.45-3,12.47-2.68C287,614.24,287.88,628,282.55,637Z"/><path class="cls-17" d="M291.85,645.35c-1.42,1-6.77-1.55-9.35-5.36-3.72-5.48-.33-11.49,0-12a55.6,55.6,0,0,0-14-10.7,93.39,93.39,0,0,0-17.15-6.7c-10.52-3.13-14.62-2.85-15.59-5.35-1.73-4.42,8.8-11,7.79-12.05-.85-.85-7.16,5.1-14,4-3.15-.5-5.74-3-10.92-8a121.11,121.11,0,0,1-9.35-10.71c-5.9-7.21-6.82-8.83-6.24-9.37,1.28-1.22,8.27,4.66,12.47,2.67,3.92-1.85,2.35-9.08,4.68-9.37,1.76-.21,4.36,3.71,5.16,4.91.89,1.36.63,1.34,1.08,1.79,1.89,1.89,5.78,1.42,15.59,0-10-10-10.76-14.14-9.35-16.07,1.26-1.73,3.76-1,7.79-4a32.64,32.64,0,0,0,6.15-6.57s0-.12.09-.12c.39,0,1.34,4.93,3.12,14.72,2.17,11.93,2.22,12.62,3.12,14.72,2.1,4.88,3.3,4.58,6.24,10.71,3.29,6.89,1.9,7.55,4.67,12.05,3.19,5.17,5.76,5.49,9.36,10.71,2.37,3.43,1.67,4,4.68,10.71,2.23,5,2.88,5.42,7.8,14.72C292.7,644,292.33,645,291.85,645.35Z"/><path class="cls-17" d="M243.51,535.58c-4.81.82-7.83,2.49-9.35,1.34-.73-.54-1.28-1.84,0-5.35-.29-.44-3-4.45-4.68-4-1.28.33-1.44,3.13-1.56,5.36-.18,3.17.47,4.22,0,6.69a12.3,12.3,0,0,1-1.56,4c-4.71,1.37-6.78.8-7.8,0-1.77-1.37-.66-3.64-3.12-6.69a13.93,13.93,0,0,0-3.12-2.68,31.33,31.33,0,0,0-7.79-4,4.61,4.61,0,0,0,0-4,5.77,5.77,0,0,0-3.12-2.67,12,12,0,0,1-3.12,5.35c-1.47,1.45-2.16,1.4-3.12,2.68-1.61,2.14-.74,3.76-1.56,6.69a13,13,0,0,1-3.12,5.35,27,27,0,0,1-4.68,2.68c-2.26,1-3.4,1.53-4.67,1.34-2.51-.37-4.43-3-4.68-5.35-.16-1.52.45-2.23,1.56-5.36a48.61,48.61,0,0,0,1.56-5.35,5.47,5.47,0,0,0-3.12-2.68c-1.89-.54-3.17.45-4.68,0-1.12-.34-2.46-1.5-3.12-5.35-1.79.72-4.11,2-4.68,4s.85,3.07,0,4c-1.38,1.54-7,.63-7.79-1.34-.38-1,.55-1.73,0-2.68s-1.94-1.21-3.12-1.34a11.64,11.64,0,0,1-4.68-1.34,6.84,6.84,0,0,1-3.12-2.67c-1.09-2.16.79-3.45,0-6.7-.28-1.13-.56-2.3-1.56-2.67-1.44-.54-3.56.88-6.24,2.67s-3.42,2.78-4.68,2.68c-1.45-.11-2.48-1.54-3.11-2.68a66.43,66.43,0,0,0,3.11-6.69s.11-.27,1.56-4L125,503.46c.66.14,1.4.23,1.56,0,.56-.85-7-4.53-6.24-6.7.46-1.27,3.4-.82,4.68-2.67a4.27,4.27,0,0,0,0-4c-.36-.64-.88-1.57-1.56-2.68-2.84-4.63-3.93-5.15-4.68-5.35-1.48-.39-1.88.42-3.12,0-2.3-.79-2.78-4.2-3.12-6.69a19.72,19.72,0,0,1,0-5.36,8.49,8.49,0,0,1,1.56-4,10.38,10.38,0,0,1,6.24-4c5.8-1.13,10.42,3.5,10.91,4,.3.3,3.5,3.71,3.12,8-.19,2.24-1.21,3.11-1.56,6.69a17.58,17.58,0,0,0,0,4c.6,4.52,3.74,10.25,7.8,10.71a28.91,28.91,0,0,1,3.12,0c2.52.34,2.93,1.27,4.68,1.33,2.45.09,3-1.7,4.68-1.33,1.93.43,3,3.35,3.12,5.35.09,1.54-.41,1.82,0,2.68.84,1.8,4,2.59,6.23,2.67,2.42.1,2.81-.65,7.8-1.33,3.21-.44,4-.27,4.68,0,1.95.81,2.67,2.73,3.12,4,1.38,3.92.35,8,0,8s-.73-2.36,0-2.67c1.09-.48,3.51,4.18,9.35,6.69a20.16,20.16,0,0,0,4.68,1.34,22.7,22.7,0,0,0,3.12-9.37,21.54,21.54,0,0,0,0-4,12,12,0,0,1,10.92,0,8.55,8.55,0,0,1,4.67,9.37c4.09,3.66,5.68,4.34,6.24,4,1.08-.62-2-4.61,0-8a7.06,7.06,0,0,1,3.12-2.68,14.35,14.35,0,0,1,7.8,1.34,11.29,11.29,0,0,1,6.24,10.71q1.56-4,3.11-8c-.7-1-4.09-6.24-1.55-10.7.38-.69,1.38-2.45,3.11-2.68,2.12-.29,4.78,1.78,6.24,5.35a38.26,38.26,0,0,1,3.12,2.68c3.05,2.93,5.46,5.18,6.24,8,.93,3.42-1.32,4.46-1.56,9.37a17.84,17.84,0,0,0,1.56,8A33.59,33.59,0,0,0,243.51,535.58Z"/><path class="cls-17" d="M287.58,507.38c.89,3.87,1.38,9.33-1.86,13.59-4.5,5.94-12.53,4.69-16.71,10.19-2.07,2.73-3.57,7.61,0,17,7.6-.28,12.14,1.64,14.86,3.4,7.55,4.88,5.59,11.43,14.86,18.68,2.85,2.23,2.54,1.23,11.14,6.8,7.11,4.6,8.19,5.85,11.15,6.79,3.43,1.1,8.76,1.56,16.71-1.7-2.25-5.12-1.58-10.58,1.86-13.59,5.28-4.61,14.28-1,16.72,0,1.59.65,8.74,3.75,11.14,10.2,1.29,3.46.09,4.9,1.86,6.79,3,3.21,11.08,4.1,14.86,0a8.37,8.37,0,0,0,1.85-6.79,26.67,26.67,0,0,0,9.29-8.5c3.52-5.44,1.88-8.07,5.57-13.59,3.94-5.88,7.37-5.21,9.29-10.19,1.76-4.54-.92-5.54,0-11.89,1.06-7.33,5-8.42,5.57-15.29.16-1.87.54-6.26-1.85-10.19-4.43-7.25-13.06-4.3-26-11.89-9.24-5.42-10.42-10.2-16.71-10.19-5.9,0-6.74,4.2-13,5.09-11,1.57-16.36-10.2-24.14-8.49-10.16,2.23-14.06,25.12-13,25.48.32.11,1.83-1.7,1.85-3.4,0-3.18-5.14-7.82-29.72-13.59"/><path class="cls-18" d="M464.91,691.65a54.94,54.94,0,0,1-20.27-10.71c10.47-11.14,8.58-24.05,1.56-28.11s-18.2,1.1-18.71,1.34c-15.26,1.39-26.19-6.37-26.51-13.39-.2-4.36,3.65-9.57,9.35-12a20.35,20.35,0,0,1,10.92-1.34c5.93-5,6.66-8.44,6.24-10.71C426.4,611,417.28,609.81,415,603.3c-1.53-4.39.87-8.92,3.12-12,.6.43,13.05,9.41,17.15,6.69,2.62-1.73.91-7.6,0-10.71-1.8-6.21-4.18-6.86-6.23-13.39-1.3-4.1-2.79-8.85,0-12,2.32-2.66,6.31-2.75,6.23-4-.09-1.59-6.36-1-9.35-4-4.78-4.79-.14-17.58,6.23-18.74,4.94-.91,7.5,5.78,14,5.35,7.05-.46,9.25-8.56,14-8,5.54.62,4.73,11.7,10.92,13.38,8.43,2.29,18.92-15.81,28.07-13.38,5.14,1.36,5.33,8,9.36,8,4.44.05,5.58-8,12.47-13.39,6.67-5.2,18.68-9.34,25-5.35,7.25,4.61-3.44,22.77,0,24.09,2.82,1.09,8.14-11.28,18.71-12,6.33-.46,13.12,3.34,15.6,8,1.86,3.52.66,6.36,0,10.71-1.8,11.8,1.61,26.62,7.8,28.11,4.5,1.08,11.75-4.58,14-10.71,2.87-7.7-2.66-14.62,0-16.06,3.06-1.67,11.39,6.9,14,5.35,1.64-1,.22-5.29-1.56-9.37a13.5,13.5,0,0,1,12.47-8c6.84.15,13.18,6,12.48,13.38L648.92,531c2.23,1.16,9,5,10.92,12.05,3,11.17-9,20.08-10.92,21.41a33.85,33.85,0,0,1-12.47,5.36c5.77,3,12.19,7.6,12.47,13.39.12,2.49-1,3.77-6.23,12-8.8,13.78-9.51,16.05-9.36,18.74.32,5.63,4.08,6.49,3.12,10.71-1.46,6.38-10.45,6.21-12.48,12-2.48,7.14,9.29,12.26,7.8,20.08-1,5.26-7.45,8.74-15.59,12-29.93,12.15-49.07,8.28-76.42,17.41a127.88,127.88,0,0,0-28.07,13.38,201.8,201.8,0,0,0-28.06-5.35C475.31,693.35,471.2,693.42,464.91,691.65Z"/><path class="cls-17" d="M744.08,593.14c4.53.56,14.1.57,17.16-4s-2-11.07,0-12,6.62,5,9.36,4c2-.71,1.93-4.65,1.55-8,2.39,2.82,5.6,6,7.8,5.36,2-.56,1.73-3.72,3.12-8,2.64-8.21,9.52-15.45,12.48-14.73,2.7.67,2,8,3.11,8s2.07-5.28,3.12-12l3.12-8a22.71,22.71,0,0,1,6.24,9.37c1.92,5.88,0,9.76,3.12,12,.91.66,1.46.62,9.36,1.34,9.46.86,10.13,1,10.91,1.34,5.84,2.23,5.47,6.27,9.36,6.69,5.16.56,8.29-6.3,12.47-5.35,3.62.82,3.55,6.49,6.24,6.69,3.42.26,5-8.8,9.36-9.37,2.74-.36,6.67,2.6,12.47,13.39,0-4.62,3-8.82,7.8-10.71a15.3,15.3,0,0,1,15.59,2.67c-1.74-6.64-2.89-14.77,1.56-17.4,4.92-2.9,13.1,3,17.16,0,4.92-3.65-3.35-15.2,1.56-18.74,4.26-3.08,14.1,3.07,17.15,0,2.17-2.18-2.23-5.84,0-9.37,2.72-4.3,11.36-2.14,14-6.69.67-1.13.45-3,0-6.69-.59-5-1.52-6.89-2.21-10.55-1.6-8.52,1.23-10.26-.9-12.21-4.63-4.23-20.36,1.8-29.63,5.36-3.87,1.48-7,2.91-9.36,4-5-6.9-8.51-8.31-10.92-8-2.59.3-3.29,2.51-6.23,2.68-4.4.24-6.35-4.51-9.36-4-3.29.54-2,6.41-6.24,9.37-5.29,3.7-12.77-1.63-21.83,0-4.86.87-11.09,3.91-17.15,13.39-12.67-2.53-21.93-1.47-28.07,0-7.21,1.71-8.18,3.5-14,4-14.05,1.22-21-8-26.51-5.35-7,3.35,2.27,19-6.23,25.43-4.13,3.12-9.25,1.64-31.19,0-10-.75-18.17-1.13-23.39-1.34-3.51,1.13-12.9,4.55-14,10.71-.9,4.85,3.72,9.23,10.92,16.06,9,8.52,13.23,8.71,15.59,14.73,1.92,4.88.07,7.2,3.12,10.71C735.32,592.06,741.71,592.85,744.08,593.14Z"/><path class="cls-19" d="M594.38,1054.07A240.44,240.44,0,0,1,581.91,1026c-4.88-13.19-7.28-23.3-10.92-38.82-4.12-17.56-6.21-26.48-7.8-38.82-1.77-13.77-1.73-25.43-1.56-48.19.36-48.83,3.91-56,7.8-61.57,8.86-12.58,23.66-22.24,26.51-24.1,14.72-9.6,18.16-7.05,24.95-13.38,14.66-13.69,1.17-28,12.48-53.55,6.48-14.64,11.26-10.7,26.51-34.8,6.14-9.71,10.85-19.86,20.27-40.16C692,647,690.92,646.63,697.3,635.09c8.18-14.78,14.79-26.74,28.07-38.82,12.51-11.37,18.38-11.43,32.75-22.75a134.18,134.18,0,0,0,31.19-34.8V518.64c-14.23,1.21-21.21,5.59-24.95,9.37-3.24,3.26-2.78,4.77-9.36,18.74-7.09,15-10,18.22-14,20.08-5,2.28-10.43,1.93-14,1.33v-17.4c-3.39-.62-8.48-1-12.47,1.34-4.73,2.82-5.44,8.09-6.24,12-1.89,9.31-7.39,17.81-10.92,26.77a138.61,138.61,0,0,1-17.15,30.79c-4.07,6-9.85,14.3-17.15,24.09-7.79,10.45-10.43,13.36-14,13.39-8.9.07-15.63-17.46-17.15-21.42C627.66,627,628,619.48,627.13,607a300.55,300.55,0,0,0-4.68-36.14c-.48-5.79-1.38-11.93-3.12-12.05-.79,0-2.28,1.11-4.68,9.37-5.78,2.44-8.24,2.2-9.35,1.34-2-1.53.42-5-1.56-8-1.7-2.65-5.74-3.64-9.36-4,.21,14.84.12,37.08-1.56,64.25-1.79,29-3,25-3.12,38.82-.33,44.24,12.41,61.71-1.56,84.33-.85,1.38-10.07,16-17.15,14.72-8.08-1.51-9.26-23.08-10.92-53.54-1-18.58-1.51-27.87,0-40.16,2.75-22.24,7.58-22.8,10.92-48.19,2.15-16.38.82-21.27,4.68-34.8,4.12-14.45,6.18-21.67,10.91-26.77,2.17-2.33,4.92-4.71,4.68-8-.4-5.67-9.38-12.05-15.59-10.71s-6,9.91-17.16,30.78c-6.48,12.16-9.4,14.54-12.47,14.73-7.23.44-13.65-11.33-14-12-5.69-10.69-2.38-20.44-6.23-21.42-2.93-.74-5.48,4.74-12.48,5.36a16.42,16.42,0,0,1-7.8-1.34,204.65,204.65,0,0,1,0,104.41c-1.83,6.57-4.72,17.27-7.79,30.79s-3.95,19.23-7.8,20.08c-4.55,1-7.82-6.16-23.39-20.08-6.74-6-14-12.42-24.95-18.74-7.7-4.43-16.37-8.33-18.71-9.37-11.43-5.08-14.44-5.29-20.28-9.37-3.14-2.2-8.87-6.31-12.47-13.39-3-5.87-3.05-10.9-3.12-16.06a45.29,45.29,0,0,1,3.12-17.4c1.32-3.23,2.68-5.42,6.24-10.71,3.42-5.1,8.13-11.94,14-20.08.69-.44,6.79-4.4,6.24-9.37-.77-6.92-13.88-11.16-20.27-8-2.06,1-3,2.56-4.68,5.35C388.3,567,389.82,569,387,574.86c-1.56,3.2-2.13,2.86-6.24,9.37-2.12,3.36-3.69,6.18-4.68,8l-7.79,2.68A52.08,52.08,0,0,1,362,580.21c-4.37-17.67,3.12-30.1-1.56-32.12-3.22-1.39-10.32,2.94-12.48,8-1.09,2.58-.45,4.28,0,9.37.69,7.7-.45,7.53,0,14.72.56,8.89,2.3,9,3.12,18.74a103.25,103.25,0,0,1,0,13.39c-.43,12-1.6,13.72-3.12,14.72-3.51,2.32-9,.9-12.47,0-1.56-.4-6.74-1.88-14-8-3.61-3-6.23-6-10.91-12-5.64-7.31-9.65-13.2-12.48-17.4-6.94-10.31-12-18.17-14-21.42-11.65-18.3-13.08-21.62-14-24.09-2.83-7.32-4.65-12-4.68-18.74,0-4.32.72-9,0-17.4-.56-6.61-1.41-8.41-3.11-9.37-3.14-1.77-6.29.9-14,0-5.24-.61-6.41-2.15-7.8-1.34-3.29,1.92,3.18,10.69,4.68,25.43.82,8.05-.85,8,0,17.4.71,7.81,2.26,12.38,4.68,21.42,4.74,17.72,3.62,18.25,6.24,26.77,3.82,12.45,6.95,13.71,26.51,46.85,11.16,18.92,10.91,19.82,15.59,25.44,6.24,7.47,16.55,19.55,34.31,26.77,9.81,4,11.55,2.29,20.27,6.69,4.67,2.36,9.08,5.33,23.39,20.08,19.87,20.48,19.06,22.68,28.07,28.11,7.25,4.37,11.27,5.05,17.16,10.71a41.6,41.6,0,0,1,10.91,17.4c1.37,4.38,1.45,7.89,1.56,14.72.21,13.1-1.45,17.14-1.56,28.11-.1,10.19,1.31,9.38,1.56,20.08.33,13.83-2,15-3.12,32.13-.29,4.6-.05,3.34,0,33.46q0,10.71,0,21.42c0,10.71-.4,21.42,0,32.13a78.1,78.1,0,0,1,0,10.71c-.49,6.07-1,12.46-4.68,18.74-4.29,7.33-8,6.17-12.47,13.38-4.19,6.77-1.42,8.62-4.68,17.4-3.35,9-6.85,8.63-15.59,22.76-5.46,8.81-3.93,8.69-9.36,17.4-8,12.75-8.18,14.83-12.48,20.08-6.05,7.41-10.09,8.83-9.28,10.28,1.79,3.17,19.71-6.58,43.59-4.93,19.74,1.37,22.26,9,37.77,7,14.6-2,17.1-9.39,29-8.4,12.87,1.07,14.24,10.15,26.05,10.45,12.81.33,15.48-10.26,28.42-10.06,12.54.19,14.77,10.21,26.61,10.06,12.19-.15,15.42-10.84,27.51-13.34,8.14-1.68,20.59.27,39.48,16.42"/><path class="cls-20" d="M388.54,1060.76c.65.58,17.42-9.87,31.19-28.11a104.81,104.81,0,0,0,9.42-14.88,97.89,97.89,0,0,0,10.85-40c3.85-2.72,8.76-7.09,10.91-13.39,3.46-10.1-3.05-16.88-6.23-26.77-8-24.74,15.8-34.81,14-73.62-.13-3-1-8.79-2.77-20.39-4.43-29.21-7.24-34.75-6.58-49.22.46-10.26,2-10.54,1.91-20.82-.08-9.21-.17-19.29-5-28.7-3.33-6.45-11.41-12.19-27.58-23.67,0,0-16.38-11.64-42.55-26.37l-.05,0-6.23-3.48c-37.55-20.78-53-33.46-53-33.46a151.86,151.86,0,0,1-26.52-28.11c-13.29-26.66-15.11-33-14-33.47,2.45-1,15.69,30.05,51.46,54.89,12.64,8.77,28.47,17,34.31,20.07,16.63,8.68,21.77,9.91,40.54,20.08,19.81,10.74,26.81,16.26,31.19,20.08a126.56,126.56,0,0,1,17.15,18.74c14.42,20.16,9.16,40.44,10.92,73.62,3.12,58.6,23.18,64.08,10.92,89.69-4.77,9.95-14.33,22.76-12.48,41.5,1,9.9,4.56,15.55,6.24,20.07C481.54,995.47,387,1059.37,388.54,1060.76Z"/><path class="cls-20" d="M483.66,983.12c1.26,11.5,6.58,19.69,4.68,36.15-.16,1.37-.32,2.37-.44,3.15-3,18.54-12.49,37.65-16.71,37-4.74-.72-3.68-26.43-1.56-42.83,4.37-34,17.46-60.54,18.71-60.24C489.15,956.55,481.94,967.31,483.66,983.12Z"/><path class="cls-20" d="M485.36,918.87c-.71,6.41-.23,10-2.77,16.06-1.24,3-4.26,8.14-5.54,8-3.9-.32,8.77-49.63,11.08-49.53,1,0,.1,9.73,0,10.71C487.47,910.91,486.17,911.53,485.36,918.87Z"/><path class="cls-20" d="M516.34,776.83c1,8.86,3.14,13.46.67,22.57-1.22,4.47-4.92,12.46-7.3,12.78-7.26,1-1.68-69.81,2.61-70.51,1.89-.31,3.66,13,3.83,14.38C517.36,765.38,515.2,766.67,516.34,776.83Z"/><path class="cls-20" d="M531.8,808.53c-.72,10.13-.24,15.74-2.8,25.37-1.26,4.73-4.32,12.85-5.6,12.69-3.94-.5,8.86-78.38,11.2-78.22,1,.07.09,15.37,0,16.91C533.93,796,532.62,796.93,531.8,808.53Z"/><path class="cls-20" d="M301.21,617.69c6.61,8.68,17,20.58,30.86,30.07,9.46,6.45,20.14,11.5,20.45,10,.34-1.69-12.43-11.62-20.48-17.88C319.55,630.16,308.92,622.79,301.21,617.69Z"/><path class="cls-20" d="M518,603c.62,0,1.22,4,2.33,11.58a214,214,0,0,1,2.35,21.88c.68,15.65,1.68,38.59-10.92,62.92-5.08,9.81-11.34,17.84-12.47,17.4-1.54-.6,7.67-16.14,12.47-40.16,1.46-7.28,2-14.23,3.12-28.11C517.09,620.45,516.69,603,518,603Z"/><path class="cls-20" d="M592,597.61c0-.26,0-.53.07-.79a75.45,75.45,0,0,1,1.86-11.25A114.4,114.4,0,0,1,595.86,599a104.08,104.08,0,0,1,0,18.74c-.62,5.65-1.36,10.21-1.93,13.39A87.76,87.76,0,0,0,592,645.8c0,.68,0,1.69,0,3.7,0,4.21,0,6.52,0,11,0,1.56,0,3.45,0,7.22,0,14.13-.09,12.77,0,14.19s.69,6.8,1.93,17.41c.55,4.66.49,4.14.55,4.71,1.37,12.28,2.06,18.43,1.38,24.73A52.48,52.48,0,0,1,592,743.52l-11.58,14.72c-5.51,2.75-7.23,3-7.72,2.68-1.31-.9,6.11-6.32,11.58-14.72a41.91,41.91,0,0,0,5.79-13.39A106.94,106.94,0,0,0,592,716.75c.23-5.27-.48-13-1.93-28.11-.8-8.47-1.23-17-1.93-25.44a58.12,58.12,0,0,1,0-12c.25-2.25.82-5.1,1.93-10.71s1.41-6.65,1.93-9.37a107.07,107.07,0,0,0,1.93-14.73,94.16,94.16,0,0,0,0-10.71"/><path class="cls-20" d="M605.3,593.6c2.15-.43,5.27,5,6.23,6.69,6.6,11.48,3.57,23.65,1.56,29.45a199.25,199.25,0,0,0-7.79,40.16c-1,11.44-.8,20.05-1.56,20.07-1,0-3.34-15.15-3.12-32.12.21-16.46,2.58-16.77,3.12-34.8C604.27,605.33,602.33,594.18,605.3,593.6Z"/><path class="cls-20" d="M709.78,561.47a79.1,79.1,0,0,0-3.12,8c-.74,2.25-1.12,5-2.63,9.34-.14.4-.29.83-.49,1.37a64,64,0,0,1-4.68,9.37,83.22,83.22,0,0,0-4.68,12q-2.05,4.5-4.67,9.37c-1.54,2.84-3.11,5.51-4.68,8-1.09,1.52-2.73,3.84-4.68,6.69-3.23,4.71-4,6-6.24,9.37A139.45,139.45,0,0,1,663,649.82c-2.68,3.07-7.33,8.31-7.8,8s5-8.32,7.8-12.05c1.46-2,2.52-3.29,3.11-4,2.5-3,3.27-3.6,4.68-5.36,1.86-2.31,2.12-3.33,4.68-8,1-1.93,2.62-4.7,4.68-8a73.2,73.2,0,0,0,4.68-8c1.53-3.07,1.54-3.66,3.12-6.7,2.3-4.43,2.94-4.46,4.67-8s1.49-4.38,3.12-8a45,45,0,0,1,4.68-8"/><path class="cls-21" d="M541.36,925.11s4.51,33.95,9.36,83.29c2.61,26.6,4,41.39,3.12,41.65s-4.49-15.06-6.24-30.69c-.41-3.62-.62-6.36-1.56-21.92-.66-10.76-1.18-19.77-1.56-26.3a85.88,85.88,0,0,1-1.56-11c-.55-7.14.06-10.59,0-17.53A104.82,104.82,0,0,0,541.36,925.11Z"/><path class="cls-21" d="M555.58,969.31c-2,1.05,2.24,34.73,16.15,66.25a167.66,167.66,0,0,0,16.14,28.81l8.07,5.76c-4.39-9.89-10.83-24.74-18.16-43.21C561.87,986.88,557.08,968.5,555.58,969.31Z"/><path class="cls-21" d="M476.14,970.4c-1.95,5.25-4.82,12.55-8.76,21.18a326,326,0,0,1-26.18,46.81c-4.05,6-9.68,13.88-16.85,22.63,2.94.33,7.48,0,12.5-4,7.82-6.22,12.23-17.75,16.42-28.58C458.66,1014.55,465.89,996.07,476.14,970.4Z"/><path class="cls-21" d="M547.5,851.94c.12,0-.09,3.64-.07,10.71,0,2.49,0,4.23.07,6.09.38,22.1.23,24.55,0,26.39-.76,6.23-1.29,5-2.69,14.4-1.58,10.61-1,12.51-2.69,19.19-1.08,4.16-2.52,7.57-5.39,14.39-.5,1.2-7.19,17.06-8.07,16.8-.65-.19,7.48-14.71,10.77-36,1.06-6.87.62-8,2.69-24,1.4-10.8,1.69-11,2.69-19.2C546.79,864.52,547.29,851.93,547.5,851.94Z"/><path class="cls-21" d="M558.51,857.3c.72,0,1.22,2.39,1.56,4a16.09,16.09,0,0,1,0,6.7,32.42,32.42,0,0,0-3.11,10.7,30.49,30.49,0,0,0,0,6.7A48.67,48.67,0,0,1,555.4,872C555.55,865.15,557.2,857.27,558.51,857.3Z"/><path class="cls-21" d="M741,576.2c.36.46-1.14,2.24-9.36,8a98.18,98.18,0,0,0-9.36,6.69c-4.68,3.78-7.58,6.84-7.79,6.69s1.09-1.8,7.79-9.37a26.84,26.84,0,0,1,6.24-6.69C733.68,577.6,740.35,575.4,741,576.2Z"/><path class="cls-21" d="M655.2,715.41a67.89,67.89,0,0,1-6.24,9.37,51.59,51.59,0,0,1-12.47,10.71c1.45-2.15,3.63-5.39,6.23-9.37,4-6.06,4.48-7.07,6.24-9.37,4.34-5.7,10.07-11.2,10.92-10.71S657.9,710.9,655.2,715.41Z"/><path class="cls-21" d="M533.56,880.07c2.89,1.22-2.08,30.92-4.67,46.46-4.87,29.09-7.54,32.89-10.92,56.55-3.69,25.79-3.54,42.44-4.68,42.42-.85,0-2-9.38-3.12-52.52a239.73,239.73,0,0,1,7.8-54.53C523,899.7,531.05,879,533.56,880.07Z"/><path class="cls-21" d="M599.06,778.32c.7.53-7.79,8.55-20.27,24.1-21.22,26.42-29.95,44.67-31.19,44.17s5.32-19.53,20.27-38.82C581.6,790.06,598.14,777.63,599.06,778.32Z"/><path class="cls-21" d="M482.1,720.76c4.49,7.21,8.75,17.39,9.36,38.82.5,17.52-1.66,34.83-3.12,34.8s.77-17.59-4.68-42.83-15-41.84-12.47-42.83C472.89,708.05,478.57,715.1,482.1,720.76Z"/><path class="cls-21" d="M550.66,822.07c1.7.12,4.3-23.89,5.07-40.31.42-9,.34-16.66.12-22.66-.76-20.58-4-46.45-5.86-46.35C546.26,713,547.06,821.82,550.66,822.07Z"/><path class="cls-21" d="M628.69,681.94c1.35.2-.27,20.14-6.24,41.5-5.18,18.55-12.79,35.11-14,34.8-.93-.23,2.49-13.09,9.35-38.82C624.46,694.35,627.81,681.82,628.69,681.94Z"/><path class="cls-22" d="M506.17,904.54c-5.76,31.88-15.09,61-16.22,60.63-1.95-.68,18.54-91.45,20.37-91C511.16,874.43,508.1,893.86,506.17,904.54Z"/><path class="cls-22" d="M491.19,831.41c-.48,21.17,6.61,43.09,10.92,42.83,3.46-.2,6.09-14.73,4.68-26.77-1.72-14.59-9.34-25.25-14-30.79A90.47,90.47,0,0,0,491.19,831.41Z"/><path class="cls-22" d="M558.25,606.53q-5.1,92.52-8.32,92.36-2.79-.15-4.16-70.37Z"/><path class="cls-22" d="M393.78,651.93c29.42,18.51,54.13,39.55,53.12,40.54-1.76,1.71-83.32-55.14-81.83-56.8C365.75,634.91,383.93,645.73,393.78,651.93Z"/><path class="cls-22" d="M680.27,651.83c-17.68,27.38-38.88,51.07-40.15,50.34-2.2-1.28,53.2-77.9,55.31-76.85C696.4,625.81,686.19,642.66,680.27,651.83Z"/><path class="cls-10" d="M416.08,437.27c1.17-1.11,4.68-1.29,15.51,3.61,25.13,5.26,33.27,2.61,36-.94,5.4-7.14-10.67-19.16-4.68-28.11,5.25-7.84,24.46-10.09,35.87-4,9.41,5,6.36,11.91,17.15,18.74,10.19,6.44,22.89,6.62,28.07,6.69,14.66.21,18.91-4.43,24.95-1.34,8.3,4.26,3.82,14.84,10.92,21.42,4.93,4.58,16.23,7.92,45.22,0-7.35,16.3-17.12,23.37-24.95,26.77-5.92,2.57-7.47,1.64-26.51,5.36-22.81,4.44-24.45,6.53-37.43,8-10.83,1.25-10.72-.09-32.75,0-31.38.12-44.75,2.89-46.78-1.34-2.68-5.6,18.47-15.34,15.6-21.42-2.43-5.13-18.16.45-34.31-6.69S412.76,440.4,416.08,437.27Z"/><path class="cls-10" d="M810.61,419.87c2.08,10.85,29,14.12,28.07,18.74-.71,3.62-17.13.5-23.39,8-7.5,9,5.44,26.2,1.56,28.11-1.06.52-3.44-.06-9.36-5.36-15.42.91-25.85,4.7-26.51,9.37-.57,4,6,8.79,12.48,10.71,3.28,1,12.47,3,51.46-14.72,16.68-7.58,20.52-10.46,29.62-10.71,10.77-.3,18.21,3.38,21.84,0,4.51-4.2-4-12.64,0-17.4,6.55-7.75,37,5.31,40.54,0,2-3-6-10.23-14-17.4-15-13.38-27.89-20.54-26.51-22.76,1.27-2.06,12.39,4.21,20.27,0,7.36-3.93,9.76-15.86,4.68-20.08-3-2.44-7.75-1.75-17.16,0-30.07,5.59-34.75,8.44-49.9,10.71-16.44,2.46-21,.61-29.63,5.35C823.72,403,809,411.3,810.61,419.87Z"/><path class="cls-10" d="M818.41,232.46c-3.54,6.08,4.08,10.95,1.56,22.76a23,23,0,0,1-6.24,12c-7.05,7-17.3,7.87-20.27,8-.07,4.65-1.06,11-6.24,14.72-8.34,6-22.84,2-23.39,4s12.94,3.26,20.27,12c5.35,6.41,8.19,17.69,1.56,22.75-5.83,4.45-15.87,1.71-17.16,1.34A39.91,39.91,0,0,0,756,344.91a33.62,33.62,0,0,0-3.12,18.74c-24,2.93-29.54,5.81-29.63,8-.21,5,27.31,13.3,37.43,5.35,4.4-3.46,4-8.78,7.79-9.37,5.57-.85,9.58,9.92,15.6,9.37,3.91-.35,6-5.24,9.36-12,3-6.13,7.58-14.86,14-25.43,3.81-.05,9.41-.65,12.48-4,6-6.58-3.17-17.79,1.55-21.42,5.57-4.27,22.37,8.1,28.07,4,3.6-2.57.95-10.37-1.56-16.06,17.81-8.8,20.78-14.86,20.28-18.74-.91-7-13.33-8.86-18.72-20.08A24.9,24.9,0,0,1,848,247.19c4.55-7.43,2.83-15.94-3.11-20.08C836.44,221.21,822.11,226.09,818.41,232.46Z"/><path class="cls-10" d="M590.73,306.09c7.52-7.61,18.77-8.4,32.75-9.37,9.88-.69,21.13-1.48,23.39,2.67,2.75,5.05-10.27,12.78-7.8,16.07s18.92-1.63,26.51-5.36a84.52,84.52,0,0,0,14-9.26l0,0c.71-.62,1.22-1.09,1.57-1.43A47.53,47.53,0,0,1,689,275.3a55.17,55.17,0,0,1,12.48-13.39c9.24,15.78,7.93,25.1,4.68,30.79-9.82,17.21-43.17,11.56-76.41,34.8a101.52,101.52,0,0,0-20.28,18.74c-7.77,4.28-17.16,4.9-23.39,1.34-9-5.11-11.63-19-1.56-29.45A23.14,23.14,0,0,1,590.73,306.09Z"/><path class="cls-10" d="M107.31,348.92c5.33-4.77-3-15.43,3.12-20.08,3.22-2.44,6.49-.23,10.92-2.67,8-4.41,9-18,4.68-20.08-3-1.45-6.57,3.89-18.72,6.69a43.19,43.19,0,0,1-12.47,1.34C82,313.41,71,305.53,71.45,304.75c.27-.46,5.27.37,6.23,2.68,1.12,2.66-3.28,7-7.79,9.37-9.27,4.87-19.6,1.83-20.28,4-.52,1.69,5.93,2.64,9.36,8,3.17,5,.25,8.21,3.12,12.05,2.14,2.86,5.71,3.66,15.59,5.35C95.94,349.37,105.11,350.89,107.31,348.92Z"/><path class="cls-10" d="M163.45,284.67c.49-1.73,3.67-3.42,14-4-15.08-15.49-16.92-20.14-15.6-21.41s5.64,1.35,15.6,2.67c8.27,1.1,16.54,2.2,20.27-1.33,4.14-3.94-1.5-9.65,3.12-18.75,1.42-2.81,3.19-6.28,6.23-6.69,7.31-1,11.75,17.09,21.84,17.4,7.8.25,13.93-10.31,15.59-9.37s-8.22,10.81-4.68,18.74c3.19,7.15,14.29,5.94,17.16,13.39,2.09,5.45-2.93,8.45-1.56,14.72,1.41,6.49,8.44,10.79,14,13.39,3.81.72,8.89,1.08,12.48-1.34,4.2-2.85,3.82-7.83,6.23-8,3-.25,6,7.35,6.24,8,.78,2,4.47,11.71,0,14.73-4.25,2.87-11.11-3.54-18.71-1.34-5.91,1.71-9.09,7.7-10.92,13.38-3.82-5.29-8.14-8.08-12.47-9.37-10-3-17.87,2.68-25-1.34-2.48-1.4-3.17-3-6.24-9.37-11.45-23.62-13.66-25.28-15.59-25.43-5.27-.4-6.12,10.65-15.6,13.39C178.63,300,162.14,289.32,163.45,284.67Z"/><path class="cls-10" d="M249.22,228.45c4.09-2.93,9.12-7.54,9.36-13.39.31-7.7-7.8-14.72-7.8-14.72s7.6,13.8,15.59,13.38c3.74-.19,3.83-3.29,9.36-5.35,6.58-2.45,9.75.71,20.27,0,5.69-.38,12.69-.86,17.15-5.35,3.22-3.24,5.52-9,3.12-13.39-3-5.61-11.4-5.11-26.51-10.71a112.83,112.83,0,0,1-17.15-8c-2.25-9.82-3.72-12.1-4.68-12-2.17.12-1,12.13-7.8,14.73-3,1.15-4.41-.77-9.35,0s-6.46,3.22-12.48,6.69c-9.3,5.36-11.93,3-15.59,6.69s-1.31,6.07-3.12,18.74c-1.58,11.09-3.86,13.25-1.56,17.4,3.22,5.82,11,7.69,12.48,8A26.9,26.9,0,0,0,249.22,228.45Z"/><path class="cls-10" d="M339.66,150.81c.68-4.77,5.66-8.95,9.36-12.05,5.61-4.7,9.71-6,9.36-8-.22-1.25-2.07-2.79-9.36-4l12.48-5.36c4.11,4.42,9.33,9.12,12.47,8,4-1.38,1.23-11,4.68-12,3.7-1.09,13.83,7.94,12.48,16.06-1,6-7.77,8.65-6.24,12.05.95,2.12,4.15,2.31,9.35,4a56.57,56.57,0,0,1,15.6,8c6.55,3.66,13.54,8.2,12.47,10.71-1.13,2.67-10.3.58-12.47,4-2.85,4.52,11,11.35,9.36,20.08-1.14,6.21-9.79,11.82-15.6,10.71-6.74-1.3-6.3-11-12.47-12.05-8-1.31-16.93,13.57-20.28,12.05-2.18-1,1.21-7.52-1.56-9.37-3.42-2.3-12.43,8.49-17.15,6.69-6-2.3,5.65-20.55-4.68-36.14C343.74,158.57,338.93,156,339.66,150.81Z"/><path class="cls-10" d="M437.91,187s-.72,1.69-1.4,14.38h0l-.16,1.69c-.18,2.28,18,7,18.71,12,.52,3.61-8,5.56-7.8,9.37.22,3.56,7.93,6.21,15.6,8,2.23-7.85,7-13.52,10.91-13.38,4.39.15,9.58,7.59,9.36,18.74-4-8.53-1.83-16.48,3.12-18.74,5.26-2.41,13.19,1.85,17.15,5.35,0,0,3.16,2.79,9.36,17.4h0s3.77-7.59,9.36-10.7c2.47-1.39,6.68-2.66,14-1.34a80.44,80.44,0,0,0-10.91-13.39c-9.06-9-15.17-11-21.84-18.74a47,47,0,0,1-9.35-17.4,35.72,35.72,0,0,0-7.8,9.37c-3.44,6.08-2.51,9.08-6.24,12.05a16.49,16.49,0,0,1-14,2.67c-4.68-1.26-8.15-4.56-9.36-8-.49-1.4-.62-2.86,1.56-12,1.83-7.71,2.39-8.69,1.56-9.37C456.85,172.53,441.84,177.68,437.91,187Z"/><path class="cls-10" d="M556.42,189.63c.08,2.69-1.08,6.32-6.23,10.71-14.86,3.72-15.69,5.91-15.6,6.69.25,2,7.76,4.24,14,2.68,4.88-1.22,5.86-3.93,9.35-4,2.58-.06,6.28,1.33,10.92,8a22.49,22.49,0,0,0,9.36-2.67c9.81-5.49,11.53-17.76,9.35-18.74-1.64-.74-7,4.21-6.24,5.35s8.43-1.31,18.72-5.35c13.46-4.11,17-7.8,17.15-10.71.15-4.32-7.37-7.26-6.24-10.71.79-2.39,5.23-3.48,9.36-4-4-12.29-9.45-16.28-14-17.4-4.83-1.18-8.69.83-12.48-1.34-4.37-2.49-5-8.43-4.68-13.38-1-3.4-2.86-7.31-6.24-8-4.87-1-7.95,5.6-17.15,9.37-12.07,4.94-24.38.7-24.95,2.67-.64,2.21,15.8,3.88,18.71,12.05,0,0,1.45,4.07-12.47,24.1h0C554.3,183.88,556.32,186.31,556.42,189.63Z"/><path class="cls-10" d="M384.59,251.89c1.45-3.48,32.84-2.8,37.42,9.3,3.39,8.95-9.15,20.8-12.47,23.94a76.09,76.09,0,0,1-6.25,5.14c-13.11,10.11-18.21,10.22-18.7,13.48-1,6.46,18.7,8.13,25,21.28,3.69,7.78,2.2,18.56-4.68,22.61-9.17,5.39-24.64-3.07-31.19-6.65-11.17-6.11-32.32-21.55-28.07-35.91,2-6.78,9.13-10.73,23.39-18.62,21.13-11.69,33.76-12.66,34.31-18.62C404,260.11,383.35,254.84,384.59,251.89Z"/><path class="cls-10" d="M503.1,9.49c1.77-.36,6.95,7.71,7.8,16a24.6,24.6,0,0,1,.11,3.48,26.59,26.59,0,0,1-4.79,13.81C501.19,15.58,501.71,9.78,503.1,9.49Z"/><path class="cls-23" d="M1853.2,582.84c5.34-2.08,9.75-4.44,12.67-7,9.42-8.09-.13-14.69-21.34-15,6.35-9.69-8-17-35.57-17-28.49,0-61.17,7.85-76.84,18a89.47,89.47,0,0,0-9.72-.49c-22.35,0-48.3,6.73-58,15-3.61,3.1-4.43,6-2.88,8.37-12.37,3.63-22.7,8.3-28.63,13.39-13.46,11.56.87,20.94,32,20.94,5.77,0,11.71-.33,17.64-.92a3.1,3.1,0,0,0-.93.43c.87,3.68,1.07,11.9-13.2,22.74-10.68,8.11-25,14.28-34,17.77h73.17c2.48-.43,2.8-.69,2.86-.74-2.16-2.59-5.54-8.45,2.1-16.79,10.9-11.91,36.63-20.55,44-22.92a114.68,114.68,0,0,0,17.49,1.21c31.14,0,67.3-9.37,80.76-20.93C1862.47,592.49,1861.25,586.68,1853.2,582.84Z"/><path class="cls-24" d="M1686.39,660.38h-73.17a100.07,100.07,0,0,0,0-100.25,1.81,1.81,0,0,1,.59-1.3,2.09,2.09,0,0,1,1.41-.54h71.17a1.93,1.93,0,0,1,2,1.84c-4.51,5.68-20.43,27.17-17.45,56.86,2.08,20.65,12.28,35.15,17.45,41.56C1688.39,658.67,1688.37,659.32,1686.39,660.38Z"/><path class="cls-25" d="M1743.08,471.47a34.67,34.67,0,0,0,4.58-17.19c0-20-17.23-36.36-38.82-37.16-4.93-24-27.85-42.13-55.38-42.13-28.5,0-52,19.43-55.84,44.66a43.47,43.47,0,0,0-10.29-1.22c-22.35,0-40.47,16.65-40.47,37.19a34.92,34.92,0,0,0,6.87,20.74,49.19,49.19,0,0,0-13,33.14c0,28.62,25.24,51.82,56.38,51.82a60.8,60.8,0,0,0,19-3c7.08,10.81,20,18,34.7,18,14.36,0,27-6.88,34.16-17.26a60.28,60.28,0,0,0,22.22,4.19c31.14,0,56.39-23.2,56.39-51.82C1763.58,495.35,1755.6,481,1743.08,471.47Z"/><circle class="cls-26" cx="1652.79" cy="542.86" r="5.01"/><circle class="cls-26" cx="1721.97" cy="453.63" r="7.02"/><circle class="cls-26" cx="1652.29" cy="493.23" r="5.51"/><circle class="cls-26" cx="1599.66" cy="445.61" r="5.01"/><circle class="cls-26" cx="1586.12" cy="522.3" r="5.51"/><circle class="cls-26" cx="1716.96" cy="509.77" r="5.01"/><circle class="cls-26" cx="1660.31" cy="445.1" r="5.51"/><path class="cls-16" d="M2031,952c-3.54-13.17-12.84-22.8-23.14-25.42a38.78,38.78,0,0,0-.74-8.32,41,41,0,0,0-13.82-23.11c8.84-7.07,12.81-21,9-35.13-4.8-17.83-20.14-29.2-34.26-25.4a20.34,20.34,0,0,0-3.28,1.19c-4.84-17.75-20.13-29-34.22-25.26-6.85,1.84-12.15,6.91-15.26,13.68-7-9.74-17.83-14.86-28-12.13a23.2,23.2,0,0,0-14,11.22c-6.93-11.27-18.62-17.46-29.59-14.51-9.7,2.6-16.31,11.69-18,22.89a38.25,38.25,0,0,0-30.08-4.59c-12.66,3.41-22.11,13-26.38,25-5.77-3.63-12.36-5-18.71-3.28-14.13,3.8-21.69,21.33-16.9,39.15a39.13,39.13,0,0,0,10.77,18.41c0,.43-.06.87-.07,1.3a21.83,21.83,0,0,0-11.15,0c-14.13,3.8-21.69,21.33-16.9,39.15,3,11.36,10.39,20.09,19,23.95-3.71,7.34-4.73,16.88-2.15,26.51,3.66,13.6,13.47,23.44,24.18,25.65a39.51,39.51,0,0,0,.32,19.85c4.8,17.82,20.14,29.19,34.26,25.4a21.83,21.83,0,0,0,9.35-5.29c6.13,5.89,13.91,9,21.64,7.72a22.5,22.5,0,0,0,15.16-10.1c10.39,10.54,26.39,16.12,42.84,13.49a48.28,48.28,0,0,0,21.13-8.73c6.85,7,15.92,10.34,24.55,8,7.18-1.93,12.66-7.41,15.69-14.67a51.26,51.26,0,0,0,13.35-.37,49.43,49.43,0,0,0,15-4.9c6.58,5.74,14.78,8.3,22.62,6.2,8.57-2.31,14.72-9.68,17.17-19.09a21.52,21.52,0,0,0,4.94-.72c14.12-3.8,21.69-21.33,16.9-39.15a40.12,40.12,0,0,0-8-15.53C2031.51,977.57,2034.51,964.85,2031,952Zm-126.39-18.81c.58.37,1.17.72,1.76,1.06-.77,0-1.55-.06-2.32-.05C1904.28,933.83,1904.46,933.49,1904.65,933.15Z"/><path class="cls-27" d="M2024.13,951.72c-3.38-12.59-12.27-21.81-22.13-24.31a36.66,36.66,0,0,0-.71-8,39.16,39.16,0,0,0-13.21-22.1c8.45-6.76,12.25-20.08,8.62-33.6-4.58-17-19.25-27.92-32.76-24.28a20.93,20.93,0,0,0-3.14,1.13c-4.62-17-19.25-27.78-32.72-24.15-6.55,1.76-11.62,6.61-14.59,13.08-6.73-9.31-17.06-14.21-26.78-11.6a22.18,22.18,0,0,0-13.37,10.73c-6.62-10.77-17.81-16.7-28.3-13.88-9.28,2.5-15.6,11.18-17.16,21.9a36.59,36.59,0,0,0-28.77-4.39c-12.1,3.25-21.15,12.43-25.22,23.93-5.52-3.47-11.83-4.77-17.9-3.14-13.51,3.64-20.74,20.4-16.16,37.45a37.37,37.37,0,0,0,10.3,17.6c0,.41-.05.83-.07,1.24a20.93,20.93,0,0,0-10.66,0c-13.51,3.63-20.75,20.4-16.16,37.45,2.92,10.85,9.93,19.2,18.13,22.89-3.55,7-4.53,16.14-2,25.35,3.5,13,12.87,22.42,23.12,24.53a37.83,37.83,0,0,0,.31,19c4.58,17,19.25,27.92,32.76,24.28a20.78,20.78,0,0,0,8.94-5c5.86,5.63,13.3,8.57,20.7,7.39a21.51,21.51,0,0,0,14.49-9.67c9.94,10.08,25.23,15.42,41,12.91a46.14,46.14,0,0,0,20.2-8.36c6.56,6.7,15.23,9.9,23.48,7.68,6.87-1.85,12.11-7.09,15-14a49.08,49.08,0,0,0,12.78-.36,46.85,46.85,0,0,0,14.31-4.69c6.29,5.49,14.14,8,21.63,5.93,8.2-2.2,14.08-9.25,16.42-18.25a20.62,20.62,0,0,0,4.72-.69c13.51-3.63,20.75-20.39,16.16-37.44a38.16,38.16,0,0,0-7.68-14.85C2024.58,976.21,2027.44,964,2024.13,951.72Zm-120.87-18c.56.35,1.12.69,1.69,1-.74,0-1.48,0-2.23,0C1902.91,934.38,1903.08,934.05,1903.26,933.73Z"/><path class="cls-9" d="M1766.33,921.74c-5.85-6.56-4.81-19.72,2.3-29.38s17.61-12.17,23.45-5.61a14.69,14.69,0,0,1,3.12,6.07c-6-6.51-15.18-5.82-20.64,1.6s-5.15,19,.84,25.75a14.14,14.14,0,0,0,5.25,3.77C1775.36,926.39,1770,925.81,1766.33,921.74Z"/><path class="cls-9" d="M1800.48,980.42c3.42-10,13.12-14.77,21-11.22a18.52,18.52,0,0,1,6.84,5.73c-.79-.24-12.17-3.51-19.65,6.12-6.27,8.07-5,19-4.78,20.6C1802.5,998.85,1797.66,988.62,1800.48,980.42Z"/><path class="cls-9" d="M1958.64,897.58c.74-7.51-1.71-16.4-7.13-23.66-8.54-11.43-21.21-14.44-28.3-6.73a18.27,18.27,0,0,0-4.34,9.72c-1.94-8.27-.92-16.15,3.39-20.84,7.11-7.73,20.45-3.85,29.8,8.67C1960.07,875.46,1962.56,889.05,1958.64,897.58Z"/><path class="cls-16" d="M1960.82,894.05c.74-8.42-2.1-18.45-8.25-26.68-9.7-13-23.91-16.56-31.76-8a19.86,19.86,0,0,0-4.76,10.84c-2.27-9.32-1.21-18.15,3.57-23.34,7.87-8.57,22.85-4,33.47,10.21C1962.18,869.24,1965.12,884.53,1960.82,894.05Z"/><path class="cls-16" d="M1762.21,917.45c-5.85-6.56-4.81-19.71,2.3-29.37s17.61-12.17,23.45-5.61a14.63,14.63,0,0,1,3.12,6.07c-6-6.51-15.18-5.82-20.64,1.6s-5.15,19,.84,25.74a14.06,14.06,0,0,0,5.25,3.78C1771.24,922.1,1765.83,921.53,1762.21,917.45Z"/><path class="cls-16" d="M1864.22,862.07c6.46-.06,21,10.93,22.54,13.25-6.17-3.42-14.43-6.6-23.38-5.42-14.06,1.87-21.38,13.4-22.23,12.2C1840.13,880.68,1849.29,862.21,1864.22,862.07Z"/><path class="cls-9" d="M1872.31,947.61c-.53-.9,5.82-10.59,16.14-12.66,12.32-2.47,24.26,7.13,24.08,8.11s-9.84-5.51-22.29-3.61C1879.07,941.17,1872.8,948.47,1872.31,947.61Z"/><path class="cls-9" d="M1861.07,903.92c-3.55,1.83-7,7-5.94,11-2.12-2-8.7-5.63-13.8-2.55-3.47,2.09-6.64,7.51-5.39,11.54a6.27,6.27,0,0,0,.51,1.16c2.77-5.36,5.85-7.49,8.37-8.36,5.12-1.77,9.62-.46,10.74-.64l0,.1.08-.13a.19.19,0,0,0,.14-.16s0,0,0-.06c3-4.86,6.06-6.71,8.57-7.39,6-1.63,11,.73,11.1-.08C1875.63,907.33,1867.48,900.62,1861.07,903.92Z"/><path class="cls-16" d="M1858.81,900.87c-3.56,1.83-7,7-5.94,11-2.12-2-8.7-5.62-13.81-2.54-3.47,2.09-6.64,7.51-5.38,11.54a5.38,5.38,0,0,0,.51,1.16c2.76-5.36,5.84-7.49,8.37-8.36,5.11-1.78,9.61-.46,10.73-.64l0,.1.08-.13a.2.2,0,0,0,.14-.16.13.13,0,0,0,0-.06c3-4.87,6.06-6.71,8.58-7.39,6-1.63,11,.73,11.09-.09C1873.37,904.28,1865.22,897.57,1858.81,900.87Z"/><path class="cls-16" d="M1779.94,950.85c-4.38,3.44-5.41,10.46-5.27,15.68-3.78-4.52-13.5-7.11-19.64-2.7-7.77,5.58-7.25,20.5-6.1,21.11s2.85-13.32,11.17-16.44c5.4-2,11.48,1.29,15.8,4.44h0c1.2.46,1.6-13.87,9.45-18.08,5.29-2.85,11.9,0,16.79,3C1794.94,948.93,1785.45,946.53,1779.94,950.85Z"/><path class="cls-16" d="M1815.55,1043.23c5.27-1.18,8.31-7,9.68-11.76,2.4,5.68,11.16,12.19,18.44,10.89,9.2-1.65,13-15.23,12.06-16.27s-6.64,10.69-15.68,9.9c-5.86-.52-10.85-6.11-14.16-10.78h0c-1.05-.94-5.57,11.72-14.46,12.11-6,.26-11.63-5.17-15.55-10C1800.33,1038.49,1808.92,1044.73,1815.55,1043.23Z"/><path class="cls-16" d="M1892.91,929.48c6.46-.06,20.95,10.94,22.54,13.26-6.17-3.43-14.43-6.61-23.38-5.42-14.06,1.86-21.38,13.39-22.23,12.2C1868.82,948.09,1878,929.62,1892.91,929.48Z"/><path class="cls-9" d="M1864.86,864.44c6.46-.06,21,10.94,22.54,13.26-6.17-3.42-14.43-6.61-23.38-5.42-14.06,1.87-21.38,13.39-22.23,12.2C1840.77,883.05,1849.93,864.58,1864.86,864.44Z"/><path class="cls-16" d="M1801.77,985.22c3.42-10,13.12-14.76,21-11.21a18.5,18.5,0,0,1,6.84,5.72c-.79-.24-12.17-3.5-19.65,6.13-6.27,8.06-5,19-4.78,20.6C1803.79,1003.66,1799,993.43,1801.77,985.22Z"/><path class="cls-9" d="M1901.2,977.53c-3.93.58-8.43,4.28-8.27,8.42-1.69-2.53-7.47-8-13.22-6.79-3.89.85-8.22,4.91-7.82,9.08a5.72,5.72,0,0,0,.25,1.25c3.91-4.13,7.43-5.14,10.13-5.15,5.48,0,9.68,2.64,10.83,2.83l0,.1.11-.09c.09,0,.15,0,.17-.11a.07.07,0,0,0,0-.05c4-3.61,7.47-4.35,10.12-4.18,6.31.39,10.79,4.18,11.07,3.46C1915,985.37,1908.29,976.49,1901.2,977.53Z"/></g><path class="cls-28" d="M1380.51,419.87a15.75,15.75,0,0,0,5.58-4.68c3.59-5.44-2.9-9.88-14.54-10.09,1.6-6.52-7.67-11.46-22.71-11.46-15.56,0-31.9,5.28-38.49,12.14a43.19,43.19,0,0,0-5.41-.33c-12.21,0-25.09,4.53-28.77,10.11-1.37,2.09-1.27,4,0,5.64-6,2.44-10.8,5.58-13.06,9-5.12,7.78,4.51,14.09,21.52,14.09a74.61,74.61,0,0,0,9.45-.62,1,1,0,0,0-.42.29c1.18,2.48,2.88,8-2.83,15.3-4.27,5.45-10.9,9.61-15.13,11.95h40c1.27-.29,1.4-.46,1.42-.5a9.64,9.64,0,0,1-2.09-11.29c3.66-8,16.06-13.83,19.64-15.42a55.4,55.4,0,0,0,9.79.81c17,0,35-6.3,40.08-14.08C1387.43,426.36,1385.65,422.45,1380.51,419.87Zm-84.9,23.59Z"/><path class="cls-24" d="M1292,473.09h-48.45a66.32,66.32,0,0,0,0-66.39,1.19,1.19,0,0,1,.39-.86,1.37,1.37,0,0,1,.93-.35H1292a1.27,1.27,0,0,1,1.32,1.21c-3,3.76-13.53,18-11.55,37.65a52.57,52.57,0,0,0,11.55,27.52C1293.29,472,1293.28,472.38,1292,473.09Z"/><path class="cls-29" d="M1329.51,348a23,23,0,0,0,3-11.38c0-13.26-11.41-24.08-25.7-24.6-3.27-15.89-18.44-27.91-36.68-27.91-18.87,0-34.46,12.87-37,29.58a28.81,28.81,0,0,0-6.82-.81c-14.8,0-26.8,11-26.8,24.63a23.15,23.15,0,0,0,4.55,13.73,32.56,32.56,0,0,0-8.63,21.95c0,18.95,16.71,34.31,37.34,34.31a40.17,40.17,0,0,0,12.6-2,28.08,28.08,0,0,0,45.6.52,40.06,40.06,0,0,0,14.71,2.78c20.63,0,37.34-15.37,37.34-34.32A33.26,33.26,0,0,0,1329.51,348Z"/><circle class="cls-30" cx="1269.58" cy="364.26" r="3.5"/><circle class="cls-30" cx="1320.58" cy="359.26" r="3.5"/><circle class="cls-30" cx="1261.58" cy="391.26" r="3.5"/><circle class="cls-30" cx="1247.58" cy="320.26" r="3.5"/><ellipse class="cls-30" cx="1283.86" cy="329.49" rx="2.72" ry="2.88" transform="translate(685.1 1512) rotate(-77.54)"/><ellipse class="cls-30" cx="1317.25" cy="391.55" rx="2.72" ry="2.88" transform="translate(650.69 1593.28) rotate(-77.54)"/><circle class="cls-30" cx="1223.58" cy="354.26" r="3.5"/></svg>