<svg id="Layer_1" data-name="Layer 1" xmlns="http://www.w3.org/2000/svg" width="210" height="273.01" viewBox="0 0 210 273.01"><defs><style>.cls-1{fill:#ed1c24;}.cls-2{fill:#c1272d;}.cls-3{fill:#8d272d;}.cls-4{fill:#603813;}.cls-5{fill:#39b54a;}.cls-6{fill:#009245;}.cls-7{fill:#a67c52;}.cls-8{fill:#a9272d;}.cls-9{opacity:0.74;}.cls-10{opacity:0.68;}.cls-11{fill:#42210b;}.cls-12{fill:#fff;}</style></defs><path class="cls-1" d="M153.15,84.38c21.79,6.39,35.52,22.73,41.21,30.78,16.84,23.82,15.95,49.47,15.42,64.76-.49,14.16-1.19,37.06-16.84,59.31-4.8,6.82-19.88,28.25-44.43,33-15,2.89-19.5-3.15-49.08-2.7-21.5.34-21.45,3.56-31,2.41C37.87,268.25,14,232.43,5.16,204c-2.78-8.93-12-42.75,4.11-76.26,3.49-7.25,12.39-25.72,31.88-35.51,6.08-3.06,13-4.26,26.73-6.66,3.63-.63,49.19-4.1,54.63-3.93C138.29,82.09,146.18,82.33,153.15,84.38Z"/><ellipse class="cls-2" cx="110.7" cy="107.14" rx="21.17" ry="56.51" transform="translate(-7.88 205.49) rotate(-83.74)"/><ellipse class="cls-3" cx="110.3" cy="107.89" rx="13.94" ry="36.66" transform="translate(-9.57 205.03) rotate(-83.39)"/><path class="cls-4" d="M133,60.39c-5.45,8.82-9,14.58-11,22-3.88,14.13.92,22.9-4.68,26.75a9,9,0,0,1-9.25,0c-3.36-2.06-2.78-7.75-2.06-13.58A170,170,0,0,1,116,56.1c6.8-18.32,9-21.23,12.36-22,5.31-1.16,12.28,3.25,13.5,8.51C142.93,47.19,139.34,50.14,133,60.39Z"/><path class="cls-5" d="M114.68,72.26a26.47,26.47,0,0,0,3.12-13.87c-.58-12.66-10-20.44-11.74-21.81a69,69,0,0,0-21.88-12.8C70.41,18.93,67.33,23.08,55,18.4,38.41,12.1,26.74-2,24.49.27l-.06.07a63.67,63.67,0,0,0-1.17,11.5c0,3.49.11,15.34,7.2,30.8C37.17,57.26,46.22,77,66.65,83.84,83.72,89.56,106.91,85.7,114.68,72.26Z"/><path class="cls-6" d="M112.52,75.63c2.82-3.78,6.37-9.88,6.13-17.27-.6-19-25.55-30.71-29.47-32.56-19.36-9.12-25.32-.82-42-11.44C38.63,8.94,26.83-1.72,24.82.24l-.06.07C23.58,31.62,39,59.81,64,71.94,85.05,82.15,105.68,77.5,112.52,75.63Z"/><ellipse class="cls-7" cx="133.77" cy="41.11" rx="5.27" ry="8.74" transform="translate(21.57 124.75) rotate(-53.79)"/><path class="cls-8" d="M29.23,104c7,.31,12.44,9.4,14.08,16.44,3.69,15.86-8.68,36.11-21.75,36.3-5.9.08-12-3.91-14.74-9.21-4-7.81.48-16.49,4.84-24.95C15.81,114.48,21.42,103.6,29.23,104Z"/><g class="cls-9"><path class="cls-8" d="M59.37,247.27c-.26,2.82-4.06,4.87-6.95,5.4-6.51,1.19-14.48-4.22-14.31-9.53a7,7,0,0,1,4-5.8c3.25-1.47,6.69.51,10,2.45C55.35,241.63,59.66,244.11,59.37,247.27Z"/></g><path class="cls-8" d="M156,218c1.7,1.2,1.62,4.36.9,6.39-1.62,4.58-8,7.68-11.28,5.63a5.13,5.13,0,0,1-2.23-4.67c.25-2.61,2.76-4.07,5.22-5.5S154,216.68,156,218Z"/><path class="cls-8" d="M46.69,195.38c-1.72,1.15-4.64-.07-6.28-1.47-3.68-3.17-4.26-10.21-1.15-12.56a5.13,5.13,0,0,1,5.16-.38c2.34,1.18,2.79,4.05,3.23,6.85S48.63,194.09,46.69,195.38Z"/><g class="cls-10"><path class="cls-8" d="M190.12,144.39c6.09.76,11.17,13.84,12.83,23.86,3.75,22.57-6.41,50.59-17.82,50.27-5.16-.14-10.64-6.06-13.18-13.66-3.74-11.21-.11-23.26,3.42-35C178.73,158.66,183.28,143.54,190.12,144.39Z"/></g><path class="cls-8" d="M145.85,246.58c1.2.15,2.21,2.74,2.54,4.72.74,4.46-1.27,10-3.53,9.93-1,0-2.1-1.2-2.6-2.7-.74-2.21,0-4.6.68-6.92S144.5,246.42,145.85,246.58Z"/><g class="cls-10"><path class="cls-11" d="M186.41,188.14l4.58-4.2c6.86-6.33,10.28-9.51,10-9.83s-5,1.72-8.73,5.35A26,26,0,0,0,186.41,188.14Z"/><path class="cls-11" d="M174.52,202.05l4.26-4.66c6.4-7,9.59-10.54,9.39-10.88s-4.56,2-8.07,6A30.83,30.83,0,0,0,174.52,202.05Z"/><path class="cls-11" d="M176.3,178.11c.81.71,2,1.72,3.41,2.93,5.14,4.39,7.72,6.58,7.94,6.4s-1.6-3.34-4.53-5.73A20.13,20.13,0,0,0,176.3,178.11Z"/><path class="cls-11" d="M185.8,185.59l3.41,2.93c5.15,4.38,7.72,6.57,7.94,6.39s-1.6-3.33-4.53-5.73A19.72,19.72,0,0,0,185.8,185.59Z"/><path class="cls-11" d="M186.59,172.46c0,1.08,0,2.63.1,4.5.16,6.76.25,10.14.53,10.18s1.42-3.42,1.25-7.2A20.07,20.07,0,0,0,186.59,172.46Z"/></g><ellipse class="cls-12" cx="136.55" cy="178.54" rx="23.68" ry="22.02" transform="translate(-84.23 136.36) rotate(-41.77)"/><path class="cls-4" d="M151.19,143a97.76,97.76,0,0,1-15,12c-7.33,4.74-12.3,7.87-16.8,6.12-4-1.57-6.23-6.49-5.61-7.13s3.16,2.76,7.64,3.56c3.69.66,6.73-.76,16.3-6.37C141.91,148.71,146.42,146,151.19,143Z"/><ellipse class="cls-4" cx="125.89" cy="175.95" rx="11.2" ry="11.33"/><circle class="cls-12" cx="132.51" cy="173.78" r="2.55"/><circle class="cls-12" cx="130.21" cy="169.46" r="1.27"/><ellipse class="cls-12" cx="74.45" cy="177.99" rx="22.02" ry="23.68" transform="translate(-117.67 160.36) rotate(-62.06)"/><path class="cls-4" d="M61.22,142.72a98.39,98.39,0,0,0,15,12c7.33,4.74,12.3,7.86,16.8,6.11,4-1.57,6.23-6.49,5.6-7.13s-3.15,2.76-7.64,3.57c-3.68.65-6.73-.77-16.29-6.37C70.5,148.4,66,145.69,61.22,142.72Z"/><ellipse class="cls-4" cx="85.4" cy="175.69" rx="11.2" ry="11.33"/><circle class="cls-12" cx="92.28" cy="174.29" r="2.55"/><circle class="cls-12" cx="88.46" cy="170.22" r="1.4"/><path class="cls-8" d="M53.16,196.41c2.24.59,5.46,1.44,9.35,2.44,14.06,3.63,21.1,5.43,21.32,4.85.32-.83-6.43-5-14.34-6.89A40.49,40.49,0,0,0,53.16,196.41Z"/><path class="cls-8" d="M130.72,207c2-.88,4.94-2.17,8.44-3.73,12.67-5.65,19-8.49,18.82-9.05-.26-.81-7.8.06-14.82,3.37A38.71,38.71,0,0,0,130.72,207Z"/><path class="cls-4" d="M140.65,241.26c-8.9-5.75-21.18-11.52-35.9-11.72-22.73-.29-38.88,12.88-47.27,5.61C55,233,52.8,228.66,53.83,219.36c42.84-16.64,77.61-15.12,86.57.25C142.28,222.85,144.54,229.29,140.65,241.26Z"/><rect class="cls-12" x="55.15" y="217.6" width="7.93" height="8.82" rx="3.97" transform="translate(-69.37 31.55) rotate(-19.09)"/><rect class="cls-12" x="64.52" y="214.56" width="7.93" height="8.82" rx="3.97" transform="translate(-65.05 32.41) rotate(-18.23)"/><rect class="cls-12" x="73.43" y="211.76" width="7.93" height="8.82" rx="3.97" transform="translate(-56.89 29.93) rotate(-16.09)"/><rect class="cls-12" x="82.68" y="209.66" width="7.93" height="8.82" rx="3.97" transform="translate(-39.17 20.41) rotate(-10.97)"/><rect class="cls-12" x="92.36" y="208.14" width="7.93" height="8.82" rx="3.97" transform="translate(-28.41 15.33) rotate(-7.93)"/><rect class="cls-12" x="101.58" y="207.37" width="7.93" height="8.82" rx="3.97"/><rect class="cls-12" x="111" y="207.63" width="7.93" height="8.82" rx="3.97" transform="translate(21.18 -10.18) rotate(5.58)"/><rect class="cls-12" x="120.42" y="209.16" width="7.93" height="8.82" rx="3.97" transform="translate(55.07 -23.66) rotate(13.93)"/><path class="cls-12" d="M134.56,222.84l-5.21-2.41a1.11,1.11,0,0,1-.54-1.46l2.79-6a1.28,1.28,0,0,1,.62-.56c.9-.38,2.07.57,3.34,1.61a18.88,18.88,0,0,1,2.55,2.55C136.92,218.65,135.74,220.75,134.56,222.84Z"/><path class="cls-12" d="M139.38,228.27c-1.1-1.44-2.21-2.88-3.31-4.33a10.37,10.37,0,0,1,4.42-4.58,15.18,15.18,0,0,1,1.95,5.86Z"/><path class="cls-12" d="M61.72,237.18l-2.54-.76c-1.67-1.88-2.34-3.85-1.64-4.92a1.77,1.77,0,0,1,.63-.56l5.09-1.76a1.09,1.09,0,0,1,1.39.68l2,5.89a1.21,1.21,0,0,1,0,.83C66.2,237.53,64.23,237.79,61.72,237.18Z"/><rect class="cls-12" x="67.51" y="227.69" width="7.58" height="8.42" rx="3.79" transform="translate(-59.76 27.74) rotate(-15.61)"/><rect class="cls-12" x="76.79" y="225.02" width="7.58" height="8.42" rx="3.79" transform="matrix(0.96, -0.28, 0.28, 0.96, -60.38, 31.32)"/><rect class="cls-12" x="85.88" y="222.76" width="7.58" height="8.42" rx="3.79" transform="translate(-41.57 21.22) rotate(-10.97)"/><rect class="cls-12" x="95.12" y="221.3" width="7.58" height="8.42" rx="3.79" transform="translate(-22.62 11.34) rotate(-5.89)"/><rect class="cls-12" x="104.44" y="221.33" width="7.58" height="8.42" rx="3.79" transform="matrix(1, 0.09, -0.09, 1, 19.67, -8.42)"/><rect class="cls-12" x="113.95" y="222.6" width="7.58" height="8.42" rx="3.79" transform="translate(49.17 -19.37) rotate(11.87)"/><rect class="cls-12" x="122.44" y="225.07" width="7.58" height="8.42" rx="3.79" transform="translate(84.08 -29.04) rotate(19.57)"/><rect class="cls-12" x="130.42" y="228.71" width="7.58" height="8.42" rx="3.79" transform="translate(110.4 -34.84) rotate(24.87)"/><path class="cls-12" d="M140.53,241.27c-1.14-.69-2.29-1.37-3.44-2.05a15.41,15.41,0,0,1,1.27-3.57c.71-1.4,1.58-3.14,2.55-3.05.82.08,1.33,1.44,1.53,2l-.51,2.8C141.46,238.71,141,240,140.53,241.27Z"/></svg>