<svg id="Layer_1" data-name="Layer 1" xmlns="http://www.w3.org/2000/svg" width="210" height="272.97" viewBox="0 0 210 272.97"><defs><style>.cls-1,.cls-12{fill:#ed1c24;}.cls-2{fill:#c1272d;}.cls-3{fill:#8d272d;}.cls-4{fill:#603813;}.cls-5{fill:#009245;}.cls-6{fill:#a67c52;}.cls-7{fill:#a9272d;}.cls-8{opacity:0.74;}.cls-9{opacity:0.66;}.cls-10{opacity:0.69;}.cls-11{fill:#fff;}.cls-12{opacity:0.5;}</style></defs><path class="cls-1" d="M153.15,84.35c21.79,6.39,35.52,22.72,41.21,30.78,16.84,23.82,15.95,49.47,15.42,64.76-.49,14.16-1.19,37.06-16.84,59.31-4.8,6.82-19.88,28.25-44.43,33-15,2.89-19.5-3.15-49.08-2.7-21.5.33-21.45,3.56-31,2.41-30.55-3.68-54.42-39.5-63.26-68-2.78-8.93-12-42.75,4.11-76.26,3.49-7.25,12.39-25.72,31.88-35.51,6.08-3.06,13-4.26,26.73-6.66,3.63-.64,49.19-4.1,54.63-3.93C138.29,82.06,146.18,82.3,153.15,84.35Z"/><ellipse class="cls-2" cx="110.7" cy="107.11" rx="21.17" ry="56.51" transform="translate(-7.85 205.46) rotate(-83.74)"/><ellipse class="cls-3" cx="110.3" cy="107.86" rx="13.94" ry="36.66" transform="translate(-9.54 205) rotate(-83.39)"/><path class="cls-4" d="M133,60.36c-5.45,8.82-9,14.58-11,22-3.88,14.13.92,22.9-4.68,26.74a8.93,8.93,0,0,1-9.25,0c-3.36-2-2.78-7.74-2.06-13.58a170,170,0,0,1,10-39.42c6.8-18.32,9-21.23,12.36-22,5.31-1.17,12.28,3.25,13.5,8.5C142.93,47.16,139.34,50.11,133,60.36Z"/><path class="cls-5" d="M114.68,72.23a26.48,26.48,0,0,0,3.12-13.87c-.58-12.67-10-20.44-11.74-21.82A69,69,0,0,0,84.18,23.75C70.41,18.9,67.33,23.05,55,18.37,38.41,12.07,26.74-2,24.49.24l-.06.07a63.67,63.67,0,0,0-1.17,11.5c0,3.49.11,15.34,7.2,30.79C37.17,57.23,46.22,77,66.65,83.8,83.72,89.53,106.91,85.67,114.68,72.23Z"/><ellipse class="cls-6" cx="133.77" cy="41.08" rx="5.27" ry="8.74" transform="translate(21.59 124.74) rotate(-53.79)"/><path class="cls-7" d="M14,143.76c2.11-2.94,7.62-2.75,11.16-1.46,7.95,2.89,13.26,14,9.63,19.76a9,9,0,0,1-8.18,3.81c-4.54-.48-7-4.89-9.5-9.19C14.79,152.59,11.65,147.06,14,143.76Z"/><g class="cls-8"><path class="cls-7" d="M205.91,158.37c-3.16,3-9.64,1.53-13.53-.79-8.77-5.23-12.53-19.61-6.94-25.59A10.82,10.82,0,0,1,196,129.34c5.26,1.59,7.23,7.38,9.16,13C207,147.74,209.47,155,205.91,158.37Z"/></g><g class="cls-8"><path class="cls-7" d="M59.37,247.24c-.26,2.82-4.06,4.87-6.95,5.4-6.51,1.19-14.48-4.22-14.31-9.53a7,7,0,0,1,4-5.8c3.25-1.47,6.69.51,10,2.44C55.35,241.59,59.66,244.08,59.37,247.24Z"/></g><path class="cls-7" d="M175,214.68c1.7,1.19,1.62,4.36.9,6.39-1.61,4.58-8,7.68-11.28,5.63a5.14,5.14,0,0,1-2.22-4.68c.24-2.6,2.76-4.06,5.21-5.49S173.14,213.34,175,214.68Z"/><path class="cls-7" d="M46.69,195.35c-1.72,1.15-4.64-.07-6.28-1.47-3.68-3.17-4.26-10.21-1.15-12.56a5.13,5.13,0,0,1,5.16-.38c2.34,1.18,2.79,4.05,3.23,6.85S48.63,194.06,46.69,195.35Z"/><path class="cls-7" d="M195.66,185.66c2.8.35,5.14,6.36,5.91,11,1.72,10.37-2.95,23.26-8.2,23.11-2.37-.07-4.89-2.79-6.06-6.28-1.72-5.16-.05-10.7,1.57-16.1C190.43,192.22,192.52,185.27,195.66,185.66Z"/><path class="cls-7" d="M145.85,246.55c1.2.15,2.21,2.74,2.54,4.72.74,4.45-1.27,10-3.53,9.93-1,0-2.1-1.2-2.6-2.7-.74-2.22,0-4.6.68-6.92S144.5,246.38,145.85,246.55Z"/><g class="cls-9"><path class="cls-7" d="M99.41,258.54c-.67-1.63.88-3.87,2.36-5,3.32-2.57,9.37-1.93,10.79,1.05A4.36,4.36,0,0,1,112,259c-1.41,1.77-3.91,1.68-6.35,1.6S100.15,260.37,99.41,258.54Z"/><path class="cls-7" d="M42.91,153.08c-.66-1.63.89-3.88,2.36-5,3.33-2.57,9.37-1.92,10.79,1.06a4.36,4.36,0,0,1-.59,4.38c-1.41,1.76-3.92,1.68-6.36,1.6S43.65,154.91,42.91,153.08Z"/><path class="cls-7" d="M179.77,194.4c-1.53.86-4-.38-5.28-1.7-3-3-3.12-9-.35-10.83a4.35,4.35,0,0,1,4.42,0c1.94,1.17,2.18,3.66,2.41,6.09S181.49,193.42,179.77,194.4Z"/><g class="cls-10"><path class="cls-7" d="M79.29,36.21c-.25-.7.74-1.84,1.61-2.46,2-1.4,5.21-1.51,5.78-.23a2,2,0,0,1-.61,2c-.88.9-2.23,1-3.55,1.15S79.57,37,79.29,36.21Z"/><path class="cls-7" d="M101.29,52.12a1.69,1.69,0,0,1,.53-1.81,2.57,2.57,0,0,1,3.56.91,1.84,1.84,0,0,1,0,1.65c-.37.61-1.19.46-2,.31S101.62,52.86,101.29,52.12Z"/><path class="cls-7" d="M47.23,23.66a1.67,1.67,0,0,1,.53-1.81c1-.83,3-.29,3.55.92a1.81,1.81,0,0,1,0,1.65c-.37.61-1.19.46-2,.31S47.55,24.4,47.23,23.66Z"/><path class="cls-7" d="M43.15,52.69a1.69,1.69,0,0,1,.53-1.81,2.57,2.57,0,0,1,3.56.91,1.84,1.84,0,0,1,0,1.65c-.38.61-1.19.46-2,.32S43.48,53.43,43.15,52.69Z"/><path class="cls-7" d="M90.51,75.86A1.67,1.67,0,0,1,91,74.05a2.55,2.55,0,0,1,3.55.91,1.81,1.81,0,0,1,0,1.65c-.38.61-1.19.46-2,.32S90.84,76.6,90.51,75.86Z"/><path class="cls-7" d="M68.67,73.34c.7-.25,1.84.73,2.46,1.61,1.4,2,1.51,5.21.24,5.78a2,2,0,0,1-2.05-.61c-.91-.88-1-2.23-1.16-3.55S67.88,73.62,68.67,73.34Z"/><path class="cls-7" d="M27.37,21.12a1.66,1.66,0,0,1,.53-1.81,2.56,2.56,0,0,1,3.55.91,1.81,1.81,0,0,1,0,1.65c-.37.61-1.19.46-2,.31S27.69,21.86,27.37,21.12Z"/></g></g><ellipse class="cls-11" cx="84.31" cy="179.19" rx="31.32" ry="44.94"/><path class="cls-2" d="M116.9,180.6H52.23c-3.66-26.22,15.6-46.39,32.34-46.39S120.56,154.38,116.9,180.6Z"/><ellipse class="cls-11" cx="142.94" cy="180.85" rx="27.24" ry="39.08"/><path class="cls-2" d="M170.69,180.6H115.57c-3.12-22.35,13.3-39.54,27.56-39.54S173.81,158.25,170.69,180.6Z"/><path class="cls-4" d="M150.71,180.6a9.55,9.55,0,0,1-19.1,0Z"/><path class="cls-4" d="M95.23,180.6a9.55,9.55,0,0,1-19.09,0Z"/><path class="cls-4" d="M134.92,236.37c-.24.59-9.65-3.27-23.81-3.38-15.57-.11-25.85,4.41-26.1,3.82s11.61-7.08,26.63-6.75C124.84,230.34,135.16,235.74,134.92,236.37Z"/><path class="cls-12" d="M109.57,68.3c-.19.58-8.78-.29-20-4a25.46,25.46,0,0,1-8,2.73c-8.33,1.32-15.28-2.39-15.21-2.64s6.5,2.78,15.24,1.59A35.63,35.63,0,0,0,89,64.11a104.47,104.47,0,0,1-17.15-7.52c-.63-.35-1.25-.71-1.87-1.07a25.54,25.54,0,0,1-7.25,2.34c-8.34,1.32-15.28-2.39-15.21-2.64s6.5,2.79,15.24,1.6a35.54,35.54,0,0,0,6.67-1.62A98.86,98.86,0,0,1,55,44.66a25.55,25.55,0,0,1-5.12,1.39c-8.32,1.33-15.27-2.39-15.2-2.64s6.5,2.79,15.25,1.6a33.46,33.46,0,0,0,4.42-.92C36.13,27.94,28.17,9.49,28.85,9S38,24.86,57.08,40.88a29.62,29.62,0,0,0,.72-6.06,30.21,30.21,0,0,0-2.94-12.69c.2-.08,4.06,5.39,3.82,12.55a21.75,21.75,0,0,1-1.26,6.49,128.56,128.56,0,0,0,13.94,10.1,30.25,30.25,0,0,0,.7-6,30.07,30.07,0,0,0-2.94-12.68c.2-.09,4.06,5.38,3.82,12.54a21.91,21.91,0,0,1-1.21,6.35c1,.6,2,1.19,3,1.78A137.53,137.53,0,0,0,90.15,61a35.82,35.82,0,0,0,.72-6.54c.1-8.83-3.7-14.84-3.47-14.93s4.79,6.34,4.5,14.76a25.88,25.88,0,0,1-1.23,6.93C101.75,65.92,109.74,67.74,109.57,68.3Z"/><path class="cls-2" d="M65.4,215c.84,1.31,5.83,8.89,15.28,10.44,8.92,1.45,18.22-3.06,23.42-11.46-.78,1-8.4,10.22-20.88,9.67A25.85,25.85,0,0,1,65.4,215Z"/><path class="cls-2" d="M124.72,209.93c.45.85,5.37,9.85,15.62,11.12a21,21,0,0,0,20.79-11.12c-.6.84-7,9.36-18.24,9.34S125.34,210.79,124.72,209.93Z"/></svg>