<svg id="Layer_1" data-name="Layer 1" xmlns="http://www.w3.org/2000/svg" width="294.3" height="289.44" viewBox="0 0 294.3 289.44"><defs><style>.cls-1{fill:#ed1c24;}.cls-2{fill:#c1272d;}.cls-3{fill:#8d272d;}.cls-4{fill:#603813;}.cls-5{fill:#39b54a;}.cls-6{fill:#009245;}.cls-7{fill:#a67c52;}.cls-8{fill:#dc3700;}.cls-9{fill:#fbb03b;}.cls-10{fill:#a9272d;}.cls-11{fill:#ff9130;}.cls-12{fill:#ffd730;}.cls-13{fill:#ffa330;}.cls-14{fill:#fff;}.cls-15{fill:#754c24;}.cls-16{fill:none;stroke:#754c24;stroke-miterlimit:10;}</style></defs><path class="cls-1" d="M230.17,89.35c23.76,6.79,38.72,24.14,44.93,32.7,18.36,25.3,17.39,52.55,16.82,68.79-.54,15-1.3,39.37-18.37,63-5.23,7.25-21.66,30-48.44,35-16.35,3.08-21.25-3.34-53.5-2.86-23.44.36-23.39,3.78-33.8,2.56-33.31-3.91-59.33-42-69-72.22-3-9.48-13.1-45.41,4.49-81,3.8-7.7,13.5-27.32,34.75-37.72,6.63-3.25,14.14-4.53,29.14-7.08,4-.67,53.63-4.35,59.56-4.17C214,86.92,222.58,87.18,230.17,89.35Z"/><ellipse class="cls-2" cx="183.89" cy="113.53" rx="22.5" ry="61.59" transform="translate(51.6 284.43) rotate(-83.95)"/><ellipse class="cls-3" cx="183.46" cy="114.32" rx="14.81" ry="39.95" transform="translate(49.43 283.92) rotate(-83.61)"/><path class="cls-4" d="M208.22,63.87c-5.94,9.37-9.82,15.49-12,23.34-4.23,15,1,24.32-5.1,28.41-3,2-7.34,1.63-10.09,0-3.66-2.18-3-8.23-2.24-14.43a177.17,177.17,0,0,1,10.92-41.88c7.42-19.46,9.78-22.54,13.48-23.34,5.78-1.23,13.39,3.46,14.72,9C219,49.85,215.12,53,208.22,63.87Z"/><path class="cls-5" d="M188.24,76.48a27.57,27.57,0,0,0,3.4-14.73C191,48.29,180.72,40,178.84,38.57A75.62,75.62,0,0,0,155,25c-15-5.16-18.37-.75-31.81-5.73C105.09,12.57,92.36-2.37,89.91,0a.45.45,0,0,0-.07.07A67.15,67.15,0,0,0,88.56,12.3c0,3.7.13,16.29,7.86,32.71,7.31,15.53,17.17,36.48,39.45,43.76C154.48,94.86,179.76,90.75,188.24,76.48Z"/><path class="cls-6" d="M185.88,80.05c3.08-4,6.94-10.49,6.68-18.34-.65-20.12-27.85-32.61-32.13-34.58-21.1-9.69-27.6-.88-45.8-12.16C105.33,9.21,92.46-2.11,90.27,0L90.2.05a203.26,203.26,0,0,0,49.15,53.54A205,205,0,0,0,185.88,80.05Z"/><ellipse class="cls-7" cx="209.05" cy="43.39" rx="5.65" ry="9.45" transform="translate(54.32 190.51) rotate(-55.28)"/><path class="cls-8" d="M97,138.52c2.63-1.05,6.08-1.9,9.33-.86,8.79,2.82,9.53,17.32,9.91,24.25A51.53,51.53,0,0,1,110,189.64c-3.71,6.61-8.77,15.64-16.58,15.93-8.31.31-14.54-9.46-15.81-11.46-8-12.49-6-29.13,2.51-41.17A47.77,47.77,0,0,1,97,138.52Z"/><path class="cls-9" d="M103.35,141.07c2.43-.89,5.6-1.57,8.52-.47,7.9,3,8,16.67,8.11,23.23a50,50,0,0,1-6.68,25.95c-3.62,6.11-8.57,14.46-15.68,14.46-7.57,0-12.87-9.44-14-11.37-6.78-12.07-4.34-27.71,3.82-38.78A44.17,44.17,0,0,1,103.35,141.07Z"/><path class="cls-10" d="M110.47,145.22c6.7.81,8.67,13.54,9.23,17.2,2.65,17.14-6.21,37.48-15.49,37.85-7.23.29-14.66-11.55-15.82-21.51C86.41,161.73,102.11,144.21,110.47,145.22Z"/><path class="cls-11" d="M103.11,196.26c-18.12-2.7-31.36-14.62-29.59-26.63s17.9-19.55,36-16.85S121.22,199,103.11,196.26Z"/><ellipse class="cls-12" cx="95.51" cy="171.23" rx="23.99" ry="18.05" transform="translate(-1.26 0.71) rotate(-0.42)"/><ellipse class="cls-11" cx="72.99" cy="162.04" rx="23.18" ry="31.16" transform="translate(-96.85 214.35) rotate(-82.87)"/><ellipse class="cls-12" cx="69.2" cy="159.49" rx="19.08" ry="27.29" transform="translate(-93.05 221.93) rotate(-87.59)"/><ellipse class="cls-11" cx="45.32" cy="131.07" rx="27.68" ry="33.43" transform="translate(-1.06 0.37) rotate(-0.46)"/><path class="cls-12" d="M67.42,123.26c-2.63,14.35-14.79,24.13-27.15,21.84S20,129.33,22.64,115,70.06,108.91,67.42,123.26Z"/><ellipse class="cls-13" cx="43.04" cy="83.02" rx="40.88" ry="39.93" transform="translate(-0.34 0.18) rotate(-0.24)"/><ellipse class="cls-12" cx="25.9" cy="74.33" rx="12.24" ry="12.3" transform="translate(-44.2 38.52) rotate(-43.73)"/><ellipse class="cls-14" cx="25.54" cy="76.04" rx="10.36" ry="10.94" transform="translate(-0.7 0.24) rotate(-0.53)"/><ellipse class="cls-12" cx="61.46" cy="74.34" rx="12.24" ry="12.3" transform="translate(-34.34 63.1) rotate(-43.73)"/><ellipse class="cls-14" cx="61.1" cy="76.05" rx="10.36" ry="10.94" transform="matrix(1, -0.01, 0.01, 1, -0.7, 0.56)"/><ellipse class="cls-15" cx="26.3" cy="76.41" rx="7.52" ry="5.18" transform="translate(-51.43 98.49) rotate(-86.87)"/><ellipse cx="26.36" cy="76.86" rx="3.54" ry="5.2" transform="translate(-0.6 0.21) rotate(-0.45)"/><ellipse class="cls-15" cx="61.71" cy="76.85" rx="7.52" ry="5.18" transform="translate(-18.4 134.26) rotate(-86.87)"/><ellipse cx="61.43" cy="77.29" rx="3.54" ry="5.2" transform="translate(-0.61 0.49) rotate(-0.45)"/><path class="cls-15" d="M77.12,63.57c-.24.44-4.4-2.56-11.37-3.69-7.61-1.24-12.87.67-13,.21s6.63-3.91,14-2.41C73,58.93,77.37,63.11,77.12,63.57Z"/><ellipse class="cls-14" cx="26.07" cy="74.94" rx="1.64" ry="1.64" transform="translate(-2.45 0.9) rotate(-1.89)"/><ellipse class="cls-14" cx="60.96" cy="74.68" rx="1.64" ry="1.64" transform="translate(-2.43 2.05) rotate(-1.89)"/><circle class="cls-14" cx="27.53" cy="78.17" r="0.55" transform="translate(-2.56 0.95) rotate(-1.89)"/><circle class="cls-14" cx="62.42" cy="77.91" r="0.55" transform="translate(-2.53 2.1) rotate(-1.89)"/><path class="cls-15" d="M35.63,59.85c-.13.41-4.88-1.18-11.91-.64-7.69.59-12.35,3.27-12.55,2.91s5.52-4.61,13.08-4.94C30.54,56.91,35.76,59.41,35.63,59.85Z"/><path class="cls-15" d="M19.5,98c.59-1.72,8.54,4.77,21.82,5.84,17.6,1.42,28.8-8,29.42-6,.72,2.24-12.52,17.81-28.3,16.3C29.21,112.93,18.8,100.1,19.5,98Z"/><path class="cls-14" d="M40.21,114.11l-3-.51a2.32,2.32,0,0,1-1.89-2.67l1.06-6.21a2.31,2.31,0,0,1,2.67-1.89l3,.51a2.34,2.34,0,0,1,1.9,2.68l-1.06,6.21A2.3,2.3,0,0,1,40.21,114.11Z"/><path class="cls-14" d="M51.68,114l-3,.56A2.33,2.33,0,0,1,46,112.74l-1.19-6.2a2.31,2.31,0,0,1,1.82-2.71l2.94-.55a2.3,2.3,0,0,1,2.69,1.84l1.19,6.21A2.29,2.29,0,0,1,51.68,114Z"/><polyline class="cls-16" points="41.49 85.18 44.71 88.51 48.03 85.28"/></svg>