<svg id="Layer_1" data-name="Layer 1" xmlns="http://www.w3.org/2000/svg" width="365" height="268.72" viewBox="0 0 365 268.72"><defs><style>.cls-1{fill:#006837;}.cls-2,.cls-3{fill:#39b54a;}.cls-2{opacity:0.38;}</style></defs><path class="cls-1" d="M365,178.73a32,32,0,0,0-19-29.21,29.56,29.56,0,0,0,1.75-7.87c.75-8.94-2.6-17.54-8.86-24.78a32,32,0,0,0-10.44-62.16,32.32,32.32,0,0,0-4.2.28,31.94,31.94,0,0,0-54-23A31.94,31.94,0,0,0,221.6,20.75a32,32,0,0,0-58-4.06A52.4,52.4,0,0,0,130,5c-15.81,0-29.83,6.51-38.57,16.56a31.95,31.95,0,0,0-45.94,44c-.18.39-.34.78-.5,1.18a32,32,0,0,0-30.36,56,32,32,0,0,0,9.33,53.64,32,32,0,0,0,38.66,47.81,31.95,31.95,0,0,0,43.62,6.94c8.81,12.31,25.7,21.44,45.7,23.1a72.6,72.6,0,0,0,27.35-2.82,31.94,31.94,0,0,0,49,3.85,76.21,76.21,0,0,0,34.66,2.16,31.94,31.94,0,0,0,50.39-2,32,32,0,0,0,33.45-47.73A32,32,0,0,0,365,178.73ZM223.63,130c.56.49,1.13,1,1.72,1.41-.89-.22-1.79-.43-2.69-.62Z"/><path class="cls-2" d="M357,176.8a30.55,30.55,0,0,0-18.18-27.94,28.17,28.17,0,0,0,1.67-7.53c.71-8.55-2.49-16.77-8.47-23.69a30.57,30.57,0,0,0-10-59.45,31.16,31.16,0,0,0-4,.27,30.56,30.56,0,0,0-51.66-22,30.55,30.55,0,0,0-46.5-10.78,30.57,30.57,0,0,0-55.48-3.88,50.14,50.14,0,0,0-32.15-11.2c-15.12,0-28.53,6.23-36.89,15.84a30.56,30.56,0,0,0-43.94,42c-.16.37-.32.75-.47,1.13a30.56,30.56,0,0,0-29,53.57,30.56,30.56,0,0,0,8.92,51.29,30.57,30.57,0,0,0,37,45.73,30.56,30.56,0,0,0,41.72,6.63c8.42,11.78,24.57,20.51,43.69,22.09a69.1,69.1,0,0,0,26.16-2.7,30.54,30.54,0,0,0,46.82,3.69A73,73,0,0,0,259.36,252a30.55,30.55,0,0,0,48.19-1.94,30.56,30.56,0,0,0,36.28-30,30.35,30.35,0,0,0-4.3-15.62A30.57,30.57,0,0,0,357,176.8Zm-135.2-46.63q.81.71,1.65,1.35c-.85-.21-1.71-.41-2.58-.59Z"/><path class="cls-3" d="M66,85.09c-4.75-7.51.57-19.4,11.88-26.55s24.34-6.87,29.09.64a11.58,11.58,0,0,1,1.73,6.38c-4.93-7.5-15.86-9.14-24.55-3.65s-12,16.29-7.09,24A14.71,14.71,0,0,0,82,90.68C75.11,91.63,69,89.75,66,85.09Z"/><path class="cls-3" d="M87.44,147.76c7.13-8.37,19.92-10.37,28-5.13a18.21,18.21,0,0,1,6.18,7c-.84-.41-13.08-6.25-24.82.78-9.82,5.89-11.76,16.29-12,17.84C84,165.29,81.59,154.64,87.44,147.76Z"/><path class="cls-3" d="M297.68,110.54c3.21-6.75,3.14-15.57-.9-23.62-6.37-12.67-20.18-18.6-30.85-13.24a19,19,0,0,0-8.11,7.9c.33-8.12,4-15.15,10.48-18.41,10.7-5.37,25,1.52,32,15.41C306.28,90.47,304.92,103.63,297.68,110.54Z"/><path class="cls-1" d="M301.33,107.82c3.5-7.59,3.32-17.56-1.26-26.68-7.23-14.39-22.67-21.24-34.49-15.3a20.77,20.77,0,0,0-8.94,8.83c.27-9.17,4.28-17.06,11.47-20.67C280,48,296,56,303.9,71.75,310.68,85.24,309.31,100.1,301.33,107.82Z"/><path class="cls-1" d="M62.58,80.12c-4.75-7.51.57-19.4,11.89-26.56s24.33-6.86,29.08.64a11.61,11.61,0,0,1,1.73,6.39c-4.93-7.51-15.86-9.15-24.55-3.65s-12,16.29-7.09,24a14.84,14.84,0,0,0,4.93,4.79C71.65,86.65,65.53,84.78,62.58,80.12Z"/><path class="cls-1" d="M198.8,54.3c7.54,1.55,21,15.3,22.1,17.84-6.12-4.69-14.74-9.69-25.54-10.81-17-1.77-29.1,7.06-29.72,5.75C164.9,65.5,181.35,50.72,198.8,54.3Z"/><path class="cls-3" d="M181.41,135.31c-.33-1,10.11-8.34,22.78-7.69,15.13.78,26,12.61,25.51,13.47s-9.73-7.53-24.83-8.86C191.32,131,181.72,136.22,181.41,135.31Z"/><path class="cls-3" d="M182,92.17c-4.71.81-10.3,4.69-10.37,8.71-1.85-2.36-8.37-7.36-15.29-5.78-4.69,1.06-10.09,5.28-9.89,9.32a4.91,4.91,0,0,0,.23,1.2c4.91-4.27,9.16-5.47,12.37-5.65,6.52-.37,11.35,2,12.71,2.08l0,.1.13-.1a.25.25,0,0,0,.22-.11v-.06c5-3.76,9.17-4.69,12.31-4.7,7.49,0,12.57,3.4,13,2.68C197.91,98.93,190.51,90.71,182,92.17Z"/><path class="cls-1" d="M180.33,88.79c-4.72.81-10.3,4.69-10.37,8.7-1.86-2.35-8.38-7.35-15.29-5.78C150,92.78,144.58,97,144.78,101a4.33,4.33,0,0,0,.23,1.2c4.9-4.26,9.16-5.46,12.37-5.64,6.52-.37,11.35,2,12.71,2.08l0,.1.13-.1a.24.24,0,0,0,.21-.11.13.13,0,0,0,0-.06c5-3.76,9.16-4.69,12.31-4.7,7.48,0,12.57,3.4,12.95,2.68C196.23,95.55,188.83,87.33,180.33,88.79Z"/><path class="cls-1" d="M314.65,195.55c4.54-1.52,9.47-6.2,8.93-10.18,2.19,2,9.39,6,16,3.39,4.48-1.77,9.17-6.76,8.36-10.71a4.32,4.32,0,0,0-.41-1.15c-4.2,4.95-8.22,6.79-11.37,7.45-6.39,1.36-11.52-.22-12.88-.12l0-.1-.12.12c-.1,0-.17.07-.19.14s0,0,0,.06c-4.35,4.47-8.35,6-11.45,6.51-7.4,1.15-12.94-1.45-13.21-.68C297.91,191.27,306.47,198.28,314.65,195.55Z"/><path class="cls-1" d="M72.78,115.36c-6.17,2.08-9.58,8.32-11.05,13.17-3-5.12-13.51-9.92-22-7.37-10.79,3.22-14.86,17.13-13.72,18s7.5-11.59,18.17-12.41c6.93-.53,13,4,17,8h0c1.26.73,6.21-12.4,16.67-14.35,7.07-1.31,13.86,3,18.62,7C90.86,117.31,80.55,112.74,72.78,115.36Z"/><path class="cls-1" d="M318.46,155.83c-6.49-.63-12.15,3.66-15.47,7.48-.64-5.89-8.27-14.58-17.1-15.75-11.16-1.48-20.58,9.54-19.88,10.78s11.59-7.5,21.66-3.87c6.53,2.35,10.17,9,12.23,14.28h0c.86,1.18,10.75-8.77,21.09-6.26,7,1.7,11.42,8.41,14.12,14C334.15,165,326.62,156.62,318.46,155.83Z"/><path class="cls-1" d="M85.33,209.51c6.51.22,11.89-4.43,15-8.45,1,5.83,9.18,14,18.07,14.62,11.23.77,19.92-10.83,19.15-12s-11.08,8.22-21.36,5.25c-6.68-1.93-10.73-8.33-13.13-13.48h0c-.93-1.12-10.16,9.44-20.65,7.6-7.07-1.25-11.93-7.66-15-13.07C69.08,201.35,77.14,209.25,85.33,209.51Z"/><path class="cls-1" d="M211.1,123.68c7.55,1.55,21,15.3,22.11,17.84-6.12-4.7-14.74-9.69-25.54-10.81-17-1.77-29.11,7.06-29.72,5.74C177.2,134.88,193.66,120.1,211.1,123.68Z"/><path class="cls-1" d="M266.39,216.28c7.55,1.54,21,15.3,22.11,17.83-6.12-4.69-14.75-9.68-25.55-10.81-17-1.77-29.1,7.06-29.72,5.75C232.49,227.48,249,212.7,266.39,216.28Z"/><path class="cls-3" d="M198.8,56.65c7.54,1.55,21,15.3,22.1,17.84-6.12-4.69-14.74-9.68-25.54-10.81-17-1.77-29.1,7.06-29.72,5.75C164.9,67.86,181.35,53.08,198.8,56.65Z"/><path class="cls-1" d="M87.44,152.52c7.13-8.38,19.92-10.38,28-5.13a18.21,18.21,0,0,1,6.18,7c-.84-.42-13.08-6.26-24.82.78C87,161,85.06,171.44,84.8,173,84,170,81.59,159.4,87.44,152.52Z"/><path class="cls-3" d="M266.39,221c7.55,1.55,21,15.3,22.11,17.84-6.12-4.69-14.75-9.69-25.55-10.81-17-1.77-29.1,7.06-29.72,5.75C232.49,232.21,249,217.43,266.39,221Z"/><path class="cls-3" d="M205.71,170.11c-4.77-.44-11.17,1.86-12.28,5.72-1.18-2.76-6.18-9.28-13.27-9.55-4.81-.18-11.12,2.49-12,6.44a5.06,5.06,0,0,0-.09,1.22c5.85-2.85,10.27-2.91,13.42-2.25,6.39,1.34,10.45,4.84,11.73,5.31v.1l.16-.06a.25.25,0,0,0,.23,0l0-.05c5.78-2.35,10.07-2.16,13.11-1.35,7.23,1.93,11.25,6.54,11.82,5.94C219.3,180.77,214.29,170.91,205.71,170.11Z"/></svg>