<svg id="Main_layer" data-name="Main layer" xmlns="http://www.w3.org/2000/svg" xmlns:xlink="http://www.w3.org/1999/xlink" width="807.82" height="688.16" viewBox="0 0 807.82 688.16"><defs><style>.cls-1{fill:url(#radial-gradient);}.cls-2{fill:#666;}.cls-3{fill:#ccc;}.cls-4{fill:url(#radial-gradient-2);}.cls-5{fill:url(#radial-gradient-3);}.cls-6{fill:url(#radial-gradient-4);}.cls-7{fill:#ffada8;}.cls-8{fill:#ffd9ce;}.cls-9{fill:url(#radial-gradient-5);}.cls-10{fill:url(#radial-gradient-6);}.cls-11{fill:url(#radial-gradient-7);}.cls-12{fill:#fff;}.cls-13{fill:#603813;}.cls-14{fill:#4d4d4d;}.cls-15{fill:#333;}.cls-16{fill:url(#radial-gradient-8);}.cls-17{fill:gray;}.cls-18{fill:#ff4a87;}.cls-19{fill:#999;}.cls-20{fill:url(#radial-gradient-9);}.cls-21{fill:url(#radial-gradient-10);}</style><radialGradient id="radial-gradient" cx="608.62" cy="609.93" r="46.46" gradientUnits="userSpaceOnUse"><stop offset="0" stop-color="#ccc"/><stop offset="1" stop-color="#999"/></radialGradient><radialGradient id="radial-gradient-2" cx="424.91" cy="504.63" r="80.08" xlink:href="#radial-gradient"/><radialGradient id="radial-gradient-3" cx="576.77" cy="282.84" r="200.81" gradientTransform="translate(-4.81 114.98) scale(1.02 1.03)" gradientUnits="userSpaceOnUse"><stop offset="0" stop-color="#fff"/><stop offset="0" stop-color="#ccc"/><stop offset="0" stop-color="#b3b3b3"/><stop offset="1" stop-color="#999"/></radialGradient><radialGradient id="radial-gradient-4" cx="511.55" cy="258.93" r="125.87" gradientUnits="userSpaceOnUse"><stop offset="0" stop-color="#ccc"/><stop offset="1" stop-color="gray"/></radialGradient><radialGradient id="radial-gradient-5" cx="225.12" cy="47.09" r="113.16" gradientTransform="translate(-9.7 97.54) scale(1.04 1.02)" xlink:href="#radial-gradient-4"/><radialGradient id="radial-gradient-6" cx="232.16" cy="179.53" r="206.88" xlink:href="#radial-gradient"/><radialGradient id="radial-gradient-7" cx="472.84" cy="-388.58" r="29.48" gradientTransform="matrix(1.01, -0.04, -0.04, 1.18, -136.94, 669.82)" gradientUnits="userSpaceOnUse"><stop offset="0" stop-color="#fff"/><stop offset="1" stop-color="#666"/></radialGradient><radialGradient id="radial-gradient-8" cx="1498.64" cy="-206.27" r="29.48" gradientTransform="matrix(0.79, 0.2, -0.27, 1.04, -992.74, 58.35)" xlink:href="#radial-gradient-7"/><radialGradient id="radial-gradient-9" cx="723.69" cy="553.03" r="109.58" gradientUnits="userSpaceOnUse"><stop offset="0" stop-color="#fff"/><stop offset="0" stop-color="#ccc"/><stop offset="1" stop-color="#999"/></radialGradient><radialGradient id="radial-gradient-10" cx="495.71" cy="566.15" r="94.42" gradientUnits="userSpaceOnUse"><stop offset="0" stop-color="#fff"/><stop offset="0" stop-color="#b3b3b3"/><stop offset="0.01" stop-color="#ccc"/><stop offset="1" stop-color="#999"/></radialGradient></defs><g id="Rightt_foot" data-name="Rightt foot"><path class="cls-1" d="M585.18,646.07c-8.62-2.71-27.55-8.66-29.06-20.76-.63-5,6.12-18.89,8.3-21.79,2.42-13.5.69-17.65,3.12-31.14a.34.34,0,0,1-.09-.25q.27-3.45,92.46.25a140.79,140.79,0,0,0,0,22.83c.66,7.88,1.7,11.89,1,19.72a52.66,52.66,0,0,1-3.11,14.54c-.9,2.31-3.22,8.29-7.27,12.45-1.9,2-7.25,6.68-30.1,7.27C606,649.56,597,649.79,585.18,646.07Z"/><path class="cls-2" d="M581.83,629.2c-2,11.08-.43,13.62-8.19,10.36-11.4-4.78-16.89-8.33-11.74-19.46,4.38-9.48,7.81-12.85,14.87-10.1C582.41,612.19,583.83,618.11,581.83,629.2Z"/><path class="cls-3" d="M580.14,631.63c-1.9,10.58-.33,13-8.1,9.85-11.42-4.67-16.93-8.11-11.88-18.71,4.3-9,7.7-12.22,14.77-9.54C580.58,615.38,582,621.05,580.14,631.63Z"/><path class="cls-2" d="M612.11,632.63c0,9.33,2.26,14.76-7,12.83-16.74-3.48-22.59.59-18.53-17.36,2.42-10.68,7.21-16.41,17.81-13.8C610.16,615.72,612.11,623.31,612.11,632.63Z"/><path class="cls-3" d="M610.37,635.45c0,9.32,2.26,14.76-7,12.83-16.73-3.49-22.58.59-18.52-17.37,2.42-10.68,7.2-16.4,17.81-13.79C608.42,618.54,610.37,626.12,610.37,635.45Z"/><path class="cls-2" d="M645.09,629.15c1.3,11.24,3,13.85-7.76,14.48-19.73,1.15-20,4.48-18.69-17.24.69-11.23,7.6-14,15.9-14C641.88,612.34,643.82,618.13,645.09,629.15Z"/><path class="cls-3" d="M644.51,632.19c1.31,10.15,3,12.51-7.76,13.08-19.72,1-20,4.05-18.68-15.57C618.76,619.56,625.66,617,634,617,641.3,617,643.24,622.24,644.51,632.19Z"/></g><path class="cls-4" d="M489.68,563c-1.26,4.48-4.36,15.52-14.52,23.87a42.42,42.42,0,0,1-26,9.34c-13.52,0-22.81-6.81-29.06-11.42a68.9,68.9,0,0,1-22.84-30.1c-7.92-3.3-18.92-9.4-27-20.76-25.5-35.91-5.95-116.21,18.17-120.92,5.84-1.14,12.47,17.49,15.68,19.2C447.57,455.53,502.07,519,489.68,563Z"/><path id="Body" class="cls-5" d="M807.72,411.64c-3.27,114.85-59.16,174.57-198.51,177.79C445.66,593.2,340.67,457.9,357.9,329.18c27-201.58,154.16-46.06,262.92-72.83C735.54,228.11,811,295.65,807.72,411.64Z"/><g id="Dr_ureche" data-name="Dr ureche"><path class="cls-6" d="M585.18,252.69c-53.51,62.66-78.75,80.85-88.23,131.82-.76,4.1-3.89,16.4-12.45,18.68-12.46,3.33-43.59-29.06-43.59-29.06C420.15,360.64,419.86,350,417,303.55c-5.19-85.11-51-174.9,119.37-188.91C587.44,110.44,655.93,169.85,585.18,252.69Z"/><path class="cls-7" d="M537.44,282.79C497.18,321.3,474.27,389.51,472,388.66c-78.87-30.29-43-149.76-24.91-184.76,25.16-48.53,74.83-59.57,98.61-55C575.45,154.59,610.83,212.57,537.44,282.79Z"/><path class="cls-8" d="M500.22,261.12C482,284.51,467.83,322,467.07,321.71c-27-9.32-3.81-74.58,5.85-94.32,13.39-27.38,32.88-37.22,41.4-36.79C525,191.13,533.44,218.47,500.22,261.12Z"/></g><g id="St_ureche" data-name="St ureche"><path class="cls-9" d="M291,163.25c-37.35,78.67-125.44,135.38-137.56,127.66-20-12.74,30.35-87.43,27.08-140.43-5.29-85.62-4.62-143,37.91-150C267.91-7.62,326.15,89.18,291,163.25Z"/><path class="cls-7" d="M254.25,171.73c-21.34,70.38-84.13,122-96.4,110.64S195.63,203,193.6,156.84c-3.3-74.52-5.92-120.54,20.58-126.6C245,23.19,274,106.6,254.25,171.73Z"/><path class="cls-8" d="M242.21,153.68c-10,39-39.51,67.6-45.27,61.28s17.74-44,16.79-69.53c-1.55-41.28-2.78-66.77,9.66-70.13C237.87,71.4,251.49,117.6,242.21,153.68Z"/></g><path id="Cap" class="cls-10" d="M421.5,345.83c-31.59,19.63-69.48,10.33-99.64,3.11a217,217,0,0,1-41.52-14.53c-36.62,16.56-49.71,13.69-55,8.3-6.81-6.92.81-16.42-6.23-33.21-5.64-13.47-16.39-21.27-34.25-34.25a209,209,0,0,0-24.91-15.57,253.2,253.2,0,0,1-68.51-61.24c-16.1-20.89-28.9-37.23-35.29-62.28A329.12,329.12,0,0,0,41.61,89.45C37.4,78.9,33.39,64.57,25,63.5c-4.58-.58-6.85,3.15-12.46,2.08S.93,59.11.09,53.12c-1.19-8.6,9.29-10.67,14.54-24.91,4.58-12.42-.36-19.11,5.19-23.87S36.41,1.09,42.65,6.42c8.31,7.08,9.77,22.3,1,35.29A80,80,0,0,1,64.45,61.43c11.92,16.46,9.46,27.07,19.72,46.71a113.31,113.31,0,0,0,28,34.25c19,16.13,38,22,47.75,24.91,13,3.88,19.54,5.83,24.91,4.15,8.12-2.53,13-9.2,36.18-51,6.49-11.68,6.88-12.56,7.22-13.12h0a3.43,3.43,0,0,0,.19-.29c17.78-28.62,52.94-40.45,52.94-40.45a86.33,86.33,0,0,1,28-5.19c8.55-.08,32.35-.32,48.78,13.49,4,3.33,9.12,8.84,17.84,10.51,3.47.67,3.51,1,11.4,1a102.56,102.56,0,0,1,15.81,2.95c2.94.73,33.86,8.41,48.37,23,15.6,15.72,6.94,31.25,10.37,89,1.8,30.22,2.85,73.2,2.08,78.43C460.68,302.75,446.2,330.49,421.5,345.83Z"/><g id="Ochi_drept" data-name="Ochi drept"><path class="cls-11" d="M379.81,206.49c-6.17,30.45-22.5,26.73-35.21,24.41s-24.42-6-17.66-37.16c6.42-29.63,19.76-35.53,32.37-34.06C372.13,161.18,386.14,175.25,379.81,206.49Z"/><path class="cls-12" d="M379.67,208.06c-5.21,25.74-21.56,22.08-34.26,19.72S321,221.92,326.73,195.6c5.49-25,18.57-29.66,31.14-28C370.66,169.24,385,181.65,379.67,208.06Z"/><ellipse class="cls-13" cx="359.46" cy="205.58" rx="20.34" ry="13.09" transform="translate(128.07 548.99) rotate(-85.79)"/><ellipse cx="358.95" cy="206.7" rx="12.97" ry="8.36" transform="translate(108.9 536.92) rotate(-82.8)"/><circle class="cls-12" cx="357.35" cy="199.23" r="2.59"/><circle class="cls-12" cx="360.46" cy="203.39" r="1.56"/><path class="cls-14" d="M396.48,218.24c-6.86,1.16-13.82-4.45-15.71-12.78a18.26,18.26,0,0,1,.18-9.08,26,26,0,0,0,2.81,10.09C386.81,212.53,391.65,216.78,396.48,218.24Z"/><path class="cls-14" d="M405.16,209.85c-7.55,1.93-17.5-4.92-22.5-15.61a28.41,28.41,0,0,1-2.85-11.81,45.08,45.08,0,0,0,6.65,12.92C392,203,399.08,208.26,405.16,209.85Z"/><path class="cls-14" d="M406.13,180.55a16.16,16.16,0,0,1-23.93,1,19.66,19.66,0,0,1-5.39-9.46,24.36,24.36,0,0,0,9.06,7.82A23,23,0,0,0,406.13,180.55Z"/></g><g id="Ochi_stang" data-name="Ochi stang"><path class="cls-15" d="M260.16,99.8c.37-9.71,11.47-17.16,24.8-16.66,8.73.33,16.24,4,20.3,9.18a82.37,82.37,0,0,0-8.53-.78c-16.36-.61-30.54,3.74-36.46,10.4A12.69,12.69,0,0,1,260.16,99.8Z"/><path class="cls-15" d="M388.15,121c10-3.06,21.21,4.81,25.12,17.57,2.56,8.34,1.34,16.71-2.59,22.36a74.42,74.42,0,0,0-2-8.31c-4.8-15.66-13.9-27.52-22.63-30.77A14.23,14.23,0,0,1,388.15,121Z"/><path class="cls-14" d="M243.51,135.39c-2.27,5.11-8.51,7.2-14.15,4.67a12.82,12.82,0,0,1-5.19-4.28,16.83,16.83,0,0,0,7.05,2.74A15.32,15.32,0,0,0,243.51,135.39Z"/><path class="cls-14" d="M245.25,127.61c-3.76,4.15-10.33,4.18-14.9,0a12.82,12.82,0,0,1-3.59-5.69,16.77,16.77,0,0,0,5.85,4.81A15.23,15.23,0,0,0,245.25,127.61Z"/><path class="cls-14" d="M259.27,118.36c-4.63,4.43-13.67,3.62-20.47-1.92a20,20,0,0,1-5.67-7.21,30.11,30.11,0,0,0,8.65,6.46C248.05,118.86,254.55,119.7,259.27,118.36Z"/><path class="cls-16" d="M270.77,166.47c-11.15,25.63-23.12,18.5-32.55,13.44s-17.8-11.07-6.05-37.19c11.18-24.86,22.81-27,32.33-22.7C274.2,124.36,282.2,140.17,270.77,166.47Z"/><path class="cls-12" d="M270.33,167.83c-9.42,21.67-21.41,14.58-30.83,9.5s-17.85-11-7.88-33c9.49-21,20.65-22,30.12-17.62C271.37,131.19,280,145.59,270.33,167.83Z"/><ellipse class="cls-13" cx="255.08" cy="160.88" rx="18.52" ry="10.67" transform="translate(34.87 366.92) rotate(-75.34)"/><ellipse cx="254.45" cy="161.76" rx="11.77" ry="6.84" transform="translate(25.39 357.83) rotate(-73.01)"/><ellipse class="cls-12" cx="254.75" cy="154.74" rx="2.39" ry="2.09" transform="translate(97.59 408.01) rotate(-89.45)"/><ellipse class="cls-12" cx="256.32" cy="159.17" rx="1.43" ry="1.26" transform="translate(94.72 413.96) rotate(-89.45)"/></g><g id="Tongue"><path class="cls-17" d="M288.44,291.92c-.57,1.07-1.18,2.2-1.84,3.41-1.33,2.44-2.83,5.17-4.5,8.22-8.34,15.25-27.85,20.58-41.52,20.76-6.56.08-9.31-3.15-10.27-8.16,0-.14-.05-.26-.06-.4-1.09-6.46.61-15.72,1-24.66.67-16,9-7.44,29.06-10.38C293.88,275.79,298.94,272.23,288.44,291.92Z"/><path class="cls-7" d="M288.42,291.89c-.57,1.07-1.18,2.2-1.83,3.4-1.33,2.45-2.83,5.18-4.5,8.23-8.31,15.26-27.82,20.62-41.49,20.81-6.56.09-9.31-3.13-10.27-8.15,0-.13-.06-.26-.07-.39,0-.57,0-1.17,0-1.83,0-12.75,10.38-23.68,27-24.94C276.87,287.52,285.4,288.08,288.42,291.89Z"/><ellipse class="cls-18" cx="240.06" cy="308.74" rx="1.04" ry="0.52"/><ellipse class="cls-18" cx="243.17" cy="312.89" rx="1.04" ry="0.52"/><ellipse class="cls-18" cx="247.33" cy="304.59" rx="1.04" ry="0.52"/><ellipse class="cls-18" cx="250.44" cy="309.78" rx="1.04" ry="0.52"/><ellipse class="cls-18" cx="262.9" cy="303.55" rx="1.04" ry="0.52"/><ellipse class="cls-18" cx="252.52" cy="314.97" rx="1.04" ry="0.52"/><ellipse class="cls-18" cx="257.71" cy="307.7" rx="1.04" ry="0.52"/><ellipse class="cls-18" cx="256.67" cy="298.36" rx="1.04" ry="0.52"/><ellipse class="cls-18" cx="243.17" cy="300.43" rx="1.04" ry="0.52"/><ellipse class="cls-18" cx="243.17" cy="319.12" rx="1.04" ry="0.52"/><ellipse class="cls-18" cx="235.91" cy="314.97" rx="1.04" ry="0.52"/><ellipse class="cls-18" cx="268.09" cy="308.74" rx="1.04" ry="0.52"/><ellipse class="cls-18" cx="274.31" cy="301.47" rx="1.04" ry="0.52"/><ellipse class="cls-18" cx="272.24" cy="295.24" rx="1.04" ry="0.52"/></g><g id="Trompa"><path class="cls-19" d="M44.78,97.38c.88-.32,10,39.26,36.47,81.09a258.38,258.38,0,0,0,49.68,58c15.34,13.19,30.17,26,54,34.25C205.74,278,223.85,278.5,242,279c13.71.39,26,.65,41.52-3.12a136.71,136.71,0,0,0,36.33-14.53,113,113,0,0,1-30.1,15.57c-16.06,5.43-29.45,5.85-45.67,6.23-10.83.25-25.33.6-40.48-2.08-38.4-6.76-64.26-29.9-83-46.7,0,0-26.78-24-45.52-55.92a183.9,183.9,0,0,1-12.46-24.91c-2.29-5.62-3.36-9.08-8.3-24.91C46,102.05,44.49,97.48,44.78,97.38Z"/><path class="cls-19" d="M212.4,231.23c-.23-16.65-7.94-35.46-18.52-46.4A100.25,100.25,0,0,0,182,174.2a56.72,56.72,0,0,1,14,8.74C211.93,196.49,218.21,216.37,212.4,231.23Z"/><path class="cls-19" d="M155.18,214c4.68-10.1,5.86-24.52,3.17-35.4a89.83,89.83,0,0,0-3.52-11.24,49.69,49.69,0,0,1,5.21,11C165,193,162.69,207.46,155.18,214Z"/><path class="cls-19" d="M109.27,182.23c5-5.94,9-15.95,9.94-24.48a84.81,84.81,0,0,0,.62-9,47.41,47.41,0,0,1,.4,9.26C119.62,169.84,115,179.6,109.27,182.23Z"/><path class="cls-19" d="M69.62,140.48c8.54-1.37,16.58-6.24,19.94-11.8a31.77,31.77,0,0,0,2.91-6.13A18.12,18.12,0,0,1,91,129.46C87.44,137.64,78.54,142,69.62,140.48Z"/><path class="cls-19" d="M55.58,108.3c7-2,13.83-7.43,17-13.07a40.84,40.84,0,0,0,2.86-6.15,23.11,23.11,0,0,1-1.79,6.78C70.12,104,62.61,109,55.58,108.3Z"/><path class="cls-19" d="M277.88,214c-14.36-17-40.46-32.79-63.74-39.1a228.79,228.79,0,0,0-24.8-5.37,126,126,0,0,1,25.94,2.46C248,178.4,273.06,195.93,277.88,214Z"/><path class="cls-19" d="M460,168c-1.86.08,3.32-35-17.64-57.09C430.66,98.6,415,94.71,405,93.22A143.31,143.31,0,0,1,369.66,87c-22.83-7.09-27.85-15-43.59-19.72C292.21,57.23,261.13,78,260.68,76.62S290.38,56.93,324,62.09c8.8,1.35,17.79,2.73,28,8.3,10,5.43,14.32,11.14,25.94,14.53,7.34,2.14,12.78,2,16.61,2.08,18.44.59,46.86,9.89,60.2,29.06C470.14,138.15,461.67,167.88,460,168Z"/></g><path class="cls-20" d="M763.7,687.47a159.19,159.19,0,0,1-49.82-3.11c-20-4.56-25.14-9.52-26-13.5-1.67-8.15,1.9-18,2.07-21.79q-.51-20.76-1-41.52a68.9,68.9,0,0,1-12.46-50.86,106.69,106.69,0,0,1-21.8-36.33c-3.87-11.07-13.88-40,1-67.47,9.57-17.62,23.35-26.47,34.77-31.66,21.8-9.34,97.54,2.52,103.8,16.61,5.6,12.62,6.23,24.91,4.15,39.44-1.54,10.82-17.91,76.69-16.09,92.9,2.37,21,8.56,43.4,12.46,82,.59,5.84,1.52,16.61-5.19,24.91C782,686.49,768.94,687.4,763.7,687.47Z"/><path class="cls-2" d="M777.7,667.47c1.42,12,3.27,14.79-8.48,15.46-21.55,1.23-23.87,4.55-20.41-18.41,2-13.35,5.67-19.64,19.27-17.18C771.62,648,776.31,655.7,777.7,667.47Z"/><path class="cls-2" d="M713.73,657.49c0,10,.62,18.37-7.26,15.57-16.09-5.71-17.34-1.38-15.57-20.76,1-10.85,2.07-17.64,15.05-14.53C711.8,639.18,713.73,647.46,713.73,657.49Z"/><path class="cls-3" d="M776.55,669.18c1.39,10.74,3.2,13.23-8.32,13.83-21.13,1.1-23.41,4.07-20-16.47,2-11.94,5.56-17.57,18.91-15.37C770.59,651.74,775.18,658.65,776.55,669.18Z"/><path class="cls-2" d="M745.27,666.27c0,10.93,2.44,17.3-7.54,15-18-4.09-24.33.69-20-20.36,2.6-12.52,7.76-19.23,19.18-16.17C743.18,646.44,745.27,655.33,745.27,666.27Z"/><path class="cls-3" d="M742.74,668.48c0,10,2.27,15.88-7.07,13.8-16.88-3.75-22.78.63-18.68-18.68,2.44-11.49,7.27-17.65,18-14.84C740.77,650.28,742.74,658.45,742.74,668.48Z"/><path class="cls-3" d="M711.8,660.48c0,10,.62,18.37-7.27,15.57-16.08-5.71-17.34-1.38-15.56-20.76,1-10.85,2.07-17.64,15-14.53C709.87,642.17,711.8,650.45,711.8,660.48Z"/><path class="cls-21" d="M533.28,671c-10.84,13.56-33.24,12.26-47.74,11.42-6.28-.36-47.49-2.75-54-22.83-3.47-10.77,6.86-14.74,12.46-40.48,1.41-6.48,3.39-15.84,2.07-44.64-2.88-63.07-13.92-75.32-4.85-91.73,5.57-10.08,18.89-35,56.05-33.21,42.55,2.07,56.35,25.52,61.23,37.36,8.49,20.57-11.92,38.45-19.92,99.79-1.91,14.62-3.45,21.92-3.24,32.43C535.85,644,543,658.78,533.28,671Z"/><path class="cls-2" d="M460.31,657.89c-3.19,11.9-1.55,14.85-10.42,10.41-13-6.54-19.23-11-12.33-22.64,5.86-9.87,10.16-13.16,18.24-9.35C462.27,639.36,463.49,646,460.31,657.89Z"/><path class="cls-3" d="M458.52,659.27c-3.19,11.9-1.55,14.85-10.42,10.41-13.05-6.54-19.23-11-12.34-22.64,5.87-9.87,10.16-13.16,18.25-9.35C460.48,640.74,461.7,647.37,458.52,659.27Z"/><path class="cls-2" d="M489.27,664.13c.45,11.72,2.91,13.94-7,12.42-14.54-2.24-22-.18-18.79-12.67,2.75-10.64,6.07-19.27,15-18.1C485.66,646.71,488.81,652.4,489.27,664.13Z"/><path class="cls-3" d="M487.49,666.48c.45,11.73,2.91,13.95-7,12.42-14.55-2.24-22-.17-18.79-12.67,2.74-10.64,6.07-19.27,15-18.1C483.88,649.07,487,654.76,487.49,666.48Z"/><path class="cls-2" d="M524,661.46c2.68,10.5,5.69,12-5,12.75-15.78,1.14-23.28,4.64-22.21-7.36.91-10.22,2.8-18.74,12.47-19.64C516.94,646.5,521.33,651,524,661.46Z"/><path class="cls-3" d="M522.1,665.2c2.37,10.57,5.34,12.12-5.41,12.61-15.81.72-23.41,4-22-8,1.2-10.18,3.34-18.66,13-19.29C515.46,650.05,519.73,654.63,522.1,665.2Z"/><path class="cls-19" d="M680,572.76c1.39,10.31,2.44,18,8.3,24.91,6.27,7.36,9.88,8.38,14.53,9.34a21.3,21.3,0,0,1-12.45-3.11c-12.42-7.28-13.48-22.16-14.53-30.1-.71-5.36.87-23.95,4.15-35.29C678.62,549.08,679.24,567,680,572.76Z"/><path class="cls-19" d="M377.39,536.93a51,51,0,0,0,6.61,7.22,42.76,42.76,0,0,0,4.71,3.67c2.5,1.67,9.43,5.4,6.38,4.7a31.38,31.38,0,0,1-8.42-3.36A43.2,43.2,0,0,1,370.86,534c-9.82-14.85-9.44-39.45-8.86-45.48C362.63,492.84,366.36,522.62,377.39,536.93Z"/><path class="cls-19" d="M615.16,553.59c-5.86.29-10.47-.94-19.44-3.42-27.3-7.53-38.52-18.46-41.35-15.55-3.44,3.54,9.38,23.59,26,37.43,8.42,7,18.07,14.76,30.94,14.07,8.5-.45,14.47-4.38,20.28-8.31,21.88-14.79,32.91-40.6,29.64-43.19-1.07-.84-2.91,1.38-11.42,6.23C641.14,545.82,628.68,552.93,615.16,553.59Z"/><path class="cls-19" d="M752.55,310.22c6.69,8.19,23.52,27.07,26.68,32.41,19.24,32.46,10.75,47.18,13.65,45.23,2.59-1.74,3.35-25-2.44-46.46-3-11-11.5-35.82-39.52-54.89-26-17.7-56.66-22.19-58.44-20.3C690.49,268.32,725.58,277.22,752.55,310.22Z"/><path class="cls-19" d="M800.41,463.77c.41.13-.11,3.88-4.15,19.73C793.43,497,791,508.84,789,518.79c-1.35,6.71-2.72,13.58-4.15,22.83-1.24,8.06-1.87,12.09-2.07,15.57-.25,4.18-.3,10.07,3.11,31.14,2,12.23,2.43,12.93,4.15,23.87,1.64,10.39,3.6,24.83,3.12,24.91s-4.43-17.17-7.27-35.29c-4.28-27.37-8-51.08-3.11-79.92a261.63,261.63,0,0,1,8.3-33.22C794.67,477,799.61,463.53,800.41,463.77Z"/><path class="cls-19" d="M449.55,568.21A47.36,47.36,0,0,0,464.4,596.1c-3.92-1.82-12.26-6.37-17.06-15.53-3.66-7-3.51-13.31-3.3-19.22.25-6.8,1.82-19.42,10.73-34.26C452.54,532.8,446.25,550.41,449.55,568.21Z"/><path class="cls-19" d="M550.27,534.35c-.38-.11-4.5,11.54-8.31,24.92-2.64,9.3-5.66,19.91-7.23,30.1-4.84,31.41,4,59.2,4.37,59.16s-.73-6.4-1.09-19.72c-.21-7.61-.13-14,0-18.68.25-7.85.88-16.94,2.19-27,1.42-11,3.16-19.21,4.37-24.91C547.74,543.32,550.59,534.45,550.27,534.35Z"/></svg>