<svg xmlns="http://www.w3.org/2000/svg" xmlns:xlink="http://www.w3.org/1999/xlink" width="650.6" height="290" viewBox="0 0 650.6 290"><defs><style>.cls-1{fill:#603813;}.cls-2{fill:url(#linear-gradient);}.cls-3{opacity:0.25;}</style><linearGradient id="linear-gradient" x1="16.09" y1="136.18" x2="634.52" y2="136.18" gradientUnits="userSpaceOnUse"><stop offset="0.14" stop-color="#a67c52"/><stop offset="1" stop-color="#754c24"/></linearGradient></defs><g id="Layer_1" data-name="Layer 1"><g id="_2_life_bar" data-name="2 life bar"><path class="cls-1" d="M648.05,290H0V244l24.63-30.37L0,192q.86-44.09,1.7-88.18L17.84,88.18,0,72.91V0L650.6,4.9l-2.55,34-12.74,16,12.74,13.72V165l-25.48,25,25.48,22.24Z"/><path class="cls-2" d="M632.1,272.36h-616V229.12L39.5,200.59q-11.71-10.11-23.41-20.24.8-41.4,1.61-82.81L33,82.81,16.09,68.47V0L634.52,4.6q-1.21,15.95-2.42,31.89L620,51.53,632.1,64.41V155l-24.23,23.51L632.1,199.4Z"/></g><g class="cls-3"><path d="M115,214.15l-61-61c-48.69-48.68,12.3-109.67,61-61,48.33-48.33,109.32,12.66,61,61Z"/><path d="M114.81,220.59l-61-61c-48.68-48.68,12.3-109.67,61-61,48.33-48.33,109.32,12.66,61,61Z"/><path d="M60.2,156.9c-1.14-.59-16.19-8.73-18-26.29-1.69-16.48,9.72-27.16,10.93-28.26a51.25,51.25,0,0,0-4.81,24.48A52.06,52.06,0,0,0,60.2,156.9Z"/></g><g class="cls-3"><path d="M315,214.15l-61-61c-48.68-48.68,12.31-109.67,61-61,48.33-48.33,109.32,12.66,61,61Z"/><path d="M314.85,220.59l-61-61c-48.68-48.68,12.31-109.67,61-61,48.33-48.33,109.32,12.66,61,61Z"/><path d="M260.24,156.9c-1.14-.59-16.19-8.73-18-26.29-1.69-16.48,9.72-27.16,10.93-28.26a51.37,51.37,0,0,0-4.81,24.48A52.13,52.13,0,0,0,260.24,156.9Z"/></g><g class="cls-3"><path d="M524,214.15l-61-61c-48.68-48.68,12.31-109.67,61-61,48.33-48.33,109.32,12.66,61,61Z"/><path d="M523.85,220.59l-61-61c-48.68-48.68,12.31-109.67,61-61,48.33-48.33,109.32,12.66,61,61Z"/><path d="M469.24,156.9c-1.14-.59-16.19-8.73-18-26.29-1.69-16.48,9.72-27.16,10.93-28.26a51.37,51.37,0,0,0-4.81,24.48A52.13,52.13,0,0,0,469.24,156.9Z"/></g></g></svg>