<svg id="Layer_1" data-name="Layer 1" xmlns="http://www.w3.org/2000/svg" width="217.6" height="271.61" viewBox="0 0 217.6 271.61"><defs><style>.cls-1{fill:#ed1c24;}.cls-2{fill:#c1272d;}.cls-3{fill:#8d272d;}.cls-4{fill:#603813;}.cls-5{fill:#39b54a;}.cls-6{fill:#009245;}.cls-7{fill:#a67c52;}.cls-8{fill:#fff;opacity:0.3;}</style></defs><path class="cls-1" d="M157.63,84.75c23.65,5.74,37.89,25.59,41.37,30.43,16.91,23.56,16,48.92,15.48,64-.49,14-1.19,36.64-16.91,58.64-4.82,6.75-19.95,27.94-44.6,32.63-15,2.84-21.27-2.74-49.27-2.67a213.12,213.12,0,0,0-31.13,2.38l-.54-.08c-31-5.06-54.22-39-63-67.14-3.24-10.42-11.67-43.09,4.13-75.41,3.51-7.17,12.44-25.44,32-35.12,6.11-3,13-4.21,26.84-6.59,12.25-2.1,26.59-4,54.84-3.88C148.15,82.07,155,84.1,157.63,84.75Z"/><ellipse class="cls-2" cx="115.01" cy="107.26" rx="20.94" ry="56.72" transform="translate(-3.93 210.14) rotate(-83.86)"/><ellipse class="cls-3" cx="114.62" cy="107.99" rx="13.79" ry="36.79" transform="translate(-5.63 209.68) rotate(-83.52)"/><path class="cls-4" d="M137.41,61c-5.47,8.73-9,14.42-11.07,21.73-3.9,14,.93,22.64-4.7,26.45a9.12,9.12,0,0,1-9.29,0c-3.37-2-2.79-7.66-2.06-13.43a165.76,165.76,0,0,1,10.06-39c6.82-18.12,9-21,12.4-21.72,5.33-1.16,12.34,3.21,13.56,8.41C147.37,48,143.76,50.89,137.41,61Z"/><path class="cls-5" d="M119,72.76a25.87,25.87,0,0,0,3.13-13.71c-.57-12.53-10-20.21-11.78-21.57a69.28,69.28,0,0,0-22-12.65c-13.82-4.81-16.92-.7-29.3-5.33C42.45,13.27,30.73-.64,28.47,1.57l-.06.07A62.2,62.2,0,0,0,27.23,13c0,3.45.11,15.17,7.23,30.46,6.74,14.46,15.82,34,36.33,40.74C87.93,89.87,111.21,86.05,119,72.76Z"/><path class="cls-6" d="M116.84,76.09c2.84-3.74,6.39-9.77,6.16-17.07-.61-18.74-25.65-30.37-29.59-32.2C74,17.8,68,26,51.23,15.51,42.67,10.14,30.82-.4,28.8,1.54l-.06.07A188.7,188.7,0,0,0,74,51.46,189.17,189.17,0,0,0,116.84,76.09Z"/><ellipse class="cls-7" cx="138.17" cy="41.96" rx="5.24" ry="8.73" transform="translate(24.02 130.4) rotate(-54.66)"/><path class="cls-8" d="M19.67,204.56c-3-8-8.12-24.88-5.29-47.9,1.36-11.08,4-32.38,16.78-39.21,1.49-.79,5.6-3,8.86-2,11.27,3.59-11.87,38-4.09,70.78,6.22,26.19,29.19,38.56,20.72,50.62a11.85,11.85,0,0,1-5.34,4.39C39.64,245.49,25.58,220.34,19.67,204.56Z"/></svg>