<svg id="Layer_2" data-name="Layer 2" xmlns="http://www.w3.org/2000/svg" xmlns:xlink="http://www.w3.org/1999/xlink" width="632.57" height="460" viewBox="0 0 632.57 460"><defs><style>.cls-1{fill:#333;}.cls-2{fill:url(#radial-gradient);}.cls-3{fill:#666;}.cls-4{fill:#ccc;}.cls-5{fill:url(#radial-gradient-2);}.cls-6{fill:url(#radial-gradient-3);}.cls-7{fill:url(#radial-gradient-4);}.cls-8{fill:#ffada8;}.cls-9{fill:#ffd9ce;}.cls-10{fill:url(#radial-gradient-5);}.cls-11{fill:url(#radial-gradient-6);}.cls-12{fill:url(#radial-gradient-7);}.cls-13{fill:#fff;}.cls-14{fill:#603813;}.cls-15{fill:#4d4d4d;}.cls-16{fill:url(#radial-gradient-8);}.cls-17{fill:gray;}.cls-18{fill:#ff4a87;}.cls-19{fill:#999;}.cls-20{fill:url(#radial-gradient-9);}.cls-21{fill:url(#radial-gradient-10);}.cls-22{fill:url(#radial-gradient-11);}</style><radialGradient id="radial-gradient" cx="406.83" cy="407.7" r="31.06" gradientUnits="userSpaceOnUse"><stop offset="0" stop-color="#ccc"/><stop offset="1" stop-color="#999"/></radialGradient><radialGradient id="radial-gradient-2" cx="284.03" cy="337.32" r="53.53" xlink:href="#radial-gradient"/><radialGradient id="radial-gradient-3" cx="366.26" cy="189.6" r="134.23" gradientTransform="translate(16.4 76.3) scale(1.02 1.03)" gradientUnits="userSpaceOnUse"><stop offset="0" stop-color="#fff"/><stop offset="0" stop-color="#ccc"/><stop offset="0" stop-color="#b3b3b3"/><stop offset="1" stop-color="#999"/></radialGradient><radialGradient id="radial-gradient-4" cx="341.94" cy="173.08" r="84.14" gradientUnits="userSpaceOnUse"><stop offset="0" stop-color="#ccc"/><stop offset="1" stop-color="gray"/></radialGradient><radialGradient id="radial-gradient-5" cx="102.37" cy="29.5" r="75.64" gradientTransform="translate(43.73 67.23) scale(1.04 1.02)" xlink:href="#radial-gradient-4"/><radialGradient id="radial-gradient-6" cx="155.19" cy="120" r="138.29" xlink:href="#radial-gradient"/><radialGradient id="radial-gradient-7" cx="309.97" cy="-229.94" r="19.71" gradientTransform="matrix(1.01, -0.04, -0.04, 1.18, -84.33, 412.48)" gradientUnits="userSpaceOnUse"><stop offset="0" stop-color="#fff"/><stop offset="1" stop-color="#666"/></radialGradient><radialGradient id="radial-gradient-8" cx="1229" cy="-399.57" r="19.71" gradientTransform="matrix(0.79, 0.2, -0.27, 1.04, -915.15, 263.95)" xlink:href="#radial-gradient-7"/><radialGradient id="radial-gradient-9" cx="483.75" cy="369.67" r="73.25" gradientUnits="userSpaceOnUse"><stop offset="0" stop-color="#fff"/><stop offset="0" stop-color="#ccc"/><stop offset="1" stop-color="#999"/></radialGradient><radialGradient id="radial-gradient-10" cx="603.86" cy="285.86" r="25.7" gradientUnits="userSpaceOnUse"><stop offset="0" stop-color="#fff"/><stop offset="1" stop-color="#4d4d4d"/></radialGradient><radialGradient id="radial-gradient-11" cx="331.35" cy="378.44" r="63.12" gradientUnits="userSpaceOnUse"><stop offset="0" stop-color="#fff"/><stop offset="0" stop-color="#b3b3b3"/><stop offset="0.01" stop-color="#ccc"/><stop offset="1" stop-color="#999"/></radialGradient></defs><path class="cls-1" d="M173.91,66.71c.24-6.49,7.66-11.47,16.57-11.14,5.83.22,10.86,2.67,13.57,6.14a54.35,54.35,0,0,0-5.7-.52c-10.94-.41-20.41,2.5-24.38,7A8.51,8.51,0,0,1,173.91,66.71Z"/><path class="cls-1" d="M259.46,80.86c6.66-2,14.17,3.21,16.79,11.74,1.71,5.58.9,11.18-1.73,15a52.08,52.08,0,0,0-1.36-5.55C270,91.53,263.86,83.61,258,81.43A8.53,8.53,0,0,1,259.46,80.86Z"/><g id="Rightt_foot" data-name="Rightt foot"><path class="cls-2" d="M391.16,431.86c-5.76-1.81-18.41-5.79-19.43-13.87-.42-3.37,4.1-12.63,5.56-14.57,1.61-9,.46-11.8,2.08-20.82a.18.18,0,0,1-.06-.16q.18-2.31,61.81.16a92.94,92.94,0,0,0,0,15.27c.44,5.26,1.13,7.94.69,13.18a35,35,0,0,1-2.08,9.71,25.41,25.41,0,0,1-4.86,8.33c-1.27,1.31-4.85,4.46-20.12,4.86C405.08,434.19,399.06,434.35,391.16,431.86Z"/><path class="cls-3" d="M388.92,420.58c-1.33,7.41-.29,9.11-5.47,6.93-7.62-3.19-11.29-5.57-7.85-13,2.93-6.33,5.22-8.58,9.94-6.75C389.31,409.22,390.26,413.17,388.92,420.58Z"/><path class="cls-4" d="M387.79,422.21c-1.27,7.07-.22,8.7-5.41,6.58-7.64-3.12-11.32-5.42-7.94-12.5,2.87-6,5.15-8.17,9.87-6.38C388.09,411.35,389.06,415.13,387.79,422.21Z"/><path class="cls-3" d="M409.16,422.88c0,6.23,1.51,9.87-4.68,8.58-11.19-2.33-15.1.39-12.38-11.61,1.61-7.14,4.81-11,11.9-9.22C407.86,411.57,409.16,416.65,409.16,422.88Z"/><path class="cls-4" d="M408,424.76c0,6.24,1.51,9.87-4.68,8.58-11.19-2.33-15.1.39-12.39-11.61,1.62-7.14,4.82-11,11.91-9.22C406.7,413.46,408,418.53,408,424.76Z"/><path class="cls-3" d="M431.21,420.55c.87,7.51,2,9.26-5.19,9.68-13.18.77-13.38,3-12.49-11.52.46-7.51,5.08-9.39,10.63-9.39C429.06,409.32,430.36,413.19,431.21,420.55Z"/><path class="cls-4" d="M430.82,422.59c.87,6.78,2,8.36-5.19,8.74-13.18.69-13.38,2.71-12.49-10.41.46-6.78,5.08-8.48,10.63-8.48C428.68,412.44,430,415.94,430.82,422.59Z"/></g><path class="cls-5" d="M327.33,376.36c-.85,3-2.92,10.38-9.71,16a28.3,28.3,0,0,1-17.35,6.24c-9,0-15.25-4.55-19.43-7.63a46.16,46.16,0,0,1-15.26-20.12,41.39,41.39,0,0,1-18-13.88c-17-24-4-77.68,12.14-80.83,3.91-.76,8.34,11.69,10.48,12.84C299.18,304.5,335.61,346.9,327.33,376.36Z"/><path id="Body" class="cls-6" d="M539.92,275.16c-2.19,76.77-39.55,116.69-132.7,118.84-109.32,2.52-179.5-87.92-168-174,18-134.75,103.05-30.79,175.75-48.68C491.67,152.48,542.12,197.63,539.92,275.16Z"/><g id="Dr_ureche" data-name="Dr ureche"><path class="cls-7" d="M391.16,168.91c-35.77,41.88-52.64,54-59,88.11-.51,2.74-2.6,11-8.33,12.49-8.33,2.22-29.14-19.43-29.14-19.43-13.88-9-14.06-16.14-16-47.17C275.29,146,244.67,86,358.55,76.63,392.67,73.83,438.45,113.54,391.16,168.91Z"/><path class="cls-8" d="M359.25,189c-26.91,25.74-42.23,71.34-43.71,70.77-52.73-20.25-28.78-100.11-16.66-123.5,16.82-32.45,50-39.82,65.92-36.77C384.66,103.34,408.3,142.09,359.25,189Z"/><path class="cls-9" d="M334.37,174.55c-12.18,15.63-21.65,40.67-22.16,40.5-18.06-6.24-2.55-49.86,3.91-63.05,8.95-18.31,22-24.88,27.68-24.59C350.91,127.76,356.58,146,334.37,174.55Z"/></g><g id="St_ureche" data-name="St ureche"><path class="cls-10" d="M194.51,109.12c-25,52.59-83.85,90.5-91.95,85.34-13.36-8.52,20.29-58.45,18.1-93.87C117.12,43.36,117.57,5,146,.32,179.09-5.1,218,59.61,194.51,109.12Z"/><path class="cls-8" d="M170,114.79c-14.26,47.05-56.23,81.59-64.44,74s25.26-53.08,23.9-83.91c-2.2-49.81-4-80.58,13.75-84.63C163.78,15.5,183.16,71.26,170,114.79Z"/><path class="cls-9" d="M161.91,102.73c-6.7,26.05-26.41,45.19-30.27,41s11.86-29.4,11.22-46.48c-1-27.59-1.85-44.63,6.47-46.87C159,47.73,168.11,78.61,161.91,102.73Z"/></g><path id="Cap" class="cls-11" d="M281.75,231.17c-21.12,13.12-46.44,6.9-66.6,2.08a145.44,145.44,0,0,1-27.76-9.71c-24.48,11.06-33.23,9.15-36.77,5.55-4.55-4.63.55-11-4.16-22.21-3.78-9-11-14.22-22.9-22.89a140.08,140.08,0,0,0-16.65-10.41,169.24,169.24,0,0,1-45.79-40.93C50.35,118.68,41.8,107.76,37.53,91a221,221,0,0,0-9.71-31.23c-2.82-7-5.5-16.63-11.11-17.34-3.06-.39-4.57,2.1-8.32,1.39S.62,39.51.06,35.51c-.8-5.75,6.21-7.14,9.72-16.65,3.06-8.31-.24-12.78,3.47-16S24.34.73,28.51,4.29C34.07,9,35,19.2,29.2,27.88A53.33,53.33,0,0,1,43.08,41.06c8,11,6.33,18.1,13.18,31.22A75.54,75.54,0,0,0,75,95.18a84.38,84.38,0,0,0,31.91,16.65c8.71,2.6,13.06,3.9,16.65,2.78,5.43-1.69,8.67-6.15,24.19-34.08,4.34-7.8,4.59-8.39,4.82-8.76h0a1.27,1.27,0,0,0,.13-.2c11.88-19.13,35.39-27,35.39-27a57.58,57.58,0,0,1,18.73-3.47c5.72-.05,21.63-.21,32.61,9,2.65,2.23,6.09,5.91,11.93,7,2.31.44,2.34.64,7.62.64a68.37,68.37,0,0,1,10.56,2c2,.49,22.64,5.63,32.33,15.39,10.43,10.51,4.64,20.89,6.94,59.51,1.2,20.21,1.9,48.94,1.39,52.43C307.94,202.37,298.26,220.91,281.75,231.17Z"/><g id="Ochi_drept" data-name="Ochi drept"><path class="cls-12" d="M253.88,138c-4.12,20.35-15,17.87-23.53,16.31s-16.33-4-11.81-24.83c4.3-19.81,13.21-23.75,21.64-22.77S258.12,117.15,253.88,138Z"/><path class="cls-13" d="M253.79,139.07c-3.49,17.21-14.41,14.77-22.9,13.19s-16.34-3.92-12.49-21.51c3.67-16.74,12.41-19.83,20.82-18.73S257.36,121.42,253.79,139.07Z"/><ellipse class="cls-14" cx="240.28" cy="137.42" rx="13.59" ry="8.75" transform="translate(85.61 366.97) rotate(-85.79)"/><ellipse cx="239.94" cy="138.17" rx="8.67" ry="5.59" transform="translate(72.79 358.9) rotate(-82.8)"/><circle class="cls-13" cx="238.87" cy="133.18" r="1.73"/><circle class="cls-13" cx="240.95" cy="135.95" r="1.04"/><path class="cls-15" d="M265,145.88c-4.59.77-9.24-3-10.51-8.54a12.27,12.27,0,0,1,.13-6.07,17.12,17.12,0,0,0,1.87,6.74C258.56,142.07,261.8,144.91,265,145.88Z"/><path class="cls-15" d="M270.83,140.27c-5.05,1.29-11.7-3.29-15-10.43a19.12,19.12,0,0,1-1.91-7.9,30.16,30.16,0,0,0,4.45,8.64C262.06,135.72,266.76,139.21,270.83,140.27Z"/><path class="cls-15" d="M271.48,120.69a10.82,10.82,0,0,1-16,.66,13.33,13.33,0,0,1-3.61-6.33,16.35,16.35,0,0,0,6.07,5.22A15.38,15.38,0,0,0,271.48,120.69Z"/></g><g id="Ochi_stang" data-name="Ochi stang"><path class="cls-15" d="M162.77,90.5c-1.51,3.42-5.68,4.82-9.45,3.12a8.54,8.54,0,0,1-3.48-2.86,11.28,11.28,0,0,0,4.72,1.83A10.2,10.2,0,0,0,162.77,90.5Z"/><path class="cls-15" d="M163.94,85.3c-2.51,2.78-6.91,2.79-10,0a8.54,8.54,0,0,1-2.4-3.8,11.22,11.22,0,0,0,3.9,3.21A10.18,10.18,0,0,0,163.94,85.3Z"/><path class="cls-15" d="M173.31,79.12c-3.1,3-9.14,2.41-13.69-1.29A13.29,13.29,0,0,1,155.84,73a20.07,20.07,0,0,0,5.78,4.31C165.81,79.45,170.16,80,173.31,79.12Z"/><path class="cls-16" d="M181,111.27c-7.45,17.14-15.45,12.37-21.75,9s-11.9-7.4-4.05-24.86c7.47-16.61,15.25-18,21.62-15.17S188.63,93.7,181,111.27Z"/><path class="cls-13" d="M180.7,112.18c-6.3,14.49-14.31,9.75-20.6,6.35s-11.94-7.32-5.27-22.06c6.34-14,13.8-14.72,20.13-11.77S187.15,97.32,180.7,112.18Z"/><ellipse class="cls-14" cx="170.51" cy="107.54" rx="12.38" ry="7.13" transform="translate(23.31 245.27) rotate(-75.34)"/><ellipse cx="170.09" cy="108.13" rx="7.87" ry="4.57" transform="translate(16.97 239.19) rotate(-73.01)"/><ellipse class="cls-13" cx="170.29" cy="103.44" rx="1.6" ry="1.4" transform="translate(65.24 272.73) rotate(-89.45)"/><ellipse class="cls-13" cx="171.33" cy="106.39" rx="0.96" ry="0.84" transform="translate(63.32 276.71) rotate(-89.45)"/></g><g id="Tongue"><path class="cls-17" d="M192.81,195.13c-.39.72-.79,1.48-1.23,2.28-.89,1.63-1.9,3.46-3,5.5C183,213.1,170,216.66,160.81,216.78c-4.38.06-6.22-2.1-6.86-5.45,0-.09,0-.18,0-.27-.73-4.32.41-10.51.66-16.48.45-10.73,6-5,19.43-6.94C196.44,184.35,199.83,182,192.81,195.13Z"/><path class="cls-8" d="M192.8,195.11l-1.23,2.28-3,5.5c-5.56,10.2-18.6,13.78-27.74,13.91-4.39.06-6.23-2.1-6.87-5.45,0-.09,0-.17,0-.26,0-.38,0-.79,0-1.22,0-8.53,6.94-15.83,18-16.68C185.07,192.19,190.77,192.57,192.8,195.11Z"/><ellipse class="cls-18" cx="160.47" cy="206.37" rx="0.69" ry="0.35"/><ellipse class="cls-18" cx="162.55" cy="209.15" rx="0.69" ry="0.35"/><ellipse class="cls-18" cx="165.32" cy="203.6" rx="0.69" ry="0.35"/><ellipse class="cls-18" cx="167.41" cy="207.07" rx="0.69" ry="0.35"/><ellipse class="cls-18" cx="175.73" cy="202.91" rx="0.69" ry="0.35"/><ellipse class="cls-18" cx="168.79" cy="210.54" rx="0.69" ry="0.35"/><ellipse class="cls-18" cx="172.26" cy="205.68" rx="0.69" ry="0.35"/><ellipse class="cls-18" cx="171.57" cy="199.44" rx="0.69" ry="0.35"/><ellipse class="cls-18" cx="162.55" cy="200.82" rx="0.69" ry="0.35"/><ellipse class="cls-18" cx="162.55" cy="213.31" rx="0.69" ry="0.35"/><ellipse class="cls-18" cx="157.69" cy="210.54" rx="0.69" ry="0.35"/><ellipse class="cls-18" cx="179.2" cy="206.37" rx="0.69" ry="0.35"/><ellipse class="cls-18" cx="183.36" cy="201.52" rx="0.69" ry="0.35"/><ellipse class="cls-18" cx="181.98" cy="197.35" rx="0.69" ry="0.35"/></g><g id="Trompa"><path class="cls-19" d="M29.93,65.09c.59-.21,6.7,26.25,24.38,54.21a173,173,0,0,0,33.21,38.76c10.25,8.82,20.16,17.34,36.08,22.9,13.93,4.86,26,5.2,38.16,5.55,9.16.26,17.36.44,27.75-2.08a91.78,91.78,0,0,0,24.29-9.72,75.69,75.69,0,0,1-20.13,10.41c-10.73,3.63-19.68,3.91-30.52,4.16-7.24.17-16.93.4-27.06-1.38-25.67-4.53-42.95-20-55.51-31.23,0,0-17.9-16-30.43-37.37a122.85,122.85,0,0,1-8.32-16.65C40.3,98.89,39.58,96.58,36.27,86,30.72,68.22,29.74,65.16,29.93,65.09Z"/><path class="cls-19" d="M142,154.57c-.16-11.14-5.31-23.71-12.38-31a68.08,68.08,0,0,0-8-7.11,37.86,37.86,0,0,1,9.34,5.85C141.67,131.35,145.86,144.63,142,154.57Z"/><path class="cls-19" d="M103.73,143.06c3.13-6.75,3.92-16.39,2.12-23.66a59.84,59.84,0,0,0-2.35-7.51A33.6,33.6,0,0,1,107,119.2C110.27,129,108.75,138.68,103.73,143.06Z"/><path class="cls-19" d="M73,121.81c3.32-4,6-10.66,6.65-16.36a56.89,56.89,0,0,0,.41-6,32,32,0,0,1,.27,6.19C80,113.53,76.87,120.05,73,121.81Z"/><path class="cls-19" d="M46.53,93.91C52.25,93,57.62,89.73,59.86,86a20.68,20.68,0,0,0,2-4.1,12.19,12.19,0,0,1-1,4.62A13.06,13.06,0,0,1,46.53,93.91Z"/><path class="cls-19" d="M37.15,72.39a20.43,20.43,0,0,0,11.36-8.73,28,28,0,0,0,1.92-4.12,15.6,15.6,0,0,1-1.2,4.54C46.87,69.54,41.85,72.82,37.15,72.39Z"/><path class="cls-19" d="M185.75,143c-9.6-11.38-27.05-21.92-42.61-26.13a152.6,152.6,0,0,0-16.58-3.59,84.62,84.62,0,0,1,17.34,1.64C165.75,119.25,182.52,131,185.75,143Z"/><path class="cls-19" d="M307.46,112.27c-1.24.06,2.22-23.42-11.79-38.16-7.8-8.2-18.24-10.8-25-11.79a96.08,96.08,0,0,1-23.59-4.17C231.84,53.42,228.48,48.09,218,45c-22.63-6.71-43.41,7.13-43.71,6.24s19.85-13.16,42.32-9.71c5.88.9,11.89,1.83,18.73,5.55,6.67,3.63,9.58,7.45,17.35,9.71a38.87,38.87,0,0,0,11.1,1.39c12.32.4,31.32,6.61,40.24,19.43C314.27,92.35,308.6,112.22,307.46,112.27Z"/></g><path class="cls-20" d="M510.49,459.54a106.18,106.18,0,0,1-33.3-2.09c-13.38-3-16.8-6.35-17.35-9-1.11-5.45,1.27-12,1.39-14.58l-.69-27.75a46,46,0,0,1-8.33-34,71.21,71.21,0,0,1-14.57-24.29c-2.59-7.4-9.28-26.73.69-45.1,6.4-11.78,15.61-17.69,23.25-21.16,14.57-6.24,65.19,1.68,69.38,11.1,3.75,8.44,4.16,16.65,2.77,26.37-1,7.23-12,51.26-10.75,62.09,1.58,14.07,5.72,29,8.33,54.82.39,3.9,1,11.1-3.47,16.65C522.75,458.88,514,459.49,510.49,459.54Z"/><path class="cls-3" d="M519.85,446.17c.95,8,2.18,9.89-5.67,10.33-14.4.82-16,3-13.64-12.3,1.34-8.93,3.79-13.13,12.88-11.49C515.79,433.14,518.92,438.3,519.85,446.17Z"/><path class="cls-3" d="M477.09,439.5c0,6.7.42,12.28-4.85,10.41-10.76-3.82-11.6-.93-10.41-13.88.66-7.26,1.39-11.8,10.06-9.71C475.8,427.26,477.09,432.79,477.09,439.5Z"/><path class="cls-4" d="M519.08,447.31c.93,7.18,2.14,8.85-5.56,9.25-14.12.73-15.65,2.71-13.38-11,1.32-8,3.72-11.75,12.64-10.28C515.1,435.65,518.17,440.27,519.08,447.31Z"/><path class="cls-3" d="M498.17,445.36c0,7.31,1.63,11.57-5,10.06-12.05-2.74-16.26.46-13.33-13.61C481.54,433.44,485,429,492.62,431,496.77,432.11,498.17,438.06,498.17,445.36Z"/><path class="cls-4" d="M496.48,446.84c0,6.71,1.52,10.61-4.72,9.23-11.29-2.51-15.23.42-12.49-12.49,1.63-7.68,4.86-11.8,12-9.92C495.17,434.68,496.48,440.14,496.48,446.84Z"/><path class="cls-4" d="M475.8,441.5c0,6.7.41,12.27-4.86,10.4-10.75-3.81-11.59-.92-10.4-13.87.66-7.26,1.38-11.8,10.06-9.72C474.51,429.25,475.8,434.79,475.8,441.5Z"/><g id="Coada"><path class="cls-19" d="M544.77,279.39a103.55,103.55,0,0,0,33,12.46c4,.78,2.73,8.2-1.4,7.87a83.47,83.47,0,0,1-11.09-1.64C512.7,286.59,514.93,261.81,544.77,279.39Z"/><path class="cls-21" d="M617,296.72c-2.82,2.85-7,7.06-11.67,9.23-10.51,4.86-27.14,1.14-29.79-6.17-2-5.44,3.64-13.23,9.89-17.09,12.4-7.65,21.13,3,35-4.51,8.78-4.71,10.76-15.39,11.79-14.57,1.27,1-1.34,14.91-7.9,24.2A68.3,68.3,0,0,1,617,296.72Z"/><path class="cls-17" d="M580.67,303.36a39.25,39.25,0,0,0,6.55,2.48c16.44,5.09,33-15.48,38.32-21.79.09-.11-14.76,18.37-31.61,20.05A43.33,43.33,0,0,1,580.67,303.36Z"/><path class="cls-17" d="M577,291.73c.85-.76,2.32-1.94,4.14-3.36,10.32-8.06,19.2-7.51,22-7.41,0,0-7.89-.52-18,5.41A94.82,94.82,0,0,0,577,291.73Z"/><path class="cls-17" d="M575.33,295.39c1.14-1,3.14-2.64,5.6-4.56,14-10.89,26.52-9.5,30.52-9.18.07,0-11.14-1.26-25.05,6.57A115.33,115.33,0,0,0,575.33,295.39Z"/><path class="cls-17" d="M577.59,300.25a56.81,56.81,0,0,0,7.26,2.26c18.09,4.71,32.9-12.14,37.64-17.31.08-.08-13.17,15.06-30.77,16A59.92,59.92,0,0,1,577.59,300.25Z"/><path class="cls-17" d="M575.66,297.17a65.79,65.79,0,0,1,5.58-4.58c14.14-10.72,28.82-8.86,45.47-10.94,1.76-.22-20.7,1.52-39.32,9.17A66.93,66.93,0,0,0,575.66,297.17Z"/><path class="cls-17" d="M576.09,297.64a55.22,55.22,0,0,0,7.26,2.26c18.08,4.72,32.89-12.13,37.63-17.3.08-.09-13.16,15.06-30.76,16A59.39,59.39,0,0,1,576.09,297.64Z"/><path class="cls-17" d="M615.61,285.82c-3.79,1.57-7.83,3.12-12.1,4.58a192.92,192.92,0,0,1-25.87,6.88"/></g><path class="cls-22" d="M356.47,448.52c-7.25,9.06-22.22,8.19-31.91,7.63-4.2-.24-31.75-1.84-36.08-15.27-2.33-7.19,4.58-9.85,8.32-27.05.94-4.33,2.27-10.59,1.39-29.84-1.92-42.16-9.31-50.35-3.25-61.32,3.73-6.74,12.63-23.41,37.47-22.2,28.44,1.39,37.67,17.06,40.93,25,5.67,13.74-8,25.7-13.32,66.7-1.27,9.77-2.3,14.66-2.16,21.68C358.19,430.5,363,440.36,356.47,448.52Z"/><path class="cls-3" d="M307.69,439.76c-2.13,8-1,9.93-7,7-8.72-4.37-12.86-7.39-8.25-15.13,3.93-6.6,6.8-8.8,12.2-6.25C309,427.37,309.82,431.81,307.69,439.76Z"/><path class="cls-4" d="M306.49,440.69c-2.13,7.95-1,9.92-7,6.95-8.72-4.37-12.85-7.38-8.25-15.13,3.93-6.59,6.8-8.8,12.2-6.25C307.8,428.3,308.62,432.73,306.49,440.69Z"/><path class="cls-3" d="M327.05,443.93c.3,7.84,1.95,9.33-4.67,8.31-9.72-1.5-14.71-.12-12.55-8.47,1.83-7.12,4.05-12.88,10-12.1C324.64,432.29,326.75,436.1,327.05,443.93Z"/><path class="cls-4" d="M325.86,445.51c.3,7.84,1.94,9.32-4.67,8.3-9.72-1.5-14.71-.12-12.55-8.47,1.83-7.11,4.05-12.88,10-12.1C323.45,433.87,325.55,437.67,325.86,445.51Z"/><path class="cls-3" d="M350.27,442.15c1.78,7,3.8,8-3.38,8.52-10.55.77-15.56,3.1-14.85-4.92.61-6.83,1.88-12.53,8.34-13.12C345.55,432.15,348.48,435.13,350.27,442.15Z"/><path class="cls-4" d="M349,444.65c1.58,7.07,3.57,8.1-3.62,8.43-10.57.48-15.65,2.68-14.71-5.32.81-6.81,2.23-12.47,8.71-12.9C344.56,434.53,347.41,437.58,349,444.65Z"/><path class="cls-19" d="M454.55,382.86c.93,6.89,1.63,12,5.55,16.65,4.19,4.92,6.6,5.6,9.71,6.24a14.2,14.2,0,0,1-8.32-2.08c-8.3-4.87-9-14.81-9.72-20.12-.47-3.58.59-16,2.78-23.59A119.47,119.47,0,0,0,454.55,382.86Z"/><path class="cls-19" d="M252.27,358.91a33.8,33.8,0,0,0,4.41,4.82,28.22,28.22,0,0,0,3.15,2.46c1.67,1.11,6.31,3.61,4.26,3.14a20.81,20.81,0,0,1-5.62-2.25A28.74,28.74,0,0,1,247.9,357c-6.57-9.93-6.31-26.37-5.92-30.4C242.4,329.44,244.89,349.34,252.27,358.91Z"/><path class="cls-19" d="M411.2,370.05c-3.92.19-7-.64-13-2.29-18.25-5-25.75-12.34-27.64-10.4-2.3,2.37,6.26,15.78,17.41,25,5.62,4.66,12.08,9.86,20.68,9.4,5.68-.3,9.68-2.93,13.56-5.56,14.62-9.88,22-27.14,19.81-28.87-.71-.56-1.95.92-7.63,4.17S420.24,369.61,411.2,370.05Z"/><path class="cls-19" d="M503,207.36c4.47,5.48,15.72,18.1,17.83,21.67,12.86,21.69,7.19,31.54,9.13,30.24,1.73-1.17,2.24-16.72-1.63-31.06A64,64,0,0,0,502,191.51c-17.38-11.83-37.87-14.82-39.06-13.56C461.56,179.36,485,185.3,503,207.36Z"/><path class="cls-19" d="M535,310c.27.08-.07,2.59-2.77,13.18-1.9,9-3.52,16.94-4.86,23.59-.9,4.49-1.82,9.08-2.77,15.26-.84,5.39-1.25,8.09-1.39,10.41-.17,2.79-.2,6.73,2.08,20.82,1.32,8.17,1.62,8.64,2.77,16,1.1,6.95,2.41,16.6,2.09,16.66s-3-11.48-4.86-23.59c-2.86-18.3-5.35-34.15-2.08-53.43a174.55,174.55,0,0,1,5.55-22.2C531.2,318.88,534.5,309.85,535,310Z"/><path class="cls-19" d="M300.5,379.82a31.63,31.63,0,0,0,9.93,18.64A24.35,24.35,0,0,1,299,388.08c-2.44-4.67-2.34-8.89-2.2-12.85a47.43,47.43,0,0,1,7.17-22.9C302.5,356.15,298.3,367.92,300.5,379.82Z"/><path class="cls-19" d="M367.82,357.19c-.25-.08-3,7.71-5.55,16.65A170.46,170.46,0,0,0,357.44,394c-3.24,21,2.68,39.57,2.92,39.55s-.49-4.28-.73-13.19c-.14-5.08-.09-9.36,0-12.48.17-5.25.59-11.32,1.46-18,1-7.34,2.12-12.84,2.93-16.65C366.14,363.18,368,357.25,367.82,357.19Z"/></svg>