<svg xmlns="http://www.w3.org/2000/svg" width="156.13" height="144.83" viewBox="0 0 156.13 144.83"><defs><style>.cls-1{fill:red;}.cls-2{fill:#c1272d;}</style></defs><g id="Layer_1" data-name="Layer 1"><path class="cls-1" d="M78.25,138.46,17.87,78.08C-30.32,29.88,30.06-30.5,78.25,17.7c47.85-47.85,108.23,12.53,60.38,60.38Z"/><path class="cls-2" d="M78.08,144.83,17.7,84.45C-30.5,36.25,29.88-24.13,78.08,24.07c47.85-47.85,108.23,12.53,60.38,60.38Z"/><path class="cls-1" d="M24,81.77c-1.12-.58-16-8.64-17.81-26C4.52,39.44,15.81,28.86,17,27.77A50.8,50.8,0,0,0,12.25,52,51.62,51.62,0,0,0,24,81.77Z"/></g></svg>