<svg xmlns="http://www.w3.org/2000/svg" width="96.37" height="44.02" viewBox="0 0 96.37 44.02"><defs><style>.cls-1{fill:red;}</style></defs><g id="Layer_4" data-name="Layer 4"><path class="cls-1" d="M43.81,33.26,39.18,25c-3.7-6.59,4.89-11.4,8.59-4.81,6.82-3.81,11.45,4.44,4.64,8.25Z"/><path class="cls-1" d="M5.28,16.72,1.2,12.86C-2,9.78,2,5.55,5.23,8.63c3.19-3.36,7.26.51,4.07,3.86Z"/><path class="cls-1" d="M88.43,44l-1.85-5.26c-1.48-4.19,4-6.11,5.47-1.92,4.33-1.52,6.18,3.73,1.85,5.26Z"/><path class="cls-1" d="M20.56,19.81l-5.8-10c-4.64-8,5.76-14,10.4-6C33.4-1,39.21,9,31,13.78Z"/><path class="cls-1" d="M67.6,36.09l-6-11.32c-4.78-9,7-15.25,11.75-6.21,9.31-4.93,15.3,6.39,6,11.31Z"/></g></svg>