<svg xmlns="http://www.w3.org/2000/svg" width="113.47" height="91.16" viewBox="0 0 113.47 91.16"><defs><style>.cls-1{fill:red;}</style></defs><g id="Layer_4" data-name="Layer 4"><path class="cls-1" d="M7.94,23.22,1.3,11.4C-4,2,8.31-4.93,13.61,4.51,23.38-.95,30,10.87,20.26,16.33Z"/><path class="cls-1" d="M44.3,52.09,35.56,35c-7-13.64,10.82-22.71,17.8-9.06C67.47,18.74,76.21,35.83,62.1,43Z"/><path class="cls-1" d="M94.14,56.15l-4.5-12.79C86,33.15,99.36,28.47,103,38.68c10.55-3.7,15.05,9.09,4.5,12.79Z"/><path class="cls-1" d="M7.2,74.88l-5.81-10c-4.63-8,5.77-14,10.4-6,8.24-4.78,14.05,5.23,5.81,10Z"/><path class="cls-1" d="M54.24,91.16l-6-11.32c-4.78-9,7-15.25,11.75-6.21C69.32,68.7,75.3,80,66,84.94Z"/></g></svg>