<svg xmlns="http://www.w3.org/2000/svg" xmlns:xlink="http://www.w3.org/1999/xlink" width="300" height="115.93" viewBox="0 0 300 115.93"><defs><style>.cls-1{fill:#603813;}.cls-2{fill:url(#linear-gradient);}.cls-3{fill:#42210b;}</style><linearGradient id="linear-gradient" x1="7.42" y1="54.44" x2="292.58" y2="54.44" gradientUnits="userSpaceOnUse"><stop offset="0.14" stop-color="#a67c52"/><stop offset="1" stop-color="#754c24"/></linearGradient></defs><g id="Layer_1" data-name="Layer 1"><path class="cls-1" d="M298.83,115.93H0V97.52L11.36,85.38,0,76.76.78,41.51l7.44-6.26L0,29.14V0L300,2l-1.17,13.57L293,21.93l5.88,5.49V66L287.08,76l11.75,8.89Z"/><path class="cls-2" d="M291.47,108.88H7.42V91.59l10.79-11.4L7.42,72.09Q7.8,55.55,8.16,39l7.08-5.89L7.42,27.37V0L292.58,1.84l-1.11,12.75c-1.87,2-3.73,4-5.59,6l5.59,5.15V62l-11.17,9.4,11.17,8.35Z"/><path class="cls-3" d="M82.89,46.18H70.07v-29H82.89V27.83h6.53V17.22h12.83v29H89.42V35.42H82.89Z"/><path class="cls-3" d="M119,46.52A12.64,12.64,0,0,1,110,43.25a11.14,11.14,0,0,1-3.51-8.53A11.25,11.25,0,0,1,110,26.16a14,14,0,0,1,18,0,11.26,11.26,0,0,1,3.48,8.56A11.19,11.19,0,0,1,128,43.24,12.67,12.67,0,0,1,119,46.52Zm0-14.65a2.5,2.5,0,0,0-1.85.73,2.62,2.62,0,0,0-.71,1.89,2.58,2.58,0,0,0,.71,1.88,2.49,2.49,0,0,0,1.85.72,2.47,2.47,0,0,0,2.6-2.6,2.58,2.58,0,0,0-.72-1.9A2.55,2.55,0,0,0,119,31.87Z"/><path class="cls-3" d="M131.45,23.33h12l2.25,4.9,2-4.9h5.45l2.14,4.9,2.32-4.9h12.16L159.7,46.18h-6.53l-2.71-6.26-2.74,6.26H141.2Z"/><path class="cls-3" d="M203.37,23.33v6.42h-4.89v4.89q0,2.49,2.22,2.49a3.42,3.42,0,0,0,2.8-1.63v9a12,12,0,0,1-6.73,1.82,10.44,10.44,0,0,1-7.13-2.53,8.71,8.71,0,0,1-2.89-6.94V29.75H182l16.51-12.94v6.52Z"/><path class="cls-3" d="M218.64,46.52a12.61,12.61,0,0,1-8.94-3.27,11.12,11.12,0,0,1-3.52-8.53,11.29,11.29,0,0,1,3.47-8.56,14,14,0,0,1,18,0,11.23,11.23,0,0,1,3.49,8.56,11.16,11.16,0,0,1-3.49,8.52A12.67,12.67,0,0,1,218.64,46.52Zm0-14.65a2.5,2.5,0,0,0-1.85.73,2.62,2.62,0,0,0-.71,1.89,2.58,2.58,0,0,0,.71,1.88,2.49,2.49,0,0,0,1.85.72,2.47,2.47,0,0,0,2.6-2.6,2.58,2.58,0,0,0-.72-1.9A2.53,2.53,0,0,0,218.64,31.87Z"/><path class="cls-3" d="M113,70v1.75a9.37,9.37,0,0,1,5.64-1.94A9.22,9.22,0,0,1,125.78,73a11.59,11.59,0,0,1,2.88,8,12.25,12.25,0,0,1-3.09,8.6A10.14,10.14,0,0,1,117.73,93,12,12,0,0,1,113,92v7.23H101.26V70ZM113,80v4.11a4.25,4.25,0,0,0,2,.55,2.13,2.13,0,0,0,1.71-.77,3.1,3.1,0,0,0,.67-2.07,3.23,3.23,0,0,0-.67-2.09,2.1,2.1,0,0,0-1.71-.81A2.53,2.53,0,0,0,113,80Z"/><path class="cls-3" d="M144.06,92.8H132.34V63.85h11.72Z"/><path class="cls-3" d="M148.73,79.35V72.48A23.22,23.22,0,0,1,160,69.77c4,0,6.94.86,8.84,2.56s2.85,4.32,2.85,7.84V92.8H160V91.1A9.5,9.5,0,0,1,154.25,93a6,6,0,0,1-4.36-1.69A5.71,5.71,0,0,1,148.14,87a6,6,0,0,1,2.16-4.79A8.39,8.39,0,0,1,156,80.38a15,15,0,0,1,4,.53,2.93,2.93,0,0,0-1.22-2.49,5.74,5.74,0,0,0-3.41-.89A13.89,13.89,0,0,0,148.73,79.35ZM160,87.76V84.57a6.06,6.06,0,0,0-1.92-.36,2.52,2.52,0,0,0-1.7.55,1.81,1.81,0,0,0-.65,1.44,2,2,0,0,0,.69,1.56,2.53,2.53,0,0,0,1.76.62A2.7,2.7,0,0,0,160,87.76Z"/><path class="cls-3" d="M188.51,99.22H175.77l4.7-11.12-8-18.14h11.66l2.76,6.09L189.48,70h11.39Z"/></g></svg>