<svg xmlns="http://www.w3.org/2000/svg" width="820.33" height="672" viewBox="0 0 820.33 672"><defs><style>.cls-1{fill:#42210b;}.cls-2{fill:#603813;}.cls-3{fill:#8c6239;}.cls-4{opacity:0.37;}</style></defs><g id="Layer_5" data-name="Layer 5"><rect class="cls-1" width="820.33" height="672" rx="16.09"/><rect class="cls-2" x="7.43" y="6.14" width="805.47" height="661.04" rx="19.15"/><rect class="cls-3" x="17.12" y="15.78" width="786.09" height="643.07" rx="19.15"/><g class="cls-4"><path class="cls-1" d="M358.61,116.6c.29,3-23.69,9.64-49.3,9.65-29.89,0-57.08-9-56.61-12.28.35-2.4,19.7-1.88,58.41-.84C342.64,114,358.41,114.45,358.61,116.6Z"/><path class="cls-1" d="M498.83,633.88c.13,4.19-25.41,9.66-49.3,9.64-28.55,0-57-7.86-56.61-12.27.41-4.73,34-5.6,49.69-5.41C465.09,626.11,498.68,629.09,498.83,633.88Z"/><path class="cls-2" d="M56.41,33.32a69.07,69.07,0,0,1-16.95.43,69.41,69.41,0,0,1-28.25-9.2H86.54Z"/><path class="cls-1" d="M74.67,53c-12.73,1.13-19.42,1.7-28.31,1.32a139.19,139.19,0,0,1-35.15-6.14c15.94-1.1,33-1.76,51.13-1.75,17.93,0,34.86.66,50.67,1.75C97.35,50.76,84.24,52.19,74.67,53Z"/><path class="cls-1" d="M100.69,140.71c-18.54-1.36-29-6.4-58.44-10.08-14.54-1.82-26.57-2.41-34.49-2.63a76.16,76.16,0,0,1,22.63-3.51c10.66,0,17.77,2.33,26.47,4.39,11.19,2.64,20.55,3.52,39.26,5.26a260.7,260.7,0,0,0,60.72-1.76C132.88,140.93,113.81,141.68,100.69,140.71Z"/><path class="cls-1" d="M121.43,213.85c-18.54-1.36-61.86-6.12-91.3-9.8-14.54-1.82-14.45-11.18-22.37-11.4,5.18-1.61,25.69.72,35.28.72,10.67,0,18.79-.17,27.49,1.89,11.19,2.65,121.21,10.09,139.92,11.83,14,1.31,102.09,6.51,128.28,2.83C314.77,218.47,134.56,214.81,121.43,213.85Z"/><path class="cls-1" d="M3.78,254.68a76.13,76.13,0,0,1,22.62-3.5c10.67,0,106.11-9.46,128.83-4.91a89.19,89.19,0,0,1,8.91,2.28c-8.64-.1-21.62,0-37.43,1.31-10.25.83-52,5.3-74.87,5.8C39.28,255.94,23,255.88,3.78,254.68Z"/><path class="cls-2" d="M11.21,368.6c.15-1.1,9.81-.56,26.94-.09,33.15.91,28.88-.23,61.47.59,16.42.41,38.12,1.22,63.91,2.92-14.8,1.53-28.1,2.66-39.56,3.51-49.9,3.67-67.14,2.12-75.48,1.16C29.65,374.53,11,370.14,11.21,368.6Z"/><path class="cls-1" d="M6.19,444.2c-.06-.68,16.27-2.59,28-3.8,23.73-2.43,40.74-4.18,63.3-4.09a428.13,428.13,0,0,1,62.63,4.88,291,291,0,0,1-56.85,5.06c-21.89-.26-29.42-2.92-58.43-2.93C22.65,443.32,6.25,444.88,6.19,444.2Z"/><path class="cls-2" d="M6.19,470.14c0-1.12,10.63-2.15,28-3.8,40-3.79,64.67-4.31,64.67-4.31,46.29-1,90.61.61,113.21,1.31,27.56.86,68.05,1.79,118.24,1.76-14.91,2.9-38.07,6.89-66.65,9.64-38.79,3.73-59.52,2.45-166.17-.44C37.65,472.68,6.23,472.06,6.19,470.14Z"/><path class="cls-1" d="M11.21,533.92c-.23-1.39,10.68-4.8,21-6.14a87.68,87.68,0,0,1,36.07,3.07l-35.61,3.07C15.35,535.26,11.35,534.73,11.21,533.92Z"/><path class="cls-2" d="M8.93,556.71c-.13-1.93,16-6.26,32.75-4.63a75,75,0,0,1,26.6,7.85c-9,.22-21.7.27-37-.59C17.44,558.56,9,558.09,8.93,556.71Z"/><path class="cls-1" d="M11.21,619.77c1.91-2.31,6.19-3.27,25.93,1,6.5,1.4,15.51,3.54,26.2,6.75a185.57,185.57,0,0,0-21.11-.82,183.43,183.43,0,0,0-31,3.24C10.07,626.84,9,622.45,11.21,619.77Z"/><path class="cls-2" d="M357,643.73c.19-2.05,46.46,1.61,125.31,3.28,43.85.93,79.75.87,103.4.66a667.43,667.43,0,0,1-143.8,7.23C398.42,652.38,356.83,645.68,357,643.73Z"/><path class="cls-2" d="M146.11,622c.55-3.17,50.15,10,125.92,3.61,44.42-3.76,44.63-9.75,91.83-14.79,55.85-6,98.77-2.18,145.85,2A1073.73,1073.73,0,0,1,640.5,632.55c-21-3.34-50.39-7.34-85.64-10-45.78-3.46-116.74-8.81-202,4.08-51.14,7.74-55.8,14.24-93.26,14.93C196.24,642.72,145.54,625.25,146.11,622Z"/><path class="cls-1" d="M797.31,587.84c-5.9,7.84-24.26,1.55-50.63-.55-12-1-14.17-.13-59.62,3.18-41.65,3-77.7,5.1-88.45,5.63-59.34,3-105.93-2.78-145.64-7.92a1075.27,1075.27,0,0,1-129.79-25c-.89-.23,39.21,7.63,85.11,13.49,48.66,6.2,117,11,202,4.16l102.83-.18,81.22-13.31C797.93,574.18,801.11,582.77,797.31,587.84Z"/><path class="cls-2" d="M804.3,491.15c-18-.08-45.09.12-78.09,1.71-36.63,1.77-37.05,2.59-62.65,3.79-42,2-75-2-103.16-5.57-24.26-3.07-64.17-12-31.65-8,39.78,5,100.82,4.58,143,3,18.62-.68,43.81-2.07,73.78-5.15l56.57-4Q803.23,484.11,804.3,491.15Z"/><path class="cls-2" d="M797.31,467.51a581.65,581.65,0,0,1-76.37,5.5,579.17,579.17,0,0,1-92.08-6.82c26.73.64,48.52-.22,63.73-1.15,15.45-1,23.79-2,47.73-3.9s43.57-3.19,56.56-3.95Z"/><path class="cls-1" d="M798.93,370.13c-33.79-3.4-87.35-7.76-153.64-8.49-85.7-.93-93.4,5.3-170.5,2.63-70.89-2.45-77.4-8.16-173.93-11.83-53.13-2-94.72-1.95-94.74-3.65,0-1.54,33.91-3.47,61.87-4.24,35.57-1,56.57.06,132.85,3,72.54,2.79,84.8,3,102.71,2.93,30.91-.22,31.07-1.32,80.11-2.63,49.35-1.33,78.2-2.1,113.67-.66a990.74,990.74,0,0,1,100,9.2Z"/><path class="cls-2" d="M717.88,368.88c-.68,2.34,13.49,6.12,13,10.52-.53,4.8-18.15,7.27-40.4,8.55,11.49,2.75,30.44,5.56,52,0,5.13-1.33,22.17-5.72,21.91-10.53C764,369.69,719.06,364.79,717.88,368.88Z"/><path class="cls-1" d="M766.48,373c-1.61,2.39,7.25,7.59,6.86,11.65-1,10.86-68.29,15-169.13,15.12,41.64,2.86,152.69,9.28,175.29-6.33,3-2.09,9.62-6.64,8.9-11.42C787.28,374.52,768.62,369.84,766.48,373Z"/><path class="cls-2" d="M797.81,330c-19.24.95-46.06,1.89-78.08,1.71-89.63-.49-158-9.34-158-10.15s48,6.25,114.36,2.63c3-.16,23-1.56,63-4.34l56.57-4Q796.74,322.91,797.81,330Z"/><path class="cls-2" d="M796.24,281.38c-25,1.6-58.49,3.41-97.92,4.6-165.53,5-305.47-5-305.4-7.23,0-.49,6.48-.29,127.36-1.2,87.31-.65,121-1,160.24-3.66,8.21-.55,42.76-2.94,63-4.35l52.73-3.68Z"/><path class="cls-2" d="M798.93,205.34a168.61,168.61,0,0,1-40.33,7,161.35,161.35,0,0,1-48.35-5,210.94,210.94,0,0,0,33.59-2.38c8.15-1.25,12.57-2.42,25.21-4.82s23-4,29.87-5Z"/><path class="cls-1" d="M816.55,173.77c-26.46,2.79-54.16,5-83,6.3a1429.29,1429.29,0,0,1-223.41-7.14q84.71-3.85,169.34-8.78,51.1-3,102.18-6.31l32.57,1.81Q815.39,166.7,816.55,173.77Z"/><path class="cls-2" d="M797.31,103.18a110.36,110.36,0,0,1-23.68,3.53A107,107,0,0,1,745.2,104a138,138,0,0,0,19.73-1.16c4.79-.63,7.38-1.23,14.8-2.45s13.52-2,17.54-2.55Z"/><path class="cls-1" d="M798.93,84.52a433.8,433.8,0,0,1-65.81,5.93,430,430,0,0,1-79.28-6.3c23,.49,41.8-.49,54.91-1.51,13.31-1,20.5-2.09,41.13-4.16S787.43,75,798.63,74.2Z"/><path class="cls-2" d="M797.31,63.28a110.33,110.33,0,0,1-23.68,3.54,106.55,106.55,0,0,1-28.43-2.76,138,138,0,0,0,19.73-1.16c4.79-.63,7.38-1.22,14.8-2.44s13.52-2.05,17.54-2.56Z"/><path class="cls-1" d="M797.31,48c-32,3.71-66.56,6.53-103.4,7.89-45.08,1.67-87,.9-125.31-1.31,32.75-1.27,60.27-2.42,80.8-3.29,47.46-2,59.05-2.7,73.27-3.95,32.08-2.82,57.94-6.89,74.64-9.86Z"/><path class="cls-2" d="M794.45,25.72a250.07,250.07,0,0,1-36.15,3,249.57,249.57,0,0,1-43.56-3.38c12.65.28,23-.21,30.16-.73s11.26-1.07,22.59-2.13,20.63-1.75,26.78-2.17Z"/><path class="cls-2" d="M180.35,103.89c-.46-2.54,42.42-15.31,98.6-18.41,53.43-3,123.34,2.59,126,19.07.85,5.27-4.87,13.58-6.84,13.15-1.59-.35-.91-6.35-1.37-8.55C391.84,86.11,181.34,109.42,180.35,103.89Z"/><path class="cls-2" d="M108.45,118.36c.12-2.77,45.15-5,93.12-.66,32.92,3,36.78,6.37,65.05,9.86,53.33,6.59,96,1.61,149.28-4.6,54.13-6.32,60.1-11.25,97.92-11.84,43.16-.67,89,4.91,89,9.87,0,4.16-32.29,10.11-179.41,17.75a1207.92,1207.92,0,0,1-178-3.29c-24.27-2.25-47.57-5.15-69.85-8.55C120.05,122.26,108.39,119.77,108.45,118.36Z"/></g></g></svg>