<svg xmlns="http://www.w3.org/2000/svg" xmlns:xlink="http://www.w3.org/1999/xlink" width="326.35" height="134.96" viewBox="0 0 326.35 134.96"><defs><style>.cls-1{fill:#603813;}.cls-2{fill:url(#linear-gradient);}.cls-3{fill:#42210b;}</style><linearGradient id="linear-gradient" x1="8.07" y1="63.38" x2="318.28" y2="63.38" gradientUnits="userSpaceOnUse"><stop offset="0.14" stop-color="#a67c52"/><stop offset="1" stop-color="#754c24"/></linearGradient></defs><g id="Layer_4" data-name="Layer 4"><path class="cls-1" d="M325.07,135H0V113.53L12.36,99.39,0,89.36q.42-20.51.85-41L9,41Q4.47,37.49,0,33.93V0L326.35,2.28q-.64,7.9-1.28,15.8l-6.39,7.45,6.39,6.39V76.8L312.29,88.45,325.07,98.8Z"/><path class="cls-2" d="M317.06,126.75H8.07V106.62L19.81,93.35,8.07,83.93l.81-38.54,7.69-6.85-8.5-6.67V0L318.28,2.14q-.61,7.42-1.22,14.84-3,3.51-6.07,7l6.07,6V72.13L304.91,83.07l12.15,9.72Z"/><path class="cls-3" d="M90.17,53.76h-14V20.05h14V32.4h7.1V20.05h14V53.76h-14V41.23h-7.1Z"/><path class="cls-3" d="M129.41,54.15a13.2,13.2,0,0,1-9.73-3.81,13.4,13.4,0,0,1-3.83-9.92,13.63,13.63,0,0,1,3.78-10,14.44,14.44,0,0,1,19.61,0,13.6,13.6,0,0,1,3.79,10,13.44,13.44,0,0,1-3.79,9.91A13.21,13.21,0,0,1,129.41,54.15Zm0-17a2.6,2.6,0,0,0-2,.85,3.13,3.13,0,0,0-.78,2.2,3.09,3.09,0,0,0,.78,2.19,2.59,2.59,0,0,0,2,.84,2.65,2.65,0,0,0,2-.84,3.1,3.1,0,0,0,.79-2.19,3.13,3.13,0,0,0-.79-2.21A2.65,2.65,0,0,0,129.41,37.1Z"/><path class="cls-3" d="M143,27.16h13.06l2.46,5.7,2.23-5.7h5.92l2.33,5.7,2.52-5.7h13.23l-11,26.6h-7.1l-3-7.29-3,7.29h-7.1Z"/><path class="cls-3" d="M221.23,27.16v7.47h-5.32v5.7c0,1.93.8,2.89,2.41,2.89a3.67,3.67,0,0,0,3.06-1.9V51.86A12.46,12.46,0,0,1,214.05,54,10.93,10.93,0,0,1,206.3,51,10.51,10.51,0,0,1,203.15,43V34.63H198l18-15.07v7.6Z"/><path class="cls-3" d="M237.85,54.15a13.2,13.2,0,0,1-9.73-3.81,13.36,13.36,0,0,1-3.83-9.92,13.67,13.67,0,0,1,3.77-10,14.45,14.45,0,0,1,19.62,0,13.6,13.6,0,0,1,3.79,10,13.44,13.44,0,0,1-3.79,9.91A13.21,13.21,0,0,1,237.85,54.15Zm0-17a2.63,2.63,0,0,0-2,.85,3.17,3.17,0,0,0-.77,2.2,3.13,3.13,0,0,0,.77,2.19,2.63,2.63,0,0,0,2,.84,2.65,2.65,0,0,0,2-.84,3.09,3.09,0,0,0,.78-2.19,3.12,3.12,0,0,0-.78-2.21A2.65,2.65,0,0,0,237.85,37.1Z"/><path class="cls-3" d="M122.91,81.44v2A9.75,9.75,0,0,1,136.83,85,14.09,14.09,0,0,1,140,94.32a14.86,14.86,0,0,1-3.35,10,10.73,10.73,0,0,1-8.53,3.93,12.27,12.27,0,0,1-5.16-1.17v8.41H110.15V81.44Zm0,11.71v4.79a4.37,4.37,0,0,0,2.21.64,2.27,2.27,0,0,0,1.85-.9,3.78,3.78,0,0,0,.72-2.41,3.92,3.92,0,0,0-.72-2.43,2.24,2.24,0,0,0-1.85-1A2.69,2.69,0,0,0,122.91,93.15Z"/><path class="cls-3" d="M156.71,108H144V74.33h12.75Z"/><path class="cls-3" d="M161.79,92.38v-8a23.92,23.92,0,0,1,12.26-3.16q6.52,0,9.62,3t3.09,9.12V108H174v-2a9.9,9.9,0,0,1-6.21,2.21,6.32,6.32,0,0,1-4.75-2,6.89,6.89,0,0,1-1.9-5,7.26,7.26,0,0,1,2.35-5.58,8.78,8.78,0,0,1,6.15-2.15,15.63,15.63,0,0,1,4.36.62,3.44,3.44,0,0,0-1.33-2.89,5.85,5.85,0,0,0-3.71-1A14.25,14.25,0,0,0,161.79,92.38ZM174,102.16V98.45a6.2,6.2,0,0,0-2.09-.42,2.67,2.67,0,0,0-1.85.64,2.17,2.17,0,0,0-.7,1.68,2.41,2.41,0,0,0,.75,1.81,2.62,2.62,0,0,0,1.91.73A2.84,2.84,0,0,0,174,102.16Z"/><path class="cls-3" d="M205.07,115.5H191.2l5.12-12.94-8.75-21.12h12.69l3,7.09,2.86-7.09h12.39Z"/></g></svg>