<svg id="Layer_1" data-name="Layer 1" xmlns="http://www.w3.org/2000/svg" width="770" height="175.47" viewBox="0 0 770 175.47"><defs><style>.cls-1{fill:#603813;}.cls-2{fill:#c69c6d;}.cls-3{fill:#009245;}.cls-4{fill:#ed1c24;}.cls-5{fill:#c1272d;}.cls-6{fill:#8d272d;}.cls-7{fill:#39b54a;}.cls-8{fill:#a67c52;}.cls-9{fill:#fff;opacity:0.3;}</style></defs><path class="cls-1" d="M770,120.18c1.09,6.87-38,23.57-100.24,35.26-87,16.34-191.63,36-264.64-1.19-13.63-6.93-40.58-23.19-68.14-14.65-18.31,5.66-36.54,22.16-40.68,18-2.53-2.57,2.87-10.14,0-12.68-4.39-3.9-21.71,9.87-24.3,6.86-1.26-1.46,2.29-5.22,1.06-6.86-2.8-3.72-24.34,11.17-28,7.39-4.26-4.4,23-27,18-39.09-9.24-22-111.28-2.94-146.85,3.7-61.61,11.5-80.94,21.1-97.72,7.92C-3,108-6.37,65.05,11.56,38.7c6.89-10.12,19.67-21.81,65.5-31.16,31.46-6.42,81-12.25,144.21-1.85a514.87,514.87,0,0,1,87.16,15.45c7.57,2,13.44,3.77,18.34,5.35,16.54,5.3,26.93,8.75,30.79,10,14.75,4.78,23.6,2.43,62.33,0,24.52-1.54,43.8-2.75,68.71-2.29,18,.33,39.11,1.54,52.25,2.29,18.12,1,26.28,1.75,40.32,1.72,0,0,18.4,0,37.38-1.82C678.11,30.8,729.71,6,733.7,13.68c.87,1.66-.26,5.33-10.6,14.46-2.94,1.5-6.66,3.77-6.34,5.81.65,4.14,17,.65,22.18,7.39,9.1,11.89-27.07,42.15-19,61.08C727.48,120,768.88,113.28,770,120.18Z"/><path class="cls-2" d="M760.6,119.52c.76,6.2-241.71,79.92-345.54,32.16-9.84-4.52-64.46-31.3-95.54-11C314.35,144,303,153.15,301,151.22c-1.62-1.59,3.8-9.8,9-16.91-18.68,8.41-31.87,13.49-32.94,11.58-1.66-3,27-21.77,26.07-23.2-1.17-1.8-45.71,28.93-50.18,23.77-2.68-3.09,8.84-19.29,47.54-59.69a220.13,220.13,0,0,1,54.93-31.69c28.82-11.41,55.17-14.58,125.72-14.34,98.36.32,92.06,6.62,130,2.19,62.58-7.32,113-28.38,115.16-22.72.81,2.14-5.77,6.7-12.15,10.57-2.79,1.28-6.86,3.47-6.65,5.71.39,4.15,14.87,2,20.26,8.62C738.27,58,703.2,91.23,712.53,109,721,125.09,760.3,117,760.6,119.52Z"/><path class="cls-3" d="M29.62,126.7c-6.52-2.18-11-7.33-13.43-15.53-1.26-4.33-1.56-7.85-.85-10.55a6.92,6.92,0,0,1,5.05-5.22,7,7,0,0,1,5.2.27,5.49,5.49,0,0,1,3,3.7,23.75,23.75,0,0,1,.77,4.2,12.67,12.67,0,0,1,.28,1.69,18.56,18.56,0,0,0,.5,2.51,8.42,8.42,0,0,0,6.84,6.43c3.61.79,8.23.34,13.93-1.22,5.91-1.61,10.28-4,13.16-7.13a12,12,0,0,0,3.06-11,10.13,10.13,0,0,0-3.77-6.19,20,20,0,0,0-7-3.37c-2.69-.72-6.44-1.5-11.27-2.3a130.88,130.88,0,0,1-15.49-3.18A31.55,31.55,0,0,1,18,73.6a24.25,24.25,0,0,1-7.64-12.55,26.16,26.16,0,0,1,.34-16.16A27.31,27.31,0,0,1,21.24,31.74c5.19-3.62,11.79-6.17,19.7-7.55A49.35,49.35,0,0,1,57.67,24a27.29,27.29,0,0,1,13.14,5.75A18.76,18.76,0,0,1,77.32,41.4q1.25,7.14-.32,11.11a7.07,7.07,0,0,1-5.77,4.69,7.37,7.37,0,0,1-5.34-1,6,6,0,0,1-2.87-4,21.48,21.48,0,0,1-.44-4.06q-.33-3.49-.51-4.41c-.63-3.2-2.72-5.38-6.3-6.51a26.17,26.17,0,0,0-12.64-.39c-6.8,1.27-11.71,3.56-14.68,6.77a11.7,11.7,0,0,0-2.72,11.5,12,12,0,0,0,4.6,7,23.62,23.62,0,0,0,7.93,3.7c3,.79,7.06,1.62,12.22,2.53A126.39,126.39,0,0,1,65.54,72a27.1,27.1,0,0,1,10.23,6.08,19.85,19.85,0,0,1,5.78,11.37c1.62,9-.35,16.44-5.61,22.74S63,123,52.85,125.93C43.82,128.55,36.16,128.89,29.62,126.7Z"/><path class="cls-3" d="M152.85,82.65a6.58,6.58,0,0,1,1.05,3.48A10.09,10.09,0,0,1,152.3,93,69.32,69.32,0,0,1,143,103.41a21,21,0,0,1-11.27,5.23c-3.55.51-6.36-.15-8.44-2s-3.38-4.9-3.89-9a68,68,0,0,1,.16-11.27,59.92,59.92,0,0,0,.27-9.8c-.14-1.17-.61-1.71-1.43-1.61s-2.18,1.51-3.63,4.22a51.57,51.57,0,0,0-4,10.58,77.37,77.37,0,0,0-2.38,13.61c-.5,6.18-3.32,9.76-8.5,10.8-2.08.41-3.57-.11-4.5-1.59s-1.75-4.34-2.45-8.55q-.6-3.61-.86-5.78-.69-4.53-1.4-9.06a188.21,188.21,0,0,1-2.41-36.77c.4-12.88,2.44-23.84,6.19-32.78s9.31-13.6,16.41-14a11.9,11.9,0,0,1,9.69,3.85,18.13,18.13,0,0,1,4.64,11.05c.74,7.38-.86,15.13-4.57,23.47s-10,18.38-18.26,30.62c.34,3.91.82,7.91,1.41,12a59.15,59.15,0,0,1,6-16.61,29.88,29.88,0,0,1,8-9.53,16.43,16.43,0,0,1,8-3.35c4.95-.44,7.66,1.74,8.1,6.46.27,2.83-.09,8-1,15.62-.77,6.48-1,10.77-.81,12.81q.45,4.38,3.55,4c1.43-.18,3-1.27,4.85-3.26a113.69,113.69,0,0,0,7.27-9.39,3.9,3.9,0,0,1,2.84-1.75A2.51,2.51,0,0,1,152.85,82.65ZM105.49,22.74a83.2,83.2,0,0,0-3,15.94,179.29,179.29,0,0,0-.9,21.7,90.27,90.27,0,0,0,9.47-19c2.37-6.65,3.32-12.5,2.71-17.65a14.17,14.17,0,0,0-1.49-5.35,2.84,2.84,0,0,0-2.66-1.7C108.16,16.76,106.77,18.78,105.49,22.74Z"/><path class="cls-3" d="M149.3,101.39c-2.33-3.08-3.74-7.37-4.18-12.86a76,76,0,0,1,.27-12.6,102,102,0,0,1,2.23-14.43A8.74,8.74,0,0,1,150,56.61c1.08-.92,2.89-1.44,5.41-1.55,3.89-.16,5.9,1,6,3.39.09,1.78-.43,5.92-1.48,12.45-1.36,7.92-1.9,13.3-1.74,16.08a11,11,0,0,0,1.15,4.85,2.93,2.93,0,0,0,3,1.48c1.29-.09,2.86-1.1,4.72-3s4.35-4.83,7.52-8.76A3.9,3.9,0,0,1,177.53,80a2.54,2.54,0,0,1,2.28,1.18,6.15,6.15,0,0,1,.9,3.42,9.64,9.64,0,0,1-1.91,6.58c-6.9,8.78-13.14,13.61-19.18,14.18C155.06,105.77,151.64,104.48,149.3,101.39Zm.45-55.28a7.57,7.57,0,0,1-2.86-5.76,7.38,7.38,0,0,1,2.8-6.41,12.21,12.21,0,0,1,8-2.7,12.44,12.44,0,0,1,7.22,1.83,6.45,6.45,0,0,1,2.94,5.38,8.1,8.1,0,0,1-2.75,6.77,12.2,12.2,0,0,1-7.88,2.7C154,48,151.47,47.44,149.75,46.11Z"/><path class="cls-3" d="M215.61,81a5.79,5.79,0,0,1,.7,3.34,9,9,0,0,1-2.29,6.2,52.76,52.76,0,0,1-10.25,8.83,23.54,23.54,0,0,1-12.17,3.81c-6.2.24-10.83-2.26-14-7.7s-5-12.63-5.32-21.56a131.19,131.19,0,0,1,2.63-29.32c2.11-10.93,5.58-20.24,10.45-27.8s10.93-11,17.92-10.51a11.65,11.65,0,0,1,9.18,5.29c2.16,3.2,3.13,7.58,2.95,13.16-.25,8-3.2,17.06-8.48,27.5a220.13,220.13,0,0,1-20.19,31.81c.54,2.83,1.4,4.83,2.56,6a5.91,5.91,0,0,0,4.54,1.69,13.59,13.59,0,0,0,7.8-2.52,69.31,69.31,0,0,0,8.78-8.14,4,4,0,0,1,3-1.36A2.58,2.58,0,0,1,215.61,81ZM194.13,24.46a110,110,0,0,0-5.92,21.11,133.33,133.33,0,0,0-2.46,24.5A160.26,160.26,0,0,0,198.54,46c3.31-7.93,5.1-15.12,5.2-21.73.07-5.17-1-7.84-3.29-8C198.58,16.16,196.45,18.87,194.13,24.46Z"/><path class="cls-3" d="M251.4,83a5.42,5.42,0,0,1,.51,3.25,8.47,8.47,0,0,1-2.64,5.81A53.2,53.2,0,0,1,238.52,100a24.33,24.33,0,0,1-12.4,3c-6.21-.13-10.7-2.79-13.58-8.2s-4.27-12.43-4.07-21a121.37,121.37,0,0,1,4.32-28c2.74-10.38,6.73-19.11,12-26.08s11.54-9.94,18.48-9a11.77,11.77,0,0,1,8.86,5.64c2,3.21,2.7,7.47,2.2,12.82-.71,7.67-4.17,16.17-10,25.86a210.91,210.91,0,0,1-22,29.34q.57,4.13,2.22,5.92A6,6,0,0,0,229,92.06a14,14,0,0,0,7.94-2,69.38,69.38,0,0,0,9.24-7.3,4.11,4.11,0,0,1,3.09-1.12A2.6,2.6,0,0,1,251.4,83Zm-18.23-55.6A102.68,102.68,0,0,0,226,47.35a124.68,124.68,0,0,0-3.86,23.38,152.18,152.18,0,0,0,14.16-22.36c3.76-7.41,6-14.2,6.43-20.54.37-5-.57-7.59-2.83-7.87C238.09,19.73,235.81,22.2,233.17,27.43Z"/><path class="cls-3" d="M243.29,99.12c-2.27-3.06-3.25-7-2.89-11.72a28.29,28.29,0,0,1,5.28-14.46A30,30,0,0,1,257.8,63a27,27,0,0,1,15.29-2.2c1.67.24,2.75.68,3.24,1.29a6.29,6.29,0,0,1,1,3.06,27.55,27.55,0,0,1,4.8.35,6.88,6.88,0,0,1,4,1.78,3.72,3.72,0,0,1,1,3.36,42.67,42.67,0,0,1-2.25,7.2q-2.08,5.44-3.5,10.49A91.4,91.4,0,0,0,279,99.71q-.52,3.51-2.39,4.86c-1.25.9-3.1,1.23-5.57,1s-4.12-.91-5.15-2-1.42-2.87-1.14-5.21l.3-1.5c-2.9,5.2-7,7.62-12.34,7.27A12.18,12.18,0,0,1,243.29,99.12Zm20.56-7.61c2-2.3,4-6.51,6.11-12.62q1.67-4.62,3.35-9.22a14.25,14.25,0,0,0-8.88,1.89,20.1,20.1,0,0,0-7.08,7A23.23,23.23,0,0,0,254,88.49a6.58,6.58,0,0,0,.8,4.46,4,4,0,0,0,3.13,1.76C259.93,94.88,261.9,93.81,263.85,91.51Z"/><path class="cls-3" d="M306.3,53.68a3.24,3.24,0,0,1-1-3.19,6.4,6.4,0,0,1,.69-1.82,67.61,67.61,0,0,0,3.33-7.23,44.24,44.24,0,0,0,2.1-7.66q.82-4.5,4.09-6.23a10.47,10.47,0,0,1,7.72-.56c2.88.75,4.93,1.91,6.16,3.44a5.93,5.93,0,0,1,1.2,5.19c-.45,2-1.87,4.52-4.23,7.49a73.23,73.23,0,0,1-8,8.5,23.65,23.65,0,0,1-4.5,3.52,5.5,5.5,0,0,1-3.71.31A8.11,8.11,0,0,1,306.3,53.68Z"/><path class="cls-3" d="M324.14,113c-1.6-1.74-2.21-3.47-1.8-5.2a5.17,5.17,0,0,1,2.93-3.48,9.59,9.59,0,0,1,6.37-.38,30.21,30.21,0,0,1,3.2.92c1.21.41,2.12.72,2.75.92a9,9,0,0,0-.16-4.41A19.81,19.81,0,0,0,335.55,97q-1.28-2.22-2.45-3.93a71.1,71.1,0,0,1-8.67,7,94,94,0,0,1-8.56,5,6.72,6.72,0,0,1-4.38.86,3.77,3.77,0,0,1-2.55-1.49,3.32,3.32,0,0,1-.55-2.7,4.78,4.78,0,0,1,2.17-3l1.69-1.15c4.79-3.27,8.52-5.9,11.13-8a64.17,64.17,0,0,0,5.38-5.09c1.9-2,4.42-4.69,7.62-8.07,2-2.15,5.29-2.65,9.76-1.45a15.3,15.3,0,0,1,4.24,1.6c.74.5,1,1.06.87,1.67a5.11,5.11,0,0,1-.88,1.46,12,12,0,0,1-1.81,1.84,10.26,10.26,0,0,0-3.36,4.58,4.86,4.86,0,0,0,.42,3.06,33.59,33.59,0,0,0,2.52,4.66,51.75,51.75,0,0,1,3.57,7.26,9,9,0,0,1,.24,5.76,12.72,12.72,0,0,1-3.95,6,17.16,17.16,0,0,1-7.13,3.7,19.4,19.4,0,0,1-8.89.15C328.35,116,325.74,114.76,324.14,113Z"/><path class="cls-1" d="M434.41,115.74a6.47,6.47,0,0,1,.26,3.53,7.76,7.76,0,0,1-1.51,3.82,4.36,4.36,0,0,1-3,1.45,57.68,57.68,0,0,1-16.31-.53,25.28,25.28,0,0,1-12,11.73,24,24,0,0,1-16.27,1.67c-8.3-2-13.64-6.29-15.89-12.48s-1.9-14.16.93-23.9A134.63,134.63,0,0,1,382.29,74a99.14,99.14,0,0,1,17.12-23.2c6.18-6,12-8.38,17.9-7a9.43,9.43,0,0,1,6.79,5.72c1.38,3.1,1.65,6.78.77,11.07A43.49,43.49,0,0,1,418,76.44c-3.45,5-8.53,10-15.39,14.7a19.09,19.09,0,0,1,11.18,8.43,22.94,22.94,0,0,1,3.2,13.91,72,72,0,0,0,13.58.44,6.55,6.55,0,0,1,1.68.08A2.71,2.71,0,0,1,434.41,115.74Zm-38.43,10a13.5,13.5,0,0,0,5.59-6.73,15,15,0,0,1-4.52-14.65,22.87,22.87,0,0,1,1.39-3.74l-.35-.08a10.11,10.11,0,0,0-8.93,2.13c-2.83,2.18-4.86,5.55-6.06,10.11-1,3.84-.92,7,.29,9.44a8,8,0,0,0,5.32,4.57A9.71,9.71,0,0,0,396,125.76Zm10.56-67.6a104.92,104.92,0,0,0-8.77,15.16A215.18,215.18,0,0,0,388.63,95a180.71,180.71,0,0,0,17.21-18.65c4.38-5.57,7.05-10.83,8.16-15.7a12.68,12.68,0,0,0,.35-5.16c-.27-1.27-.86-2-1.77-2.23C411.18,52.9,409.18,54.55,406.54,58.16Z"/><path class="cls-1" d="M423.2,140.65c-2.5-3.63-3.23-7.94-2.28-12.92A30.83,30.83,0,0,1,428.2,113a36.75,36.75,0,0,1,13.49-9.86,29.41,29.41,0,0,1,15.68-2.3c1.69.22,2.78.66,3.28,1.31a7.26,7.26,0,0,1,1.05,3.34,32.15,32.15,0,0,1,5.15.18q5.67.63,5.3,4.24a67,67,0,0,1-2.84,10.19c-2.67,7.75-4.23,13.16-4.57,16.27a3.4,3.4,0,0,0,.64,2.59,3.27,3.27,0,0,0,2.3,1.19c1.56.16,3.54-.49,5.91-2a82.58,82.58,0,0,0,9.61-7.47,4.6,4.6,0,0,1,3.37-1.21,2.93,2.93,0,0,1,2.39,1.43,5.72,5.72,0,0,1,.68,3.49,8.6,8.6,0,0,1-2.78,6.29,53.23,53.23,0,0,1-11.51,8.05,20.32,20.32,0,0,1-11.5,2.52,13,13,0,0,1-7.3-3.21,14.15,14.15,0,0,1-4.34-7c-5,5.22-10.93,7.35-17.51,6.3C429.54,146.55,425.69,144.28,423.2,140.65Zm23.11-4.91a16.07,16.07,0,0,0,4.52-6.63q3.53-9.2,6.92-18.43a15.88,15.88,0,0,0-9.53,2,23.35,23.35,0,0,0-7.93,7.29,25.23,25.23,0,0,0-4.27,10.5,6.54,6.54,0,0,0,.77,5,5.67,5.67,0,0,0,4,2.2C442.57,137.94,444.42,137.29,446.31,135.74Z"/><path class="cls-1" d="M491.56,153.46q-3.3-2.72-3.07-5.84a6,6,0,0,1,2.66-4.52c1.65-1.22,4-1.73,7-1.57a32.22,32.22,0,0,1,3.75.44c1.42.24,2.51.41,3.25.51a11.84,11.84,0,0,0-1.2-5.16,26.64,26.64,0,0,0-3-4.78q-1.83-2.34-3.42-4.09a60.77,60.77,0,0,1-8.1,9.73,72.61,72.61,0,0,1-8.78,7.08,7.21,7.21,0,0,1-4.88,1.46,4.46,4.46,0,0,1-3.12-1.5,4,4,0,0,1-1-3.07,5.47,5.47,0,0,1,2.1-3.67l1.74-1.52a109.57,109.57,0,0,0,11-10.79,90.74,90.74,0,0,0,5.33-7.72q3.06-4.86,5.92-10.13c1.65-3,4.76-4.32,9.37-4.14a13.88,13.88,0,0,1,4.48.68,1.74,1.74,0,0,1,1.22,1.71,6.75,6.75,0,0,1-.52,2A13.8,13.8,0,0,1,511,111.2a14,14,0,0,0-2.33,6.28,6.31,6.31,0,0,0,1.13,3.48,36.1,36.1,0,0,0,3.73,4.81,74.45,74.45,0,0,1,5.69,7.58,12.25,12.25,0,0,1,1.91,6.75,24.37,24.37,0,0,1-.29,2.91c4-1.26,8.82-4.75,14.1-10.5a4.55,4.55,0,0,1,3.25-1.5,2.9,2.9,0,0,1,2.5,1.21,5.7,5.7,0,0,1,1,3.42,9,9,0,0,1-2.2,6.5c-4,4.39-8,7.35-11.8,8.9a37.24,37.24,0,0,1-14.15,2.35,19.57,19.57,0,0,1-12.1,3.11C497.06,156.3,493.76,155.27,491.56,153.46Z"/><path class="cls-1" d="M604.19,127.42a5.77,5.77,0,0,1,1.36,3.29,8.58,8.58,0,0,1-1.48,6.71,52.22,52.22,0,0,1-10.16,10.45,25.38,25.38,0,0,1-13.31,4.76c-6.45.55-11.77-.62-15.86-3.44a14.49,14.49,0,0,1-6.48-11.85c-.14-2.71,1.39-4.73,4.55-6.1a21.39,21.39,0,0,0,7.32-4.7,7.36,7.36,0,0,0,1.87-5.63,4,4,0,0,0-1.1-2.74,2.92,2.92,0,0,0-2.26-.77c-2.13.15-4.37,1.65-6.8,4.5a49.61,49.61,0,0,0-6.73,10.84,73,73,0,0,0-4.87,13.39q-1.2,5-3,6.72c-1.17,1.18-3.07,1.81-5.67,1.86s-4.53-.7-5.76-2.25-2.06-4-2.5-7.22a122.31,122.31,0,0,1-.71-14.37A171.66,171.66,0,0,1,536,97.38c2.25-11.63,5.49-21.43,9.65-29.45s9.1-12.19,15.13-12.57a9.5,9.5,0,0,1,8.15,3.55c2.23,2.57,3.55,6,3.92,10.39.6,7-.91,14.44-4.79,22.28s-10.64,17.12-20.82,27.54c-.11,3.62-.12,7.34,0,11.16,3.6-8.81,7.64-15.28,12.25-19.46s8.92-6.45,13.07-6.78a12.93,12.93,0,0,1,9.62,2.71,12,12,0,0,1,4.44,8.35,17.64,17.64,0,0,1-2.29,10.81c-1.93,3.4-5.53,6.61-10.87,9.52a6.64,6.64,0,0,0,3.35,4.28,10.47,10.47,0,0,0,6.24,1.19,12.54,12.54,0,0,0,7.13-3.22,66.51,66.51,0,0,0,8.3-9.33,4.56,4.56,0,0,1,3.07-1.85A3,3,0,0,1,604.19,127.42Zm-49-56a97,97,0,0,0-4,14.69c-1.27,6.14-2.3,12.79-3,20A66.11,66.11,0,0,0,559,89c2.69-6.14,3.8-11.65,3.49-16.5a13.63,13.63,0,0,0-1.09-5,2.39,2.39,0,0,0-2.25-1.64C557.9,65.88,556.57,67.74,555.16,71.39Z"/><path class="cls-1" d="M651.29,119.23a5.7,5.7,0,0,1,1.63,3.17,8.59,8.59,0,0,1-.92,6.81,41.74,41.74,0,0,1-11.07,11.07,39.85,39.85,0,0,1-17.25,7.05c-8.74,1.39-15.83.33-21.11-3s-8.25-8.46-9-15.3a27.48,27.48,0,0,1,1.93-13.7,27.1,27.1,0,0,1,8.15-11,26.75,26.75,0,0,1,12.87-5.6c4.43-.71,8.17-.16,11.28,1.72a12.42,12.42,0,0,1,5.83,8.83A15.55,15.55,0,0,1,630,122.54c-3.34,4.08-9.63,7.94-18.94,11.31,2.48,2.88,6.61,3.9,12.33,3a29.44,29.44,0,0,0,12-5.4,38.06,38.06,0,0,0,10.34-10.78,4.57,4.57,0,0,1,2.92-2.1A2.94,2.94,0,0,1,651.29,119.23Zm-41.81-4.53A19,19,0,0,0,608,125.86l0,.21a28.21,28.21,0,0,0,10.48-6c2.39-2.35,3.36-4.8,2.94-7.34a4.22,4.22,0,0,0-1.75-2.93,4.67,4.67,0,0,0-3.52-.65C613.26,109.62,611.06,111.46,609.48,114.7Z"/><path class="cls-1" d="M658.33,100.54q1,5.13,1.64,8a57.48,57.48,0,0,0,3.6,11.2q1.88,3.89,4.41,5.15a8.94,8.94,0,0,0,6.29.31,13.51,13.51,0,0,0,4.32-2.19,19.77,19.77,0,0,0,4.09-3.91,4.53,4.53,0,0,1,2.35-1.72,2.82,2.82,0,0,1,2.71.7,6,6,0,0,1,1.81,3,8.3,8.3,0,0,1,.15,4,8,8,0,0,1-1.88,3.77,24.84,24.84,0,0,1-13.3,8.14c-7.81,2-14.18.55-18.93-4.06s-8-11.31-9.81-20c-.63-3-1.14-6-1.55-9.15l-4.52.93c-2.32.48-4,.4-4.92-.2a4.69,4.69,0,0,1-1.9-3.35c-.72-3.82.62-6,4-6.73q3.26-.65,6.48-1.34a104.26,104.26,0,0,1,1.32-21.73,50.63,50.63,0,0,1,5.63-16.83c2.6-4.49,5.82-7.24,9.77-8.3A8.28,8.28,0,0,1,668,48a17.1,17.1,0,0,1,5.19,8.6c3,10.33.94,20.75-6.83,31Q672.68,86,679,84.19a4,4,0,0,1,2.78,0,3.58,3.58,0,0,1,1.54,2.37c1.35,4.59-2.27,8.2-10.93,10.5Q665.37,98.87,658.33,100.54Zm-1.09-39.27a57.35,57.35,0,0,0-1.17,11.46,149.76,149.76,0,0,0,.57,15.68,34.1,34.1,0,0,0,7-14,26.62,26.62,0,0,0,.14-12.48c-1-4-2.36-5.73-3.91-5.33C658.78,56.84,657.92,58.41,657.24,61.27Z"/><path class="cls-4" d="M162.3,20.26a10.89,10.89,0,0,1,6.62,3.21c3,2.88,3.54,6.47,3.86,8.62a14.49,14.49,0,0,1-.85,8.7c-.51,1.08-2.09,4.46-5.44,5.76-2,.79-3.06.17-7,.91a31.23,31.23,0,0,0-4.32,1.15h-.08c-4.49.1-8.66-4.08-10.62-7.81a15,15,0,0,1-1.39-10.73,10.43,10.43,0,0,1,3.59-5.78,13.81,13.81,0,0,1,3.61-1.63,40.8,40.8,0,0,1,7.62-2A16.41,16.41,0,0,1,162.3,20.26Z"/><ellipse class="cls-5" cx="156.88" cy="24.55" rx="8.13" ry="3" transform="matrix(1, -0.08, 0.08, 1, -1.41, 12.01)"/><ellipse class="cls-6" cx="156.85" cy="24.66" rx="5.27" ry="1.98" transform="translate(-1.34 11.06) rotate(-4.02)"/><path class="cls-1" d="M158.83,17.45a11.53,11.53,0,0,0-1,3.35c-.19,2.07.72,3.16,0,3.85a1.32,1.32,0,0,1-1.31.24c-.53-.2-.6-1-.64-1.84a24.12,24.12,0,0,1,.39-5.75c.49-2.74.72-3.2,1.18-3.39a1.81,1.81,0,0,1,2.13.83C159.89,15.35,159.46,15.85,158.83,17.45Z"/><path class="cls-7" d="M156.54,19.58a3.69,3.69,0,0,0,.09-2,4.35,4.35,0,0,0-2.23-2.73A9.86,9.86,0,0,0,151,13.63c-2.08-.32-2.4.34-4.27,0-2.51-.44-4.52-2.09-4.78-1.72h0a9.88,9.88,0,0,0,.13,1.63,10,10,0,0,0,1.82,4.1c1.32,1.87,3.11,4.38,6.18,4.79C152.61,22.8,155.79,21.66,156.54,19.58Z"/><path class="cls-3" d="M156.32,20.11a3.9,3.9,0,0,0,.43-2.57c-.58-2.62-4.41-3.61-5-3.76-3-.76-3.61.55-6.24-.49-1.35-.54-3.29-1.71-3.53-1.39v0a27,27,0,0,0,7.67,5.84A27.5,27.5,0,0,0,156.32,20.11Z"/><ellipse class="cls-8" cx="158.44" cy="14.74" rx="0.75" ry="1.25" transform="translate(78.52 152.34) rotate(-65.17)"/><path class="cls-9" d="M146,40.75a14.58,14.58,0,0,1-2-6.62c-.09-1.59-.28-4.66,1.34-6a1.88,1.88,0,0,1,1.2-.5c1.68.21-.68,5.66,1.27,10.07,1.57,3.53,5.12,4.67,4.25,6.59a1.74,1.74,0,0,1-.64.76C149.87,46,147.24,42.81,146,40.75Z"/></svg>