<svg xmlns="http://www.w3.org/2000/svg" xmlns:xlink="http://www.w3.org/1999/xlink" width="300" height="169.7" viewBox="0 0 300 169.7"><defs><style>.cls-1{fill:#603813;}.cls-2{fill:url(#linear-gradient);}.cls-3{fill:#42210b;}.cls-3,.cls-4{stroke:#42210b;}.cls-3,.cls-4,.cls-5{stroke-miterlimit:10;stroke-width:10px;}.cls-4{fill:none;}.cls-5{fill:#c69c6d;stroke:#c69c6d;}</style><linearGradient id="linear-gradient" x1="7.42" y1="79.69" x2="292.58" y2="79.69" gradientUnits="userSpaceOnUse"><stop offset="0.14" stop-color="#a67c52"/><stop offset="1" stop-color="#754c24"/></linearGradient></defs><g id="Layer_1" data-name="Layer 1"><path class="cls-1" d="M298.83,169.7H0V142.76L11.36,125,0,112.37l.78-51.6L8.22,51.6,0,42.66V0L300,2.87l-1.17,19.87L293,32.11l5.88,8V96.57l-11.75,14.65,11.75,13Z"/><path class="cls-2" d="M291.47,159.38H7.42v-25.3l10.79-16.7q-5.4-5.91-10.79-11.84.38-24.24.74-48.46l7.08-8.62q-3.91-4.2-7.82-8.39V0L292.58,2.69l-1.11,18.67q-2.81,4.39-5.59,8.79,2.79,3.78,5.59,7.54v53L280.3,104.46l11.17,12.23Z"/><ellipse class="cls-3" cx="111.79" cy="123.69" rx="14.25" ry="9.13" transform="translate(-46.87 72.46) rotate(-30)"/><ellipse class="cls-3" cx="186.12" cy="106.6" rx="14.25" ry="9.13" transform="translate(-28.37 107.34) rotate(-30)"/><line class="cls-4" x1="114.34" y1="112.37" x2="113.61" y2="37.84"/><line class="cls-4" x1="188.87" y1="96.29" x2="188.87" y2="24.69"/><rect class="cls-4" x="112.87" y="27.52" width="76.96" height="5.85" rx="2.92" transform="translate(-3.02 28.5) rotate(-10.65)"/><ellipse class="cls-5" cx="113.88" cy="125.63" rx="14.25" ry="9.13" transform="translate(-47.56 73.77) rotate(-30)"/><ellipse class="cls-5" cx="188.21" cy="108.54" rx="14.25" ry="9.13" transform="matrix(0.87, -0.5, 0.5, 0.87, -29.05, 108.65)"/><line class="cls-5" x1="116.44" y1="114.31" x2="115.71" y2="39.78"/><line class="cls-5" x1="190.97" y1="98.23" x2="190.97" y2="26.63"/><rect class="cls-5" x="114.97" y="29.46" width="76.96" height="5.85" rx="2.92" transform="translate(-3.34 28.92) rotate(-10.65)"/></g></svg>