<svg xmlns="http://www.w3.org/2000/svg" xmlns:xlink="http://www.w3.org/1999/xlink" width="300" height="115.93" viewBox="0 0 300 115.93"><defs><style>.cls-1{fill:#603813;}.cls-2{fill:url(#linear-gradient);}.cls-3{fill:#42210b;}</style><linearGradient id="linear-gradient" x1="7.42" y1="54.44" x2="292.58" y2="54.44" gradientUnits="userSpaceOnUse"><stop offset="0.14" stop-color="#a67c52"/><stop offset="1" stop-color="#754c24"/></linearGradient></defs><g id="Layer_1" data-name="Layer 1"><path class="cls-1" d="M298.83,115.93H0V97.52L11.36,85.38,0,76.76.78,41.51l7.44-6.26L0,29.14V0L300,2l-1.17,13.57L293,21.93l5.88,5.49V66L287.08,76l11.75,8.89Z"/><path class="cls-2" d="M291.47,108.88H7.42V91.59l10.79-11.4L7.42,72.09Q7.8,55.55,8.16,39l7.08-5.89L7.42,27.37V0L292.58,1.84l-1.11,12.75c-1.87,2-3.73,4-5.59,6l5.59,5.15V62l-11.17,9.4,11.17,8.35Z"/><path class="cls-3" d="M91.69,34.46h22.57q7.14,0,11,3.62a11.81,11.81,0,0,1,3.83,9,12.14,12.14,0,0,1-3.63,8.88,11.89,11.89,0,0,1-8.76,3.66,14,14,0,0,1-8.51-3.24V71.68H91.69Zm16.47,8V50.6a5.33,5.33,0,0,0,1.36.2,4,4,0,0,0,3-1.17,4.22,4.22,0,0,0,1.14-3.07,4.29,4.29,0,0,0-1-3,3.58,3.58,0,0,0-2.79-1.08Z"/><path class="cls-3" d="M147.48,71.68H132.41V34.46h15.07Z"/><path class="cls-3" d="M153.48,54.39V45.56A29.69,29.69,0,0,1,168,42.07q7.71,0,11.37,3.29T183,55.43V71.68H167.92V69.49a12.2,12.2,0,0,1-7.34,2.43A7.72,7.72,0,0,1,155,69.74a7.33,7.33,0,0,1-2.24-5.5,7.72,7.72,0,0,1,2.78-6.16,10.81,10.81,0,0,1,7.27-2.38,19.3,19.3,0,0,1,5.14.69,3.72,3.72,0,0,0-1.57-3.2A7.36,7.36,0,0,0,162,52,17.77,17.77,0,0,0,153.48,54.39Zm14.44,10.8v-4.1a8,8,0,0,0-2.46-.46,3.3,3.3,0,0,0-2.2.71,2.32,2.32,0,0,0-.83,1.85,2.58,2.58,0,0,0,.89,2,3.25,3.25,0,0,0,2.26.81A3.47,3.47,0,0,0,167.92,65.19Z"/><path class="cls-3" d="M204.63,79.93H188.24l6-14.3L184,42.31h15l3.54,7.83,3.39-7.83h14.63Z"/></g></svg>