<svg xmlns="http://www.w3.org/2000/svg" xmlns:xlink="http://www.w3.org/1999/xlink" width="318.3" height="113.63" viewBox="0 0 318.3 113.63"><defs><style>.cls-1{fill:#603813;}.cls-2{fill:url(#linear-gradient);}.cls-3{fill:#42210b;}</style><linearGradient id="linear-gradient" x1="7.87" y1="53.36" x2="310.43" y2="53.36" gradientUnits="userSpaceOnUse"><stop offset="0.14" stop-color="#a67c52"/><stop offset="1" stop-color="#754c24"/></linearGradient></defs><g id="Layer_4" data-name="Layer 4"><path class="cls-1" d="M317.05,113.63H0v-18l12.05-11.9L0,75.24Q.42,58,.83,40.69l7.9-6.14L0,28.57V0L318.3,1.92q-.63,6.65-1.25,13.31l-6.23,6.27,6.23,5.37V64.66l-12.46,9.81,12.46,8.72Z"/><path class="cls-2" d="M309.24,106.72H7.87v-17L19.32,78.6q-5.71-4-11.45-7.93.39-16.23.79-32.45l7.5-5.77L7.87,26.83V0L310.43,1.8q-.6,6.26-1.19,12.5l-5.92,5.89,5.92,5V60.73L297.4,69.94l11.84,8.19Z"/><path class="cls-3" d="M25.22,39.52H44.63q6.13,0,9.43,2.88a9.06,9.06,0,0,1,3.3,7.12,9.26,9.26,0,0,1-3.13,7,10.65,10.65,0,0,1-7.53,2.91,12.62,12.62,0,0,1-7.32-2.58V69.09H25.22Zm14.16,6.39v6.44a5.09,5.09,0,0,0,1.18.15,3.62,3.62,0,0,0,2.58-.93,3.61,3.61,0,0,0,.14-4.79,3.16,3.16,0,0,0-2.39-.87Z"/><path class="cls-3" d="M73.19,69.09h-13V39.52h13Z"/><path class="cls-3" d="M78.35,55.35v-7a27.29,27.29,0,0,1,12.46-2.78q6.63,0,9.78,2.62t3.14,8V69.09h-13V67.34a11,11,0,0,1-6.31,1.94,7,7,0,0,1-4.83-1.73,5.65,5.65,0,0,1-1.93-4.37,6,6,0,0,1,2.39-4.89,9.81,9.81,0,0,1,6.26-1.89,18.13,18.13,0,0,1,4.42.54,2.9,2.9,0,0,0-1.35-2.54,6.67,6.67,0,0,0-3.77-.91A16.33,16.33,0,0,0,78.35,55.35Zm12.42,8.58V60.68a7,7,0,0,0-2.12-.37,3,3,0,0,0-1.89.56,1.81,1.81,0,0,0-.71,1.48,2,2,0,0,0,.77,1.58,2.89,2.89,0,0,0,1.94.64A3.14,3.14,0,0,0,90.77,63.93Z"/><path class="cls-3" d="M122.34,75.64h-14.1l5.21-11.36-8.9-18.52h12.9l3,6.22,2.92-6.22H136Z"/><path class="cls-3" d="M153.15,55.35v-7a27.26,27.26,0,0,1,12.46-2.78q6.63,0,9.77,2.62t3.15,8V69.09h-13V67.34a11,11,0,0,1-6.32,1.94,7,7,0,0,1-4.82-1.73,5.61,5.61,0,0,1-1.93-4.37,6,6,0,0,1,2.39-4.89,9.8,9.8,0,0,1,6.25-1.89,18.22,18.22,0,0,1,4.43.54,2.9,2.9,0,0,0-1.35-2.54,6.69,6.69,0,0,0-3.77-.91A16.3,16.3,0,0,0,153.15,55.35Zm12.42,8.58V60.68a7.06,7.06,0,0,0-2.12-.37,3,3,0,0,0-1.89.56,1.81,1.81,0,0,0-.71,1.48,2,2,0,0,0,.76,1.58,2.91,2.91,0,0,0,1.94.64A3.17,3.17,0,0,0,165.57,63.93Z"/><path class="cls-3" d="M211.27,45.8V64.09q0,6-3.3,8.77t-10.23,2.78q-9,0-15-3.37V61.67a15.05,15.05,0,0,0,10.32,4.16q5.23,0,5.24-3a3.5,3.5,0,0,0-.06-.62A10.43,10.43,0,0,1,193,63.49a11.07,11.07,0,0,1-7.48-2.4,8.11,8.11,0,0,1-2.78-6.44,8.46,8.46,0,0,1,1.19-4.56,7.67,7.67,0,0,1,2.77-2.78,10.87,10.87,0,0,1,3.51-1.19,44.82,44.82,0,0,1,6.55-.32Zm-13,6.55H198q-4.35,0-4.35,2.92a2.45,2.45,0,0,0,.78,1.91,3,3,0,0,0,2.06.71,2.91,2.91,0,0,0,1.8-.51Z"/><path class="cls-3" d="M216.2,55.35v-7a27.29,27.29,0,0,1,12.46-2.78q6.63,0,9.78,2.62t3.14,8V69.09h-13V67.34a11,11,0,0,1-6.31,1.94,7,7,0,0,1-4.83-1.73,5.61,5.61,0,0,1-1.93-4.37,6,6,0,0,1,2.39-4.89,9.8,9.8,0,0,1,6.25-1.89,18.22,18.22,0,0,1,4.43.54,2.9,2.9,0,0,0-1.35-2.54,6.69,6.69,0,0,0-3.77-.91A16.3,16.3,0,0,0,216.2,55.35Zm12.42,8.58V60.68a7,7,0,0,0-2.12-.37,3,3,0,0,0-1.89.56,1.81,1.81,0,0,0-.71,1.48,2,2,0,0,0,.77,1.58,2.89,2.89,0,0,0,1.94.64A3.16,3.16,0,0,0,228.62,63.93Z"/><path class="cls-3" d="M259.41,45.76V69.09h-13V45.76a14.34,14.34,0,0,0,6.65,1.34A13.37,13.37,0,0,0,259.41,45.76Zm-3.73.08a3.69,3.69,0,0,1-2.6-1,3.14,3.14,0,0,1-1.09-2.4A3.11,3.11,0,0,1,253.08,40a3.88,3.88,0,0,1,5.18,0,3.16,3.16,0,0,1,1.07,2.39,3.19,3.19,0,0,1-1.07,2.4A3.66,3.66,0,0,1,255.68,45.84Z"/><path class="cls-3" d="M277.2,45.76v2.92A10.94,10.94,0,0,1,285,45.56q4.43,0,6.79,2.28t2.36,6.75v14.5H281.92V55.49c0-1.94-.8-2.91-2.39-2.91a4.3,4.3,0,0,0-2.33.75V69.09h-13V45.76Z"/></g></svg>