<svg xmlns="http://www.w3.org/2000/svg" xmlns:xlink="http://www.w3.org/1999/xlink" width="300" height="148.25" viewBox="0 0 300 148.25"><defs><style>.cls-1{fill:#603813;}.cls-2{fill:url(#linear-gradient);}.cls-3{fill:#ed1c24;}.cls-4{fill:#c1272d;}.cls-5{fill:#8d272d;}.cls-6{fill:#39b54a;}.cls-7{fill:#009245;}.cls-8{fill:#a67c52;}.cls-9{fill:#fff;opacity:0.3;}</style><linearGradient id="linear-gradient" x1="7.42" y1="69.62" x2="292.58" y2="69.62" gradientUnits="userSpaceOnUse"><stop offset="0.14" stop-color="#a67c52"/><stop offset="1" stop-color="#754c24"/></linearGradient></defs><g id="Layer_1" data-name="Layer 1"><path class="cls-1" d="M298.83,148.25H0V124.71l11.36-15.53L0,98.16.78,53.09l7.44-8L0,37.27V0L300,2.5l-1.17,17.36L293,28.05l5.88,7v49.3l-11.75,12.8,11.75,11.37Z"/><path class="cls-2" d="M291.47,139.23H7.42v-22.1l10.79-14.59L7.42,92.19Q7.8,71,8.16,49.86l7.08-7.53Q11.33,38.67,7.42,35V0L292.58,2.35l-1.11,16.31-5.59,7.68,5.59,6.59v46.3l-11.17,12,11.17,10.68Z"/><path class="cls-3" d="M247.79,45c11.85,2.76,19,12.3,20.73,14.63,8.47,11.32,8,23.51,7.75,30.78-.24,6.73-.6,17.61-8.47,28.19-2.41,3.24-10,13.43-22.34,15.68C238,135.69,234.81,133,220.78,133a110.47,110.47,0,0,0-15.59,1.14l-.28,0c-15.51-2.43-27.15-18.75-31.54-32.27-1.62-5-5.85-20.71,2.07-36.24,1.76-3.45,6.23-12.23,16-16.88,3.06-1.46,6.52-2,13.44-3.17,6.14-1,13.32-1.92,27.48-1.87C243.05,43.75,246.47,44.73,247.79,45Z"/><ellipse class="cls-4" cx="226.45" cy="55.86" rx="10.07" ry="28.4" transform="translate(147.91 275.47) rotate(-84.18)"/><ellipse class="cls-5" cx="226.25" cy="56.21" rx="6.63" ry="18.42" transform="translate(146.14 275.14) rotate(-83.86)"/><path class="cls-1" d="M237.67,33.64c-2.74,4.19-4.53,6.93-5.55,10.44-2,6.72.46,10.88-2.35,12.71a4.74,4.74,0,0,1-4.66,0c-1.69-1-1.4-3.68-1-6.45a77,77,0,0,1,5-18.74c3.42-8.71,4.51-10.09,6.21-10.44,2.67-.56,6.18,1.54,6.79,4C242.66,27.36,240.85,28.77,237.67,33.64Z"/><path class="cls-6" d="M228.45,39.28A12,12,0,0,0,230,32.69c-.29-6-5-9.72-5.91-10.37a35,35,0,0,0-11-6.08c-6.92-2.31-8.47-.34-14.68-2.56-8.33-3-14.2-9.68-15.34-8.62t0,0a29.23,29.23,0,0,0-.59,5.47,32.8,32.8,0,0,0,3.62,14.64c3.38,7,7.93,16.32,18.2,19.58C212.88,47.5,224.54,45.67,228.45,39.28Z"/><path class="cls-7" d="M227.36,40.88a12.89,12.89,0,0,0,3.09-8.21c-.31-9-12.85-14.59-14.83-15.47-9.73-4.34-12.73-.4-21.12-5.44-4.3-2.58-10.23-7.64-11.24-6.71l0,0A91.82,91.82,0,0,0,205.9,29,95.75,95.75,0,0,0,227.36,40.88Z"/><ellipse class="cls-8" cx="238.05" cy="24.47" rx="2.55" ry="4.32" transform="matrix(0.55, -0.84, 0.84, 0.55, 87.79, 210.72)"/><path class="cls-9" d="M178.68,102.63a46.54,46.54,0,0,1-2.64-23c.68-5.32,2-15.56,8.4-18.84.75-.38,2.81-1.44,4.44-.94,5.64,1.73-5.95,18.28-2,34,3.12,12.59,14.62,18.53,10.38,24.33a6,6,0,0,1-2.67,2.11C188.69,122.3,181.64,110.21,178.68,102.63Z"/></g></svg>