<svg id="Layer_2" data-name="Layer 2" xmlns="http://www.w3.org/2000/svg" xmlns:xlink="http://www.w3.org/1999/xlink" width="510.38" height="435" viewBox="0 0 510.38 435"><defs><style>.cls-1{fill:url(#radial-gradient);}.cls-2{fill:url(#radial-gradient-2);}.cls-3{fill:url(#radial-gradient-3);}.cls-4{fill:#ffada8;}.cls-5{fill:#ffd9ce;}.cls-6{fill:url(#radial-gradient-4);}.cls-7{fill:#666;}.cls-8{fill:#ccc;}.cls-9{fill:url(#radial-gradient-5);}.cls-10{fill:url(#radial-gradient-6);}.cls-11{fill:url(#radial-gradient-7);}.cls-12{fill:#fff;}.cls-13{fill:#603813;}.cls-14{fill:#4d4d4d;}.cls-15{fill:#333;}.cls-16{fill:url(#radial-gradient-8);}.cls-17{fill:#858585;}.cls-18{fill:#999;}.cls-19{fill:url(#radial-gradient-9);}.cls-20{fill:url(#radial-gradient-10);}.cls-21{fill:gray;}.cls-22{fill:url(#radial-gradient-11);}</style><radialGradient id="radial-gradient" cx="202.83" cy="301.72" r="54.55" gradientUnits="userSpaceOnUse"><stop offset="0" stop-color="#ccc"/><stop offset="1" stop-color="#999"/></radialGradient><radialGradient id="radial-gradient-2" cx="300.17" cy="157.47" r="132.51" gradientTransform="translate(0.72 76.79) scale(1.02 1.03)" gradientUnits="userSpaceOnUse"><stop offset="0" stop-color="#fff"/><stop offset="0" stop-color="#ccc"/><stop offset="0" stop-color="#b3b3b3"/><stop offset="1" stop-color="#999"/></radialGradient><radialGradient id="radial-gradient-3" cx="260.54" cy="158.74" r="83.98" gradientUnits="userSpaceOnUse"><stop offset="0" stop-color="#ccc"/><stop offset="1" stop-color="gray"/></radialGradient><radialGradient id="radial-gradient-4" cx="321.35" cy="369.39" r="31.12" xlink:href="#radial-gradient"/><radialGradient id="radial-gradient-5" cx="43.64" cy="22.35" r="70.98" gradientTransform="translate(4.23 67.61) scale(1.04 1.02)" xlink:href="#radial-gradient-3"/><radialGradient id="radial-gradient-6" cx="100.98" cy="116.02" r="123.37" gradientTransform="translate(11.77 36.4) scale(1.1 1.02)" xlink:href="#radial-gradient-3"/><radialGradient id="radial-gradient-7" cx="390.63" cy="-441.08" r="19.87" gradientTransform="matrix(1.07, 0.04, -0.13, 1.24, -327.25, 629.07)" gradientUnits="userSpaceOnUse"><stop offset="0" stop-color="#fff"/><stop offset="1" stop-color="#666"/></radialGradient><radialGradient id="radial-gradient-8" cx="556.83" cy="73.65" r="22.01" gradientTransform="matrix(0.75, 0.03, -0.1, 0.99, -331.03, -22.64)" xlink:href="#radial-gradient-7"/><radialGradient id="radial-gradient-9" cx="399.14" cy="342.96" r="74.64" gradientUnits="userSpaceOnUse"><stop offset="0" stop-color="#fff"/><stop offset="0" stop-color="#ccc"/><stop offset="1" stop-color="#999"/></radialGradient><radialGradient id="radial-gradient-10" cx="2458.33" cy="-4360.81" r="24.59" gradientTransform="matrix(0.69, 0.73, 0.73, -0.69, 1971.04, -4463.97)" gradientUnits="userSpaceOnUse"><stop offset="0" stop-color="#fff"/><stop offset="1" stop-color="#4d4d4d"/></radialGradient><radialGradient id="radial-gradient-11" cx="241.55" cy="353.57" r="60.39" gradientUnits="userSpaceOnUse"><stop offset="0" stop-color="#fff"/><stop offset="0" stop-color="#b3b3b3"/><stop offset="0.01" stop-color="#ccc"/><stop offset="1" stop-color="#999"/></radialGradient></defs><path class="cls-1" d="M247,341.51c-.86,3.05-3,10.57-9.89,16.26a28.81,28.81,0,0,1-17.68,6.36c-9.21,0-15.54-4.63-19.79-7.77A46.94,46.94,0,0,1,184,335.85c-5.39-2.25-12.89-6.4-18.38-14.14-17.37-24.46-4.06-79.16,12.37-82.37,4-.77,8.5,11.91,10.68,13.08C218.27,268.28,255.39,311.49,247,341.51Z"/><path id="Body" class="cls-2" d="M463,227.85c-.2,14.66-.3,53.86-27.94,84.11-34.79,38.06-87.58,37.4-107.27,37-76.41-1.6-169.75-52.54-178-125.45-3.31-29.34,6.07-71.77,32.46-85.35,24.64-12.67,49.64,7.25,121.83,4.72,11.27-.4,20.52-1.23,26.59-1.87,41-18.17,84.75-14.71,109.72,9.72C463.6,173.43,463.25,207.07,463,227.85Z"/><g id="Dr_ureche" data-name="Dr ureche"><path class="cls-3" d="M292.54,154.61c-18.39,18.4-27.41,42.64-31.53,58-2.05,7.71-11.84,33.64-16,36.69-11.89,8.69-31.54-1.31-33.73-2.46-6.12-3.19-14.05-8.59-19-17.7-8.77-16.26-1.77-33.27,3-53.22,13.58-56.84-6.29-75,10.27-94.64,6.11-7.25,23.46-22.16,74.49-14.67,26.57,2.87,47.31,15.92,51.89,33.63a34.41,34.41,0,0,1,0,16.43C327.39,135.11,310.35,136.8,292.54,154.61Z"/><path class="cls-4" d="M265,168.53c-20.67,35.18-15.34,67.57-29.16,70.12-9,1.66-18.2-10.81-21.39-15.14-20.43-27.71-9.28-66.75-1.26-94.79,6.22-21.77,9.53-32.79,19.58-39.18,25.3-16.08,72.58,5,75.37,26C310.22,131.39,285.25,134,265,168.53Z"/><path class="cls-5" d="M262.45,144.52c-6.6,8.12-10,15.91-14.53,26.54-9.12,21.2-9.29,32.13-14.53,32.86s-11.22-9.45-13.91-15.8c-8.73-20.67-5.69-54.72,17-68.24,19.94-11.88,48.21-3.81,49.37,3.15C286.61,127.69,274.84,129.3,262.45,144.52Z"/></g><g id="Rightt_foot" data-name="Rightt foot"><path class="cls-6" d="M305.65,393.6c-5.77-1.82-18.46-5.81-19.47-13.91-.42-3.37,4.1-12.65,5.56-14.6,1.63-9,.47-11.82,2.09-20.85a.32.32,0,0,1-.06-.17q.18-2.31,61.94.17a93.2,93.2,0,0,0,0,15.29c.44,5.27,1.14,8,.69,13.21a34.92,34.92,0,0,1-2.08,9.74,25.5,25.5,0,0,1-4.87,8.34c-1.27,1.31-4.86,4.47-20.16,4.87C319.6,395.94,313.57,396.09,305.65,393.6Z"/><path class="cls-7" d="M302.51,382.07c-1.36,7.55-.3,9.28-5.58,7.06-7.77-3.26-11.5-5.68-8-13.26,3-6.46,5.32-8.75,10.13-6.88C302.9,370.49,303.87,374.52,302.51,382.07Z"/><path class="cls-8" d="M301.36,383.72c-1.3,7.21-.23,8.87-5.52,6.71-7.78-3.18-11.53-5.52-8.09-12.74,2.93-6.15,5.24-8.32,10.06-6.5C301.65,372.65,302.65,376.51,301.36,383.72Z"/><path class="cls-7" d="M323.13,384.41c0,6.35,1.54,10-4.77,8.74-11.4-2.38-15.38.4-12.62-11.83,1.65-7.28,4.91-11.18,12.13-9.4C321.81,372.89,323.13,378.06,323.13,384.41Z"/><path class="cls-8" d="M322,386.33c0,6.35,1.53,10.05-4.77,8.74-11.41-2.38-15.39.4-12.62-11.83,1.64-7.28,4.9-11.18,12.13-9.4C320.62,374.81,322,380,322,386.33Z"/><path class="cls-7" d="M345.6,382c.89,7.65,2,9.43-5.29,9.86-13.43.78-13.64,3.05-12.73-11.75.47-7.65,5.18-9.57,10.83-9.57C343.41,370.58,344.73,374.53,345.6,382Z"/><path class="cls-8" d="M345.21,384.11c.88,6.91,2,8.52-5.29,8.9-13.44.71-13.64,2.76-12.73-10.6.47-6.91,5.17-8.64,10.83-8.64C343,373.77,344.34,377.33,345.21,384.11Z"/></g><g id="St_ureche" data-name="St ureche"><path class="cls-9" d="M99.07,89.47c-7.2,60.85-81.53,101.13-96.55,89.6C-8.63,170.5,21.05,139.61,17,78.21,14.22,37.06-1.36,17.16,9.9,5.82,22.09-6.46,55.05,2,74.67,19.07,103.74,44.38,99.57,85.22,99.07,89.47Z"/><path class="cls-4" d="M73.28,95.43C63,146,13.11,178.72,5.63,173.08-1.12,168,33.19,136.79,30.71,85,29,49.52,11.12,25.89,22.28,15.46c6.91-6.46,20.63-3.79,28.9.6C75.08,28.74,78.66,69,73.28,95.43Z"/><path class="cls-5" d="M59.2,37.75c12.16,15.87.91,44.77-8,45.76-7.13.79-14.09-16.09-15.65-19.88-3.82-9.24-9.41-29.43-1.21-34.92C40.49,24.58,53,29.69,59.2,37.75Z"/></g><path id="Cap" class="cls-10" d="M164.35,202.28a141.84,141.84,0,0,1-27.93-3c-8.5-1.56-16.79-3.13-26.76-7.68a89.83,89.83,0,0,1-15-8.65L84.4,200.74S68.27,231,66.84,234.89a50.65,50.65,0,0,0-2,7,107.52,107.52,0,0,0-1.39,36.31c3.76,4.78,4.2,11.07,1.4,15.15-3.73,5.46-13.21,6.89-19.89,1-5.33,7.64-14.24,10.18-20.43,7.05a12.81,12.81,0,0,1-6.8-9.66c-.81-7,5.17-14.84,15-17.08-1.81-13.58-3.68-24.61-5.05-32.14-3.58-19.66-6-27.83-6.82-41.86a155.44,155.44,0,0,1,.7-26.53c-3.4-17.2-.92-28.72,2.21-36.25,2.11-5.07,10.08-21.69,13.43-29.13.52-1.14,1.47-3.28,2.61-6.06.78-1.9,1.64-4.12,2.6-6.75a87.48,87.48,0,0,0,4-16.23c3.45-18.89,14.78-36.66,15.62-38,4.77-7.38,12.16-18.44,26.33-26.66a70.41,70.41,0,0,1,21.06-8c28.09-5.58,51.9,9.93,57.8,14a64.66,64.66,0,0,1,25.11,3c5.64,1.85,21.83,8,31.15,22.1,10.74,16.2.11,24.38,3.46,73.88,1,14.46-.18,22.8-.1,37a44.28,44.28,0,0,1-12.18,31.16C201.84,202.41,180.48,202.23,164.35,202.28Z"/><g id="Ochi_drept" data-name="Ochi drept"><path class="cls-11" d="M168.51,108.58c-6,21.3-17.55,17.81-26.54,15.5s-17.2-5.54-10.71-27.3c6.17-20.71,16.05-24.2,25-22.49S174.7,86.74,168.51,108.58Z"/><path class="cls-12" d="M168.53,108.54c-5.09,18-16.62,14.55-25.6,12.21s-17.23-5.44-11.7-23.82c5.25-17.49,14.88-20.09,23.81-18.27C164.12,80.51,173.76,90.07,168.53,108.54Z"/><ellipse class="cls-13" cx="153.96" cy="106.88" rx="14.48" ry="9.41" transform="translate(25.22 243.08) rotate(-81.38)"/><ellipse cx="153.54" cy="107.65" rx="9.24" ry="6.01" transform="translate(17.03 236.2) rotate(-78.31)"/><ellipse class="cls-12" cx="152.78" cy="102.26" rx="1.87" ry="1.85"/><ellipse class="cls-12" cx="154.8" cy="105.37" rx="1.12" ry="1.11"/><path class="cls-14" d="M185,110.78c-4.48,2.22-10.45-.15-13.5-5.42a12.9,12.9,0,0,1-1.78-6.23,18.48,18.48,0,0,0,4,6.29C177.17,108.91,181.39,110.8,185,110.78Z"/><path class="cls-14" d="M190.73,102.54c-5.41,1.45-15.9,3.42-19.6-4.14A20.18,20.18,0,0,1,169,90a32.32,32.32,0,0,0,4.91,9.13C178,104.57,186.34,101.46,190.73,102.54Z"/><path class="cls-14" d="M192,96.35c-1.5.73-7.05,3.22-12.74,1a16.34,16.34,0,0,1-6.13-4.5,23.4,23.4,0,0,1-5.36-9.38,24.42,24.42,0,0,0,9.7,9.93A24.73,24.73,0,0,0,192,96.35Z"/><path class="cls-15" d="M181.41,82.86c2.24-.27-17.68-3.32-23.17-14.77-2.88-6-2.48-11.6.48-15A54.75,54.75,0,0,0,161.14,59c5.4,11.25,14.23,20.36,22.06,23.54A12.6,12.6,0,0,1,181.41,82.86Z"/></g><g id="Ochi_stang" data-name="Ochi stang"><path class="cls-14" d="M73.28,56.53a7.69,7.69,0,0,1-9.16,5.25,8.21,8.21,0,0,1-4-2.12,11.8,11.8,0,0,0,13.15-3.13Z"/><path class="cls-14" d="M73.65,51a7.4,7.4,0,0,1-10.15,2.2,7.94,7.94,0,0,1-3-3.31,10.65,10.65,0,0,0,4.49,2.39A10.78,10.78,0,0,0,73.65,51Z"/><path class="cls-14" d="M82.24,42.71c-2.69,3.67-8.94,4.46-14.16,1.73a12.47,12.47,0,0,1-4.62-4A19.32,19.32,0,0,0,70,43.5C74.64,44.71,79.17,44.31,82.24,42.71Z"/><path class="cls-16" d="M95.13,73.46c-4.91,19-13.82,15.91-20.78,13.9s-13.3-4.84-8-24.2C71.33,44.73,79,41.59,86,43.06S100.16,54,95.13,73.46Z"/><path class="cls-12" d="M95,74.45c-4.15,16-13.07,13-20,11s-13.32-4.75-8.84-21.1C70.38,48.75,77.88,46.4,84.8,48S99.22,58,95,74.45Z"/><ellipse class="cls-13" cx="83.85" cy="72.02" rx="12.86" ry="7.31" transform="translate(1.38 145.61) rotate(-82.4)"/><ellipse cx="83.51" cy="72.7" rx="8.2" ry="4.67" transform="translate(-2.45 142.5) rotate(-80.12)"/><ellipse class="cls-12" cx="82.98" cy="67.92" rx="1.64" ry="1.45" transform="translate(8.97 145.53) rotate(-85.66)"/><ellipse class="cls-12" cx="84.51" cy="70.68" rx="0.99" ry="0.87" transform="translate(7.64 149.6) rotate(-85.66)"/><path class="cls-15" d="M111.56,26.12c0,6.15-8.7,11.12-19.43,11.12-7,0-13.17-2.13-16.59-5.32,2.21.19,4.51.29,6.88.29,13.17,0,24.43-3.09,29-7.45A6.23,6.23,0,0,1,111.56,26.12Z"/></g><path class="cls-17" d="M36.71,116.35c-5.84,11.7-9.8,14.17-13.27,25.6-3.08,10.16-3.18,18.86-2.79,27.69.6,13.83,1.54,35.39,11.63,86.34.9,4.5,1.64,8.13,2.07,10.25A23.9,23.9,0,0,1,32.78,276a13.18,13.18,0,0,1-2.59,4.68c-3.27,3.52-7.1,2.45-8.61,4.42s-.76,6.14,7,16.65c-5.3-.93-9.93-4-11.41-8.27-2.26-6.53,2.7-16,13-18.85-2.84-23-5.51-41.32-7.45-54-.89-5.86-1.67-16-4-29.63-1-6-3.68-21.93-1.39-38.56a92.36,92.36,0,0,1,8.73-28.16c11.54-17.2,17.1-32.11,20-42.83,1.67-6.11,2.45-10.75,2.53-10.73S48.17,93.34,36.71,116.35Z"/><path class="cls-17" d="M87.25,144.78c-12.39-10.08-31.61-16.45-47.09-16.05a114.12,114.12,0,0,0-16.2,1.5,63.94,63.94,0,0,1,16.26-4C61.43,123.73,80.43,131.73,87.25,144.78Z"/><path class="cls-17" d="M18.76,181.56c14.85-3.85,29.57-2.25,36.45,3.55a30.91,30.91,0,0,1,6.23,6.95,19,19,0,0,0-4-9.05C49.74,173.52,33.67,173.32,18.76,181.56Z"/><path class="cls-17" d="M23.09,218.18a41.18,41.18,0,0,1,26.44,2.2,59.15,59.15,0,0,1,7.58,4.19,33.39,33.39,0,0,0-7.06-5.46C40.23,213.38,29.23,213.23,23.09,218.18Z"/><path class="cls-17" d="M106.13,113.91c-1.59-3-7.38-12.9-22.29-19.2C66,87.17,48.33,90.34,44.79,91c2.55-1,16.77-6.54,33.25-2.51C92.77,92.13,103.6,102,106.13,113.91Z"/><path class="cls-18" d="M219,50c-9.22-13.9-26.17-18.37-31.6-19.8-10.9-2.87-11.9-.21-23-3.14-13.7-3.61-18.08-9.19-26.71-13.09-26.24-11.87-57.12,7.5-57.75,5.73-.49-1.41,18.59-14.79,43.63-14,20.73.62,35.71,10.65,42.08,15.52a76.32,76.32,0,0,1,17.34,1c5.22.9,34.27,5.92,42.15,25.85,3.26,8.26,2.16,17.24.92,17.49S224.23,58,219,50Z"/><path class="cls-19" d="M426.39,434.53a108.5,108.5,0,0,1-33.94-2.12c-13.63-3.11-17.12-6.48-17.67-9.19-1.14-5.55,1.29-12.24,1.41-14.85q-.35-14.14-.71-28.28A47,47,0,0,1,367,345.44a72.56,72.56,0,0,1-14.85-24.74c-2.64-7.54-9.45-27.24.71-46,6.52-12,15.91-18,23.68-21.56,14.85-6.36,66.44,1.71,70.71,11.31,3.81,8.6,4.24,17,2.82,26.87-1.05,7.36-12.2,52.23-10.95,63.27,1.61,14.34,5.83,29.56,8.48,55.86.4,4,1,11.31-3.54,17C438.89,433.86,430,434.48,426.39,434.53Z"/><path class="cls-7" d="M435.93,420.91c1,8.17,2.22,10.07-5.78,10.53-14.68.83-16.26,3.09-13.91-12.54,1.37-9.1,3.87-13.38,13.14-11.71C431.78,407.62,435,412.89,435.93,420.91Z"/><path class="cls-7" d="M392.35,414.11c0,6.83.43,12.51-4.94,10.6-11-3.88-11.82-.94-10.61-14.14.68-7.39,1.41-12,10.25-9.89C391,401.63,392.35,407.28,392.35,414.11Z"/><path class="cls-8" d="M435.14,422.07c.95,7.31,2.19,9-5.66,9.42-14.4.75-16,2.77-13.64-11.22,1.35-8.13,3.79-12,12.88-10.47C431.08,410.19,434.21,414.9,435.14,422.07Z"/><path class="cls-7" d="M413.84,420.08c0,7.45,1.66,11.79-5.14,10.25-12.28-2.79-16.57.47-13.59-13.87,1.77-8.52,5.28-13.1,13.07-11C412.41,406.58,413.84,412.64,413.84,420.08Z"/><path class="cls-8" d="M412.11,421.59c0,6.83,1.55,10.82-4.81,9.4-11.5-2.55-15.52.43-12.73-12.72,1.66-7.83,4.95-12,12.24-10.11C410.77,409.2,412.11,414.76,412.11,421.59Z"/><path class="cls-8" d="M391,416.14c0,6.84.42,12.52-5,10.61-11-3.89-11.81-.94-10.61-14.14.68-7.39,1.42-12,10.26-9.9C389.72,403.67,391,409.31,391,416.14Z"/><g id="Coada"><path class="cls-18" d="M484.8,298.53a98.74,98.74,0,0,0-27.05-50.72c0-2.47.3-5.16,1.75-5.77,3.53-1.5,11.94,10.13,16.11,17.53S485,279.61,484.8,298.53Z"/><path class="cls-20" d="M510.3,321.18c.13-3.84.31-9.49-1.27-14.18-3.52-10.49-17-19.6-23.87-16.63-5.07,2.2-6.8,11.23-5.37,18.1,2.84,13.65,15.95,12.75,19.91,27.32,2.5,9.2-3.62,17.6-2.36,17.77,1.54.22,9.47-10.73,11.61-21.41A65.62,65.62,0,0,0,510.3,321.18Z"/><path class="cls-21" d="M491,291.57a37,37,0,0,1,6,2.92c14.35,8.08,11,33.14,10.06,41,0,.13,3.06-22.34-6.85-35.15A41.71,41.71,0,0,0,491,291.57Z"/><path class="cls-21" d="M480.49,296.64c0,1.08.18,2.89.39,5.08,1.19,12.48,7.41,18.28,9.34,20.19,0,0-5.55-5.14-8.11-16.1A89.59,89.59,0,0,1,480.49,296.64Z"/><path class="cls-21" d="M482,293.1c0,1.48.24,3.92.52,6.89,1.64,16.89,10.84,24.68,13.7,27.25.05,0-8.2-6.91-11.91-21.73A111.69,111.69,0,0,1,482,293.1Z"/><path class="cls-21" d="M486.83,291.48a54.75,54.75,0,0,1,6.35,3.56c15.17,9.46,13.2,30.84,12.73,37.53,0,.12,1.8-19.05-9.1-31.91A56.83,56.83,0,0,0,486.83,291.48Z"/><path class="cls-21" d="M483.42,292.16a63.77,63.77,0,0,0,.49,6.9c1.85,16.87,12.8,25.84,22.31,38.78,1,1.37-12.57-15.38-19.49-33.35A63.57,63.57,0,0,1,483.42,292.16Z"/><path class="cls-21" d="M484,292.15a53.27,53.27,0,0,1,6.35,3.56c15.17,9.46,13.2,30.84,12.73,37.53,0,.11,1.8-19.05-9.1-31.92A57.12,57.12,0,0,0,484,292.15Z"/><path class="cls-21" d="M501.81,327.39c-1.4-3.67-3-7.49-4.78-11.42a182.86,182.86,0,0,0-12.23-22.51"/></g><path class="cls-22" d="M265.58,420.62c-6.93,8.67-21.25,7.84-30.53,7.3-4-.23-30.37-1.76-34.52-14.61-2.23-6.88,4.38-9.42,8-25.88.9-4.15,2.16-10.14,1.32-28.55-1.84-40.34-8.9-48.17-3.1-58.67,3.56-6.45,12.08-22.4,35.84-21.24,27.22,1.33,36,16.32,39.17,23.9,5.42,13.15-7.63,24.58-12.75,63.81-1.22,9.36-2.2,14-2.07,20.75C267.23,403.38,271.83,412.81,265.58,420.62Z"/><path class="cls-7" d="M218.91,412.24c-2,7.61-1,9.5-6.66,6.66-8.34-4.18-12.3-7.07-7.89-14.48,3.76-6.31,6.5-8.42,11.67-6C220.17,400.39,221,404.63,218.91,412.24Z"/><path class="cls-8" d="M217.77,413.13c-2,7.61-1,9.49-6.67,6.65-8.34-4.18-12.29-7.07-7.89-14.48,3.76-6.31,6.5-8.41,11.68-6C219,401.27,219.8,405.52,217.77,413.13Z"/><path class="cls-7" d="M237.43,416.23c.29,7.5,1.87,8.92-4.46,7.95-9.3-1.44-14.07-.12-12-8.11,1.75-6.8,3.88-12.32,9.6-11.57C235.13,405.1,237.14,408.73,237.43,416.23Z"/><path class="cls-8" d="M236.29,417.74c.29,7.5,1.87,8.92-4.46,7.94-9.3-1.43-14.07-.11-12-8.1,1.75-6.81,3.88-12.32,9.6-11.58C234,406.6,236,410.24,236.29,417.74Z"/><path class="cls-7" d="M259.65,414.52c1.71,6.72,3.64,7.66-3.23,8.16-10.09.73-14.89,3-14.21-4.71.58-6.53,1.8-12,8-12.56C255.13,405,257.94,407.81,259.65,414.52Z"/><path class="cls-8" d="M258.43,416.92c1.52,6.76,3.42,7.75-3.46,8.06-10.11.46-15,2.57-14.07-5.09.77-6.51,2.14-11.93,8.33-12.34C254.19,407.23,256.92,410.16,258.43,416.92Z"/><path class="cls-18" d="M119.32,156.73c-6,3.79-9.84,8-14.31,12.91A105.74,105.74,0,0,0,94.69,183c-10.1,15.29-33,56.93-31.22,87.66.08,1.5.32,7.57,0,7.6S62,269.42,61.14,262a153,153,0,0,1,6.52-34c4.28-13.66,9.6-23.75,15.36-34.67,3.82-7.26,5.73-10.89,9.07-15.59,2.69-3.79,10.71-15.09,22.34-22.58,19.35-12.44,42.53-10.38,42.59-10,0,.15-3.54.44-11.87,2.44C133.38,150.47,126.64,152.09,119.32,156.73Z"/><path class="cls-17" d="M26.41,244.38c7.71-3.56,15.84-4.14,20.08-1.68a16.68,16.68,0,0,1,4,3.14,10.26,10.26,0,0,0-3-4.51C42.5,237,33.77,238.44,26.41,244.38Z"/><path class="cls-18" d="M108,172.72a30.9,30.9,0,0,1,14.73,6.46c3.41,2.81,7.59,7.53,6.76,8.61-1.1,1.44-9.35-5.88-22.34-7.68a44.08,44.08,0,0,0-14,.35c.49-1.35,2.16-5.44,6.28-7.33C102.19,171.86,104.65,172.23,108,172.72Z"/><path class="cls-18" d="M126.37,192.39a6.73,6.73,0,0,1,.32-4.34,6.81,6.81,0,0,1,2.69-2.91c3.86-2.53,8.79-1.32,9.94-1a23,23,0,0,0-5.08,1.63,18.05,18.05,0,0,0-4.71,2.92A17.07,17.07,0,0,0,126.37,192.39Z"/><path class="cls-18" d="M162.54,300.07a44.62,44.62,0,0,0,3.71,12.55,34.63,34.63,0,0,0,4.64,7.09,48,48,0,0,0,10.79,9.9,24.44,24.44,0,0,1-17.12-11.86c-6.3-11-4.11-25.86-2.64-33A70.27,70.27,0,0,0,162.54,300.07Z"/><path class="cls-18" d="M212.09,362.24a33.76,33.76,0,0,0,2.33,5.88,28.71,28.71,0,0,0,2,3.31c1.1,1.58,4.34,5.44,2.72,4.31a20.82,20.82,0,0,1-4.18-4,29.34,29.34,0,0,1-6-12.77c-2.61-11.21,2.71-25.87,4.3-29.34C212.68,332.35,208.67,351.08,212.09,362.24Z"/><path class="cls-18" d="M322.13,327.38c-3.35.21-5.95-.19-11-1-15.45-2.44-21.66-6.47-23.33-5.3-2,1.42,5,8.93,14.24,14,4.69,2.55,10.06,5.39,17.42,4.91,4.85-.32,8.32-1.93,11.7-3.53,12.72-6.05,19.44-16.17,17.61-17.11-.59-.31-1.68.58-6.61,2.59S329.85,326.9,322.13,327.38Z"/><path class="cls-18" d="M448.16,289.54c-.85,6.26-2.31,15.88-4.78,27.59-3.4,16.12-4.84,17.87-5.09,25.92-.19,6,1.07,14.05,3.61,30.09,1.69,10.72,3,17.26,2.64,17.34s-1.19-2.66-4.4-15.27c-.71-2.52-1.64-6.09-2.55-10.41-1.59-7.63-2.91-13.94-2.77-22a85.56,85.56,0,0,1,2.08-16.2,156.09,156.09,0,0,1,4.16-16.2C442.67,305,445,297.88,448.16,289.54Z"/><path class="cls-18" d="M369.42,365.14a43.62,43.62,0,0,0,5,12.19,37.07,37.07,0,0,0,4.22,5.6,24.82,24.82,0,0,1-9.26-10c-2.29-4.45-2.74-8.46-3.13-12.2a53.43,53.43,0,0,1,2.18-21.59C367.89,342.75,366.41,353.84,369.42,365.14Z"/><path class="cls-18" d="M276.76,331.4c-.36-.14-4.87,9.34-8.34,21.34-1.77,6.1-3.3,11.42-3.93,18.28-1.59,17.24,3.7,32,3.81,32s-.3-1.53-.69-5-.54-6.36-.59-7.41a106.7,106.7,0,0,1,.13-11.41c.48-4.56,1.16-10,2.15-16.17.81-5.05,1.55-9.71,2.95-15.62C274.64,337.24,277,331.51,276.76,331.4Z"/></svg>