<svg xmlns="http://www.w3.org/2000/svg" width="250" height="250" viewBox="0 0 250 250"><defs><style>.cls-1{fill:#42210b;}.cls-2{fill:#8c6239;}</style></defs><g id="Layer_1" data-name="Layer 1"><g id="Settings_white" data-name="Settings white"><path class="cls-1" d="M250,136.15v-21a3.21,3.21,0,0,0-2.43-3.11l-31.12-7.74a3,3,0,0,1-2.18-2.2,91.82,91.82,0,0,0-9.49-23.22,3.2,3.2,0,0,1,0-3.32l16.9-27.1a3.21,3.21,0,0,0-.45-4L206.41,29.64a3.19,3.19,0,0,0-3.91-.48L175.14,45.62a3.27,3.27,0,0,1-3.35,0,91.07,91.07,0,0,0-23-9.64,3.34,3.34,0,0,1-2.37-2.47l-7.18-31A3.21,3.21,0,0,0,136.15,0h-21A3.21,3.21,0,0,0,112,2.43l-7.74,31.12a3,3,0,0,1-2.2,2.18,91.82,91.82,0,0,0-23.22,9.49,3.2,3.2,0,0,1-3.32,0l-27.1-16.9a3.21,3.21,0,0,0-4,.45L29.64,43.59a3.19,3.19,0,0,0-.48,3.91L45.62,74.86a3.27,3.27,0,0,1,0,3.35,91.07,91.07,0,0,0-9.64,23,3.34,3.34,0,0,1-2.47,2.37l-31,7.18A3.21,3.21,0,0,0,0,113.85v21A3.21,3.21,0,0,0,2.43,138l31.12,7.74a3,3,0,0,1,2.18,2.2,91.82,91.82,0,0,0,9.49,23.22,3.2,3.2,0,0,1,0,3.32l-16.9,27.1a3.21,3.21,0,0,0,.45,4l14.86,14.85a3.19,3.19,0,0,0,3.91.48l27.36-16.46a3.27,3.27,0,0,1,3.35,0,91.07,91.07,0,0,0,23,9.64,3.34,3.34,0,0,1,2.37,2.47l7.18,31a3.21,3.21,0,0,0,3.12,2.48h21a3.21,3.21,0,0,0,3.11-2.43l7.74-31.12a3,3,0,0,1,2.2-2.18,91.82,91.82,0,0,0,23.22-9.49,3.2,3.2,0,0,1,3.32,0l27.1,16.9a3.21,3.21,0,0,0,4-.45l14.85-14.86a3.19,3.19,0,0,0,.48-3.91l-16.46-27.36a3.27,3.27,0,0,1,0-3.35,91.07,91.07,0,0,0,9.64-23,3.34,3.34,0,0,1,2.47-2.37l31-7.18A3.21,3.21,0,0,0,250,136.15Z"/><path class="cls-2" d="M243,136.19V115.64a2.56,2.56,0,0,0-1.94-2.49l-30-7.46a2.39,2.39,0,0,1-1.72-1.74,86.38,86.38,0,0,0-9.16-22.43,2.59,2.59,0,0,1,0-2.67l16.3-26.12a2.57,2.57,0,0,0-.36-3.17L201.61,35a2.56,2.56,0,0,0-3.14-.39L172.1,50.51a2.6,2.6,0,0,1-2.69,0,86.3,86.3,0,0,0-22.14-9.29,2.73,2.73,0,0,1-2-2L138.39,9.29a2.57,2.57,0,0,0-2.5-2H115.33a2.57,2.57,0,0,0-2.49,2l-7.46,30A2.36,2.36,0,0,1,103.65,41a86.76,86.76,0,0,0-22.43,9.17,2.59,2.59,0,0,1-2.67,0L52.43,33.8a2.56,2.56,0,0,0-3.17.37L34.72,48.7a2.57,2.57,0,0,0-.38,3.14L50.2,78.21a2.62,2.62,0,0,1,0,2.69A86.26,86.26,0,0,0,40.9,103a2.71,2.71,0,0,1-2,2L9,111.92a2.56,2.56,0,0,0-2,2.5V135a2.56,2.56,0,0,0,1.94,2.49l30,7.46a2.37,2.37,0,0,1,1.72,1.74,86.53,86.53,0,0,0,9.16,22.43,2.57,2.57,0,0,1,0,2.66L33.5,197.88a2.57,2.57,0,0,0,.36,3.17l14.53,14.53a2.57,2.57,0,0,0,3.14.39L77.9,200.1a2.6,2.6,0,0,1,2.69,0,86.66,86.66,0,0,0,22.14,9.29,2.73,2.73,0,0,1,2,2l6.92,29.92a2.57,2.57,0,0,0,2.5,2h20.56a2.57,2.57,0,0,0,2.49-1.95l7.46-30a2.39,2.39,0,0,1,1.73-1.73,86.38,86.38,0,0,0,22.43-9.16,2.59,2.59,0,0,1,2.67,0l26.12,16.3a2.57,2.57,0,0,0,3.18-.37l14.53-14.53a2.57,2.57,0,0,0,.38-3.14L199.8,172.4a2.62,2.62,0,0,1,0-2.69,86.26,86.26,0,0,0,9.3-22.13,2.69,2.69,0,0,1,2-2L241,138.69A2.57,2.57,0,0,0,243,136.19Z"/><ellipse class="cls-1" cx="125" cy="129.11" rx="58.39" ry="55.2"/><circle class="cls-1" cx="125" cy="128.95" r="54.74"/></g></g></svg>