<svg xmlns="http://www.w3.org/2000/svg" xmlns:xlink="http://www.w3.org/1999/xlink" width="406.59" height="230" viewBox="0 0 406.59 230"><defs><style>.cls-1{fill:#603813;}.cls-2{fill:url(#linear-gradient);}.cls-3{fill:#42210b;}.cls-4{fill:#c69c6d;}</style><linearGradient id="linear-gradient" x1="10.05" y1="108.01" x2="396.54" y2="108.01" gradientUnits="userSpaceOnUse"><stop offset="0.14" stop-color="#a67c52"/><stop offset="1" stop-color="#754c24"/></linearGradient></defs><g id="Layer_1" data-name="Layer 1"><path class="cls-1" d="M405,230H0V193.48l15.39-24.09L0,152.3q.52-35,1.06-69.94,5-6.21,10.09-12.43Q5.57,63.89,0,57.82V0L406.59,3.89,405,30.82q-4,6.34-8,12.69,4,5.45,8,10.88v76.5l-15.93,19.85L405,168.38Z"/><path class="cls-2" d="M395,216h-385v-34.3q7.32-11.31,14.63-22.62L10.05,143q.51-32.85,1-65.68l9.59-11.68L10.05,54.31V0L396.54,3.65q-.77,12.64-1.52,25.29l-7.56,11.93L395,51.08v71.85l-15.13,18.65L395,158.14Z"/><path class="cls-3" d="M265.19,53v109.2a8.47,8.47,0,0,1-12.71,7.22s-58.56-31.75-59.55-31.75H149.86a8.4,8.4,0,0,1-8.46-8.32V85.87a8.38,8.38,0,0,1,8.46-8.3h43.07c1,0,59.55-31.77,59.55-31.77A8.48,8.48,0,0,1,265.19,53Z"/><path class="cls-4" d="M263.17,55.27V159.63a8.09,8.09,0,0,1-12.14,6.9s-56-30.34-56.91-30.34H153a8,8,0,0,1-8.08-8V86.66a8,8,0,0,1,8.08-8h41.17c.94,0,56.91-30.35,56.91-30.35A8.1,8.1,0,0,1,263.17,55.27Z"/></g></svg>