<svg xmlns="http://www.w3.org/2000/svg" xmlns:xlink="http://www.w3.org/1999/xlink" width="300" height="169.7" viewBox="0 0 300 169.7"><defs><style>.cls-1{fill:#603813;}.cls-2{fill:url(#linear-gradient);}.cls-3{fill:#42210b;}.cls-4{fill:#c69c6d;}</style><linearGradient id="linear-gradient" x1="7.42" y1="79.69" x2="292.58" y2="79.69" gradientUnits="userSpaceOnUse"><stop offset="0.14" stop-color="#a67c52"/><stop offset="1" stop-color="#754c24"/></linearGradient></defs><g id="Layer_1" data-name="Layer 1"><path class="cls-1" d="M298.83,169.7H0V142.76L11.36,125,0,112.37l.78-51.6L8.22,51.6,0,42.66V0L300,2.87l-1.17,19.87L293,32.11l5.88,8V96.57l-11.75,14.65,11.75,13Z"/><path class="cls-2" d="M291.47,159.38H7.42v-25.3l10.79-16.7q-5.4-5.91-10.79-11.84.38-24.24.74-48.46l7.08-8.62q-3.91-4.2-7.82-8.39V0L292.58,2.69l-1.11,18.67q-2.81,4.39-5.59,8.79,2.79,3.78,5.59,7.54v53L280.3,104.46l11.17,12.23Z"/><path class="cls-3" d="M195.67,39.13V119.7a6.25,6.25,0,0,1-9.38,5.33s-43.21-23.43-43.94-23.43H110.57a6.2,6.2,0,0,1-6.24-6.14V63.36a6.19,6.19,0,0,1,6.24-6.13h31.78c.73,0,43.94-23.43,43.94-23.43A6.25,6.25,0,0,1,195.67,39.13Z"/><path class="cls-4" d="M194.18,40.78v77a6,6,0,0,1-9,5.09s-41.29-22.39-42-22.39H112.85a5.92,5.92,0,0,1-6-5.86V63.94a5.91,5.91,0,0,1,6-5.86h30.38c.7,0,42-22.4,42-22.4A6,6,0,0,1,194.18,40.78Z"/></g></svg>