<svg xmlns="http://www.w3.org/2000/svg" xmlns:xlink="http://www.w3.org/1999/xlink" width="272.36" height="105.25" viewBox="0 0 272.36 105.25"><defs><style>.cls-1{fill:#603813;}.cls-2{fill:url(#linear-gradient);}.cls-3{fill:#42210b;}</style><linearGradient id="linear-gradient" x1="7.86" y1="49.45" x2="264.51" y2="49.45" gradientUnits="userSpaceOnUse"><stop offset="0.14" stop-color="#a67c52"/><stop offset="1" stop-color="#754c24"/></linearGradient></defs><g id="Layer_3" data-name="Layer 3"><path class="cls-1" d="M270.12,104.79H1.18V88.22L11.4,77.3,1.18,69.54q.36-15.86.71-31.72l6.69-5.64-7.4-5.49V.46l270,1.76q-.53,6.11-1.06,12.22l-5.28,5.76,5.28,4.93v34.7l-10.58,9,10.58,8Q270.13,90.82,270.12,104.79Z"/><path class="cls-2" d="M263.5,98.45H7.86V82.89q4.86-5.13,9.71-10.27L7.86,65.34q.33-14.9.67-29.79l6.36-5.3-7-5.16V.46L264.51,2.11q-.51,5.75-1,11.48c-1.67,1.8-3.35,3.6-5,5.41l5,4.63V56.22l-10.05,8.46L263.5,72.2Z"/><path class="cls-3" d="M93.51,32,89.82,42.58q-3.61-4.89-8.32-4.9-2.61,0-2.61,2a1.69,1.69,0,0,0,.82,1.25,22.93,22.93,0,0,0,4.32,2,42.81,42.81,0,0,1,5.91,2.75,8.17,8.17,0,0,1,3.11,3.18,9.34,9.34,0,0,1,1,4.5A9.35,9.35,0,0,1,90,61.54q-4.09,2.82-12,2.82a41.79,41.79,0,0,1-15.33-2.53l3.63-11.19a12.26,12.26,0,0,0,3.92,3.9A8.48,8.48,0,0,0,74.7,56a2.76,2.76,0,0,0,1.76-.55,1.62,1.62,0,0,0,.72-1.34,2,2,0,0,0-.7-1.42,13.37,13.37,0,0,0-3.65-1.89,34.9,34.9,0,0,1-4.44-2.1,9.56,9.56,0,0,1-3-2.91A8.22,8.22,0,0,1,64.05,41q0-5.58,4.06-8.41t12-2.83A39.07,39.07,0,0,1,93.51,32Z"/><path class="cls-3" d="M118.67,37.38V44.8H113v5.66c0,1.92.85,2.88,2.56,2.88a3.93,3.93,0,0,0,3.25-1.89V61.92A13.8,13.8,0,0,1,111,64a12.11,12.11,0,0,1-8.24-2.92,10.1,10.1,0,0,1-3.35-8V44.8H93.9l19.11-15v7.56Z"/><path class="cls-3" d="M123,48.24V40.3a26.74,26.74,0,0,1,13-3.14q6.93,0,10.23,3t3.29,9.07V63.81H136v-2a10.92,10.92,0,0,1-6.61,2.2,7,7,0,0,1-5-2,6.64,6.64,0,0,1-2-5,7,7,0,0,1,2.51-5.54,9.7,9.7,0,0,1,6.54-2.14A17.57,17.57,0,0,1,136,50a3.35,3.35,0,0,0-1.41-2.87,6.6,6.6,0,0,0-4-1A16.12,16.12,0,0,0,123,48.24ZM136,58V54.28a7,7,0,0,0-2.22-.42,3,3,0,0,0-2,.64,2.08,2.08,0,0,0-.75,1.67,2.33,2.33,0,0,0,.8,1.8,2.93,2.93,0,0,0,2,.72A3.16,3.16,0,0,0,136,58Z"/><path class="cls-3" d="M168.13,43.17q2.6-6,7.51-6a6.07,6.07,0,0,1,4.52,1.8,6.2,6.2,0,0,1,1.78,4.56,6.44,6.44,0,0,1-1.74,4.69A6.12,6.12,0,0,1,175.64,50a7.29,7.29,0,0,1-5.49-2.42q-2,1.72-2,6.37v9.86H154.56V37.38h13.57Z"/><path class="cls-3" d="M206.93,37.38V44.8h-5.67v5.66c0,1.92.86,2.88,2.57,2.88a4,4,0,0,0,3.25-1.89V61.92A13.85,13.85,0,0,1,199.29,64,12.13,12.13,0,0,1,191,61.11a10.13,10.13,0,0,1-3.35-8V44.8h-5.53l19.1-15v7.56Z"/></g></svg>