<svg id="Main_layer" data-name="Main layer" xmlns="http://www.w3.org/2000/svg" xmlns:xlink="http://www.w3.org/1999/xlink" width="162.82" height="66.69" viewBox="0 0 162.82 66.69"><defs><style>.cls-1{fill:#999;}.cls-2{fill:url(#radial-gradient);}.cls-3{fill:gray;}</style><radialGradient id="radial-gradient" cx="119.86" cy="33.34" r="38.45" gradientUnits="userSpaceOnUse"><stop offset="0" stop-color="#fff"/><stop offset="1" stop-color="#4d4d4d"/></radialGradient></defs><g id="Coada"><path class="cls-1" d="M31.47,23.67A154.46,154.46,0,0,0,80.89,42.3c6,1.17,4.08,12.27-2.09,11.78a123.82,123.82,0,0,1-16.59-2.45C-16.51,34.44-13.17-2.63,31.47,23.67Z"/><path class="cls-2" d="M139.52,49.6c-4.23,4.26-10.45,10.55-17.46,13.8-15.72,7.28-40.59,1.71-44.56-9.23C74.56,46,83,34.38,92.29,28.61c18.55-11.45,31.62,4.42,52.42-6.74,13.14-7.06,16.1-23,17.64-21.8,1.9,1.52-2,22.3-11.82,36.2A104.18,104.18,0,0,1,139.52,49.6Z"/><path class="cls-3" d="M85.17,59.53A57.53,57.53,0,0,0,95,63.24c24.6,7.61,49.42-23.16,57.32-32.6.14-.16-22.08,27.48-47.28,30A65.17,65.17,0,0,1,85.17,59.53Z"/><path class="cls-3" d="M79.6,42.13c1.27-1.13,3.48-2.91,6.2-5,15.44-12,28.71-11.23,33-11.08.07,0-11.8-.78-27,8.09A141.47,141.47,0,0,0,79.6,42.13Z"/><path class="cls-3" d="M77.18,47.6c1.7-1.55,4.69-4,8.38-6.81,20.93-16.29,39.67-14.23,45.65-13.74.1,0-16.66-1.89-37.46,9.83A173.36,173.36,0,0,0,77.18,47.6Z"/><path class="cls-3" d="M80.56,54.87a84.18,84.18,0,0,0,10.87,3.38c27.05,7.06,49.21-18.15,56.3-25.88.12-.13-19.69,22.52-46,24A89.17,89.17,0,0,1,80.56,54.87Z"/><path class="cls-3" d="M77.67,50.27A96.88,96.88,0,0,1,86,43.42c21.14-16,43.11-13.25,68-16.37,2.62-.32-31,2.27-58.82,13.72A100.33,100.33,0,0,0,77.67,50.27Z"/><path class="cls-3" d="M78.31,51a82.61,82.61,0,0,0,10.87,3.38c27.05,7.06,49.21-18.15,56.3-25.88.12-.13-19.69,22.52-46,24A89.17,89.17,0,0,1,78.31,51Z"/><path class="cls-3" d="M137.44,33.28c-5.67,2.36-11.71,4.67-18.1,6.86a287.65,287.65,0,0,1-38.71,10.3"/></g></svg>