<svg xmlns="http://www.w3.org/2000/svg" width="153.66" height="103.3" viewBox="0 0 153.66 103.3"><defs><style>.cls-1{fill:#66aad7;}</style></defs><g id="Layer_5" data-name="Layer 5"><path class="cls-1" d="M132.59,42.32c4.72,2,6.87,6.11,5.87,9.06-.57,1.71-2.37,3.5-3.68,3.15S132.3,51.5,132.59,42.32Z"/><path class="cls-1" d="M136.87,57.57c7.19,3,10.45,9.28,8.94,13.77-.88,2.61-3.62,5.33-5.61,4.79S136.43,71.52,136.87,57.57Z"/><path class="cls-1" d="M24.55.76C19.66-1,15.27.56,14.06,3.41c-.71,1.66-.53,4.22.7,4.85S18.65,7.72,24.55.76Z"/><path class="cls-1" d="M12.35,10.36C6,7.56,1,8.79.15,12c-.5,1.84.28,4.85,1.92,5.77S6.7,17.66,12.35,10.36Z"/><path class="cls-1" d="M141.69,79.33c9.25,3.82,13.45,11.94,11.5,17.72-1.13,3.35-4.65,6.85-7.22,6.16S141.13,97.28,141.69,79.33Z"/></g></svg>