<svg xmlns="http://www.w3.org/2000/svg" xmlns:xlink="http://www.w3.org/1999/xlink" width="300" height="133.72" viewBox="0 0 300 133.72"><defs><style>.cls-1{fill:#603813;}.cls-2{fill:url(#linear-gradient);}.cls-3{fill:#42210b;}.cls-4{fill:#fff;}.cls-5{fill:#754c24;}</style><linearGradient id="linear-gradient" x1="7.42" y1="62.8" x2="292.58" y2="62.8" gradientUnits="userSpaceOnUse"><stop offset="0.14" stop-color="#a67c52"/><stop offset="1" stop-color="#754c24"/></linearGradient></defs><g id="Layer_1" data-name="Layer 1"><g id="Timer_brown" data-name="Timer brown"><path class="cls-1" d="M298.83,133.72H0V112.49l11.36-14L0,88.55.78,47.89l7.44-7.23L0,33.62V0L300,2.26l-1.17,15.66L293,25.3l5.88,6.32V76.1L287.08,87.64,298.83,97.9Z"/><path class="cls-2" d="M291.47,125.59H7.42V105.65L18.21,92.5,7.42,83.16Q7.8,64.07,8.16,45l7.08-6.78L7.42,31.57V0L292.58,2.12l-1.11,14.71-5.59,6.93,5.59,5.94V71.47L280.3,82.31l11.17,9.63Z"/><ellipse class="cls-3" cx="233.67" cy="73.34" rx="43.98" ry="41.36"/><ellipse class="cls-3" cx="210.39" cy="29.52" rx="9.43" ry="6.45" transform="translate(2.15 71.64) rotate(-19.42)"/><circle class="cls-4" cx="233.67" cy="73.19" r="35.98"/><rect class="cls-5" x="231.82" y="40.89" width="3.69" height="32.29" rx="1.85"/><rect class="cls-5" x="243.36" y="60.42" width="5.54" height="27.99" rx="2.77" transform="translate(320.54 -171.71) rotate(90)"/><circle class="cls-1" cx="233.67" cy="73.19" r="7.38"/><rect class="cls-3" x="205.68" y="106.09" width="13.53" height="10.76" rx="5.38"/><rect class="cls-3" x="248.43" y="106.09" width="13.53" height="10.76" rx="5.38"/><ellipse class="cls-3" cx="233.51" cy="36.9" rx="3.23" ry="2.46"/><ellipse class="cls-3" cx="269.5" cy="74.42" rx="3.23" ry="2.46"/><ellipse class="cls-3" cx="234.74" cy="109.17" rx="3.23" ry="2.46"/><ellipse class="cls-3" cx="197.84" cy="74.42" rx="3.23" ry="2.46"/><path class="cls-3" d="M259.21,20.16a4.28,4.28,0,0,1-.24,1.42c-4.25-4.06-13.61-6.88-24.48-6.88-10.72,0-20,2.75-24.3,6.73a4.25,4.25,0,0,1-.19-1.27c0-5.67,11-10.26,24.6-10.26S259.21,14.49,259.21,20.16Z"/><ellipse class="cls-3" cx="256.46" cy="29.89" rx="6.46" ry="9.45" transform="translate(147.46 263.95) rotate(-71.68)"/></g></g></svg>