<svg xmlns="http://www.w3.org/2000/svg" xmlns:xlink="http://www.w3.org/1999/xlink" width="650.6" height="290" viewBox="0 0 650.6 290"><defs><style>.cls-1{fill:#603813;}.cls-2{fill:url(#linear-gradient);}.cls-3{fill:#42210b;}.cls-4{fill:#fff;}.cls-5{fill:#754c24;}</style><linearGradient id="linear-gradient" x1="16.09" y1="136.18" x2="634.52" y2="136.18" gradientUnits="userSpaceOnUse"><stop offset="0.14" stop-color="#a67c52"/><stop offset="1" stop-color="#754c24"/></linearGradient></defs><g id="Layer_1" data-name="Layer 1"><g id="Timer_brown" data-name="Timer brown"><path class="cls-1" d="M648.05,290H0V244l24.63-30.37L0,192q.86-44.09,1.7-88.18L17.84,88.18,0,72.91V0L650.6,4.9l-2.55,34-12.74,16,12.74,13.72V165l-25.48,25,25.48,22.24Z"/><path class="cls-2" d="M632.1,272.36h-616V229.12L39.5,200.59q-11.71-10.11-23.41-20.24.8-41.4,1.61-82.81L33,82.81,16.09,68.47V0L634.52,4.6q-1.21,15.95-2.42,31.89L620,51.53,632.1,64.41V155l-24.23,23.51L632.1,199.4Z"/><ellipse class="cls-3" cx="506.75" cy="159.05" rx="95.38" ry="89.71"/><ellipse class="cls-3" cx="456.26" cy="64.03" rx="20.44" ry="13.99" transform="translate(4.67 155.36) rotate(-19.42)"/><circle class="cls-4" cx="506.75" cy="158.72" r="78.03"/><rect class="cls-5" x="502.75" y="88.69" width="8" height="70.03" rx="3.5"/><rect class="cls-5" x="527.76" y="131.04" width="12.01" height="60.69" rx="4.32" transform="translate(695.15 -372.38) rotate(90)"/><circle class="cls-1" cx="506.75" cy="158.72" r="16.01"/><rect class="cls-3" x="446.06" y="230.08" width="29.35" height="23.34" rx="10.21"/><rect class="cls-3" x="538.76" y="230.08" width="29.35" height="23.34" rx="10.21"/><ellipse class="cls-3" cx="506.42" cy="80.02" rx="7" ry="5.34"/><ellipse class="cls-3" cx="584.45" cy="161.39" rx="7" ry="5.34"/><ellipse class="cls-3" cx="509.08" cy="236.75" rx="7" ry="5.34"/><ellipse class="cls-3" cx="429.05" cy="161.39" rx="7" ry="5.34"/><path class="cls-3" d="M562.14,43.73a9.62,9.62,0,0,1-.52,3.08C552.4,38,532.1,31.89,508.54,31.89c-23.25,0-43.33,6-52.72,14.57a9.75,9.75,0,0,1-.4-2.73c0-12.3,23.89-22.26,53.36-22.26S562.14,31.43,562.14,43.73Z"/><ellipse class="cls-3" cx="556.17" cy="64.82" rx="14.02" ry="20.49" transform="translate(319.79 572.42) rotate(-71.68)"/></g></g></svg>