<svg xmlns="http://www.w3.org/2000/svg" xmlns:xlink="http://www.w3.org/1999/xlink" width="650.6" height="290" viewBox="0 0 650.6 290"><defs><style>.cls-1{fill:#603813;}.cls-2{fill:url(#linear-gradient);}.cls-3{fill:#42210b;}.cls-4{fill:#fff;}.cls-5{fill:#754c24;}</style><linearGradient id="linear-gradient" x1="16.09" y1="136.18" x2="634.52" y2="136.18" gradientUnits="userSpaceOnUse"><stop offset="0.14" stop-color="#a67c52"/><stop offset="1" stop-color="#754c24"/></linearGradient></defs><g id="Layer_1" data-name="Layer 1"><g id="Timer_brown" data-name="Timer brown"><path class="cls-1" d="M648.05,290H0V244l24.63-30.37L0,192q.86-44.09,1.7-88.18L17.84,88.18,0,72.91V0L650.6,4.9l-2.55,34-12.74,16,12.74,13.72V165l-25.48,25,25.48,22.24Z"/><path class="cls-2" d="M632.1,272.36h-616V229.12L39.5,200.59q-11.71-10.11-23.41-20.24.8-41.4,1.61-82.81L33,82.81,16.09,68.47V0L634.52,4.6q-1.21,15.95-2.42,31.89L620,51.53,632.1,64.41V155l-24.23,23.51L632.1,199.4Z"/><ellipse class="cls-3" cx="493.63" cy="150.02" rx="84.26" ry="79.25"/><ellipse class="cls-3" cx="449.03" cy="66.07" rx="18.06" ry="12.36" transform="translate(3.58 153.07) rotate(-19.42)"/><circle class="cls-4" cx="493.63" cy="149.72" r="68.94"/><rect class="cls-5" x="490.1" y="87.85" width="7.07" height="61.87" rx="3.5"/><rect class="cls-5" x="512.2" y="125.27" width="10.61" height="53.62" rx="4.32" transform="translate(669.58 -365.42) rotate(90)"/><circle class="cls-1" cx="493.63" cy="149.72" r="14.14"/><rect class="cls-3" x="440.01" y="212.77" width="25.93" height="20.62" rx="10.21"/><rect class="cls-3" x="521.92" y="212.77" width="25.93" height="20.62" rx="10.21"/><ellipse class="cls-3" cx="493.34" cy="80.19" rx="6.19" ry="4.71"/><ellipse class="cls-3" cx="562.28" cy="152.08" rx="6.19" ry="4.71"/><ellipse class="cls-3" cx="495.7" cy="218.66" rx="6.19" ry="4.71"/><ellipse class="cls-3" cx="424.99" cy="152.08" rx="6.19" ry="4.71"/><path class="cls-3" d="M542.57,48.14a8.49,8.49,0,0,1-.46,2.72C534,43.08,516,37.67,495.22,37.67c-20.55,0-38.28,5.26-46.58,12.88a8.62,8.62,0,0,1-.35-2.41c0-10.87,21.1-19.67,47.14-19.67S542.57,37.27,542.57,48.14Z"/><ellipse class="cls-3" cx="537.3" cy="66.77" rx="12.39" ry="18.1" transform="translate(305 555.84) rotate(-71.68)"/></g></g></svg>