<svg xmlns="http://www.w3.org/2000/svg" width="478" height="520.4" viewBox="0 0 478 520.4"><defs><style>.cls-1{fill:#006837;}.cls-2{fill:#009245;}.cls-3{fill:#8cc63f;}.cls-4{fill:#8cc63e;}.cls-5{fill:#754c24;}.cls-6{fill:#42210b;}.cls-7{fill:#a67c52;}.cls-8{fill:#8c6239;}</style></defs><g id="Layer_3" data-name="Layer 3"><path class="cls-1" d="M105.69,316c-7.25.59-11.31,4.65-13.79,2.58-2.65-2.22-.62-9,1.49-14.41-9,4.07-14.35,3.29-17.66,1.65-4.79-2.38-5.51-6.69-10.68-8.46-5.52-1.89-10.6,1-13.33,1.91-7,2.29-19.53-1.64-44-30.11l6.15-29.33C2.29,224.49.82,214.46,3.5,207.67c3.65-9.22,14-10.13,14.67-18,.74-9.2-11-11.73-16.06-25.81-4.44-12.41-1.85-29.84,7.54-40,8.94-9.62,21-9.3,22.82-18.52,1.22-6-3.07-10.9-.74-12.72,3-2.31,14.3,7.79,19.25,5.09,3.87-2.11-3.2-24.23-5.18-27.34a63,63,0,0,0-8.15-10.17c10.3-5.41,17.81-5.85,23-5.08,3.18.47,6.58,1.58,8.89,0,3.58-2.47.1-8.44,3-10.17,3.92-2.38,12.84,7.45,19.25,5.08,5.11-1.88,5.8-10.45,5.93-12.07.56-7-2.89-10.12-.74-12.08s6.08.59,17.77,1.27c6.85.4,10.73.58,14.81-1.27,4.53-2.06,4.93-4.63,8.15-5.09,2.53-.36,6.54.64,12.59,7.63,3.76,1.15,8.71,2.08,11.84,0,4.77-3.16,1.05-10.39,5.93-13.35,3.5-2.13,6.32,1.07,14.81-.63,5.36-1.08,7.32-3,9.63-1.91,3.37,1.54,1.74,6.73,4.44,7.63,2.19.72,5.12-2.08,10.37-6.36,3.24-2.65,7.45-5.92,12.59-9.54A46.83,46.83,0,0,1,228,.52c3.82-1.36,13.16.12,17.78,2.54,5.74,3,6.54,1.48,13.33,4.45,7.23,3.17,8.07,5.68,12.59,5.72a15.18,15.18,0,0,0,8.14-2.54c5.47-3.43,4.41-7.44,8.15-8.9,5.38-2.09,15.14,3.26,14.81,7-.27,3.05-7.83,3.12-8.15,6.36s6.73,6.39,10.25,7.55C314.7,25.92,322.2,16,326.47,19c1.31.93,2.6,3.12,1.93,9,3.27,1.08,14.94,5.32,18.8,15.83.47,1.28,3.26,8.5,0,11.44-2.44,2.2-5.91.71-8.88,3.18-3.17,2.63-3.75,8.07-1.49,9.53,3.27,2.11,9.5-6,18.52-5.08,9.3,1,15.95,11.06,16.29,10.8s-3.18-2.43-3-5.08c.4-4.9,12.88-9.36,15.55-7,.84.74.95,2.37-.74,5.72l20-9.54c-1.69-4.79-.87-6.37,0-7,4.26-3,22,8.14,22.22,8.26-.7.33-9.23,4.47-8.89,10.17.18,2.9,12.64,13.2,17.78,15.26,4.61,1.85,11.78,11.23,11.85,14.62a16.89,16.89,0,0,1-1.49,8.26c-2.65,5.53-7.36,6.8-6.66,8.9.77,2.32,14.41,9.25,18.51,13.35,6.09,6.09,12.65,4.78,14.07,8.9,1.35,3.9-4.4,5.38-4.44,11.44h0s8.76,17.11,9.71,18.51c3.6,5.31,1.34,12.93-1.42,22.23-1,3.4-11.31,22.94-13.47,31.73-.85,3.42-1.06,6.3-1.48,12.08-.62,8.42,0,11.25-.75,17.8a69.1,69.1,0,0,1-3,13.35c-4.28-.15-24.37,5.88-28.14,8.9-8.73,7-8.53,12.87-14.81,19.07-3,3-24.42,9.13-29.62,10.17-5.94,1.18-10.16,2.89-17,5.72-8.28,3.4-39.83,12.94-49.62,10.17-10.16-2.88-10-8.15-19.25-11.44-8.9-3.17-13,1.31-23.7,0-11-1.34-10.52-6.42-23-10.17-4.33-1.31-36.13,11.76-45.17,18.43-9.58,7.07-27.29,9.36-36.29,1.91-4.74-3.92-1-8.77-5.92-12.71-5.52-4.45-17-4.54-23,0-7.33,5.61-2.66,15.71-8.15,18.43C126.11,327.22,119.19,314.9,105.69,316Z"/><path class="cls-2" d="M133.46,305.14c-.12.22-2.86,4.73-5.92,4.45-2.3-.21-2.52-2.9-5.93-3.81-.88-.24-2.31-.16-5.18,0-4.77.26-6.07.69-6.67,0-.86-1,.51-3.46.91-4.18s.44-.63.58-.91c1.32-2.71-3.94-8.82-7.41-8.26-2.66.43-3.45,4.65-4.44,4.45-1.27-.26.26-7.12-1.48-7.63s-5.38,5.58-6.67,5.09c-1-.39.75-4.29-.74-5.09-1.1-.59-2.66,1.24-5.92,1.91-3.49.71-8.06-.07-8.89-1.91-1-2.29,4.13-5.36,3-7-.78-1.09-3.28-.07-4.44-1.27-1.49-1.55,0-6,3-7,3.81-1.28,8.17,3.76,10.37,2.55.92-.51,1.5-2.13,0-7,4,2.18,8.91,2.13,11.85,0,4.75-3.45,2.93-11.26-.74-12.71-2.14-.84-4.93.46-6.67,1.27a14.14,14.14,0,0,0-5.92,5.09c-1.65-1.88-4.09-4.08-6.67-3.82-3.62.38-5.11,5.39-7.4,5.09-.89-.12-2.06-1-3-5.09a35.71,35.71,0,0,1-8.88,1.27c-3,.06-6.15.11-9.63-1.27a16.68,16.68,0,0,1-7.4-5.72c-1.19,1.06-2.81,2.15-4.45,1.91-3.33-.49-3.67-6-6.66-6.36-2.74-.31-4.19,4.11-6.67,3.82-1.83-.22-2.37-2.8-5.18-10.81-2.45-7-3.51-9.18-2.22-10.17s3.7-.25,5.92.63c-5-6.2-5.85-13.14-2.22-17.16a9.61,9.61,0,0,1,5.92-3.18c5.09-.56,7.49,3.88,14.07,7,8,3.78,19.45,4.33,22.22.63,1.92-2.56-.11-7.47-3.7-10.17a13.71,13.71,0,0,0-7.41-2.54q-.36-3.5-.74-7c-5.45,3-7.42,3.12-8.14,2.55-1.33-1.05,1.5-4.29,0-6.36-1.4-1.92-5.78-1.79-9.63-1.27,2-5.4,1.62-7.14.74-7.63-1.27-.7-3.24,1.33-5.18.64-2.33-.83-3.87-5.3-1.49-8.27,1.93-2.4,6-3.32,9.63-1.9,2-1.4,5.34-3.85,9.63-7s5.71-4.23,6.66-3.81c2.46,1.08-3.44,10.52.74,14,2.25,1.86,5,0,11.85,1.91,3.48,1,6.23,1.74,8.15,3.82,4,4.33-.47,9.09,3.7,14a11.71,11.71,0,0,0,6.67,3.81c4.31.73,6.47-1.75,9.62-1.27,2.55.4,5.61,2.72,8.15,10.81a41.29,41.29,0,0,0,11.11-1.91c6.45-2.07,8.12-4.5,10.37-3.81,5.41,1.65,2,17.69,5.92,18.43,1.57.3,3.49-2,4.44-3.18a9.61,9.61,0,0,0,2.22-7c1.7,1.42,3.91,1.91,5.19,1.27,1.65-.82,2.33-3.8,0-6.35,5.9,3.89,8.11,4.37,8.89,3.81,1.72-1.26-3.56-8-1.49-9.53,1.52-1.14,4.77,2.15,8.89,1.27,4.79-1,5.93-6.65,8.15-6.36,1,.13,2.19,1.4,3,7,6.67-3.08,9.24-2.74,10.37-1.9,3,2.2-3.15,8.61,0,17.16.9,2.46,1.75,2.85,3.7,7.63,2.12,5.2,3.18,7.8,2.22,8.9-2.59,3-13-4.34-28.88-3.18-4.2.31-12,.88-17,5.72-3.78,3.67-1.63,5.64-5.93,11.44-5,6.7-11.29,8.74-10.37,12.08.59,2.12,3.47,2.53,3.71,5.09.19,2.1-1.58,3.74-2.22,4.44-2.24,2.45-3.56,7.52.74,19.08,3.49-2,5.44-1.45,5.92-1.28C135.56,294.34,136,300.85,133.46,305.14Z"/><path class="cls-3" d="M137.88,309.11c-.68.47-3.22-.73-4.44-2.55-1.77-2.6-.16-5.45,0-5.72a26.49,26.49,0,0,0-6.67-5.08,44.11,44.11,0,0,0-8.15-3.18c-5-1.49-6.94-1.35-7.4-2.54-.82-2.1,4.18-5.24,3.7-5.72s-3.4,2.42-6.66,1.9c-1.5-.23-2.73-1.43-5.19-3.81a56.73,56.73,0,0,1-4.44-5.09c-2.8-3.42-3.23-4.19-3-4.45.61-.57,3.93,2.22,5.92,1.28s1.12-4.32,2.22-4.45c.84-.11,2.07,1.75,2.45,2.32s.3.64.52.85c.89.9,2.74.68,7.4,0-4.75-4.73-5.11-6.71-4.44-7.62s1.79-.46,3.7-1.91a15.38,15.38,0,0,0,2.92-3.12s0-.06,0-.06c.19,0,.64,2.35,1.48,7,1,5.67,1.06,6,1.49,7,1,2.31,1.56,2.17,3,5.08,1.56,3.27.9,3.59,2.22,5.72,1.51,2.46,2.73,2.61,4.44,5.09,1.13,1.63.8,1.89,2.22,5.08,1.07,2.37,1.37,2.58,3.71,7C138.28,308.49,138.11,309,137.88,309.11Z"/><path class="cls-3" d="M114.92,257c-2.28.39-3.72,1.18-4.44.64-.35-.26-.61-.88,0-2.55-.14-.2-1.43-2.11-2.22-1.9-.61.16-.68,1.49-.74,2.54-.09,1.51.22,2,0,3.18a6,6,0,0,1-.74,1.91c-2.24.64-3.22.37-3.71,0-.84-.66-.31-1.73-1.48-3.18a6.45,6.45,0,0,0-1.48-1.27,14.81,14.81,0,0,0-3.7-1.91,2.19,2.19,0,0,0,0-1.91,2.75,2.75,0,0,0-1.48-1.27,5.7,5.7,0,0,1-1.48,2.54c-.7.69-1,.67-1.48,1.27-.77,1-.36,1.79-.75,3.18a6.11,6.11,0,0,1-1.48,2.55,12.74,12.74,0,0,1-2.22,1.27,4.15,4.15,0,0,1-2.22.63,2.93,2.93,0,0,1-2.22-2.54c-.08-.72.21-1.06.74-2.54a22.19,22.19,0,0,0,.74-2.55,2.58,2.58,0,0,0-1.48-1.27c-.9-.25-1.51.22-2.22,0-.54-.16-1.17-.71-1.48-2.54-.86.35-2,.94-2.23,1.91s.41,1.45,0,1.9c-.65.74-3.33.31-3.7-.63-.18-.45.27-.82,0-1.27a2,2,0,0,0-1.48-.64,5.52,5.52,0,0,1-2.22-.63,3.26,3.26,0,0,1-1.48-1.27c-.52-1,.37-1.64,0-3.18-.13-.54-.27-1.1-.74-1.27-.68-.26-1.69.42-3,1.27s-1.62,1.31-2.22,1.27-1.18-.73-1.48-1.27a29.31,29.31,0,0,0,1.48-3.18l.74-1.91-4.44-.63c.32.06.67.11.74,0,.27-.4-3.34-2.15-3-3.18.22-.61,1.61-.39,2.22-1.27a2,2,0,0,0,0-1.91c-.17-.31-.42-.75-.74-1.27-1.35-2.2-1.86-2.45-2.22-2.55-.7-.18-.89.21-1.48,0-1.1-.37-1.32-2-1.48-3.17a8.93,8.93,0,0,1,0-2.55,3.91,3.91,0,0,1,.74-1.9,4.94,4.94,0,0,1,3-1.91c2.75-.53,4.95,1.66,5.18,1.91a5.32,5.32,0,0,1,1.48,3.81c-.09,1.07-.57,1.48-.74,3.18a8.5,8.5,0,0,0,0,1.91c.29,2.14,1.78,4.87,3.71,5.08a14.27,14.27,0,0,1,1.48,0c1.2.16,1.39.61,2.22.64,1.16,0,1.44-.81,2.22-.64s1.42,1.6,1.48,2.54c0,.74-.19.87,0,1.28.4.85,1.89,1.23,3,1.27s1.34-.31,3.71-.64a4.22,4.22,0,0,1,2.22,0,2.91,2.91,0,0,1,1.48,1.91,5.24,5.24,0,0,1,0,3.81c-.13,0-.35-1.12,0-1.27.52-.22,1.67,2,4.44,3.18a10,10,0,0,0,2.22.64A10.88,10.88,0,0,0,92,246.18a11,11,0,0,0,0-1.91,5.67,5.67,0,0,1,5.18,0,4.06,4.06,0,0,1,2.22,4.45c1.94,1.73,2.69,2.06,3,1.91.51-.3-.94-2.19,0-3.82a3.41,3.41,0,0,1,1.48-1.27,6.9,6.9,0,0,1,3.71.64,5.35,5.35,0,0,1,3,5.08l1.48-3.81c-.33-.49-1.94-3-.74-5.09a2.27,2.27,0,0,1,1.48-1.27c1-.13,2.27.85,3,2.54a16.71,16.71,0,0,1,1.48,1.27c1.45,1.4,2.6,2.46,3,3.82.44,1.62-.63,2.12-.74,4.45a8.35,8.35,0,0,0,.74,3.81A16.14,16.14,0,0,0,114.92,257Z"/><path class="cls-3" d="M135.85,243.59c.42,1.84.65,4.43-.88,6.45-2.14,2.82-5.95,2.23-7.94,4.84-1,1.3-1.7,3.61,0,8.07a11.79,11.79,0,0,1,7.06,1.61c3.59,2.32,2.65,5.43,7,8.88,1.36,1.06,1.21.58,5.29,3.22,3.38,2.19,3.89,2.78,5.3,3.23,1.63.52,4.16.74,7.94-.81-1.07-2.43-.76-5,.88-6.45,2.51-2.19,6.78-.47,7.94,0,.76.31,4.15,1.78,5.29,4.84.61,1.65,0,2.33.88,3.23,1.42,1.52,5.26,1.94,7.06,0a4,4,0,0,0,.88-3.23,12.62,12.62,0,0,0,4.41-4c1.67-2.59.89-3.84,2.65-6.46,1.87-2.79,3.49-2.47,4.41-4.84.83-2.15-.44-2.63,0-5.64.5-3.49,2.36-4,2.64-7.26a7.81,7.81,0,0,0-.88-4.84c-2.1-3.45-6.2-2.05-12.35-5.65-4.39-2.57-4.95-4.84-7.94-4.84-2.8,0-3.19,2-6.17,2.42-5.22.74-7.77-4.85-11.47-4-4.82,1.06-6.67,11.92-6.17,12.1.15,0,.87-.81.88-1.62,0-1.51-2.44-3.71-14.11-6.45"/><path class="cls-4" d="M220.06,331.1a26,26,0,0,1-9.62-5.09c5-5.29,4.07-11.42.74-13.35s-8.65.52-8.89.64c-7.24.66-12.44-3-12.59-6.36-.09-2.07,1.74-4.54,4.44-5.72a9.76,9.76,0,0,1,5.19-.64c2.82-2.35,3.16-4,3-5.08-.52-2.73-4.85-3.27-5.93-6.36-.72-2.09.42-4.24,1.49-5.72.28.21,6.19,4.47,8.14,3.18,1.24-.82.43-3.61,0-5.09-.86-2.94-2-3.25-3-6.35-.61-2-1.32-4.21,0-5.72,1.1-1.27,3-1.31,3-1.91,0-.76-3-.48-4.44-1.91-2.27-2.27-.07-8.34,3-8.9,2.35-.43,3.56,2.75,6.67,2.55,3.34-.22,4.39-4.07,6.66-3.82,2.63.29,2.24,5.56,5.18,6.36,4,1.08,9-7.51,13.33-6.36,2.44.65,2.54,3.8,4.45,3.82,2.11,0,2.65-3.81,5.92-6.36s8.87-4.44,11.85-2.54c3.44,2.18-1.63,10.81,0,11.44,1.34.51,3.87-5.36,8.89-5.72a8.21,8.21,0,0,1,7.4,3.81c.89,1.67.32,3,0,5.09-.85,5.6.77,12.64,3.71,13.35,2.13.51,5.58-2.18,6.66-5.09,1.36-3.65-1.26-6.94,0-7.63,1.45-.79,5.41,3.28,6.67,2.54.77-.45.1-2.51-.74-4.44a6.41,6.41,0,0,1,5.92-3.82,6,6,0,0,1,5.92,6.36l4.45-11.44c1.06.55,4.27,2.38,5.18,5.72,1.44,5.3-4.29,9.54-5.18,10.17a16.07,16.07,0,0,1-5.93,2.54c2.74,1.45,5.79,3.61,5.93,6.36.05,1.18-.46,1.79-3,5.72-4.17,6.54-4.51,7.62-4.44,8.9.15,2.67,1.94,3.08,1.48,5.08-.69,3-5,2.95-5.92,5.72-1.18,3.4,4.41,5.83,3.7,9.54-.48,2.5-3.54,4.15-7.4,5.72-14.22,5.77-23.3,3.93-36.29,8.26a61.13,61.13,0,0,0-13.33,6.36A95.93,95.93,0,0,0,229,332.37C225,331.91,223.05,331.94,220.06,331.1Z"/><path class="cls-3" d="M352.64,284.32c2.15.26,6.69.27,8.14-1.91s-.94-5.25,0-5.72,3.15,2.38,4.45,1.91c.93-.34.92-2.21.74-3.82,1.13,1.34,2.65,2.84,3.7,2.54s.82-1.76,1.48-3.81c1.26-3.9,4.52-7.34,5.93-7s.95,3.79,1.48,3.81,1-2.51,1.48-5.72l1.48-3.81a10.68,10.68,0,0,1,3,4.45c.91,2.79,0,4.63,1.48,5.72.43.31.7.29,4.45.63,4.49.41,4.81.5,5.18.64,2.77,1.06,2.6,3,4.44,3.18,2.46.26,3.94-3,5.93-2.55,1.72.39,1.68,3.09,3,3.18,1.62.12,2.37-4.18,4.44-4.45,1.3-.17,3.17,1.24,5.93,6.36a5.55,5.55,0,0,1,3.7-5.09,7.29,7.29,0,0,1,7.41,1.28c-.83-3.16-1.38-7,.74-8.27,2.33-1.37,6.22,1.43,8.14,0,2.34-1.73-1.59-7.22.74-8.9,2-1.46,6.7,1.46,8.15,0,1-1-1.06-2.77,0-4.45,1.29-2,5.39-1,6.66-3.18.32-.53.21-1.41,0-3.17a47,47,0,0,0-1.05-5c-.76-4,.58-4.88-.43-5.8-2.19-2-9.66.85-14.07,2.54-1.83.71-3.34,1.38-4.44,1.91-2.38-3.28-4-3.95-5.18-3.82s-1.57,1.2-3,1.28c-2.09.11-3-2.14-4.44-1.91s-.95,3-3,4.45c-2.52,1.75-6.07-.78-10.37,0-2.31.41-5.27,1.86-8.15,6.36a30.45,30.45,0,0,0-13.33,0c-3.42.81-3.88,1.66-6.66,1.9-6.67.58-10-3.79-12.59-2.54-3.33,1.59,1.08,9-3,12.08-2,1.48-4.39.78-14.81,0-4.75-.36-8.63-.54-11.11-.64-1.67.54-6.13,2.16-6.67,5.09-.42,2.3,1.77,4.38,5.19,7.63,4.26,4,6.28,4.13,7.4,7,.91,2.32,0,3.42,1.48,5.08C348.47,283.8,351.51,284.18,352.64,284.32Z"/><path class="cls-5" d="M281.55,503.21a114.33,114.33,0,0,1-5.93-13.35,141.28,141.28,0,0,1-5.18-18.44A170.15,170.15,0,0,1,266.73,453c-.84-6.54-.82-12.08-.74-22.89.18-23.19,1.86-26.61,3.71-29.24,4.21-6,11.23-10.56,12.59-11.44,7-4.56,8.62-3.35,11.84-6.36,7-6.5.56-13.3,5.93-25.42,3.08-7,5.35-5.09,12.59-16.53,2.92-4.61,5.15-9.43,9.63-19.07,5.63-12.13,5.11-12.32,8.14-17.8,3.88-7,7-12.7,13.33-18.44,5.94-5.4,8.73-5.43,15.55-10.8a63.66,63.66,0,0,0,14.81-16.53v-9.54c-6.75.58-10.07,2.66-11.84,4.45-1.54,1.55-1.32,2.27-4.45,8.9-3.37,7.15-4.72,8.66-6.66,9.54a11.65,11.65,0,0,1-6.67.63v-8.26c-1.61-.29-4-.49-5.92.64-2.25,1.33-2.58,3.84-3,5.72-.9,4.42-3.51,8.46-5.19,12.71a65.72,65.72,0,0,1-8.14,14.62c-1.94,2.85-4.68,6.79-8.15,11.44-3.7,5-4.95,6.35-6.67,6.36-4.22,0-7.42-8.29-8.14-10.17-2-5.13-1.82-8.68-2.22-14.62a143.93,143.93,0,0,0-2.22-17.16c-.23-2.75-.66-5.67-1.49-5.73-.37,0-1.08.53-2.22,4.45-2.75,1.16-3.91,1.05-4.44.64-.94-.73.2-2.35-.74-3.81-.81-1.26-2.73-1.73-4.44-1.91.09,7.05.05,17.61-.74,30.51-.86,13.76-1.44,11.88-1.49,18.44-.15,21,5.9,29.3-.74,40-.4.66-4.78,7.63-8.14,7-3.84-.72-4.4-11-5.19-25.43-.48-8.82-.72-13.24,0-19.07,1.31-10.56,3.6-10.83,5.19-22.89,1-7.77.39-10.1,2.22-16.52,2-6.86,2.94-10.3,5.18-12.72,1-1.1,2.34-2.23,2.22-3.81-.19-2.69-4.45-5.72-7.4-5.09s-2.86,4.71-8.15,14.62c-3.08,5.78-4.46,6.91-5.92,7-3.44.21-6.49-5.38-6.67-5.72-2.7-5.08-1.13-9.71-3-10.17-1.39-.36-2.6,2.24-5.92,2.54a7.8,7.8,0,0,1-3.71-.64,97,97,0,0,1,0,49.59c-.87,3.11-2.24,8.2-3.7,14.62s-1.87,9.13-3.7,9.53c-2.16.47-3.71-2.92-11.11-9.53a66.2,66.2,0,0,0-11.85-8.9c-3.65-2.11-7.77-4-8.88-4.45-5.43-2.41-6.86-2.51-9.63-4.45a17.74,17.74,0,0,1-5.93-6.36,15.8,15.8,0,0,1-1.48-7.63,21.77,21.77,0,0,1,1.48-8.26,26.69,26.69,0,0,1,3-5.09c1.62-2.42,3.86-5.67,6.66-9.53.33-.21,3.22-2.09,3-4.45-.36-3.29-6.59-5.3-9.62-3.82-1,.48-1.43,1.22-2.23,2.55-1.59,2.64-.87,3.57-2.22,6.35-.74,1.52-1,1.36-3,4.45-1,1.6-1.75,2.94-2.22,3.82l-3.7,1.27a24.88,24.88,0,0,1-3-7c-2.07-8.39,1.49-14.3-.74-15.26-1.52-.66-4.9,1.4-5.92,3.81-.52,1.23-.22,2,0,4.45.33,3.66-.22,3.58,0,7,.27,4.22,1.09,4.28,1.48,8.9a49,49,0,0,1,0,6.35c-.2,5.71-.76,6.52-1.48,7-1.67,1.1-4.27.43-5.93,0a17,17,0,0,1-6.66-3.81,32.8,32.8,0,0,1-5.18-5.72c-2.68-3.47-4.59-6.27-5.93-8.26-3.3-4.9-5.68-8.63-6.66-10.18-5.54-8.69-6.21-10.26-6.67-11.44-1.34-3.47-2.21-5.71-2.22-8.9a66.84,66.84,0,0,0,0-8.26c-.27-3.14-.67-4-1.48-4.45-1.49-.84-3,.43-6.67,0-2.49-.29-3-1-3.7-.64-1.56.91,1.51,5.08,2.22,12.08.39,3.82-.4,3.78,0,8.27.34,3.7,1.07,5.87,2.22,10.17,2.26,8.41,1.72,8.66,3,12.71,1.81,5.91,3.3,6.51,12.59,22.25,5.3,9,5.18,9.41,7.4,12.08,3,3.55,7.86,9.28,16.29,12.71,4.66,1.89,5.49,1.09,9.63,3.18,2.22,1.12,4.31,2.53,11.11,9.53,9.43,9.73,9,10.77,13.33,13.35,3.44,2.08,5.35,2.4,8.14,5.09a19.77,19.77,0,0,1,5.19,8.26c.65,2.08.69,3.75.74,7,.1,6.22-.69,8.14-.74,13.35-.05,4.84.62,4.46.74,9.54.16,6.56-1,7.12-1.48,15.25-.14,2.19,0,1.59,0,15.9v10.17c0,5.08-.19,10.17,0,15.25a39.28,39.28,0,0,1,0,5.09c-.24,2.88-.48,5.92-2.22,8.9-2,3.48-3.81,2.93-5.93,6.36-2,3.21-.67,4.09-2.22,8.26s-3.25,4.1-7.41,10.81c-2.58,4.18-1.86,4.12-4.44,8.26-3.78,6.05-3.88,7-5.92,9.53-2.88,3.52-4.8,4.2-4.41,4.88.85,1.51,9.36-3.12,20.7-2.33,9.37.65,10.57,4.29,17.93,3.31,6.94-.93,8.12-4.46,13.77-4,6.11.51,6.76,4.82,12.37,5,6.08.16,7.35-4.87,13.49-4.77,6,.09,7,4.84,12.64,4.77,5.79-.07,7.32-5.14,13.07-6.33,3.86-.8,9.77.13,18.75,7.8"/><path class="cls-6" d="M183.79,506.38c.31.28,8.28-4.68,14.81-13.35a50.1,50.1,0,0,0,4.48-7.06,46.53,46.53,0,0,0,5.15-19,13.5,13.5,0,0,0,5.19-6.36c1.63-4.79-1.45-8-3-12.71-3.79-11.75,7.51-16.53,6.67-35-.07-1.42-.48-4.18-1.32-9.68-2.1-13.87-3.43-16.51-3.13-23.38.22-4.87,1-5,.91-9.89,0-4.37-.08-9.15-2.39-13.63-1.58-3.06-5.42-5.78-13.09-11.24,0,0-7.78-5.52-20.21-12.52h0c-1.65-.93-2.86-1.59-3-1.65-17.83-9.87-25.18-15.89-25.18-15.89a71.9,71.9,0,0,1-12.59-13.35C130.82,289,130,286,130.47,285.8c1.17-.5,7.46,14.27,24.44,26.07a161.26,161.26,0,0,0,16.29,9.53c7.9,4.12,10.34,4.71,19.26,9.54,9.41,5.09,12.73,7.72,14.81,9.53a60.49,60.49,0,0,1,8.15,8.9c6.84,9.57,4.34,19.2,5.18,35,1.48,27.83,11,30.43,5.18,42.59-2.26,4.73-6.8,10.81-5.92,19.71.46,4.7,2.16,7.39,3,9.54C228,475.38,183.05,505.72,183.79,506.38Z"/><path class="cls-6" d="M229,469.51c.59,5.46,3.12,9.35,2.22,17.17-.08.65-.15,1.13-.21,1.49-1.42,8.81-5.93,17.89-7.94,17.58-2.25-.35-1.74-12.55-.74-20.34,2.08-16.12,8.29-28.75,8.89-28.61C231.57,456.89,228.15,462,229,469.51Z"/><path class="cls-6" d="M229.77,439c-.33,3.05-.11,4.73-1.31,7.63-.59,1.42-2,3.86-2.63,3.81-1.85-.14,4.16-23.56,5.26-23.52.49,0,0,4.63,0,5.09C230.77,435.22,230.16,435.51,229.77,439Z"/><path class="cls-6" d="M244.48,371.55c.48,4.2,1.5,6.39.32,10.71-.58,2.13-2.33,5.92-3.46,6.08-3.45.46-.8-33.16,1.24-33.49.89-.15,1.73,6.19,1.82,6.83C245,366.11,243.94,366.72,244.48,371.55Z"/><path class="cls-6" d="M251.83,386.6c-.35,4.81-.12,7.47-1.33,12-.6,2.25-2.05,6.1-2.66,6-1.88-.23,4.2-37.22,5.32-37.14.49,0,0,7.3,0,8C252.84,380.63,252.22,381.09,251.83,386.6Z"/><path class="cls-6" d="M142.32,296A64.51,64.51,0,0,0,157,310.25c4.49,3.07,9.56,5.47,9.71,4.75s-5.9-5.52-9.73-8.49C151,301.89,146,298.4,142.32,296Z"/><path class="cls-6" d="M245.26,289c.29,0,.58,1.91,1.11,5.5a104,104,0,0,1,1.11,10.39c.32,7.44.8,18.33-5.18,29.88-2.42,4.66-5.39,8.47-5.93,8.26-.73-.28,3.64-7.66,5.93-19.07a115.37,115.37,0,0,0,1.48-13.34C244.84,297.29,244.65,289,245.26,289Z"/><path class="cls-6" d="M280.42,286.44l0-.38a36.72,36.72,0,0,1,.88-5.34,52.8,52.8,0,0,1,.92,6.36,49.7,49.7,0,0,1,0,8.89c-.3,2.69-.65,4.85-.92,6.36a41.55,41.55,0,0,0-.91,7c0,.33,0,.8,0,1.76,0,2,0,3.1,0,5.24v3.43c0,6.71,0,6.06,0,6.74s.32,3.22.91,8.26c.26,2.22.23,2,.26,2.24.65,5.83,1,8.75.66,11.75a24.88,24.88,0,0,1-1.83,7l-5.5,7c-2.62,1.31-3.44,1.43-3.67,1.27-.62-.43,2.9-3,5.5-7a20,20,0,0,0,2.75-6.36,52.45,52.45,0,0,0,.92-7.63c.11-2.5-.24-6.15-.92-13.34-.38-4-.59-8.06-.92-12.08a27.59,27.59,0,0,1,0-5.72c.12-1.07.39-2.42.92-5.09s.67-3.16.92-4.45a51.67,51.67,0,0,0,.91-7,44.78,44.78,0,0,0,0-5.09"/><path class="cls-6" d="M286.73,284.53c1-.2,2.5,2.38,3,3.18,3.13,5.45,1.69,11.23.74,14a94.61,94.61,0,0,0-3.7,19.07c-.49,5.43-.38,9.52-.74,9.53s-1.58-7.19-1.48-15.25c.1-7.82,1.22-8,1.48-16.53C286.24,290.11,285.32,284.81,286.73,284.53Z"/><path class="cls-6" d="M336.35,269.28a34.28,34.28,0,0,0-1.48,3.81c-.35,1.07-.53,2.36-1.25,4.44-.07.18-.14.39-.24.65a31.94,31.94,0,0,1-2.22,4.45,39.58,39.58,0,0,0-2.22,5.72c-.65,1.42-1.39,2.91-2.22,4.45-.73,1.34-1.48,2.62-2.22,3.81-.52.72-1.3,1.82-2.22,3.18-1.54,2.24-1.89,2.85-3,4.45a66.3,66.3,0,0,1-5.18,7c-1.27,1.46-3.48,3.95-3.7,3.82s2.39-4,3.7-5.73c.7-.94,1.2-1.56,1.48-1.9,1.18-1.45,1.55-1.71,2.22-2.55a21.64,21.64,0,0,0,2.22-3.81c.5-.92,1.25-2.23,2.23-3.81a34.14,34.14,0,0,0,2.22-3.82c.72-1.46.73-1.74,1.48-3.18,1.09-2.1,1.4-2.12,2.22-3.81s.7-2.08,1.48-3.81a20.74,20.74,0,0,1,2.22-3.82"/><path class="cls-7" d="M256.37,442s2.14,16.12,4.44,39.56c1.24,12.63,1.92,19.65,1.48,19.78s-2.13-7.15-3-14.58c-.19-1.72-.29-3-.74-10.4-.31-5.12-.56-9.4-.74-12.5a38.89,38.89,0,0,1-.74-5.2c-.27-3.39,0-5,0-8.33A51.17,51.17,0,0,0,256.37,442Z"/><path class="cls-7" d="M263.12,463c-.93.5,1.06,16.49,7.67,31.47a80.25,80.25,0,0,0,7.66,13.68l3.84,2.73c-2.09-4.69-5.15-11.75-8.63-20.52C266.11,471.3,263.83,462.57,263.12,463Z"/><path class="cls-7" d="M225.39,463.47c-.92,2.49-2.28,6-4.15,10.06a154.62,154.62,0,0,1-12.44,22.23c-1.92,2.85-4.6,6.59-8,10.74a7.84,7.84,0,0,0,5.93-1.88c3.72-3,5.82-8.44,7.81-13.58C217.09,484.44,220.52,475.66,225.39,463.47Z"/><path class="cls-7" d="M259.28,407.22c.06,0,0,1.72,0,5.08,0,1.18,0,2,0,2.89.18,10.5.11,11.67,0,12.54-.36,3-.61,2.36-1.28,6.83-.75,5-.45,5.95-1.27,9.12a50.89,50.89,0,0,1-2.56,6.83c-.24.57-3.42,8.1-3.84,8s3.56-7,5.12-17.09c.5-3.26.29-3.8,1.28-11.39.66-5.13.8-5.22,1.27-9.12C259,413.19,259.18,407.21,259.28,407.22Z"/><path class="cls-7" d="M264.51,409.76c.34,0,.58,1.14.74,1.91a7.76,7.76,0,0,1,0,3.18,15.54,15.54,0,0,0-1.48,5.08,14.63,14.63,0,0,0,0,3.18,23.48,23.48,0,0,1-.74-6.36C263.11,413.49,263.89,409.75,264.51,409.76Z"/><path class="cls-7" d="M351.16,276.27c.17.22-.54,1.07-4.45,3.81a47.71,47.71,0,0,0-4.44,3.18c-2.22,1.79-3.6,3.25-3.7,3.18s.52-.86,3.7-4.45a12.93,12.93,0,0,1,3-3.18C347.7,276.93,350.86,275.89,351.16,276.27Z"/><path class="cls-7" d="M310.43,342.38a32.64,32.64,0,0,1-3,4.45,24.28,24.28,0,0,1-5.92,5.08c.69-1,1.73-2.55,3-4.45,1.88-2.87,2.13-3.35,3-4.45,2.07-2.7,4.79-5.31,5.19-5.08S311.71,340.24,310.43,342.38Z"/><path class="cls-7" d="M252.66,420.57c1.37.58-1,14.69-2.22,22.07-2.31,13.81-3.57,15.62-5.18,26.86-1.75,12.24-1.68,20.15-2.22,20.14s-.94-4.45-1.48-24.94a113.79,113.79,0,0,1,3.7-25.9C247.62,429.9,251.47,420.07,252.66,420.57Z"/><path class="cls-7" d="M283.77,372.26c.33.25-3.7,4.06-9.63,11.44-10.08,12.55-14.22,21.21-14.81,21s2.53-9.28,9.63-18.44C275.48,377.83,283.33,371.93,283.77,372.26Z"/><path class="cls-7" d="M228.23,344.92c2.13,3.42,4.15,8.26,4.44,18.44.24,8.32-.79,16.54-1.48,16.52s.36-8.35-2.22-20.34-7.12-19.87-5.93-20.34C223.85,338.88,226.55,342.23,228.23,344.92Z"/><path class="cls-7" d="M260.78,393c.81.06,2.05-11.34,2.41-19.14.2-4.26.16-7.91.06-10.76-.36-9.77-1.92-22.06-2.79-22C258.69,341.21,259.07,392.91,260.78,393Z"/><path class="cls-7" d="M297.84,326.49c.64.09-.13,9.56-3,19.7-2.47,8.81-6.08,16.68-6.67,16.53-.44-.11,1.18-6.22,4.44-18.43C295.83,332.38,297.42,326.43,297.84,326.49Z"/><path class="cls-8" d="M239.66,432.19c-2.74,15.14-7.17,29-7.71,28.8-.92-.32,8.81-43.43,9.68-43.2C242,417.89,240.57,427.13,239.66,432.19Z"/><path class="cls-8" d="M232.54,397.47c-.23,10,3.14,20.46,5.19,20.34,1.64-.1,2.89-7,2.22-12.72a27.83,27.83,0,0,0-6.67-14.62A44.27,44.27,0,0,0,232.54,397.47Z"/><path class="cls-8" d="M264.39,290.67q-2.43,43.95-3.95,43.86-1.33-.06-2-33.41Z"/><path class="cls-8" d="M186.28,312.23c14,8.79,25.71,18.79,25.23,19.25-.83.82-39.57-26.18-38.86-27C173,304.15,181.61,309.29,186.28,312.23Z"/><path class="cls-8" d="M322.33,312.18c-8.39,13-18.46,24.26-19.06,23.91-1-.6,25.26-37,26.26-36.49C330,299.83,325.14,307.83,322.33,312.18Z"/><path class="cls-2" d="M196.87,210.29c.56-.52,2.23-.61,7.37,1.72,11.93,2.5,15.8,1.24,17.07-.45,2.56-3.39-5.07-9.1-2.22-13.34,2.49-3.73,11.61-4.8,17-1.91,4.47,2.38,3,5.66,8.15,8.9,4.83,3.06,10.87,3.14,13.33,3.18,7,.09,9-2.11,11.84-.64,3.95,2,1.82,7.05,5.19,10.17,2.34,2.18,7.71,3.76,21.47,0-3.48,7.74-8.12,11.1-11.84,12.72-2.81,1.22-3.55.77-12.59,2.54-10.83,2.11-11.61,3.1-17.78,3.81-5.14.6-5.09,0-15.55,0-14.9.06-21.25,1.37-22.21-.63-1.28-2.66,8.77-7.29,7.4-10.17-1.15-2.44-8.62.21-16.29-3.18S195.3,211.78,196.87,210.29Z"/><path class="cls-2" d="M384.23,202c1,5.16,13.76,6.71,13.33,8.9-.34,1.72-8.14.24-11.11,3.81-3.56,4.28,2.59,12.45.74,13.35-.5.25-1.63,0-4.44-2.54-7.32.43-12.28,2.23-12.59,4.45-.27,1.9,2.86,4.17,5.92,5.08,1.56.47,5.93,1.42,24.44-7,7.92-3.6,9.75-5,14.07-5.08,5.11-.14,8.65,1.6,10.37,0,2.14-2-1.91-6,0-8.27,3.11-3.67,17.57,2.53,19.25,0,1-1.44-2.85-4.85-6.66-8.26-7.11-6.35-13.24-9.75-12.59-10.81s5.89,2,9.63,0c3.49-1.86,4.63-7.53,2.22-9.53-1.4-1.16-3.68-.83-8.15,0-14.28,2.65-16.5,4-23.7,5.08-7.8,1.17-10,.3-14.07,2.55C390.46,194,383.45,198,384.23,202Z"/><path class="cls-2" d="M387.93,113c-1.68,2.89,1.94,5.2.74,10.81a10.85,10.85,0,0,1-3,5.72c-3.34,3.33-8.22,3.74-9.63,3.82,0,2.2-.5,5.21-3,7-4,2.86-10.84.94-11.11,1.91s6.15,1.55,9.63,5.72c2.54,3,3.89,8.4.74,10.8-2.77,2.12-7.54.81-8.15.64a19,19,0,0,0-5.92,7,16,16,0,0,0-1.48,8.9c-11.4,1.39-14,2.76-14.07,3.82-.1,2.38,13,6.31,17.77,2.54,2.09-1.65,1.88-4.17,3.7-4.45,2.65-.41,4.55,4.71,7.41,4.45,1.86-.17,2.85-2.49,4.44-5.72,1.44-2.91,3.61-7.06,6.67-12.08,1.81,0,4.47-.31,5.92-1.91,2.85-3.12-1.5-8.45.74-10.17,2.64-2,10.62,3.85,13.33,1.91,1.71-1.23.45-4.93-.74-7.63,8.46-4.18,9.87-7.06,9.63-8.9-.43-3.32-6.33-4.21-8.89-9.53A11.84,11.84,0,0,1,402,120c2.16-3.53,1.34-7.57-1.48-9.54C396.5,107.69,389.69,110,387.93,113Z"/><path class="cls-2" d="M279.81,148c3.57-3.62,8.92-4,15.55-4.45,4.69-.33,10-.7,11.11,1.27,1.31,2.39-4.88,6.07-3.7,7.63s9-.78,12.59-2.55a39.59,39.59,0,0,0,6.65-4.4h0c.34-.29.58-.51.74-.67a22.65,22.65,0,0,1,3.71-11.44,26.11,26.11,0,0,1,5.92-6.36c4.39,7.49,3.76,11.92,2.22,14.62-4.66,8.17-20.5,5.49-36.28,16.53a47.65,47.65,0,0,0-9.63,8.9c-3.69,2-8.15,2.32-11.11.63-4.25-2.42-5.53-9-.74-14A11,11,0,0,1,279.81,148Z"/><path class="cls-2" d="M50.24,168.34c2.53-2.27-1.43-7.33,1.48-9.54,1.53-1.16,3.09-.11,5.19-1.27,3.78-2.09,4.26-8.56,2.22-9.53-1.44-.69-3.12,1.84-8.89,3.18a20.6,20.6,0,0,1-5.92.63c-6.11-.33-11.33-4.08-11.11-4.45s2.5.18,3,1.27c.53,1.27-1.56,3.32-3.7,4.45-4.4,2.32-9.31.88-9.63,1.91-.25.8,2.82,1.25,4.45,3.81,1.5,2.37.11,3.9,1.48,5.72,1,1.36,2.71,1.74,7.4,2.55C44.84,168.55,49.2,169.27,50.24,168.34Z"/><path class="cls-2" d="M76.9,137.83c.23-.83,1.74-1.63,6.67-1.91-7.16-7.36-8-9.57-7.41-10.17s2.68.64,7.41,1.27c3.93.52,7.85,1,9.62-.64,2-1.86-.71-4.57,1.49-8.9.67-1.33,1.51-3,3-3.17,3.47-.47,5.58,8.11,10.36,8.26,3.71.12,6.62-4.9,7.41-4.45s-3.9,5.13-2.22,8.9c1.51,3.39,6.78,2.82,8.14,6.36,1,2.58-1.39,4-.74,7s4,5.12,6.67,6.36c1.81.34,4.22.51,5.92-.64,2-1.35,1.82-3.72,3-3.81,1.43-.12,2.83,3.49,3,3.81.37,1,2.12,5.56,0,7s-5.28-1.68-8.89-.63c-2.81.81-4.32,3.66-5.18,6.35a11.28,11.28,0,0,0-5.93-4.45c-4.72-1.4-8.48,1.27-11.85-.63-1.17-.67-1.5-1.44-3-4.45-5.43-11.22-6.49-12-7.4-12.08-2.5-.19-2.91,5.06-7.41,6.36C84.11,145.1,76.28,140,76.9,137.83Z"/><path class="cls-2" d="M117.63,111.13c2-1.39,4.33-3.58,4.45-6.36.14-3.66-3.7-7-3.71-7s3.61,6.55,7.41,6.36c1.77-.1,1.82-1.57,4.44-2.55,3.13-1.16,4.63.34,9.63,0,2.7-.18,6-.4,8.14-2.54,1.53-1.54,2.62-4.25,1.49-6.36-1.44-2.66-5.42-2.42-12.59-5.08a53.9,53.9,0,0,1-8.15-3.82c-1.07-4.66-1.77-5.74-2.22-5.72-1,.06-.48,5.76-3.7,7-1.44.54-2.1-.37-4.45,0s-3.07,1.53-5.92,3.17c-4.42,2.55-5.67,1.41-7.41,3.18s-.62,2.88-1.48,8.9c-.75,5.27-1.83,6.29-.74,8.27,1.53,2.75,5.24,3.64,5.93,3.81A12.75,12.75,0,0,0,117.63,111.13Z"/><path class="cls-2" d="M160.58,74.26C160.9,72,163.27,70,165,68.54c2.66-2.23,4.61-2.84,4.44-3.82-.1-.59-1-1.33-4.44-1.9L171,60.27c2,2.1,4.43,4.33,5.93,3.82,1.9-.66.58-5.24,2.22-5.72S185.66,62.14,185,66c-.47,2.85-3.69,4.11-3,5.73.45,1,2,1.09,4.44,1.9a26.81,26.81,0,0,1,7.41,3.82c3.11,1.73,6.43,3.89,5.92,5.08s-4.89.28-5.92,1.91c-1.35,2.15,5.2,5.39,4.44,9.53-.54,3-4.65,5.62-7.4,5.09-3.21-.62-3-5.24-5.93-5.72-3.78-.62-8,6.44-9.63,5.72-1-.47.58-3.57-.74-4.45-1.62-1.09-5.9,4-8.14,3.18-2.87-1.09,2.68-9.76-2.22-17.16C162.52,77.94,160.24,76.72,160.58,74.26Z"/><path class="cls-2" d="M207.24,91.42s-.34.8-.66,6.83h0s-.08.76-.08.8c-.09,1.08,8.54,3.31,8.88,5.72.25,1.71-3.81,2.64-3.7,4.45s3.77,3,7.41,3.81c1.06-3.73,3.32-6.42,5.18-6.35,2.08.07,4.55,3.6,4.44,8.9-1.88-4-.87-7.83,1.49-8.9s6.26.88,8.14,2.54c0,0,1.5,1.32,4.44,8.26h0s1.79-3.6,4.45-5.08c1.17-.66,3.17-1.26,6.66-.64a38.41,38.41,0,0,0-5.18-6.35c-4.3-4.27-7.2-5.2-10.37-8.9a22.31,22.31,0,0,1-4.44-8.27,17,17,0,0,0-3.7,4.45c-1.64,2.89-1.2,4.31-3,5.72a7.84,7.84,0,0,1-6.66,1.28,6.43,6.43,0,0,1-4.44-3.82c-.24-.67-.3-1.36.74-5.72.86-3.66,1.13-4.12.74-4.45C216.23,84.57,209.11,87,207.24,91.42Z"/><path class="cls-2" d="M263.52,92.69c0,1.28-.52,3-3,5.09-7.06,1.77-7.45,2.8-7.41,3.18.12,1,3.69,2,6.67,1.27,2.32-.58,2.78-1.87,4.44-1.91,1.23,0,3,.63,5.18,3.82a10.77,10.77,0,0,0,4.45-1.28c4.66-2.6,5.48-8.43,4.44-8.9-.78-.35-3.34,2-3,2.55s4-.62,8.89-2.55c6.39-1.95,8.1-3.7,8.14-5.08.07-2-3.5-3.45-3-5.09.37-1.13,2.48-1.65,4.44-1.9-1.91-5.84-4.49-7.74-6.66-8.27s-4.13.4-5.93-.63c-2.07-1.19-2.35-4-2.22-6.36-.49-1.62-1.36-3.47-3-3.81-2.31-.5-3.78,2.66-8.15,4.45-5.73,2.34-11.57.33-11.85,1.27s7.51,1.84,8.89,5.72c0,0,.69,1.93-5.92,11.44h0C262.51,90,263.47,91.12,263.52,92.69Z"/><path class="cls-2" d="M181.92,122.26c.68-1.65,15.59-1.33,17.77,4.42,1.61,4.25-4.35,9.87-5.93,11.37a36.51,36.51,0,0,1-3,2.44c-6.23,4.8-8.65,4.85-8.88,6.4-.47,3.07,8.88,3.86,11.84,10.1,1.76,3.7,1.05,8.82-2.22,10.74-4.35,2.56-11.7-1.46-14.81-3.16-5.3-2.9-15.34-10.23-13.33-17,.95-3.22,4.34-5.1,11.11-8.84,10-5.56,16-6,16.29-8.84C191.14,126.16,181.33,123.66,181.92,122.26Z"/><path class="cls-2" d="M238.2,7.15c.84-.17,3.3,3.66,3.7,7.58a11.55,11.55,0,0,1,0,1.65,12.57,12.57,0,0,1-2.27,6.56C237.29,10,237.54,7.29,238.2,7.15Z"/></g></svg>