<svg xmlns="http://www.w3.org/2000/svg" xmlns:xlink="http://www.w3.org/1999/xlink" width="318.3" height="113.63" viewBox="0 0 318.3 113.63"><defs><style>.cls-1{fill:#603813;}.cls-2{fill:url(#linear-gradient);}.cls-3{fill:#42210b;}</style><linearGradient id="linear-gradient" x1="7.87" y1="53.36" x2="310.43" y2="53.36" gradientUnits="userSpaceOnUse"><stop offset="0.14" stop-color="#a67c52"/><stop offset="1" stop-color="#754c24"/></linearGradient></defs><g id="Layer_4" data-name="Layer 4"><path class="cls-1" d="M317.05,113.63H0v-18l12.05-11.9L0,75.24Q.42,58,.83,40.69l7.9-6.14L0,28.57V0L318.3,1.92q-.63,6.65-1.25,13.31l-6.23,6.27,6.23,5.37V64.66l-12.46,9.81,12.46,8.72Z"/><path class="cls-2" d="M309.24,106.72H7.87v-17L19.32,78.6q-5.71-4-11.45-7.93.39-16.23.79-32.45l7.5-5.77L7.87,26.83V0L310.43,1.8q-.6,6.26-1.19,12.5l-5.92,5.89,5.92,5V60.73L297.4,69.94l11.84,8.19Z"/><path class="cls-3" d="M35.07,52.62V39.52H63.51v13.1H56.38V69.09H42.2V52.62Z"/><path class="cls-3" d="M78.39,50.87c1.64-3.53,4-5.3,7.17-5.3a6.1,6.1,0,0,1,4.32,1.58,5.31,5.31,0,0,1,1.7,4,5.43,5.43,0,0,1-1.67,4.13,6.07,6.07,0,0,1-4.35,1.58,7.26,7.26,0,0,1-5.25-2.13q-1.92,1.51-1.92,5.62v8.7h-13V45.76h13Z"/><path class="cls-3" d="M110,75.64H95.94l5.2-11.36L92.25,45.76h12.9l3,6.22,2.92-6.22h12.58Z"/><path class="cls-3" d="M140.85,55.35v-7a27.23,27.23,0,0,1,12.46-2.77q6.63,0,9.77,2.61c2.1,1.75,3.15,4.41,3.15,8V69.09h-13V67.35A11.1,11.1,0,0,1,147,69.28a6.91,6.91,0,0,1-4.82-1.73,5.61,5.61,0,0,1-1.93-4.37,5.93,5.93,0,0,1,2.39-4.89,9.78,9.78,0,0,1,6.25-1.89,18.28,18.28,0,0,1,4.43.54,2.92,2.92,0,0,0-1.36-2.54,6.64,6.64,0,0,0-3.76-.91A16.3,16.3,0,0,0,140.85,55.35Zm12.42,8.59V60.68a7.06,7.06,0,0,0-2.12-.37,3,3,0,0,0-1.89.56,1.79,1.79,0,0,0-.71,1.48,2,2,0,0,0,.76,1.59,3,3,0,0,0,1.94.64A3.23,3.23,0,0,0,153.27,63.94Z"/><path class="cls-3" d="M199,45.8V64.09q0,6-3.3,8.77c-2.21,1.85-5.61,2.78-10.23,2.78q-9,0-14.95-3.37V61.67a15.05,15.05,0,0,0,10.32,4.16q5.24,0,5.24-3a3.5,3.5,0,0,0-.06-.62,10.43,10.43,0,0,1-5.33,1.26,11.05,11.05,0,0,1-7.48-2.4,8.09,8.09,0,0,1-2.78-6.44,8.46,8.46,0,0,1,1.19-4.56,7.67,7.67,0,0,1,2.77-2.78,10.79,10.79,0,0,1,3.51-1.19,44.75,44.75,0,0,1,6.54-.32Zm-13,6.55h-.3q-4.33,0-4.34,2.92a2.44,2.44,0,0,0,.78,1.91,2.92,2.92,0,0,0,2.05.71,3,3,0,0,0,1.81-.5Z"/><path class="cls-3" d="M203.9,55.35v-7a27.25,27.25,0,0,1,12.46-2.77q6.63,0,9.77,2.61c2.1,1.75,3.15,4.41,3.15,8V69.09h-13V67.35A11.08,11.08,0,0,1,210,69.28a6.92,6.92,0,0,1-4.82-1.73,5.61,5.61,0,0,1-1.93-4.37,6,6,0,0,1,2.39-4.89,9.78,9.78,0,0,1,6.25-1.89,18.22,18.22,0,0,1,4.43.54A2.89,2.89,0,0,0,215,54.4a6.64,6.64,0,0,0-3.76-.91A16.3,16.3,0,0,0,203.9,55.35Zm12.42,8.59V60.68a7.06,7.06,0,0,0-2.12-.37,3,3,0,0,0-1.89.56,1.81,1.81,0,0,0-.71,1.48,2,2,0,0,0,.76,1.59,3,3,0,0,0,1.94.64A3.23,3.23,0,0,0,216.32,63.94Z"/><path class="cls-3" d="M247.11,45.76V69.09h-13V45.76a14.34,14.34,0,0,0,6.65,1.34A13.37,13.37,0,0,0,247.11,45.76Zm-3.73.08a3.73,3.73,0,0,1-2.61-1,3.18,3.18,0,0,1-1.09-2.4A3.14,3.14,0,0,1,240.77,40a3.76,3.76,0,0,1,2.61-1A3.65,3.65,0,0,1,246,40,3.12,3.12,0,0,1,247,42.43a3.16,3.16,0,0,1-1.07,2.4A3.62,3.62,0,0,1,243.38,45.84Z"/><path class="cls-3" d="M264.9,45.76v2.93a10.92,10.92,0,0,1,7.82-3.12c2.95,0,5.21.75,6.79,2.27s2.35,3.77,2.35,6.76V69.09H269.61V55.49c0-1.94-.79-2.91-2.39-2.91a4.21,4.21,0,0,0-2.32.76V69.09h-13V45.76Z"/></g></svg>