<svg xmlns="http://www.w3.org/2000/svg" xmlns:xlink="http://www.w3.org/1999/xlink" width="690.1" height="505.45" viewBox="0 0 690.1 505.45"><defs><style>.cls-1{fill:#333;}.cls-2{fill:url(#radial-gradient);}.cls-3{fill:#666;}.cls-4{fill:#ccc;}.cls-5{fill:url(#radial-gradient-2);}.cls-6{fill:url(#radial-gradient-3);}.cls-7{fill:url(#radial-gradient-4);}.cls-8{fill:#ffada8;}.cls-9{fill:#ffd9ce;}.cls-10{fill:url(#radial-gradient-5);}.cls-11{fill:url(#radial-gradient-6);}.cls-12{fill:url(#radial-gradient-7);}.cls-13{fill:#fff;}.cls-14{fill:#4d4d4d;}.cls-15{fill:url(#radial-gradient-8);}.cls-16{fill:gray;}.cls-17{fill:#ff4a87;}.cls-18{fill:#999;}.cls-19{fill:url(#radial-gradient-9);}.cls-20{fill:url(#radial-gradient-10);}.cls-21{fill:url(#radial-gradient-11);}.cls-22{fill:red;}</style><radialGradient id="radial-gradient" cx="446.72" cy="450.05" r="33.76" gradientTransform="translate(0.04 0.06) scale(0.99 0.99)" gradientUnits="userSpaceOnUse"><stop offset="0" stop-color="#ccc"/><stop offset="1" stop-color="#999"/></radialGradient><radialGradient id="radial-gradient-2" cx="313.23" cy="373.55" r="58.18" xlink:href="#radial-gradient"/><radialGradient id="radial-gradient-3" cx="340.98" cy="263.28" r="145.9" gradientTransform="translate(79.77 30.61) scale(1.01 1.02)" gradientUnits="userSpaceOnUse"><stop offset="0" stop-color="#fff"/><stop offset="0" stop-color="#ccc"/><stop offset="0" stop-color="#b3b3b3"/><stop offset="1" stop-color="#999"/></radialGradient><radialGradient id="radial-gradient-4" cx="376.19" cy="195.03" r="91.45" gradientTransform="translate(0.04 0.06) scale(0.99 0.99)" gradientUnits="userSpaceOnUse"><stop offset="0" stop-color="#ccc"/><stop offset="1" stop-color="gray"/></radialGradient><radialGradient id="radial-gradient-5" cx="-35.36" cy="79.27" r="82.22" gradientTransform="translate(203.23 31.36) scale(1.03 1.02)" xlink:href="#radial-gradient-4"/><radialGradient id="radial-gradient-6" cx="173.19" cy="137.34" r="150.31" xlink:href="#radial-gradient"/><radialGradient id="radial-gradient-7" cx="269.11" cy="110.77" r="21.42" gradientTransform="matrix(1, -0.04, -0.04, 1.16, -5.79, 28.57)" gradientUnits="userSpaceOnUse"><stop offset="0" stop-color="#fff"/><stop offset="1" stop-color="#666"/></radialGradient><radialGradient id="radial-gradient-8" cx="1482.27" cy="-1113.37" r="21.42" gradientTransform="matrix(0.79, 0.2, -0.27, 1.03, -1279.56, 959.22)" xlink:href="#radial-gradient-7"/><radialGradient id="radial-gradient-9" cx="530.33" cy="408.72" r="79.62" gradientTransform="translate(0.04 0.06) scale(0.99 0.99)" gradientUnits="userSpaceOnUse"><stop offset="0" stop-color="#fff"/><stop offset="0" stop-color="#ccc"/><stop offset="1" stop-color="#999"/></radialGradient><radialGradient id="radial-gradient-10" cx="660.88" cy="317.61" r="27.94" gradientTransform="translate(0.04 0.06) scale(0.99 0.99)" gradientUnits="userSpaceOnUse"><stop offset="0" stop-color="#fff"/><stop offset="1" stop-color="#4d4d4d"/></radialGradient><radialGradient id="radial-gradient-11" cx="364.68" cy="418.24" r="68.61" gradientTransform="translate(0.04 0.06) scale(0.99 0.99)" gradientUnits="userSpaceOnUse"><stop offset="0" stop-color="#fff"/><stop offset="0" stop-color="#b3b3b3"/><stop offset="0.01" stop-color="#ccc"/><stop offset="1" stop-color="#999"/></radialGradient></defs><g id="Layer_4" data-name="Layer 4"><path class="cls-1" d="M191.82,78.73c.26-7,8.25-12.35,17.85-12,6.28.24,11.69,2.87,14.61,6.61a56.91,56.91,0,0,0-6.14-.56c-11.78-.44-22,2.69-26.25,7.49A8.9,8.9,0,0,1,191.82,78.73Z"/><path class="cls-1" d="M284,94c7.18-2.2,15.27,3.46,18.08,12.65,1.85,6,1,12-1.86,16.1a53.8,53.8,0,0,0-1.47-6c-3.45-11.27-10-19.8-16.29-22.15A11.47,11.47,0,0,1,284,94Z"/><g id="Rightt_foot" data-name="Rightt foot"><path class="cls-2" d="M425.81,472C419.61,470,406,465.71,404.89,457c-.46-3.64,4.41-13.61,6-15.69,1.74-9.72.5-12.71,2.24-22.42a.21.21,0,0,1-.06-.17q.18-2.49,66.57.17a100.38,100.38,0,0,0,0,16.44c.47,5.67,1.22,8.55.74,14.19A37.45,37.45,0,0,1,478.12,460c-.65,1.67-2.32,6-5.23,9-1.37,1.41-5.22,4.81-21.67,5.23C440.8,474.46,434.32,474.62,425.81,472Z"/><path class="cls-3" d="M423.4,459.8c-1.43,8-.31,9.81-5.9,7.46-8.2-3.44-12.15-6-8.45-14,3.15-6.82,5.63-9.24,10.7-7.27C423.82,447.56,424.84,451.82,423.4,459.8Z"/><path class="cls-4" d="M422.18,461.55c-1.37,7.62-.23,9.37-5.83,7.09-8.22-3.36-12.19-5.83-8.55-13.46,3.09-6.5,5.54-8.8,10.63-6.87C422.5,449.85,423.55,453.93,422.18,461.55Z"/><path class="cls-3" d="M445.2,462.27c0,6.72,1.63,10.63-5,9.24-12.05-2.51-16.27.42-13.34-12.5,1.74-7.69,5.19-11.81,12.82-9.93C443.8,450.1,445.2,455.56,445.2,462.27Z"/><path class="cls-4" d="M444,464.3c0,6.71,1.62,10.63-5.05,9.24-12-2.51-16.26.42-13.33-12.5,1.74-7.69,5.18-11.81,12.82-9.93C442.55,452.13,444,457.59,444,464.3Z"/><path class="cls-3" d="M469,459.77c.93,8.08,2.15,10-5.6,10.42-14.19.82-14.41,3.23-13.45-12.41.5-8.08,5.47-10.11,11.45-10.11C466.63,447.67,468,451.84,469,459.77Z"/><path class="cls-4" d="M468.53,462c.94,7.3,2.15,9-5.59,9.41-14.2.75-14.41,2.92-13.45-11.21.49-7.3,5.47-9.13,11.44-9.13C466.22,451,467.61,454.8,468.53,462Z"/></g><path class="cls-5" d="M357.06,412.18c-.91,3.23-3.14,11.17-10.46,17.18a30.54,30.54,0,0,1-18.68,6.73c-9.74,0-16.42-4.9-20.92-8.22a49.6,49.6,0,0,1-16.44-21.67c-5.71-2.38-13.63-6.77-19.43-14.94-18.37-25.85-4.29-83.65,13.07-87,4.21-.82,9,12.58,11.29,13.82C326.74,334.8,366,380.45,357.06,412.18Z"/><path id="Body" class="cls-6" d="M586,303.2c-2.35,82.67-42.6,125.66-142.92,128-117.75,2.72-193.33-94.67-180.93-187.33,19.42-145.1,111-33.15,189.29-52.42C534.07,171.09,588.4,219.71,586,303.2Z"/><g id="Dr_ureche" data-name="Dr ureche"><path class="cls-7" d="M425.81,188.79c-38.53,45.1-56.69,58.2-63.52,94.88-.55,2.95-2.8,11.8-9,13.45-9,2.39-31.39-20.92-31.39-20.92-14.94-9.71-15.15-17.38-17.19-50.8C301,164.13,268,99.5,390.69,89.42,427.44,86.4,476.75,129.16,425.81,188.79Z"/><path class="cls-8" d="M391.44,210.45c-29,27.72-45.48,76.82-47.08,76.21-56.79-21.81-31-107.8-17.94-133,18.11-34.94,53.88-42.88,71-39.6C418.81,118.18,444.28,159.91,391.44,210.45Z"/><path class="cls-9" d="M364.65,194.86c-13.12,16.83-23.33,43.8-23.87,43.61-19.46-6.71-2.75-53.68,4.21-67.89,9.64-19.71,23.67-26.79,29.81-26.49C382.46,144.48,388.56,164.16,364.65,194.86Z"/></g><g id="St_ureche" data-name="St ureche"><path class="cls-10" d="M214,124.4c-26.89,56.64-90.31,97.46-99,91.9-14.39-9.17,21.85-62.94,19.5-101.09-3.81-61.62-3.33-103,27.29-108C197.4,1.41,239.32,71.09,214,124.4Z"/><path class="cls-8" d="M187.56,130.51c-15.37,50.66-60.57,87.86-69.4,79.64s27.2-57.16,25.73-90.36c-2.37-53.64-4.26-86.77,14.82-91.13C180.91,23.59,201.78,83.63,187.56,130.51Z"/><path class="cls-9" d="M178.89,117.52c-7.21,28.06-28.44,48.66-32.59,44.11s12.77-31.66,12.08-50c-1.11-29.71-2-48.06,7-50.48C175.77,58.29,185.57,91.55,178.89,117.52Z"/></g><path id="Cap" class="cls-11" d="M308,255.83c-22.75,14.13-50,7.43-71.74,2.24a156,156,0,0,1-29.89-10.46c-26.36,11.92-35.79,9.85-39.6,6-4.9-5,.58-11.83-4.49-23.91-4.06-9.69-11.8-15.31-24.66-24.66a150.88,150.88,0,0,0-17.93-11.2,182.41,182.41,0,0,1-49.32-44.08c-11.59-15-20.81-26.8-25.41-44.83A236.33,236.33,0,0,0,34.47,71.29c-3-7.6-5.92-17.91-12-18.68-3.29-.42-4.93,2.27-9,1.49s-8.37-4.66-9-9c-.86-6.2,6.68-7.69,10.46-17.93,3.3-8.95-.26-13.76,3.74-17.19s11.94-2.34,16.44,1.5c6,5.1,7,16.05.74,25.4A57.67,57.67,0,0,1,50.91,51.11C59.5,63,57.73,70.6,65.11,84.74a81.52,81.52,0,0,0,20.17,24.65,91,91,0,0,0,34.38,17.93c9.38,2.8,14.06,4.2,17.93,3,5.85-1.82,9.34-6.62,26-36.69,4.67-8.41,5-9,5.2-9.44h0L169,84c12.79-20.6,38.11-29.12,38.11-29.12a62.16,62.16,0,0,1,20.18-3.74c6.15-.06,23.29-.22,35.12,9.72,2.85,2.39,6.56,6.36,12.84,7.56,2.5.48,2.53.7,8.21.7a74,74,0,0,1,11.38,2.12c2.12.53,24.38,6.06,34.82,16.57,11.24,11.32,5,22.5,7.48,64.09,1.29,21.75,2.05,52.69,1.49,56.45C336.18,224.82,325.75,244.79,308,255.83Z"/><g id="Ochi_drept" data-name="Ochi drept"><path class="cls-12" d="M278,155.53c-4.45,21.92-16.2,19.24-25.35,17.57s-17.58-4.32-12.72-26.74c4.63-21.34,14.23-25.58,23.31-24.52C272.43,122.92,282.51,133.05,278,155.53Z"/><path class="cls-13" d="M277.85,156.66c-3.75,18.53-15.52,15.9-24.66,14.19s-17.6-4.21-13.45-23.16c3.95-18,13.37-21.35,22.42-20.17C271.37,128.72,281.7,137.65,277.85,156.66Z"/><path class="cls-14" d="M290,164c-4.94.83-9.95-3.21-11.32-9.2a13.21,13.21,0,0,1,.14-6.54,18.4,18.4,0,0,0,2,7.26C283,159.88,286.48,162.94,290,164Z"/><path class="cls-14" d="M296.21,158c-5.44,1.39-12.6-3.54-16.2-11.24a20.67,20.67,0,0,1-2.06-8.5,32.91,32.91,0,0,0,4.79,9.31C286.76,153.05,291.83,156.8,296.21,158Z"/><path class="cls-14" d="M296.91,136.86a11.65,11.65,0,0,1-17.24.71,14.38,14.38,0,0,1-3.88-6.81,17.63,17.63,0,0,0,6.53,5.62A16.56,16.56,0,0,0,296.91,136.86Z"/></g><g id="Ochi_stang" data-name="Ochi stang"><path class="cls-14" d="M179.82,104.35c-1.63,3.68-6.12,5.19-10.18,3.36a9.22,9.22,0,0,1-3.74-3.07,12.17,12.17,0,0,0,5.08,2A10.93,10.93,0,0,0,179.82,104.35Z"/><path class="cls-14" d="M181.08,98.76c-2.71,3-7.44,3-10.73,0a9.22,9.22,0,0,1-2.58-4.09A12.08,12.08,0,0,0,172,98.12,11,11,0,0,0,181.08,98.76Z"/><path class="cls-14" d="M191.17,92.09c-3.33,3.19-9.84,2.61-14.74-1.38a14.38,14.38,0,0,1-4.07-5.18,21.75,21.75,0,0,0,6.22,4.64C183.1,92.46,187.78,93.06,191.17,92.09Z"/><path class="cls-15" d="M199.45,126.72c-8,18.46-16.64,13.32-23.43,9.68s-12.82-8-4.36-26.77c8.05-17.89,16.42-19.41,23.28-16.34S207.68,107.79,199.45,126.72Z"/><path class="cls-13" d="M199.13,127.7c-6.78,15.6-15.41,10.5-22.19,6.84s-12.85-7.88-5.67-23.76C178.1,95.67,186.13,94.93,193,98.1S206.09,111.7,199.13,127.7Z"/></g><g id="Tongue"><path class="cls-16" d="M212.17,217l-1.32,2.45-3.24,5.92c-6,11-20.05,14.81-29.89,14.94-4.73.06-6.71-2.27-7.39-5.87a2.93,2.93,0,0,1-.05-.29c-.78-4.65.44-11.32.71-17.75.49-11.56,6.51-5.36,20.92-7.47C216.09,205.42,219.74,202.85,212.17,217Z"/><path class="cls-8" d="M212.16,217c-.41.77-.85,1.59-1.32,2.45-1,1.76-2,3.73-3.23,5.93-6,11-20,14.83-29.88,15-4.72.07-6.7-2.25-7.4-5.86,0-.1,0-.19,0-.28,0-.41,0-.85,0-1.32,0-9.18,7.48-17,19.41-17.95C203.84,213.86,210,214.26,212.16,217Z"/><ellipse class="cls-17" cx="177.34" cy="229.13" rx="0.75" ry="0.37"/><ellipse class="cls-17" cx="179.58" cy="232.12" rx="0.75" ry="0.37"/><ellipse class="cls-17" cx="182.57" cy="226.14" rx="0.75" ry="0.37"/><ellipse class="cls-17" cx="184.82" cy="229.88" rx="0.75" ry="0.37"/><ellipse class="cls-17" cx="193.78" cy="225.4" rx="0.75" ry="0.37"/><ellipse class="cls-17" cx="186.31" cy="233.61" rx="0.75" ry="0.37"/><ellipse class="cls-17" cx="190.05" cy="228.38" rx="0.75" ry="0.37"/><ellipse class="cls-17" cx="189.3" cy="221.66" rx="0.75" ry="0.37"/><ellipse class="cls-17" cx="179.58" cy="223.15" rx="0.75" ry="0.37"/><ellipse class="cls-17" cx="179.58" cy="236.6" rx="0.75" ry="0.37"/><ellipse class="cls-17" cx="174.35" cy="233.61" rx="0.75" ry="0.37"/><ellipse class="cls-17" cx="197.52" cy="229.13" rx="0.75" ry="0.37"/><ellipse class="cls-17" cx="202" cy="223.9" rx="0.75" ry="0.37"/><ellipse class="cls-17" cx="200.51" cy="219.42" rx="0.75" ry="0.37"/></g><g id="Trompa"><path class="cls-18" d="M36.75,77c.63-.23,7.21,28.26,26.26,58.38a185.83,185.83,0,0,0,35.77,41.74c11,9.49,21.71,18.67,38.85,24.65,15,5.23,28,5.61,41.1,6,9.87.28,18.7.47,29.89-2.24A99.11,99.11,0,0,0,234.78,195a81.65,81.65,0,0,1-21.67,11.2c-11.57,3.91-21.2,4.21-32.88,4.49-7.8.18-18.23.43-29.15-1.5-27.64-4.87-46.26-21.52-59.78-33.62,0,0-19.28-17.25-32.77-40.24a132.07,132.07,0,0,1-9-17.94c-1.65-4.05-2.42-6.54-6-17.93C37.59,80.36,36.54,77.06,36.75,77Z"/><path class="cls-18" d="M157.43,173.34c-.17-12-5.72-25.52-13.33-33.4a72,72,0,0,0-8.58-7.65,40.41,40.41,0,0,1,10.06,6.29C157.09,148.34,161.61,162.64,157.43,173.34Z"/><path class="cls-18" d="M116.24,161c3.37-7.26,4.21-17.65,2.27-25.48a62.63,62.63,0,0,0-2.53-8.09,35.64,35.64,0,0,1,3.75,7.88C123.28,145.81,121.64,156.23,116.24,161Z"/><path class="cls-18" d="M83.18,138.07c3.57-4.28,6.44-11.48,7.16-17.62a60.78,60.78,0,0,0,.44-6.49,34.54,34.54,0,0,1,.29,6.67C90.63,129.15,87.3,136.17,83.18,138.07Z"/><path class="cls-18" d="M54.63,108c6.15-1,11.94-4.49,14.36-8.49a22.66,22.66,0,0,0,2.09-4.42,12.89,12.89,0,0,1-1.07,5C67.47,106,61.06,109.07,54.63,108Z"/><path class="cls-18" d="M44.52,84.86a22.11,22.11,0,0,0,12.24-9.41A29.06,29.06,0,0,0,58.82,71a16.41,16.41,0,0,1-1.28,4.88C55,81.78,49.59,85.32,44.52,84.86Z"/><path class="cls-18" d="M204.57,160.9c-10.34-12.26-29.13-23.6-45.89-28.14a163.19,163.19,0,0,0-17.86-3.87,90.94,90.94,0,0,1,18.68,1.77C183,135.31,201.1,147.93,204.57,160.9Z"/><path class="cls-18" d="M335.66,127.8c-1.34.06,2.39-25.22-12.7-41.1-8.39-8.83-19.64-11.63-26.9-12.7a103.37,103.37,0,0,1-25.41-4.48c-16.44-5.1-20-10.83-31.39-14.2-24.37-7.23-46.75,7.69-47.08,6.73s21.39-14.18,45.59-10.46c6.33,1,12.81,2,20.18,6,7.17,3.91,10.31,8,18.68,10.46a42,42,0,0,0,11.95,1.5c13.27.43,33.74,7.12,43.35,20.92C343,106.34,336.89,127.74,335.66,127.8Z"/></g><path class="cls-19" d="M554.34,501.75a114.41,114.41,0,0,1-35.87-2.25c-14.41-3.27-18.1-6.84-18.69-9.71-1.2-5.86,1.37-12.93,1.5-15.69l-.75-29.88a49.6,49.6,0,0,1-9-36.61,76.86,76.86,0,0,1-15.69-26.15c-2.79-8-10-28.79.75-48.57,6.89-12.68,16.81-19.05,25-22.78,15.7-6.73,70.22,1.81,74.73,11.95,4,9.09,4.48,17.93,3,28.39-1.11,7.78-12.9,55.2-11.58,66.87,1.7,15.14,6.16,31.24,9,59,.43,4.21,1.1,12-3.73,17.94C567.54,501,558.11,501.69,554.34,501.75Z"/><path class="cls-3" d="M564.42,487.35c1,8.64,2.35,10.65-6.11,11.13-15.51.88-17.19,3.27-14.7-13.25,1.45-9.61,4.09-14.14,13.88-12.37C560,473.32,563.41,478.88,564.42,487.35Z"/><path class="cls-3" d="M518.36,480.17c0,7.22.45,13.22-5.23,11.21-11.58-4.11-12.48-1-11.21-14.95.72-7.81,1.5-12.7,10.84-10.46C517,467,518.36,473,518.36,480.17Z"/><path class="cls-4" d="M563.59,488.58c1,7.73,2.31,9.53-6,10-15.21.79-16.85,2.92-14.41-11.86,1.42-8.6,4-12.65,13.61-11.06C559.3,476,562.6,481,563.59,488.58Z"/><path class="cls-3" d="M541.07,486.48c0,7.87,1.75,12.46-5.43,10.83-13-2.94-17.52.5-14.36-14.65,1.87-9,5.58-13.85,13.81-11.65C539.56,472.21,541.07,478.61,541.07,486.48Z"/><path class="cls-4" d="M539.24,488.08c0,7.22,1.65,11.42-5.08,9.93-12.15-2.7-16.4.46-13.45-13.45,1.75-8.27,5.23-12.7,12.93-10.68C537.83,475,539.24,480.85,539.24,488.08Z"/><path class="cls-4" d="M517,482.32c0,7.22.45,13.22-5.23,11.21-11.58-4.11-12.48-1-11.21-14.94.72-7.82,1.5-12.71,10.84-10.46C515.58,469.14,517,475.1,517,482.32Z"/><g id="Coada"><path class="cls-18" d="M591.26,307.76a111.26,111.26,0,0,0,35.58,13.41c4.36.84,2.94,8.83-1.5,8.48a88.48,88.48,0,0,1-12-1.77C556.72,315.51,559.12,288.83,591.26,307.76Z"/><path class="cls-20" d="M669.05,326.42c-3,3.07-7.52,7.6-12.57,9.94-11.31,5.23-29.22,1.23-32.08-6.65-2.12-5.85,3.92-14.24,10.65-18.39,13.35-8.25,22.76,3.17,37.74-4.86,9.46-5.08,11.59-16.58,12.7-15.69,1.37,1.09-1.44,16.05-8.51,26.06A73.82,73.82,0,0,1,669.05,326.42Z"/><path class="cls-16" d="M629.92,333.57a41,41,0,0,0,7.06,2.67c17.71,5.48,35.58-16.67,41.27-23.47.09-.11-15.9,19.79-34,21.6A46.88,46.88,0,0,1,629.92,333.57Z"/><path class="cls-16" d="M625.91,321.05c.92-.82,2.51-2.1,4.46-3.62,11.12-8.68,20.68-8.09,23.74-8,0,0-8.5-.56-19.45,5.82A104,104,0,0,0,625.91,321.05Z"/><path class="cls-16" d="M624.17,325c1.23-1.11,3.38-2.84,6-4.9,15.08-11.73,28.57-10.24,32.87-9.89.07,0-12-1.36-27,7.08A124.19,124.19,0,0,0,624.17,325Z"/><path class="cls-16" d="M626.61,330.22a61.82,61.82,0,0,0,7.82,2.43C653.9,337.73,669.86,319.58,675,314c.09-.1-14.18,16.21-33.13,17.25A64.33,64.33,0,0,1,626.61,330.22Z"/><path class="cls-16" d="M624.53,326.9a68.48,68.48,0,0,1,6-4.93c15.22-11.54,31-9.53,49-11.78,1.89-.23-22.3,1.63-42.35,9.88A71.79,71.79,0,0,0,624.53,326.9Z"/><path class="cls-16" d="M625,327.41a59.9,59.9,0,0,0,7.82,2.44c19.47,5.08,35.43-13.07,40.53-18.64.09-.09-14.17,16.22-33.13,17.26A64.27,64.27,0,0,1,625,327.41Z"/><path class="cls-16" d="M667.56,314.68c-4.09,1.7-8.44,3.36-13,4.93A208,208,0,0,1,626.66,327"/></g><path class="cls-21" d="M388.45,489.88c-7.81,9.76-23.93,8.82-34.38,8.22-4.51-.26-34.18-2-38.85-16.44-2.51-7.75,4.93-10.61,9-29.14,1-4.66,2.44-11.4,1.5-32.12-2.08-45.4-10-54.22-3.5-66,4-7.26,13.6-25.22,40.35-23.91,30.64,1.49,40.57,18.37,44.09,26.9,6.11,14.8-8.58,27.67-14.35,71.82-1.37,10.52-2.47,15.78-2.33,23.34C390.29,470.48,395.47,481.1,388.45,489.88Z"/><path class="cls-3" d="M335.91,480.45c-2.29,8.57-1.11,10.69-7.5,7.49-9.39-4.7-13.84-7.95-8.88-16.29,4.22-7.1,7.32-9.47,13.14-6.73C337.32,467.11,338.2,471.89,335.91,480.45Z"/><path class="cls-4" d="M334.62,481.45c-2.29,8.56-1.11,10.69-7.5,7.49-9.39-4.71-13.84-8-8.88-16.3,4.22-7.1,7.31-9.47,13.14-6.73C336,468.11,336.91,472.88,334.62,481.45Z"/><path class="cls-3" d="M356.76,485c.33,8.44,2.1,10-5,8.94-10.48-1.62-15.85-.13-13.53-9.13,2-7.65,4.37-13.86,10.81-13C354.17,472.41,356.43,476.5,356.76,485Z"/><path class="cls-4" d="M355.48,486.64c.32,8.44,2.09,10-5,8.94-10.47-1.61-15.84-.13-13.52-9.12,2-7.66,4.36-13.87,10.8-13C352.88,474.1,355.15,478.2,355.48,486.64Z"/><path class="cls-3" d="M381.77,483c1.92,7.56,4.09,8.62-3.64,9.18-11.36.83-16.76,3.34-16-5.3.65-7.35,2-13.49,9-14.13C376.68,472.25,379.84,475.46,381.77,483Z"/><path class="cls-4" d="M380.4,485.72c1.71,7.6,3.84,8.72-3.9,9.07-11.38.52-16.85,2.89-15.84-5.72.87-7.34,2.41-13.44,9.38-13.89C375.62,474.81,378.69,478.11,380.4,485.72Z"/><path class="cls-18" d="M494.08,419.18c1,7.42,1.76,13,6,17.93,4.51,5.3,7.11,6,10.46,6.72a15.31,15.31,0,0,1-9-2.24c-8.94-5.24-9.71-15.95-10.46-21.67-.51-3.85.62-17.23,3-25.4C493.08,402.13,493.53,415.06,494.08,419.18Z"/><path class="cls-18" d="M276.22,393.39a36.21,36.21,0,0,0,4.75,5.19,32,32,0,0,0,3.39,2.65c1.8,1.19,6.79,3.88,4.59,3.38a22.58,22.58,0,0,1-6.05-2.42,31,31,0,0,1-11.38-10.89c-7.08-10.69-6.81-28.4-6.39-32.74C265.59,361.65,268.27,383.09,276.22,393.39Z"/><path class="cls-18" d="M447.39,405.38c-4.21.21-7.53-.68-14-2.46-19.66-5.43-27.73-13.29-29.77-11.2-2.48,2.55,6.75,17,18.76,26.95,6.05,5,13,10.62,22.27,10.13,6.12-.33,10.42-3.16,14.6-6C475,412.17,483,393.58,480.6,391.72c-.77-.6-2.1,1-8.22,4.49C466.1,399.79,457.13,404.91,447.39,405.38Z"/><path class="cls-18" d="M546.31,230.2c4.82,5.89,16.93,19.49,19.21,23.33,13.85,23.36,7.74,34,9.82,32.56,1.87-1.26,2.42-18-1.75-33.45a68.8,68.8,0,0,0-28.46-39.51c-18.71-12.74-40.78-16-42.07-14.61C501.63,200,526.89,206.44,546.31,230.2Z"/><path class="cls-18" d="M580.77,340.73c.29.09-.08,2.79-3,14.19-2,9.7-3.79,18.25-5.23,25.41-1,4.83-2,9.77-3,16.43-.9,5.81-1.35,8.71-1.5,11.21-.17,3-.21,7.25,2.25,22.41,1.42,8.81,1.75,9.31,3,17.19,1.17,7.47,2.59,17.87,2.24,17.93s-3.19-12.36-5.23-25.4c-3.09-19.71-5.76-36.78-2.25-57.53a189.55,189.55,0,0,1,6-23.91C576.64,350.28,580.19,340.55,580.77,340.73Z"/><path class="cls-18" d="M328.17,415.91A34.12,34.12,0,0,0,338.86,436c-2.82-1.31-8.83-4.59-12.29-11.18-2.63-5-2.52-9.58-2.37-13.84.18-4.89,1.31-14,7.73-24.66C330.32,390.42,325.79,403.09,328.17,415.91Z"/><path class="cls-18" d="M400.67,391.53c-.27-.08-3.23,8.31-6,17.93a183,183,0,0,0-5.21,21.67c-3.49,22.61,2.89,42.61,3.15,42.59s-.53-4.61-.79-14.2c-.15-5.47-.09-10.08,0-13.45.19-5.65.64-12.18,1.58-19.42,1-7.9,2.27-13.83,3.14-17.93C398.86,398,400.91,391.6,400.67,391.53Z"/><path class="cls-22" d="M178.73,133.28l-7.06-16.73c-5.63-13.35,11.74-20.68,17.38-7.33,13.76-5.81,20.82,10.92,7,16.73Z"/><path class="cls-22" d="M248.72,167.88l-7.09-18.79c-5.65-15,13.86-22.35,19.52-7.35,15.46-5.83,22.55,13,7.08,18.79Z"/></g></svg>